%TF.GenerationSoftware,KiCad,Pcbnew,6.0.11-2627ca5db0~126~ubuntu22.04.1*%
%TF.CreationDate,2023-04-14T13:07:02+07:00*%
%TF.ProjectId,MiSTeX-Pmod,4d695354-6558-42d5-906d-6f642e6b6963,rev?*%
%TF.SameCoordinates,Original*%
%TF.FileFunction,Copper,L4,Bot*%
%TF.FilePolarity,Positive*%
%FSLAX46Y46*%
G04 Gerber Fmt 4.6, Leading zero omitted, Abs format (unit mm)*
G04 Created by KiCad (PCBNEW 6.0.11-2627ca5db0~126~ubuntu22.04.1) date 2023-04-14 13:07:02*
%MOMM*%
%LPD*%
G01*
G04 APERTURE LIST*
%TA.AperFunction,ComponentPad*%
%ADD10C,1.800000*%
%TD*%
%TA.AperFunction,ComponentPad*%
%ADD11C,1.200000*%
%TD*%
%TA.AperFunction,ComponentPad*%
%ADD12C,1.300000*%
%TD*%
%TA.AperFunction,ComponentPad*%
%ADD13C,0.750000*%
%TD*%
%TA.AperFunction,ComponentPad*%
%ADD14O,1.800000X1.200000*%
%TD*%
%TA.AperFunction,ComponentPad*%
%ADD15O,2.000000X1.200000*%
%TD*%
%TA.AperFunction,ComponentPad*%
%ADD16R,1.700000X1.700000*%
%TD*%
%TA.AperFunction,ComponentPad*%
%ADD17O,1.700000X1.700000*%
%TD*%
%TA.AperFunction,ConnectorPad*%
%ADD18C,3.500000*%
%TD*%
%TA.AperFunction,ComponentPad*%
%ADD19C,2.600000*%
%TD*%
%TA.AperFunction,ViaPad*%
%ADD20C,0.450000*%
%TD*%
%TA.AperFunction,ViaPad*%
%ADD21C,0.600000*%
%TD*%
%TA.AperFunction,ViaPad*%
%ADD22C,1.300000*%
%TD*%
%TA.AperFunction,Conductor*%
%ADD23C,0.300000*%
%TD*%
%TA.AperFunction,Conductor*%
%ADD24C,0.250000*%
%TD*%
G04 APERTURE END LIST*
D10*
%TO.P,CN2,*%
%TO.N,*%
X132120100Y-74182400D03*
D11*
X132120100Y-94182400D03*
%TD*%
D12*
%TO.P,J2,*%
%TO.N,*%
X168598600Y-89409400D03*
X168598600Y-94409400D03*
%TD*%
D13*
%TO.P,J5,*%
%TO.N,*%
X172329000Y-113394000D03*
X172329000Y-107594000D03*
D14*
%TO.P,J5,0*%
%TO.N,N/C*%
X176029000Y-106164000D03*
X176029000Y-114824000D03*
D15*
X171829000Y-106164000D03*
X171829000Y-114824000D03*
%TD*%
D16*
%TO.P,J1,1,Pin_1*%
%TO.N,/PC0_UART2_TX*%
X119875300Y-105714800D03*
D17*
%TO.P,J1,2,Pin_2*%
%TO.N,/PC1_UART2_RX*%
X119875300Y-108254800D03*
%TO.P,J1,3,Pin_3*%
%TO.N,/PB0_SCL*%
X119875300Y-110794800D03*
%TO.P,J1,4,Pin_4*%
%TO.N,/PB1_SDA*%
X119875300Y-113334800D03*
%TO.P,J1,5,Pin_5*%
%TO.N,GND*%
X119875300Y-115874800D03*
%TO.P,J1,6,Pin_6*%
%TO.N,unconnected-(J1-Pad6)*%
X119875300Y-118414800D03*
%TO.P,J1,7,Pin_7*%
%TO.N,/PG9_UART1_CTS*%
X117335300Y-105714800D03*
%TO.P,J1,8,Pin_8*%
%TO.N,/PG6_UART1_TX*%
X117335300Y-108254800D03*
%TO.P,J1,9,Pin_9*%
%TO.N,/PG7_UART1_RX*%
X117335300Y-110794800D03*
%TO.P,J1,10,Pin_10*%
%TO.N,/PG8_UART1_RTS*%
X117335300Y-113334800D03*
%TO.P,J1,11,Pin_11*%
%TO.N,GND*%
X117335300Y-115874800D03*
%TO.P,J1,12,Pin_12*%
%TO.N,unconnected-(J1-Pad12)*%
X117335300Y-118414800D03*
%TD*%
D16*
%TO.P,J3,1,Pin_1*%
%TO.N,GND*%
X173021100Y-75327400D03*
D17*
%TO.P,J3,2,Pin_2*%
%TO.N,/PB9_UART0_RX*%
X173021100Y-77867400D03*
%TO.P,J3,3,Pin_3*%
%TO.N,/PB8_UART0_TX*%
X173021100Y-80407400D03*
%TD*%
D16*
%TO.P,J4,1,Pin_1*%
%TO.N,Net-(J4-Pad1)*%
X119875300Y-82854800D03*
D17*
%TO.P,J4,2,Pin_2*%
%TO.N,Net-(J4-Pad2)*%
X119875300Y-85394800D03*
%TO.P,J4,3,Pin_3*%
%TO.N,Net-(J4-Pad3)*%
X119875300Y-87934800D03*
%TO.P,J4,4,Pin_4*%
%TO.N,Net-(J4-Pad4)*%
X119875300Y-90474800D03*
%TO.P,J4,5,Pin_5*%
%TO.N,GND*%
X119875300Y-93014800D03*
%TO.P,J4,6,Pin_6*%
%TO.N,unconnected-(J4-Pad6)*%
X119875300Y-95554800D03*
%TO.P,J4,7,Pin_7*%
%TO.N,/PD6_CORE_RESET*%
X117335300Y-82854800D03*
%TO.P,J4,8,Pin_8*%
%TO.N,/PD7_FPGA_EN*%
X117335300Y-85394800D03*
%TO.P,J4,9,Pin_9*%
%TO.N,/PD8_OSD_EN*%
X117335300Y-87934800D03*
%TO.P,J4,10,Pin_10*%
%TO.N,/PD9_IO_EN*%
X117335300Y-90474800D03*
%TO.P,J4,11,Pin_11*%
%TO.N,GND*%
X117335300Y-93014800D03*
%TO.P,J4,12,Pin_12*%
%TO.N,unconnected-(J4-Pad12)*%
X117335300Y-95554800D03*
%TD*%
D10*
%TO.P,CN1,*%
%TO.N,*%
X132120100Y-98332400D03*
D11*
X132120100Y-118332400D03*
%TD*%
D18*
%TO.P,H1,1,1*%
%TO.N,GND*%
X154820100Y-96322400D03*
D19*
X154820100Y-96322400D03*
%TD*%
D20*
%TO.N,GND*%
X137325100Y-95382400D03*
X133582600Y-95382400D03*
X122270100Y-103332400D03*
X124620100Y-97882400D03*
X140855700Y-97332400D03*
X150184427Y-90860800D03*
X155656972Y-90860800D03*
X124620100Y-106432400D03*
X163106100Y-92735400D03*
D21*
X161096100Y-95809400D03*
D20*
X148180136Y-92710000D03*
X124879100Y-74447400D03*
X155712388Y-92710000D03*
X125220100Y-95282400D03*
D21*
X135870100Y-87182400D03*
X135870100Y-88682400D03*
D20*
X134782600Y-97332400D03*
D21*
X162996100Y-98059400D03*
D20*
X124879100Y-83337400D03*
X132370100Y-95382400D03*
X124070100Y-98732400D03*
X156788424Y-92710000D03*
X124752100Y-108864400D03*
X143154758Y-95883000D03*
X122770100Y-107182400D03*
D22*
X130020100Y-98032400D03*
D20*
X124070100Y-100469900D03*
X161964100Y-92735400D03*
X144767300Y-91592400D03*
X158940500Y-90860800D03*
X122270100Y-99232400D03*
X124070100Y-103076150D03*
X125320100Y-97132400D03*
X144454758Y-94483000D03*
X156751481Y-90860800D03*
X145854758Y-93033000D03*
X124070100Y-101338650D03*
X158940500Y-92710000D03*
X137362600Y-97332400D03*
X124070100Y-99601150D03*
X147104100Y-92710000D03*
D22*
X162687000Y-88359400D03*
D21*
X135870100Y-81182400D03*
D20*
X124070100Y-105682400D03*
X153467954Y-90860800D03*
X124879100Y-84607400D03*
D21*
X128520100Y-100582400D03*
D20*
X124879100Y-82067400D03*
X141904758Y-97183000D03*
X150332208Y-92710000D03*
X124879100Y-75717400D03*
X124070100Y-104813650D03*
D21*
X132870100Y-116332400D03*
X161293400Y-113507800D03*
X135870100Y-82682400D03*
D22*
X130170100Y-94532400D03*
D20*
X134745100Y-95382400D03*
X128420100Y-84632400D03*
D21*
X169802500Y-113846800D03*
D20*
X124070100Y-102207400D03*
D21*
X161096100Y-87859400D03*
D20*
X149256172Y-92710000D03*
X138976100Y-97352400D03*
X143254758Y-92983000D03*
X122270100Y-98207400D03*
X143954758Y-92283000D03*
X124244100Y-95707200D03*
D21*
X128520100Y-102082400D03*
D20*
X157845990Y-90860800D03*
X142654758Y-93683000D03*
X122270100Y-104357400D03*
X122270100Y-101282400D03*
X149089918Y-90860800D03*
X152373445Y-90860800D03*
X141211300Y-95199200D03*
D21*
X128520100Y-105082400D03*
D22*
X130020100Y-73832400D03*
D20*
X143754758Y-95183000D03*
D21*
X135870100Y-84182400D03*
X132575300Y-103832400D03*
D20*
X142504758Y-96583000D03*
X145630900Y-90881200D03*
X154636352Y-92710000D03*
X147995409Y-90860800D03*
X122270100Y-106407400D03*
X133620100Y-97332400D03*
X157864460Y-92710000D03*
X131207600Y-95382400D03*
X153560316Y-92710000D03*
D21*
X128520100Y-103582400D03*
D20*
X152484280Y-92710000D03*
D22*
X130170100Y-118682400D03*
D20*
X122270100Y-105382400D03*
X151278936Y-90860800D03*
X129527300Y-97028000D03*
X124879100Y-80797400D03*
X124879100Y-79527400D03*
X123736100Y-108102400D03*
D21*
X135870100Y-85682400D03*
D20*
X135945100Y-97332400D03*
X138976100Y-95402400D03*
X130949700Y-97129600D03*
X129527300Y-95504000D03*
X142004758Y-94383000D03*
X125420100Y-106832400D03*
X123532900Y-96469200D03*
D21*
X169675500Y-107115800D03*
D20*
X146900900Y-90860800D03*
D21*
X173971100Y-82227400D03*
D20*
X124879100Y-76987400D03*
X124879100Y-78257400D03*
X139992100Y-95402400D03*
D21*
X159293400Y-120107800D03*
D20*
X122270100Y-100257400D03*
X124070100Y-103944900D03*
X162218100Y-90957400D03*
X154562463Y-90860800D03*
X139941300Y-97332400D03*
X145154758Y-93783000D03*
X151408244Y-92710000D03*
X122270100Y-102307400D03*
X122720100Y-97231200D03*
X162976100Y-90957400D03*
X135907600Y-95382400D03*
D21*
%TO.N,/RESET*%
X143802100Y-115341400D03*
X152311100Y-115341400D03*
%TO.N,/PD9_IO_EN*%
X131948530Y-88172605D03*
%TO.N,/PD8_OSD_EN*%
X132070100Y-87382400D03*
%TO.N,/PD7_FPGA_EN*%
X132128511Y-86573989D03*
%TO.N,/PD6_CORE_RESET*%
X132170100Y-85732400D03*
%TO.N,/PC0_UART2_TX*%
X138112500Y-93522800D03*
%TO.N,/PC1_UART2_RX*%
X136537700Y-101701600D03*
X136537700Y-105410000D03*
X136486900Y-94488000D03*
%TO.N,Net-(J4-Pad4)*%
X122567700Y-87020400D03*
%TO.N,/PB0_SCL*%
X118579900Y-102539800D03*
%TO.N,/PB1_SDA*%
X116268500Y-102514400D03*
%TO.N,/PB8_UART0_TX*%
X131356100Y-80416400D03*
%TO.N,/PB9_UART0_RX*%
X131356100Y-77876400D03*
%TD*%
D23*
%TO.N,/RESET*%
X143802100Y-115341400D02*
X152311100Y-115341400D01*
D24*
%TO.N,/PD9_IO_EN*%
X119011700Y-94284800D02*
X118605300Y-93878400D01*
X117335300Y-90779600D02*
X117335300Y-90474800D01*
X118605300Y-93878400D02*
X118605300Y-92049600D01*
X118605300Y-92049600D02*
X117335300Y-90779600D01*
X127680629Y-88172605D02*
X124108434Y-91744800D01*
X124108434Y-91744800D02*
X124091700Y-91744800D01*
X131948530Y-88172605D02*
X127680629Y-88172605D01*
X124091700Y-91744800D02*
X121551700Y-94284800D01*
X121551700Y-94284800D02*
X119011700Y-94284800D01*
%TO.N,/PD8_OSD_EN*%
X118605300Y-89204800D02*
X117335300Y-87934800D01*
X132070100Y-87382400D02*
X127742900Y-87382400D01*
X123380500Y-91744800D02*
X119062500Y-91744800D01*
X119062500Y-91744800D02*
X118605300Y-91287600D01*
X127742900Y-87382400D02*
X123380500Y-91744800D01*
X118605300Y-91287600D02*
X118605300Y-89204800D01*
%TO.N,/PD7_FPGA_EN*%
X132128511Y-86573989D02*
X129577722Y-84023200D01*
X121551700Y-84023200D02*
X121399300Y-84175600D01*
X118554500Y-84175600D02*
X117335300Y-85394800D01*
X129577722Y-84023200D02*
X121551700Y-84023200D01*
X121399300Y-84175600D02*
X118554500Y-84175600D01*
%TO.N,/PD6_CORE_RESET*%
X127951500Y-81513800D02*
X118676300Y-81513800D01*
X132170100Y-85732400D02*
X127951500Y-81513800D01*
X118676300Y-81513800D02*
X117335300Y-82854800D01*
D23*
%TO.N,/PC0_UART2_TX*%
X138087100Y-102006400D02*
X130086100Y-109778800D01*
X123939300Y-109778800D02*
X119875300Y-105714800D01*
X138087100Y-93548200D02*
X138112500Y-93522800D01*
X138087100Y-102006400D02*
X138087100Y-93548200D01*
X130086100Y-109778800D02*
X123939300Y-109778800D01*
%TO.N,/PC1_UART2_RX*%
X136537700Y-105410000D02*
X131051300Y-110896400D01*
X122516900Y-110896400D02*
X119875300Y-108254800D01*
X136537700Y-94538800D02*
X136486900Y-94488000D01*
X131051300Y-110896400D02*
X122516900Y-110896400D01*
X136537700Y-101701600D02*
X136537700Y-94538800D01*
D24*
%TO.N,Net-(J4-Pad4)*%
X122567700Y-87782400D02*
X119875300Y-90474800D01*
X122567700Y-87020400D02*
X122567700Y-87782400D01*
D23*
%TO.N,/PB0_SCL*%
X118579900Y-109499400D02*
X119875300Y-110794800D01*
X118579900Y-102539800D02*
X118579900Y-109499400D01*
%TO.N,/PB1_SDA*%
X115709700Y-103073200D02*
X115709700Y-111810800D01*
X115709700Y-111810800D02*
X115963700Y-112064800D01*
X116268500Y-102514400D02*
X115709700Y-103073200D01*
X118605300Y-112064800D02*
X119875300Y-113334800D01*
X115963700Y-112064800D02*
X118605300Y-112064800D01*
%TO.N,/PB8_UART0_TX*%
X131365100Y-80407400D02*
X173021100Y-80407400D01*
X131356100Y-80416400D02*
X131365100Y-80407400D01*
%TO.N,/PB9_UART0_RX*%
X131365100Y-77867400D02*
X173021100Y-77867400D01*
X131356100Y-77876400D02*
X131365100Y-77867400D01*
%TD*%
%TA.AperFunction,Conductor*%
%TO.N,GND*%
G36*
X177580185Y-70791394D02*
G01*
X177607623Y-70794431D01*
X177663714Y-70806973D01*
X177689245Y-70812682D01*
X177690489Y-70812966D01*
X177782349Y-70834486D01*
X177800213Y-70840101D01*
X177827699Y-70851044D01*
X177889047Y-70875469D01*
X177892511Y-70876909D01*
X177976272Y-70913183D01*
X177990739Y-70920591D01*
X178073664Y-70970052D01*
X178078947Y-70973384D01*
X178154068Y-71023407D01*
X178165087Y-71031646D01*
X178239405Y-71093828D01*
X178245913Y-71099669D01*
X178310701Y-71162022D01*
X178318448Y-71170175D01*
X178382052Y-71243405D01*
X178389048Y-71252228D01*
X178429506Y-71308212D01*
X178441702Y-71325089D01*
X178446583Y-71332362D01*
X178497745Y-71414652D01*
X178504360Y-71426714D01*
X178543373Y-71508100D01*
X178545930Y-71513792D01*
X178583297Y-71602835D01*
X178588607Y-71618196D01*
X178612802Y-71706227D01*
X178613730Y-71709814D01*
X178636310Y-71802721D01*
X178639370Y-71821221D01*
X178648010Y-71917546D01*
X178648111Y-71918739D01*
X178651649Y-71963128D01*
X178655227Y-72008033D01*
X178655625Y-72018329D01*
X178546027Y-119297574D01*
X178542574Y-120787024D01*
X178542291Y-120795165D01*
X178534788Y-120907021D01*
X178534712Y-120908094D01*
X178529285Y-120979826D01*
X178526616Y-120997773D01*
X178504310Y-121097682D01*
X178503600Y-121100684D01*
X178484672Y-121176354D01*
X178483771Y-121179957D01*
X178478903Y-121195218D01*
X178442325Y-121288874D01*
X178440276Y-121293811D01*
X178406707Y-121370051D01*
X178400418Y-121382433D01*
X178350354Y-121468859D01*
X178346416Y-121475216D01*
X178300138Y-121545178D01*
X178293213Y-121554654D01*
X178230749Y-121632261D01*
X178224450Y-121639502D01*
X178177810Y-121689162D01*
X178166910Y-121700768D01*
X178160078Y-121707508D01*
X178110349Y-121752952D01*
X178086541Y-121774708D01*
X178077507Y-121782221D01*
X178010582Y-121832793D01*
X178004481Y-121837125D01*
X177921363Y-121892502D01*
X177909401Y-121899552D01*
X177835426Y-121937826D01*
X177830634Y-121940178D01*
X177739431Y-121982563D01*
X177724508Y-121988375D01*
X177675619Y-122003917D01*
X177646720Y-122013104D01*
X177643654Y-122014036D01*
X177545368Y-122042549D01*
X177527648Y-122046332D01*
X177455573Y-122056353D01*
X177454825Y-122056454D01*
X177348320Y-122070342D01*
X177332030Y-122071400D01*
X115675055Y-122071400D01*
X115665169Y-122071012D01*
X115556737Y-122062478D01*
X115555870Y-122062406D01*
X115487606Y-122056434D01*
X115469189Y-122053434D01*
X115372625Y-122030251D01*
X115369429Y-122029439D01*
X115350721Y-122024426D01*
X115293941Y-122009212D01*
X115278361Y-122003924D01*
X115188356Y-121966643D01*
X115183365Y-121964446D01*
X115110884Y-121930647D01*
X115098301Y-121923886D01*
X115015882Y-121873380D01*
X115009454Y-121869165D01*
X114943454Y-121822951D01*
X114933907Y-121815561D01*
X114860601Y-121752951D01*
X114853338Y-121746236D01*
X114796264Y-121689162D01*
X114789548Y-121681898D01*
X114747147Y-121632253D01*
X114726939Y-121608593D01*
X114719549Y-121599046D01*
X114673335Y-121533046D01*
X114669120Y-121526618D01*
X114618614Y-121444199D01*
X114611853Y-121431616D01*
X114578054Y-121359135D01*
X114575857Y-121354144D01*
X114538576Y-121264139D01*
X114533288Y-121248559D01*
X114513061Y-121173071D01*
X114512249Y-121169875D01*
X114489066Y-121073311D01*
X114486066Y-121054894D01*
X114480094Y-120986630D01*
X114480022Y-120985763D01*
X114471488Y-120877331D01*
X114471100Y-120867445D01*
X114471100Y-119582596D01*
X114472269Y-119017480D01*
X114478217Y-116142766D01*
X116003557Y-116142766D01*
X116033865Y-116277246D01*
X116036945Y-116287075D01*
X116117070Y-116484403D01*
X116121713Y-116493594D01*
X116232994Y-116675188D01*
X116239077Y-116683499D01*
X116378513Y-116844467D01*
X116385880Y-116851683D01*
X116549734Y-116987716D01*
X116558181Y-116993631D01*
X116742056Y-117101079D01*
X116751342Y-117105529D01*
X116950301Y-117181503D01*
X116960210Y-117184382D01*
X116977722Y-117187945D01*
X117040488Y-117221126D01*
X117075350Y-117282974D01*
X117071241Y-117353851D01*
X117029464Y-117411256D01*
X116988183Y-117432286D01*
X116943636Y-117445397D01*
X116762803Y-117539934D01*
X116758003Y-117543794D01*
X116758002Y-117543794D01*
X116720746Y-117573749D01*
X116603777Y-117667794D01*
X116472615Y-117824107D01*
X116469651Y-117829499D01*
X116469648Y-117829503D01*
X116417084Y-117925117D01*
X116374312Y-118002920D01*
X116312612Y-118197421D01*
X116289867Y-118400202D01*
X116291093Y-118414800D01*
X116302928Y-118555733D01*
X116306942Y-118603539D01*
X116363186Y-118799687D01*
X116456458Y-118981175D01*
X116583205Y-119141090D01*
X116738599Y-119273340D01*
X116743977Y-119276346D01*
X116743979Y-119276347D01*
X116786931Y-119300352D01*
X116916721Y-119372889D01*
X117110787Y-119435945D01*
X117313404Y-119460106D01*
X117319539Y-119459634D01*
X117319541Y-119459634D01*
X117510713Y-119444924D01*
X117510717Y-119444923D01*
X117516855Y-119444451D01*
X117713391Y-119389577D01*
X117895526Y-119297574D01*
X117922696Y-119276347D01*
X118051465Y-119175741D01*
X118056321Y-119171947D01*
X118060347Y-119167283D01*
X118185625Y-119022148D01*
X118185626Y-119022146D01*
X118189654Y-119017480D01*
X118290444Y-118840057D01*
X118354853Y-118646437D01*
X118380427Y-118443993D01*
X118380835Y-118414800D01*
X118360923Y-118211721D01*
X118301945Y-118016378D01*
X118206148Y-117836210D01*
X118202250Y-117831431D01*
X118202247Y-117831426D01*
X118109799Y-117718074D01*
X118077181Y-117678080D01*
X117980067Y-117597740D01*
X117924705Y-117551940D01*
X117924700Y-117551937D01*
X117919956Y-117548012D01*
X117914537Y-117545082D01*
X117914534Y-117545080D01*
X117745881Y-117453890D01*
X117745876Y-117453888D01*
X117740461Y-117450960D01*
X117676310Y-117431102D01*
X117617151Y-117391850D01*
X117588604Y-117326846D01*
X117599733Y-117256727D01*
X117647004Y-117203756D01*
X117677363Y-117190051D01*
X117827552Y-117144992D01*
X117837142Y-117141233D01*
X118028395Y-117047539D01*
X118037245Y-117042264D01*
X118210628Y-116918592D01*
X118218500Y-116911939D01*
X118369352Y-116761612D01*
X118376030Y-116753765D01*
X118503322Y-116576619D01*
X118504447Y-116577427D01*
X118551969Y-116533676D01*
X118621907Y-116521461D01*
X118687346Y-116548997D01*
X118715170Y-116580828D01*
X118772990Y-116675183D01*
X118779077Y-116683499D01*
X118918513Y-116844467D01*
X118925880Y-116851683D01*
X119089734Y-116987716D01*
X119098181Y-116993631D01*
X119282056Y-117101079D01*
X119291342Y-117105529D01*
X119490301Y-117181503D01*
X119500210Y-117184382D01*
X119517722Y-117187945D01*
X119580488Y-117221126D01*
X119615350Y-117282974D01*
X119611241Y-117353851D01*
X119569464Y-117411256D01*
X119528183Y-117432286D01*
X119483636Y-117445397D01*
X119302803Y-117539934D01*
X119298003Y-117543794D01*
X119298002Y-117543794D01*
X119260746Y-117573749D01*
X119143777Y-117667794D01*
X119012615Y-117824107D01*
X119009651Y-117829499D01*
X119009648Y-117829503D01*
X118957084Y-117925117D01*
X118914312Y-118002920D01*
X118852612Y-118197421D01*
X118829867Y-118400202D01*
X118831093Y-118414800D01*
X118842928Y-118555733D01*
X118846942Y-118603539D01*
X118903186Y-118799687D01*
X118996458Y-118981175D01*
X119123205Y-119141090D01*
X119278599Y-119273340D01*
X119283977Y-119276346D01*
X119283979Y-119276347D01*
X119326931Y-119300352D01*
X119456721Y-119372889D01*
X119650787Y-119435945D01*
X119853404Y-119460106D01*
X119859539Y-119459634D01*
X119859541Y-119459634D01*
X120050713Y-119444924D01*
X120050717Y-119444923D01*
X120056855Y-119444451D01*
X120253391Y-119389577D01*
X120435526Y-119297574D01*
X120462696Y-119276347D01*
X120591465Y-119175741D01*
X120596321Y-119171947D01*
X120600347Y-119167283D01*
X120725625Y-119022148D01*
X120725626Y-119022146D01*
X120729654Y-119017480D01*
X120830444Y-118840057D01*
X120894853Y-118646437D01*
X120920427Y-118443993D01*
X120920835Y-118414800D01*
X120908073Y-118284644D01*
X131265919Y-118284644D01*
X131266276Y-118291461D01*
X131266276Y-118291465D01*
X131271654Y-118394077D01*
X131275590Y-118469181D01*
X131277401Y-118475754D01*
X131277401Y-118475757D01*
X131312598Y-118603539D01*
X131324662Y-118647336D01*
X131410846Y-118810798D01*
X131530120Y-118951940D01*
X131535544Y-118956087D01*
X131535545Y-118956088D01*
X131671499Y-119060033D01*
X131671503Y-119060036D01*
X131676920Y-119064177D01*
X131683100Y-119067059D01*
X131683102Y-119067060D01*
X131838220Y-119139393D01*
X131838223Y-119139394D01*
X131844397Y-119142273D01*
X131851042Y-119143758D01*
X131851047Y-119143760D01*
X131956287Y-119167283D01*
X132024737Y-119182583D01*
X132030407Y-119182900D01*
X132166264Y-119182900D01*
X132303809Y-119167958D01*
X132478948Y-119109017D01*
X132637344Y-119013843D01*
X132666784Y-118986003D01*
X132766649Y-118891565D01*
X132766651Y-118891563D01*
X132771607Y-118886876D01*
X132875475Y-118734040D01*
X132907739Y-118653375D01*
X132941566Y-118568802D01*
X132941567Y-118568797D01*
X132944100Y-118562465D01*
X132969126Y-118411294D01*
X132973166Y-118386894D01*
X132973166Y-118386890D01*
X132974281Y-118380156D01*
X132968923Y-118277906D01*
X132964967Y-118202432D01*
X132964610Y-118195619D01*
X132938916Y-118102335D01*
X132917351Y-118024046D01*
X132915538Y-118017464D01*
X132829354Y-117854002D01*
X132710080Y-117712860D01*
X132659456Y-117674155D01*
X132568701Y-117604767D01*
X132568697Y-117604764D01*
X132563280Y-117600623D01*
X132557100Y-117597741D01*
X132557098Y-117597740D01*
X132401980Y-117525407D01*
X132401977Y-117525406D01*
X132395803Y-117522527D01*
X132389158Y-117521042D01*
X132389153Y-117521040D01*
X132249229Y-117489765D01*
X132215463Y-117482217D01*
X132209793Y-117481900D01*
X132073936Y-117481900D01*
X131936391Y-117496842D01*
X131761252Y-117555783D01*
X131602856Y-117650957D01*
X131597896Y-117655648D01*
X131597894Y-117655649D01*
X131537396Y-117712860D01*
X131468593Y-117777924D01*
X131364725Y-117930760D01*
X131362192Y-117937094D01*
X131362190Y-117937097D01*
X131298634Y-118095998D01*
X131298633Y-118096003D01*
X131296100Y-118102335D01*
X131265919Y-118284644D01*
X120908073Y-118284644D01*
X120900923Y-118211721D01*
X120841945Y-118016378D01*
X120746148Y-117836210D01*
X120742250Y-117831431D01*
X120742247Y-117831426D01*
X120649799Y-117718074D01*
X120617181Y-117678080D01*
X120520067Y-117597740D01*
X120464705Y-117551940D01*
X120464700Y-117551937D01*
X120459956Y-117548012D01*
X120454537Y-117545082D01*
X120454534Y-117545080D01*
X120285881Y-117453890D01*
X120285876Y-117453888D01*
X120280461Y-117450960D01*
X120216310Y-117431102D01*
X120157151Y-117391850D01*
X120128604Y-117326846D01*
X120139733Y-117256727D01*
X120187004Y-117203756D01*
X120217363Y-117190051D01*
X120367552Y-117144992D01*
X120377142Y-117141233D01*
X120568395Y-117047539D01*
X120577245Y-117042264D01*
X120750628Y-116918592D01*
X120758500Y-116911939D01*
X120909352Y-116761612D01*
X120916030Y-116753765D01*
X121040303Y-116580820D01*
X121045613Y-116571983D01*
X121139970Y-116381067D01*
X121143769Y-116371472D01*
X121205677Y-116167710D01*
X121207855Y-116157637D01*
X121209286Y-116146762D01*
X121207075Y-116132578D01*
X121193917Y-116128800D01*
X116018525Y-116128800D01*
X116004994Y-116132773D01*
X116003557Y-116142766D01*
X114478217Y-116142766D01*
X114487118Y-111840934D01*
X115365263Y-111840934D01*
X115375532Y-111879260D01*
X115377907Y-111889975D01*
X115384798Y-111929054D01*
X115390312Y-111938603D01*
X115391733Y-111942508D01*
X115393487Y-111946270D01*
X115396341Y-111956922D01*
X115402664Y-111965952D01*
X115402665Y-111965954D01*
X115419100Y-111989425D01*
X115425006Y-111998696D01*
X115439325Y-112023498D01*
X115439327Y-112023500D01*
X115444838Y-112033046D01*
X115453285Y-112040134D01*
X115475230Y-112058548D01*
X115483334Y-112065974D01*
X115708521Y-112291161D01*
X115715948Y-112299265D01*
X115741454Y-112329662D01*
X115750997Y-112335172D01*
X115751001Y-112335175D01*
X115775817Y-112349502D01*
X115785083Y-112355406D01*
X115817578Y-112378158D01*
X115828227Y-112381011D01*
X115832004Y-112382773D01*
X115835900Y-112384191D01*
X115845446Y-112389702D01*
X115884530Y-112396593D01*
X115895248Y-112398969D01*
X115933566Y-112409237D01*
X115973093Y-112405779D01*
X115984074Y-112405300D01*
X116486700Y-112405300D01*
X116554821Y-112425302D01*
X116601314Y-112478958D01*
X116611418Y-112549232D01*
X116583222Y-112612290D01*
X116472615Y-112744107D01*
X116469651Y-112749499D01*
X116469648Y-112749503D01*
X116449445Y-112786253D01*
X116374312Y-112922920D01*
X116372451Y-112928787D01*
X116372450Y-112928789D01*
X116371769Y-112930936D01*
X116312612Y-113117421D01*
X116289867Y-113320202D01*
X116291093Y-113334800D01*
X116305985Y-113512138D01*
X116306942Y-113523539D01*
X116308641Y-113529464D01*
X116325663Y-113588826D01*
X116363186Y-113719687D01*
X116456458Y-113901175D01*
X116583205Y-114061090D01*
X116738599Y-114193340D01*
X116743977Y-114196346D01*
X116743979Y-114196347D01*
X116786931Y-114220352D01*
X116916721Y-114292889D01*
X116993871Y-114317957D01*
X117052476Y-114358029D01*
X117080113Y-114423426D01*
X117068006Y-114493383D01*
X117020000Y-114545689D01*
X116994079Y-114557554D01*
X116812168Y-114617012D01*
X116802659Y-114621009D01*
X116613763Y-114719342D01*
X116605038Y-114724836D01*
X116434733Y-114852705D01*
X116427026Y-114859548D01*
X116279890Y-115013517D01*
X116273404Y-115021527D01*
X116153398Y-115197449D01*
X116148300Y-115206423D01*
X116058638Y-115399583D01*
X116055075Y-115409270D01*
X115999689Y-115608983D01*
X116001212Y-115617407D01*
X116013592Y-115620800D01*
X121193644Y-115620800D01*
X121207175Y-115616827D01*
X121208480Y-115607747D01*
X121166514Y-115440675D01*
X121163194Y-115430924D01*
X121121636Y-115335346D01*
X143306593Y-115335346D01*
X143307757Y-115344248D01*
X143307757Y-115344251D01*
X143321250Y-115447430D01*
X143324811Y-115474662D01*
X143381397Y-115603264D01*
X143387174Y-115610137D01*
X143387175Y-115610138D01*
X143448281Y-115682832D01*
X143471804Y-115710816D01*
X143588763Y-115788671D01*
X143722872Y-115830569D01*
X143731842Y-115830733D01*
X143731846Y-115830734D01*
X143796644Y-115831921D01*
X143863350Y-115833144D01*
X143920724Y-115817502D01*
X143990245Y-115798549D01*
X143990247Y-115798548D01*
X143998904Y-115796188D01*
X144118638Y-115722671D01*
X144124666Y-115716012D01*
X144130754Y-115710957D01*
X144195943Y-115682832D01*
X144211241Y-115681900D01*
X151902258Y-115681900D01*
X151970379Y-115701902D01*
X151978513Y-115708091D01*
X151980804Y-115710816D01*
X152097763Y-115788671D01*
X152231872Y-115830569D01*
X152240842Y-115830733D01*
X152240846Y-115830734D01*
X152305644Y-115831921D01*
X152372350Y-115833144D01*
X152429724Y-115817502D01*
X152499245Y-115798549D01*
X152499247Y-115798548D01*
X152507904Y-115796188D01*
X152627638Y-115722671D01*
X152721925Y-115618505D01*
X152761637Y-115536540D01*
X152779272Y-115500141D01*
X152779272Y-115500140D01*
X152783186Y-115492062D01*
X152806496Y-115353507D01*
X152806644Y-115341400D01*
X152786726Y-115202317D01*
X152728572Y-115074415D01*
X152636858Y-114967976D01*
X152629327Y-114963095D01*
X152629324Y-114963092D01*
X152526488Y-114896437D01*
X152526486Y-114896436D01*
X152518957Y-114891556D01*
X152510360Y-114888985D01*
X152510358Y-114888984D01*
X152411929Y-114859548D01*
X152384346Y-114851299D01*
X152375370Y-114851244D01*
X152375369Y-114851244D01*
X152316115Y-114850882D01*
X152243847Y-114850441D01*
X152108754Y-114889051D01*
X151989928Y-114964024D01*
X151983986Y-114970752D01*
X151983865Y-114970855D01*
X151919025Y-114999772D01*
X151902203Y-115000900D01*
X144210899Y-115000900D01*
X144142778Y-114980898D01*
X144132045Y-114972835D01*
X144127858Y-114967976D01*
X144114371Y-114959234D01*
X144017488Y-114896437D01*
X144017486Y-114896436D01*
X144009957Y-114891556D01*
X144001360Y-114888985D01*
X144001358Y-114888984D01*
X143902929Y-114859548D01*
X143875346Y-114851299D01*
X143866370Y-114851244D01*
X143866369Y-114851244D01*
X143807115Y-114850882D01*
X143734847Y-114850441D01*
X143599754Y-114889051D01*
X143480928Y-114964024D01*
X143474986Y-114970752D01*
X143474985Y-114970753D01*
X143434424Y-115016680D01*
X143387921Y-115069335D01*
X143328209Y-115196517D01*
X143326829Y-115205381D01*
X143326828Y-115205384D01*
X143308599Y-115322465D01*
X143306593Y-115335346D01*
X121121636Y-115335346D01*
X121078272Y-115235614D01*
X121073405Y-115226539D01*
X120957726Y-115047726D01*
X120951436Y-115039557D01*
X120808106Y-114882040D01*
X120800573Y-114875015D01*
X120728943Y-114818446D01*
X170633517Y-114818446D01*
X170634253Y-114825449D01*
X170634253Y-114825450D01*
X170650592Y-114980898D01*
X170652055Y-114994822D01*
X170709208Y-115162708D01*
X170712898Y-115168706D01*
X170712899Y-115168708D01*
X170754060Y-115235614D01*
X170802136Y-115313760D01*
X170807063Y-115318791D01*
X170807065Y-115318794D01*
X170864177Y-115377115D01*
X170926219Y-115440470D01*
X171075292Y-115536540D01*
X171081912Y-115538950D01*
X171081913Y-115538950D01*
X171235327Y-115594789D01*
X171235330Y-115594790D01*
X171241944Y-115597197D01*
X171289971Y-115603264D01*
X171374987Y-115614004D01*
X171374990Y-115614004D01*
X171378915Y-115614500D01*
X172273593Y-115614500D01*
X172373763Y-115603264D01*
X172398245Y-115600518D01*
X172398246Y-115600518D01*
X172405242Y-115599733D01*
X172411888Y-115597419D01*
X172411891Y-115597418D01*
X172566078Y-115543725D01*
X172566080Y-115543724D01*
X172572725Y-115541410D01*
X172586626Y-115532724D01*
X172717150Y-115451163D01*
X172723124Y-115447430D01*
X172729927Y-115440675D01*
X172843967Y-115327428D01*
X172848965Y-115322465D01*
X172928434Y-115197241D01*
X172940221Y-115178668D01*
X172940223Y-115178665D01*
X172943992Y-115172725D01*
X172976090Y-115082585D01*
X173001122Y-115012288D01*
X173001123Y-115012286D01*
X173003484Y-115005654D01*
X173005611Y-114987822D01*
X173023649Y-114836547D01*
X173024483Y-114829554D01*
X173023747Y-114822550D01*
X173023316Y-114818446D01*
X174933517Y-114818446D01*
X174934253Y-114825449D01*
X174934253Y-114825450D01*
X174950592Y-114980898D01*
X174952055Y-114994822D01*
X175009208Y-115162708D01*
X175012898Y-115168706D01*
X175012899Y-115168708D01*
X175054060Y-115235614D01*
X175102136Y-115313760D01*
X175107063Y-115318791D01*
X175107065Y-115318794D01*
X175164177Y-115377115D01*
X175226219Y-115440470D01*
X175375292Y-115536540D01*
X175381912Y-115538950D01*
X175381913Y-115538950D01*
X175535327Y-115594789D01*
X175535330Y-115594790D01*
X175541944Y-115597197D01*
X175589971Y-115603264D01*
X175674987Y-115614004D01*
X175674990Y-115614004D01*
X175678915Y-115614500D01*
X176373593Y-115614500D01*
X176473763Y-115603264D01*
X176498245Y-115600518D01*
X176498246Y-115600518D01*
X176505242Y-115599733D01*
X176511888Y-115597419D01*
X176511891Y-115597418D01*
X176666078Y-115543725D01*
X176666080Y-115543724D01*
X176672725Y-115541410D01*
X176686626Y-115532724D01*
X176817150Y-115451163D01*
X176823124Y-115447430D01*
X176829927Y-115440675D01*
X176943967Y-115327428D01*
X176948965Y-115322465D01*
X177028434Y-115197241D01*
X177040221Y-115178668D01*
X177040223Y-115178665D01*
X177043992Y-115172725D01*
X177076090Y-115082585D01*
X177101122Y-115012288D01*
X177101123Y-115012286D01*
X177103484Y-115005654D01*
X177105611Y-114987822D01*
X177123649Y-114836547D01*
X177124483Y-114829554D01*
X177123747Y-114822550D01*
X177106681Y-114660178D01*
X177106680Y-114660176D01*
X177105945Y-114653178D01*
X177061598Y-114522909D01*
X177051063Y-114491962D01*
X177051062Y-114491959D01*
X177048792Y-114485292D01*
X177042630Y-114475275D01*
X176959555Y-114340240D01*
X176955864Y-114334240D01*
X176950937Y-114329209D01*
X176950935Y-114329206D01*
X176844337Y-114220352D01*
X176831781Y-114207530D01*
X176682708Y-114111460D01*
X176639521Y-114095741D01*
X176522673Y-114053211D01*
X176522670Y-114053210D01*
X176516056Y-114050803D01*
X176459644Y-114043677D01*
X176383013Y-114033996D01*
X176383010Y-114033996D01*
X176379085Y-114033500D01*
X175684407Y-114033500D01*
X175592414Y-114043819D01*
X175559755Y-114047482D01*
X175559754Y-114047482D01*
X175552758Y-114048267D01*
X175546112Y-114050581D01*
X175546109Y-114050582D01*
X175391922Y-114104275D01*
X175391920Y-114104276D01*
X175385275Y-114106590D01*
X175379305Y-114110321D01*
X175379304Y-114110321D01*
X175314718Y-114150679D01*
X175234876Y-114200570D01*
X175109035Y-114325535D01*
X175074404Y-114380106D01*
X175017779Y-114469332D01*
X175017777Y-114469335D01*
X175014008Y-114475275D01*
X175011646Y-114481907D01*
X175011646Y-114481908D01*
X174984781Y-114557354D01*
X174954516Y-114642346D01*
X174953683Y-114649334D01*
X174953682Y-114649337D01*
X174943191Y-114737317D01*
X174933517Y-114818446D01*
X173023316Y-114818446D01*
X173006681Y-114660178D01*
X173006680Y-114660176D01*
X173005945Y-114653178D01*
X172961598Y-114522909D01*
X172951063Y-114491962D01*
X172951062Y-114491959D01*
X172948792Y-114485292D01*
X172942630Y-114475275D01*
X172859555Y-114340240D01*
X172855864Y-114334240D01*
X172850937Y-114329209D01*
X172850935Y-114329206D01*
X172744337Y-114220352D01*
X172731781Y-114207530D01*
X172725861Y-114203715D01*
X172725855Y-114203710D01*
X172643567Y-114150679D01*
X172597142Y-114096965D01*
X172587127Y-114026678D01*
X172616702Y-113962135D01*
X172637761Y-113942832D01*
X172638703Y-113942148D01*
X172760587Y-113853594D01*
X172803844Y-113801305D01*
X172856271Y-113737932D01*
X172856274Y-113737928D01*
X172861324Y-113731823D01*
X172928614Y-113588826D01*
X172958227Y-113433588D01*
X172948304Y-113275862D01*
X172936546Y-113239675D01*
X172901916Y-113133095D01*
X172901915Y-113133092D01*
X172899467Y-113125559D01*
X172814786Y-112992123D01*
X172699582Y-112883938D01*
X172561092Y-112807803D01*
X172408019Y-112768500D01*
X172289650Y-112768500D01*
X172285725Y-112768996D01*
X172285722Y-112768996D01*
X172180067Y-112782343D01*
X172180065Y-112782343D01*
X172172208Y-112783336D01*
X172164840Y-112786253D01*
X172164841Y-112786253D01*
X172032637Y-112838596D01*
X172032634Y-112838597D01*
X172025268Y-112841514D01*
X171897413Y-112934406D01*
X171892360Y-112940514D01*
X171801729Y-113050068D01*
X171801726Y-113050072D01*
X171796676Y-113056177D01*
X171729386Y-113199174D01*
X171699773Y-113354412D01*
X171709696Y-113512138D01*
X171715326Y-113529464D01*
X171732085Y-113581042D01*
X171758533Y-113662441D01*
X171843214Y-113795877D01*
X171848993Y-113801304D01*
X171848994Y-113801305D01*
X171864270Y-113815650D01*
X171900236Y-113876863D01*
X171897397Y-113947803D01*
X171856657Y-114005947D01*
X171790949Y-114032835D01*
X171778017Y-114033500D01*
X171384407Y-114033500D01*
X171292414Y-114043819D01*
X171259755Y-114047482D01*
X171259754Y-114047482D01*
X171252758Y-114048267D01*
X171246112Y-114050581D01*
X171246109Y-114050582D01*
X171091922Y-114104275D01*
X171091920Y-114104276D01*
X171085275Y-114106590D01*
X171079305Y-114110321D01*
X171079304Y-114110321D01*
X171014718Y-114150679D01*
X170934876Y-114200570D01*
X170809035Y-114325535D01*
X170774404Y-114380106D01*
X170717779Y-114469332D01*
X170717777Y-114469335D01*
X170714008Y-114475275D01*
X170711646Y-114481907D01*
X170711646Y-114481908D01*
X170684781Y-114557354D01*
X170654516Y-114642346D01*
X170653683Y-114649334D01*
X170653682Y-114649337D01*
X170643191Y-114737317D01*
X170633517Y-114818446D01*
X120728943Y-114818446D01*
X120633439Y-114743022D01*
X120624852Y-114737317D01*
X120438417Y-114634399D01*
X120429005Y-114630169D01*
X120223384Y-114557354D01*
X120223954Y-114555745D01*
X120169654Y-114522909D01*
X120138409Y-114459158D01*
X120146590Y-114388634D01*
X120191600Y-114333729D01*
X120228702Y-114316470D01*
X120253391Y-114309577D01*
X120435526Y-114217574D01*
X120441939Y-114212564D01*
X120591465Y-114095741D01*
X120596321Y-114091947D01*
X120631836Y-114050803D01*
X120725625Y-113942148D01*
X120725626Y-113942146D01*
X120729654Y-113937480D01*
X120830444Y-113760057D01*
X120894853Y-113566437D01*
X120920427Y-113363993D01*
X120920835Y-113334800D01*
X120900923Y-113131721D01*
X120841945Y-112936378D01*
X120746148Y-112756210D01*
X120742250Y-112751431D01*
X120742247Y-112751426D01*
X120627666Y-112610936D01*
X120617181Y-112598080D01*
X120553628Y-112545504D01*
X120464705Y-112471940D01*
X120464700Y-112471937D01*
X120459956Y-112468012D01*
X120454537Y-112465082D01*
X120454534Y-112465080D01*
X120285881Y-112373890D01*
X120285876Y-112373888D01*
X120280461Y-112370960D01*
X120220016Y-112352249D01*
X120091421Y-112312442D01*
X120091418Y-112312441D01*
X120085534Y-112310620D01*
X120079409Y-112309976D01*
X120079408Y-112309976D01*
X119888727Y-112289934D01*
X119888726Y-112289934D01*
X119882599Y-112289290D01*
X119754767Y-112300924D01*
X119685527Y-112307225D01*
X119685526Y-112307225D01*
X119679386Y-112307784D01*
X119673472Y-112309525D01*
X119673470Y-112309525D01*
X119483636Y-112365397D01*
X119483011Y-112363273D01*
X119422276Y-112369278D01*
X119356611Y-112334571D01*
X118860479Y-111838439D01*
X118853052Y-111830335D01*
X118834632Y-111808383D01*
X118827546Y-111799938D01*
X118818000Y-111794427D01*
X118817998Y-111794425D01*
X118793196Y-111780106D01*
X118783925Y-111774200D01*
X118760454Y-111757765D01*
X118760452Y-111757764D01*
X118751422Y-111751441D01*
X118740770Y-111748587D01*
X118737008Y-111746833D01*
X118733103Y-111745412D01*
X118723554Y-111739898D01*
X118684475Y-111733007D01*
X118673760Y-111730632D01*
X118635434Y-111720363D01*
X118624459Y-111721323D01*
X118624458Y-111721323D01*
X118595907Y-111723821D01*
X118584926Y-111724300D01*
X118182758Y-111724300D01*
X118114637Y-111704298D01*
X118068144Y-111650642D01*
X118058040Y-111580368D01*
X118087377Y-111515969D01*
X118185625Y-111402148D01*
X118185626Y-111402146D01*
X118189654Y-111397480D01*
X118290444Y-111220057D01*
X118354853Y-111026437D01*
X118380427Y-110823993D01*
X118380835Y-110794800D01*
X118360923Y-110591721D01*
X118301945Y-110396378D01*
X118206148Y-110216210D01*
X118202250Y-110211431D01*
X118202247Y-110211426D01*
X118134250Y-110128054D01*
X118077181Y-110058080D01*
X118013213Y-110005161D01*
X117924705Y-109931940D01*
X117924700Y-109931937D01*
X117919956Y-109928012D01*
X117914537Y-109925082D01*
X117914534Y-109925080D01*
X117745881Y-109833890D01*
X117745876Y-109833888D01*
X117740461Y-109830960D01*
X117715628Y-109823273D01*
X117551421Y-109772442D01*
X117551418Y-109772441D01*
X117545534Y-109770620D01*
X117539409Y-109769976D01*
X117539408Y-109769976D01*
X117348727Y-109749934D01*
X117348726Y-109749934D01*
X117342599Y-109749290D01*
X117214767Y-109760924D01*
X117145527Y-109767225D01*
X117145526Y-109767225D01*
X117139386Y-109767784D01*
X117133472Y-109769525D01*
X117133470Y-109769525D01*
X117001462Y-109808378D01*
X116943636Y-109825397D01*
X116762803Y-109919934D01*
X116758003Y-109923794D01*
X116758002Y-109923794D01*
X116720745Y-109953749D01*
X116603777Y-110047794D01*
X116472615Y-110204107D01*
X116469651Y-110209499D01*
X116469648Y-110209503D01*
X116432293Y-110277453D01*
X116374312Y-110382920D01*
X116312612Y-110577421D01*
X116311926Y-110583539D01*
X116301415Y-110677247D01*
X116273944Y-110742713D01*
X116215441Y-110782936D01*
X116144478Y-110785144D01*
X116083587Y-110748636D01*
X116052100Y-110685003D01*
X116050200Y-110663202D01*
X116050200Y-108392350D01*
X116070202Y-108324229D01*
X116123858Y-108277736D01*
X116194132Y-108267632D01*
X116258712Y-108297126D01*
X116297096Y-108356852D01*
X116301758Y-108381806D01*
X116306942Y-108443539D01*
X116363186Y-108639687D01*
X116456458Y-108821175D01*
X116583205Y-108981090D01*
X116738599Y-109113340D01*
X116743977Y-109116346D01*
X116743979Y-109116347D01*
X116786931Y-109140352D01*
X116916721Y-109212889D01*
X117110787Y-109275945D01*
X117313404Y-109300106D01*
X117319539Y-109299634D01*
X117319541Y-109299634D01*
X117510713Y-109284924D01*
X117510717Y-109284923D01*
X117516855Y-109284451D01*
X117713391Y-109229577D01*
X117895526Y-109137574D01*
X117908743Y-109127248D01*
X118035827Y-109027959D01*
X118101821Y-109001781D01*
X118171492Y-109015439D01*
X118222719Y-109064595D01*
X118239400Y-109127248D01*
X118239400Y-109479040D01*
X118238920Y-109490022D01*
X118235463Y-109529534D01*
X118245732Y-109567860D01*
X118248107Y-109578575D01*
X118254998Y-109617654D01*
X118260512Y-109627203D01*
X118261933Y-109631108D01*
X118263687Y-109634870D01*
X118266541Y-109645522D01*
X118272864Y-109654552D01*
X118272865Y-109654554D01*
X118289300Y-109678025D01*
X118295206Y-109687296D01*
X118309525Y-109712098D01*
X118309527Y-109712100D01*
X118315038Y-109721646D01*
X118323485Y-109728734D01*
X118345430Y-109747148D01*
X118353534Y-109754574D01*
X118876413Y-110277453D01*
X118910439Y-110339765D01*
X118907420Y-110404646D01*
X118852612Y-110577421D01*
X118829867Y-110780202D01*
X118833019Y-110817736D01*
X118839663Y-110896852D01*
X118846942Y-110983539D01*
X118848641Y-110989464D01*
X118899484Y-111166775D01*
X118903186Y-111179687D01*
X118996458Y-111361175D01*
X119123205Y-111521090D01*
X119278599Y-111653340D01*
X119283977Y-111656346D01*
X119283979Y-111656347D01*
X119326931Y-111680352D01*
X119456721Y-111752889D01*
X119650787Y-111815945D01*
X119853404Y-111840106D01*
X119859539Y-111839634D01*
X119859541Y-111839634D01*
X120050713Y-111824924D01*
X120050717Y-111824923D01*
X120056855Y-111824451D01*
X120253391Y-111769577D01*
X120435526Y-111677574D01*
X120445528Y-111669760D01*
X120591465Y-111555741D01*
X120596321Y-111551947D01*
X120729654Y-111397480D01*
X120830444Y-111220057D01*
X120894853Y-111026437D01*
X120920427Y-110823993D01*
X120920835Y-110794800D01*
X120900923Y-110591721D01*
X120841945Y-110396378D01*
X120746148Y-110216210D01*
X120742250Y-110211431D01*
X120742247Y-110211426D01*
X120674250Y-110128054D01*
X120617181Y-110058080D01*
X120553213Y-110005161D01*
X120464705Y-109931940D01*
X120464700Y-109931937D01*
X120459956Y-109928012D01*
X120454537Y-109925082D01*
X120454534Y-109925080D01*
X120285881Y-109833890D01*
X120285876Y-109833888D01*
X120280461Y-109830960D01*
X120255628Y-109823273D01*
X120091421Y-109772442D01*
X120091418Y-109772441D01*
X120085534Y-109770620D01*
X120079409Y-109769976D01*
X120079408Y-109769976D01*
X119888727Y-109749934D01*
X119888726Y-109749934D01*
X119882599Y-109749290D01*
X119754767Y-109760924D01*
X119685527Y-109767225D01*
X119685526Y-109767225D01*
X119679386Y-109767784D01*
X119673472Y-109769525D01*
X119673470Y-109769525D01*
X119483636Y-109825397D01*
X119483011Y-109823273D01*
X119422276Y-109829278D01*
X119356611Y-109794571D01*
X118957305Y-109395265D01*
X118923279Y-109332953D01*
X118920400Y-109306170D01*
X118920400Y-109081178D01*
X118940402Y-109013057D01*
X118994058Y-108966564D01*
X119064332Y-108956460D01*
X119128062Y-108985223D01*
X119278599Y-109113340D01*
X119283977Y-109116346D01*
X119283979Y-109116347D01*
X119326931Y-109140352D01*
X119456721Y-109212889D01*
X119650787Y-109275945D01*
X119853404Y-109300106D01*
X119859539Y-109299634D01*
X119859541Y-109299634D01*
X120050713Y-109284924D01*
X120050717Y-109284923D01*
X120056855Y-109284451D01*
X120253391Y-109229577D01*
X120258884Y-109226802D01*
X120259318Y-109226634D01*
X120330062Y-109220650D01*
X120393973Y-109255013D01*
X122261716Y-111122755D01*
X122269143Y-111130859D01*
X122294654Y-111161262D01*
X122304200Y-111166774D01*
X122304202Y-111166775D01*
X122329009Y-111181097D01*
X122338275Y-111187000D01*
X122370778Y-111209759D01*
X122381426Y-111212613D01*
X122385197Y-111214371D01*
X122389102Y-111215792D01*
X122398646Y-111221302D01*
X122431847Y-111227156D01*
X122437712Y-111228190D01*
X122448435Y-111230567D01*
X122486766Y-111240838D01*
X122497742Y-111239878D01*
X122497745Y-111239878D01*
X122526305Y-111237379D01*
X122537286Y-111236900D01*
X131030940Y-111236900D01*
X131041922Y-111237380D01*
X131070449Y-111239876D01*
X131070450Y-111239876D01*
X131081434Y-111240837D01*
X131119760Y-111230568D01*
X131130475Y-111228193D01*
X131169554Y-111221302D01*
X131179103Y-111215788D01*
X131183008Y-111214367D01*
X131186770Y-111212613D01*
X131197422Y-111209759D01*
X131206452Y-111203436D01*
X131206454Y-111203435D01*
X131229925Y-111187000D01*
X131239196Y-111181094D01*
X131263998Y-111166775D01*
X131264000Y-111166773D01*
X131273546Y-111161262D01*
X131299048Y-111130870D01*
X131306474Y-111122766D01*
X136270794Y-106158446D01*
X170633517Y-106158446D01*
X170634253Y-106165449D01*
X170634253Y-106165450D01*
X170642967Y-106248353D01*
X170652055Y-106334822D01*
X170654324Y-106341486D01*
X170689592Y-106445085D01*
X170709208Y-106502708D01*
X170712898Y-106508706D01*
X170712899Y-106508708D01*
X170722673Y-106524595D01*
X170802136Y-106653760D01*
X170807063Y-106658791D01*
X170807065Y-106658794D01*
X170834491Y-106686800D01*
X170926219Y-106780470D01*
X171075292Y-106876540D01*
X171081912Y-106878950D01*
X171081913Y-106878950D01*
X171235327Y-106934789D01*
X171235330Y-106934790D01*
X171241944Y-106937197D01*
X171298356Y-106944323D01*
X171374987Y-106954004D01*
X171374990Y-106954004D01*
X171378915Y-106954500D01*
X171778481Y-106954500D01*
X171846602Y-106974502D01*
X171893095Y-107028158D01*
X171903199Y-107098432D01*
X171875566Y-107160815D01*
X171801729Y-107250068D01*
X171801726Y-107250072D01*
X171796676Y-107256177D01*
X171729386Y-107399174D01*
X171727901Y-107406957D01*
X171727901Y-107406958D01*
X171706704Y-107518080D01*
X171699773Y-107554412D01*
X171709696Y-107712138D01*
X171712147Y-107719681D01*
X171754795Y-107850936D01*
X171758533Y-107862441D01*
X171843214Y-107995877D01*
X171848993Y-108001304D01*
X171848994Y-108001305D01*
X171887453Y-108037421D01*
X171958418Y-108104062D01*
X172096908Y-108180197D01*
X172249981Y-108219500D01*
X172368350Y-108219500D01*
X172372275Y-108219004D01*
X172372278Y-108219004D01*
X172477933Y-108205657D01*
X172477935Y-108205657D01*
X172485792Y-108204664D01*
X172557234Y-108176378D01*
X172625363Y-108149404D01*
X172625366Y-108149403D01*
X172632732Y-108146486D01*
X172645449Y-108137247D01*
X172754173Y-108058254D01*
X172760587Y-108053594D01*
X172803844Y-108001305D01*
X172856271Y-107937932D01*
X172856274Y-107937928D01*
X172861324Y-107931823D01*
X172928614Y-107788826D01*
X172949057Y-107681661D01*
X172956742Y-107641374D01*
X172956742Y-107641372D01*
X172958227Y-107633588D01*
X172948304Y-107475862D01*
X172932695Y-107427822D01*
X172901916Y-107333095D01*
X172901915Y-107333092D01*
X172899467Y-107325559D01*
X172814786Y-107192123D01*
X172699582Y-107083938D01*
X172647875Y-107055512D01*
X172597817Y-107005167D01*
X172582923Y-106935750D01*
X172607924Y-106869300D01*
X172641806Y-106838243D01*
X172717150Y-106791163D01*
X172723124Y-106787430D01*
X172744014Y-106766686D01*
X172824459Y-106686800D01*
X172848965Y-106662465D01*
X172908060Y-106569346D01*
X172940221Y-106518668D01*
X172940223Y-106518665D01*
X172943992Y-106512725D01*
X172968078Y-106445085D01*
X173001122Y-106352288D01*
X173001123Y-106352286D01*
X173003484Y-106345654D01*
X173005611Y-106327822D01*
X173023649Y-106176547D01*
X173024483Y-106169554D01*
X173023747Y-106162550D01*
X173023316Y-106158446D01*
X174933517Y-106158446D01*
X174934253Y-106165449D01*
X174934253Y-106165450D01*
X174942967Y-106248353D01*
X174952055Y-106334822D01*
X174954324Y-106341486D01*
X174989592Y-106445085D01*
X175009208Y-106502708D01*
X175012898Y-106508706D01*
X175012899Y-106508708D01*
X175022673Y-106524595D01*
X175102136Y-106653760D01*
X175107063Y-106658791D01*
X175107065Y-106658794D01*
X175134491Y-106686800D01*
X175226219Y-106780470D01*
X175375292Y-106876540D01*
X175381912Y-106878950D01*
X175381913Y-106878950D01*
X175535327Y-106934789D01*
X175535330Y-106934790D01*
X175541944Y-106937197D01*
X175598356Y-106944323D01*
X175674987Y-106954004D01*
X175674990Y-106954004D01*
X175678915Y-106954500D01*
X176373593Y-106954500D01*
X176465586Y-106944181D01*
X176498245Y-106940518D01*
X176498246Y-106940518D01*
X176505242Y-106939733D01*
X176511888Y-106937419D01*
X176511891Y-106937418D01*
X176666078Y-106883725D01*
X176666080Y-106883724D01*
X176672725Y-106881410D01*
X176686626Y-106872724D01*
X176817150Y-106791163D01*
X176823124Y-106787430D01*
X176844014Y-106766686D01*
X176924459Y-106686800D01*
X176948965Y-106662465D01*
X177008060Y-106569346D01*
X177040221Y-106518668D01*
X177040223Y-106518665D01*
X177043992Y-106512725D01*
X177068078Y-106445085D01*
X177101122Y-106352288D01*
X177101123Y-106352286D01*
X177103484Y-106345654D01*
X177105611Y-106327822D01*
X177123649Y-106176547D01*
X177124483Y-106169554D01*
X177123747Y-106162550D01*
X177106681Y-106000178D01*
X177106680Y-106000176D01*
X177105945Y-105993178D01*
X177060639Y-105860092D01*
X177051063Y-105831962D01*
X177051062Y-105831959D01*
X177048792Y-105825292D01*
X177042630Y-105815275D01*
X176967873Y-105693761D01*
X176955864Y-105674240D01*
X176950937Y-105669209D01*
X176950935Y-105669206D01*
X176852552Y-105568741D01*
X176831781Y-105547530D01*
X176682708Y-105451460D01*
X176662968Y-105444275D01*
X176522673Y-105393211D01*
X176522670Y-105393210D01*
X176516056Y-105390803D01*
X176459644Y-105383677D01*
X176383013Y-105373996D01*
X176383010Y-105373996D01*
X176379085Y-105373500D01*
X175684407Y-105373500D01*
X175592414Y-105383819D01*
X175559755Y-105387482D01*
X175559754Y-105387482D01*
X175552758Y-105388267D01*
X175546112Y-105390581D01*
X175546109Y-105390582D01*
X175391922Y-105444275D01*
X175391920Y-105444276D01*
X175385275Y-105446590D01*
X175379305Y-105450321D01*
X175379304Y-105450321D01*
X175369035Y-105456738D01*
X175234876Y-105540570D01*
X175229878Y-105545533D01*
X175229877Y-105545534D01*
X175191945Y-105583202D01*
X175109035Y-105665535D01*
X175087035Y-105700202D01*
X175017779Y-105809332D01*
X175017777Y-105809335D01*
X175014008Y-105815275D01*
X174954516Y-105982346D01*
X174953683Y-105989334D01*
X174953682Y-105989337D01*
X174941230Y-106093763D01*
X174933517Y-106158446D01*
X173023316Y-106158446D01*
X173006681Y-106000178D01*
X173006680Y-106000176D01*
X173005945Y-105993178D01*
X172960639Y-105860092D01*
X172951063Y-105831962D01*
X172951062Y-105831959D01*
X172948792Y-105825292D01*
X172942630Y-105815275D01*
X172867873Y-105693761D01*
X172855864Y-105674240D01*
X172850937Y-105669209D01*
X172850935Y-105669206D01*
X172752552Y-105568741D01*
X172731781Y-105547530D01*
X172582708Y-105451460D01*
X172562968Y-105444275D01*
X172422673Y-105393211D01*
X172422670Y-105393210D01*
X172416056Y-105390803D01*
X172359644Y-105383677D01*
X172283013Y-105373996D01*
X172283010Y-105373996D01*
X172279085Y-105373500D01*
X171384407Y-105373500D01*
X171292414Y-105383819D01*
X171259755Y-105387482D01*
X171259754Y-105387482D01*
X171252758Y-105388267D01*
X171246112Y-105390581D01*
X171246109Y-105390582D01*
X171091922Y-105444275D01*
X171091920Y-105444276D01*
X171085275Y-105446590D01*
X171079305Y-105450321D01*
X171079304Y-105450321D01*
X171069035Y-105456738D01*
X170934876Y-105540570D01*
X170929878Y-105545533D01*
X170929877Y-105545534D01*
X170891945Y-105583202D01*
X170809035Y-105665535D01*
X170787035Y-105700202D01*
X170717779Y-105809332D01*
X170717777Y-105809335D01*
X170714008Y-105815275D01*
X170654516Y-105982346D01*
X170653683Y-105989334D01*
X170653682Y-105989337D01*
X170641230Y-106093763D01*
X170633517Y-106158446D01*
X136270794Y-106158446D01*
X136490917Y-105938323D01*
X136553229Y-105904297D01*
X136582321Y-105901439D01*
X136598950Y-105901744D01*
X136656324Y-105886102D01*
X136725845Y-105867149D01*
X136725847Y-105867148D01*
X136734504Y-105864788D01*
X136854238Y-105791271D01*
X136948525Y-105687105D01*
X136992061Y-105597247D01*
X137005872Y-105568741D01*
X137005872Y-105568740D01*
X137009786Y-105560662D01*
X137033096Y-105422107D01*
X137033244Y-105410000D01*
X137013326Y-105270917D01*
X136955172Y-105143015D01*
X136863458Y-105036576D01*
X136855927Y-105031695D01*
X136855924Y-105031692D01*
X136753088Y-104965037D01*
X136753086Y-104965036D01*
X136745557Y-104960156D01*
X136736960Y-104957585D01*
X136736958Y-104957584D01*
X136656916Y-104933647D01*
X136610946Y-104919899D01*
X136601970Y-104919844D01*
X136601969Y-104919844D01*
X136542715Y-104919482D01*
X136470447Y-104919041D01*
X136335354Y-104957651D01*
X136216528Y-105032624D01*
X136123521Y-105137935D01*
X136063809Y-105265117D01*
X136062429Y-105273981D01*
X136062428Y-105273984D01*
X136044827Y-105387028D01*
X136014583Y-105451260D01*
X136009422Y-105456738D01*
X130947165Y-110518995D01*
X130884853Y-110553021D01*
X130858070Y-110555900D01*
X122710129Y-110555900D01*
X122642008Y-110535898D01*
X122621034Y-110518995D01*
X120873402Y-108771362D01*
X120839376Y-108709050D01*
X120842939Y-108642495D01*
X120892907Y-108492286D01*
X120894853Y-108486437D01*
X120920427Y-108283993D01*
X120920835Y-108254800D01*
X120900923Y-108051721D01*
X120841945Y-107856378D01*
X120746148Y-107676210D01*
X120742250Y-107671431D01*
X120742247Y-107671426D01*
X120674250Y-107588054D01*
X120617181Y-107518080D01*
X120473449Y-107399174D01*
X120464705Y-107391940D01*
X120464700Y-107391937D01*
X120459956Y-107388012D01*
X120454537Y-107385082D01*
X120454534Y-107385080D01*
X120285881Y-107293890D01*
X120285876Y-107293888D01*
X120280461Y-107290960D01*
X120191268Y-107263350D01*
X120091421Y-107232442D01*
X120091418Y-107232441D01*
X120085534Y-107230620D01*
X120079409Y-107229976D01*
X120079408Y-107229976D01*
X119888727Y-107209934D01*
X119888726Y-107209934D01*
X119882599Y-107209290D01*
X119754767Y-107220924D01*
X119685527Y-107227225D01*
X119685526Y-107227225D01*
X119679386Y-107227784D01*
X119673472Y-107229525D01*
X119673470Y-107229525D01*
X119603672Y-107250068D01*
X119483636Y-107285397D01*
X119302803Y-107379934D01*
X119298003Y-107383794D01*
X119298002Y-107383794D01*
X119287869Y-107391941D01*
X119143777Y-107507794D01*
X119139817Y-107512513D01*
X119135413Y-107516826D01*
X119133624Y-107514999D01*
X119083815Y-107548139D01*
X119012827Y-107549267D01*
X118952499Y-107511837D01*
X118921983Y-107447733D01*
X118920400Y-107427822D01*
X118920400Y-106881300D01*
X118940402Y-106813179D01*
X118994058Y-106766686D01*
X119046400Y-106755300D01*
X120382070Y-106755300D01*
X120450191Y-106775302D01*
X120471165Y-106792205D01*
X123684121Y-110005161D01*
X123691548Y-110013265D01*
X123697347Y-110020175D01*
X123717054Y-110043662D01*
X123726600Y-110049173D01*
X123726602Y-110049175D01*
X123751404Y-110063494D01*
X123760675Y-110069400D01*
X123784146Y-110085835D01*
X123784148Y-110085836D01*
X123793178Y-110092159D01*
X123803830Y-110095013D01*
X123807592Y-110096767D01*
X123811497Y-110098188D01*
X123821046Y-110103702D01*
X123860125Y-110110593D01*
X123870840Y-110112968D01*
X123909166Y-110123237D01*
X123920141Y-110122277D01*
X123920142Y-110122277D01*
X123948693Y-110119779D01*
X123959674Y-110119300D01*
X130062343Y-110119300D01*
X130075142Y-110119952D01*
X130111240Y-110123638D01*
X130152994Y-110113096D01*
X130161944Y-110111180D01*
X130204354Y-110103702D01*
X130213524Y-110098408D01*
X130215366Y-110097842D01*
X130215682Y-110097713D01*
X130217399Y-110096836D01*
X130227666Y-110094243D01*
X130236782Y-110088055D01*
X130236786Y-110088053D01*
X130263286Y-110070063D01*
X130271054Y-110065193D01*
X130298799Y-110049175D01*
X130298803Y-110049172D01*
X130308346Y-110043662D01*
X130315431Y-110035219D01*
X130315434Y-110035216D01*
X130331675Y-110015860D01*
X130340397Y-110006479D01*
X137508615Y-103043066D01*
X138312164Y-102262476D01*
X138318968Y-102256331D01*
X138343520Y-102235730D01*
X138343521Y-102235729D01*
X138351962Y-102228646D01*
X138370106Y-102197220D01*
X138377067Y-102186467D01*
X138379940Y-102182487D01*
X138398308Y-102157048D01*
X138401316Y-102146440D01*
X138404217Y-102140448D01*
X138406491Y-102134200D01*
X138412002Y-102124654D01*
X138418304Y-102088912D01*
X138421168Y-102076425D01*
X138428058Y-102052124D01*
X138431064Y-102041522D01*
X138427933Y-101998570D01*
X138427600Y-101989409D01*
X138427600Y-98091256D01*
X153416701Y-98091256D01*
X153423159Y-98100616D01*
X153439461Y-98114912D01*
X153446001Y-98119930D01*
X153685244Y-98279787D01*
X153692381Y-98283908D01*
X153950449Y-98411172D01*
X153958053Y-98414322D01*
X154230520Y-98506812D01*
X154238483Y-98508946D01*
X154520700Y-98565083D01*
X154528851Y-98566156D01*
X154815981Y-98584975D01*
X154824219Y-98584975D01*
X155111349Y-98566156D01*
X155119500Y-98565083D01*
X155401717Y-98508946D01*
X155409680Y-98506812D01*
X155682147Y-98414322D01*
X155689751Y-98411172D01*
X155947819Y-98283908D01*
X155954956Y-98279787D01*
X156194199Y-98119930D01*
X156200739Y-98114912D01*
X156215174Y-98102253D01*
X156223572Y-98089014D01*
X156217738Y-98079249D01*
X154832910Y-96694420D01*
X154818969Y-96686808D01*
X154817134Y-96686939D01*
X154810520Y-96691190D01*
X153424216Y-98077495D01*
X153416701Y-98091256D01*
X138427600Y-98091256D01*
X138427600Y-96326519D01*
X152557525Y-96326519D01*
X152576344Y-96613649D01*
X152577417Y-96621800D01*
X152633554Y-96904017D01*
X152635688Y-96911980D01*
X152728178Y-97184447D01*
X152731328Y-97192051D01*
X152858592Y-97450118D01*
X152862713Y-97457255D01*
X153022570Y-97696499D01*
X153027588Y-97703039D01*
X153040247Y-97717474D01*
X153053486Y-97725872D01*
X153063251Y-97720038D01*
X154448080Y-96335210D01*
X154454457Y-96323531D01*
X155184508Y-96323531D01*
X155184639Y-96325366D01*
X155188890Y-96331980D01*
X156575195Y-97718284D01*
X156588956Y-97725799D01*
X156598316Y-97719341D01*
X156612612Y-97703039D01*
X156617630Y-97696499D01*
X156777487Y-97457255D01*
X156781608Y-97450118D01*
X156908872Y-97192051D01*
X156912022Y-97184447D01*
X157004512Y-96911980D01*
X157006646Y-96904017D01*
X157062783Y-96621800D01*
X157063856Y-96613649D01*
X157082675Y-96326519D01*
X157082675Y-96318281D01*
X157063856Y-96031151D01*
X157062783Y-96023000D01*
X157006646Y-95740783D01*
X157004512Y-95732820D01*
X156912022Y-95460353D01*
X156908872Y-95452749D01*
X156781608Y-95194682D01*
X156777487Y-95187545D01*
X156617630Y-94948301D01*
X156612612Y-94941761D01*
X156599953Y-94927326D01*
X156586714Y-94918928D01*
X156576949Y-94924762D01*
X155192120Y-96309590D01*
X155184508Y-96323531D01*
X154454457Y-96323531D01*
X154455692Y-96321269D01*
X154455561Y-96319434D01*
X154451310Y-96312820D01*
X153065005Y-94926516D01*
X153051244Y-94919001D01*
X153041884Y-94925459D01*
X153027588Y-94941761D01*
X153022570Y-94948301D01*
X152862713Y-95187545D01*
X152858592Y-95194682D01*
X152731328Y-95452749D01*
X152728178Y-95460353D01*
X152635688Y-95732820D01*
X152633554Y-95740783D01*
X152577417Y-96023000D01*
X152576344Y-96031151D01*
X152557525Y-96318281D01*
X152557525Y-96326519D01*
X138427600Y-96326519D01*
X138427600Y-94555787D01*
X153416628Y-94555787D01*
X153422459Y-94565548D01*
X154313357Y-95456447D01*
X154807289Y-95950379D01*
X154821232Y-95957992D01*
X154823066Y-95957861D01*
X154829680Y-95953610D01*
X156215984Y-94567305D01*
X156223499Y-94553544D01*
X156217041Y-94544184D01*
X156200739Y-94529888D01*
X156194199Y-94524870D01*
X156163034Y-94504046D01*
X167698100Y-94504046D01*
X167699472Y-94510499D01*
X167699472Y-94510503D01*
X167711546Y-94567305D01*
X167737456Y-94689203D01*
X167814449Y-94862130D01*
X167818329Y-94867471D01*
X167818330Y-94867472D01*
X167886423Y-94961194D01*
X167925712Y-95015271D01*
X168066384Y-95141933D01*
X168230316Y-95236579D01*
X168410344Y-95295074D01*
X168416905Y-95295764D01*
X168416907Y-95295764D01*
X168470563Y-95301403D01*
X168551408Y-95309900D01*
X168645792Y-95309900D01*
X168726637Y-95301403D01*
X168780293Y-95295764D01*
X168780295Y-95295764D01*
X168786856Y-95295074D01*
X168966884Y-95236579D01*
X169130816Y-95141933D01*
X169271488Y-95015271D01*
X169310777Y-94961194D01*
X169378870Y-94867472D01*
X169378871Y-94867471D01*
X169382751Y-94862130D01*
X169459744Y-94689203D01*
X169485654Y-94567305D01*
X169497728Y-94510503D01*
X169497728Y-94510499D01*
X169499100Y-94504046D01*
X169499100Y-94314754D01*
X169482551Y-94236894D01*
X169479175Y-94221015D01*
X169459744Y-94129597D01*
X169382751Y-93956670D01*
X169374998Y-93945998D01*
X169275367Y-93808868D01*
X169271488Y-93803529D01*
X169258489Y-93791824D01*
X169135724Y-93681286D01*
X169135723Y-93681285D01*
X169130816Y-93676867D01*
X169039946Y-93624403D01*
X168972607Y-93585525D01*
X168972606Y-93585524D01*
X168966884Y-93582221D01*
X168786856Y-93523726D01*
X168780295Y-93523036D01*
X168780293Y-93523036D01*
X168720444Y-93516746D01*
X168645792Y-93508900D01*
X168551408Y-93508900D01*
X168476756Y-93516746D01*
X168416907Y-93523036D01*
X168416905Y-93523036D01*
X168410344Y-93523726D01*
X168230316Y-93582221D01*
X168224594Y-93585524D01*
X168224593Y-93585525D01*
X168157254Y-93624403D01*
X168066384Y-93676867D01*
X168061477Y-93681285D01*
X168061476Y-93681286D01*
X167938712Y-93791824D01*
X167925712Y-93803529D01*
X167921833Y-93808868D01*
X167822203Y-93945998D01*
X167814449Y-93956670D01*
X167737456Y-94129597D01*
X167718025Y-94221015D01*
X167714650Y-94236894D01*
X167698100Y-94314754D01*
X167698100Y-94504046D01*
X156163034Y-94504046D01*
X155954956Y-94365013D01*
X155947819Y-94360892D01*
X155689751Y-94233628D01*
X155682147Y-94230478D01*
X155409680Y-94137988D01*
X155401717Y-94135854D01*
X155119500Y-94079717D01*
X155111349Y-94078644D01*
X154824219Y-94059825D01*
X154815981Y-94059825D01*
X154528851Y-94078644D01*
X154520700Y-94079717D01*
X154238483Y-94135854D01*
X154230520Y-94137988D01*
X153958053Y-94230478D01*
X153950449Y-94233628D01*
X153692382Y-94360892D01*
X153685245Y-94365013D01*
X153446001Y-94524870D01*
X153439461Y-94529888D01*
X153425026Y-94542547D01*
X153416628Y-94555787D01*
X138427600Y-94555787D01*
X138427600Y-93954217D01*
X138447602Y-93886096D01*
X138460185Y-93869662D01*
X138517297Y-93806565D01*
X138517298Y-93806563D01*
X138523325Y-93799905D01*
X138584586Y-93673462D01*
X138607896Y-93534907D01*
X138608044Y-93522800D01*
X138588126Y-93383717D01*
X138553567Y-93307710D01*
X138533687Y-93263985D01*
X138533686Y-93263983D01*
X138529972Y-93255815D01*
X138438258Y-93149376D01*
X138430727Y-93144495D01*
X138430724Y-93144492D01*
X138327888Y-93077837D01*
X138327886Y-93077836D01*
X138320357Y-93072956D01*
X138311760Y-93070385D01*
X138311758Y-93070384D01*
X138231716Y-93046447D01*
X138185746Y-93032699D01*
X138176770Y-93032644D01*
X138176769Y-93032644D01*
X138117515Y-93032282D01*
X138045247Y-93031841D01*
X137910154Y-93070451D01*
X137791328Y-93145424D01*
X137698321Y-93250735D01*
X137638609Y-93377917D01*
X137637229Y-93386781D01*
X137637228Y-93386784D01*
X137618721Y-93505649D01*
X137616993Y-93516746D01*
X137618157Y-93525648D01*
X137618157Y-93525651D01*
X137623023Y-93562860D01*
X137635211Y-93656062D01*
X137691797Y-93784664D01*
X137717052Y-93814709D01*
X137745572Y-93879722D01*
X137746600Y-93895782D01*
X137746600Y-101809197D01*
X137726598Y-101877318D01*
X137708395Y-101899574D01*
X133626557Y-105864788D01*
X129985933Y-109401395D01*
X129984613Y-109402677D01*
X129921814Y-109435796D01*
X129896818Y-109438300D01*
X124132530Y-109438300D01*
X124064409Y-109418298D01*
X124043435Y-109401395D01*
X120952705Y-106310665D01*
X120918679Y-106248353D01*
X120915800Y-106221570D01*
X120915800Y-104846038D01*
X120904747Y-104790471D01*
X120862643Y-104727457D01*
X120799629Y-104685353D01*
X120787460Y-104682932D01*
X120787459Y-104682932D01*
X120750130Y-104675507D01*
X120744062Y-104674300D01*
X119046400Y-104674300D01*
X118978279Y-104654298D01*
X118931786Y-104600642D01*
X118920400Y-104548300D01*
X118920400Y-102943155D01*
X118940402Y-102875034D01*
X118952985Y-102858599D01*
X118984700Y-102823561D01*
X118990725Y-102816905D01*
X119051986Y-102690462D01*
X119075296Y-102551907D01*
X119075444Y-102539800D01*
X119055526Y-102400717D01*
X118997372Y-102272815D01*
X118905658Y-102166376D01*
X118898127Y-102161495D01*
X118898124Y-102161492D01*
X118795288Y-102094837D01*
X118795286Y-102094836D01*
X118787757Y-102089956D01*
X118779160Y-102087385D01*
X118779158Y-102087384D01*
X118699116Y-102063447D01*
X118653146Y-102049699D01*
X118644170Y-102049644D01*
X118644169Y-102049644D01*
X118584915Y-102049282D01*
X118512647Y-102048841D01*
X118377554Y-102087451D01*
X118258728Y-102162424D01*
X118252786Y-102169152D01*
X118252785Y-102169153D01*
X118227996Y-102197222D01*
X118165721Y-102267735D01*
X118106009Y-102394917D01*
X118104629Y-102403781D01*
X118104628Y-102403784D01*
X118086649Y-102519259D01*
X118084393Y-102533746D01*
X118085557Y-102542648D01*
X118085557Y-102542651D01*
X118087395Y-102556703D01*
X118102611Y-102673062D01*
X118159197Y-102801664D01*
X118209852Y-102861926D01*
X118238372Y-102926939D01*
X118239400Y-102942999D01*
X118239400Y-104844516D01*
X118219398Y-104912637D01*
X118165742Y-104959130D01*
X118095468Y-104969234D01*
X118033084Y-104941600D01*
X118009963Y-104922472D01*
X117925049Y-104852225D01*
X117924706Y-104851941D01*
X117924702Y-104851939D01*
X117919956Y-104848012D01*
X117914537Y-104845082D01*
X117914534Y-104845080D01*
X117745881Y-104753890D01*
X117745876Y-104753888D01*
X117740461Y-104750960D01*
X117716862Y-104743655D01*
X117551421Y-104692442D01*
X117551418Y-104692441D01*
X117545534Y-104690620D01*
X117539409Y-104689976D01*
X117539408Y-104689976D01*
X117348727Y-104669934D01*
X117348726Y-104669934D01*
X117342599Y-104669290D01*
X117214767Y-104680924D01*
X117145527Y-104687225D01*
X117145526Y-104687225D01*
X117139386Y-104687784D01*
X117133472Y-104689525D01*
X117133470Y-104689525D01*
X117028007Y-104720565D01*
X116943636Y-104745397D01*
X116762803Y-104839934D01*
X116603777Y-104967794D01*
X116472615Y-105124107D01*
X116469651Y-105129499D01*
X116469648Y-105129503D01*
X116431581Y-105198748D01*
X116374312Y-105302920D01*
X116312612Y-105497421D01*
X116306427Y-105552564D01*
X116301415Y-105597247D01*
X116273944Y-105662713D01*
X116215441Y-105702936D01*
X116144478Y-105705144D01*
X116083587Y-105668636D01*
X116052100Y-105605003D01*
X116050200Y-105583202D01*
X116050200Y-103266430D01*
X116070202Y-103198309D01*
X116087105Y-103177335D01*
X116221717Y-103042723D01*
X116284029Y-103008697D01*
X116313121Y-103005839D01*
X116329750Y-103006144D01*
X116387124Y-102990502D01*
X116456645Y-102971549D01*
X116456647Y-102971548D01*
X116465304Y-102969188D01*
X116585038Y-102895671D01*
X116679325Y-102791505D01*
X116740586Y-102665062D01*
X116763896Y-102526507D01*
X116764044Y-102514400D01*
X116744126Y-102375317D01*
X116711672Y-102303940D01*
X116689687Y-102255585D01*
X116689686Y-102255583D01*
X116685972Y-102247415D01*
X116594258Y-102140976D01*
X116586727Y-102136095D01*
X116586724Y-102136092D01*
X116483888Y-102069437D01*
X116483886Y-102069436D01*
X116476357Y-102064556D01*
X116467760Y-102061985D01*
X116467758Y-102061984D01*
X116387716Y-102038047D01*
X116341746Y-102024299D01*
X116332770Y-102024244D01*
X116332769Y-102024244D01*
X116273515Y-102023882D01*
X116201247Y-102023441D01*
X116066154Y-102062051D01*
X115947328Y-102137024D01*
X115941386Y-102143752D01*
X115941385Y-102143753D01*
X115921749Y-102165987D01*
X115854321Y-102242335D01*
X115794609Y-102369517D01*
X115793229Y-102378381D01*
X115793228Y-102378384D01*
X115775627Y-102491428D01*
X115745383Y-102555660D01*
X115740222Y-102561138D01*
X115483339Y-102818021D01*
X115475236Y-102825447D01*
X115444838Y-102850954D01*
X115439327Y-102860500D01*
X115439325Y-102860502D01*
X115425006Y-102885304D01*
X115419100Y-102894575D01*
X115415045Y-102900367D01*
X115396341Y-102927078D01*
X115393487Y-102937730D01*
X115391733Y-102941492D01*
X115390312Y-102945397D01*
X115384798Y-102954946D01*
X115377908Y-102994021D01*
X115375532Y-103004740D01*
X115365263Y-103043066D01*
X115366223Y-103054041D01*
X115366223Y-103054042D01*
X115368721Y-103082593D01*
X115369200Y-103093574D01*
X115369200Y-111790440D01*
X115368720Y-111801422D01*
X115365263Y-111840934D01*
X114487118Y-111840934D01*
X114514880Y-98423054D01*
X130968233Y-98423054D01*
X131004041Y-98631447D01*
X131077227Y-98829825D01*
X131185338Y-99011544D01*
X131324755Y-99170519D01*
X131490808Y-99301424D01*
X131495919Y-99304113D01*
X131495922Y-99304115D01*
X131526341Y-99320119D01*
X131677936Y-99399877D01*
X131879873Y-99462580D01*
X131885610Y-99463259D01*
X132047868Y-99482464D01*
X132047875Y-99482464D01*
X132051555Y-99482900D01*
X132173741Y-99482900D01*
X132330660Y-99468481D01*
X132336222Y-99466912D01*
X132336224Y-99466912D01*
X132392325Y-99451090D01*
X132534169Y-99411086D01*
X132539347Y-99408533D01*
X132539351Y-99408531D01*
X132718631Y-99320119D01*
X132723810Y-99317565D01*
X132893233Y-99191051D01*
X133036763Y-99035781D01*
X133049315Y-99015888D01*
X133146516Y-98861834D01*
X133146516Y-98861833D01*
X133149595Y-98856954D01*
X133227948Y-98660560D01*
X133229073Y-98654903D01*
X133229075Y-98654897D01*
X133268072Y-98458842D01*
X133268072Y-98458840D01*
X133269199Y-98453175D01*
X133269594Y-98423054D01*
X133271891Y-98247528D01*
X133271967Y-98241746D01*
X133265818Y-98205958D01*
X133237138Y-98039050D01*
X133237138Y-98039049D01*
X133236159Y-98033353D01*
X133162973Y-97834975D01*
X133094178Y-97719341D01*
X133057816Y-97658221D01*
X133057815Y-97658220D01*
X133054862Y-97653256D01*
X132915445Y-97494281D01*
X132749392Y-97363376D01*
X132744281Y-97360687D01*
X132744278Y-97360685D01*
X132649462Y-97310800D01*
X132562264Y-97264923D01*
X132360327Y-97202220D01*
X132345901Y-97200513D01*
X132192332Y-97182336D01*
X132192325Y-97182336D01*
X132188645Y-97181900D01*
X132066459Y-97181900D01*
X131909540Y-97196319D01*
X131903978Y-97197888D01*
X131903976Y-97197888D01*
X131847875Y-97213710D01*
X131706031Y-97253714D01*
X131700853Y-97256267D01*
X131700849Y-97256269D01*
X131525608Y-97342689D01*
X131516390Y-97347235D01*
X131346967Y-97473749D01*
X131203437Y-97629019D01*
X131200356Y-97633902D01*
X131188145Y-97653256D01*
X131090605Y-97807846D01*
X131012252Y-98004240D01*
X131011127Y-98009897D01*
X131011125Y-98009903D01*
X130992756Y-98102253D01*
X130971001Y-98211625D01*
X130970925Y-98217400D01*
X130970925Y-98217404D01*
X130970055Y-98283908D01*
X130968233Y-98423054D01*
X114514880Y-98423054D01*
X114526620Y-92748983D01*
X115999689Y-92748983D01*
X116001212Y-92757407D01*
X116013592Y-92760800D01*
X118163800Y-92760800D01*
X118231921Y-92780802D01*
X118278414Y-92834458D01*
X118289800Y-92886800D01*
X118289800Y-93142800D01*
X118269798Y-93210921D01*
X118216142Y-93257414D01*
X118163800Y-93268800D01*
X116018525Y-93268800D01*
X116004994Y-93272773D01*
X116003557Y-93282766D01*
X116033865Y-93417246D01*
X116036945Y-93427075D01*
X116117070Y-93624403D01*
X116121713Y-93633594D01*
X116232994Y-93815188D01*
X116239077Y-93823499D01*
X116378513Y-93984467D01*
X116385880Y-93991683D01*
X116549734Y-94127716D01*
X116558181Y-94133631D01*
X116742056Y-94241079D01*
X116751342Y-94245529D01*
X116950301Y-94321503D01*
X116960210Y-94324382D01*
X116977722Y-94327945D01*
X117040488Y-94361126D01*
X117075350Y-94422974D01*
X117071241Y-94493851D01*
X117029464Y-94551256D01*
X116988183Y-94572286D01*
X116943636Y-94585397D01*
X116762803Y-94679934D01*
X116758003Y-94683794D01*
X116758002Y-94683794D01*
X116743764Y-94695242D01*
X116603777Y-94807794D01*
X116472615Y-94964107D01*
X116469651Y-94969499D01*
X116469648Y-94969503D01*
X116434970Y-95032583D01*
X116374312Y-95142920D01*
X116312612Y-95337421D01*
X116289867Y-95540202D01*
X116306942Y-95743539D01*
X116363186Y-95939687D01*
X116456458Y-96121175D01*
X116583205Y-96281090D01*
X116738599Y-96413340D01*
X116743977Y-96416346D01*
X116743979Y-96416347D01*
X116786931Y-96440352D01*
X116916721Y-96512889D01*
X117110787Y-96575945D01*
X117313404Y-96600106D01*
X117319539Y-96599634D01*
X117319541Y-96599634D01*
X117510713Y-96584924D01*
X117510717Y-96584923D01*
X117516855Y-96584451D01*
X117713391Y-96529577D01*
X117895526Y-96437574D01*
X117922696Y-96416347D01*
X118051465Y-96315741D01*
X118056321Y-96311947D01*
X118189654Y-96157480D01*
X118290444Y-95980057D01*
X118354853Y-95786437D01*
X118380427Y-95583993D01*
X118380835Y-95554800D01*
X118360923Y-95351721D01*
X118301945Y-95156378D01*
X118206148Y-94976210D01*
X118202250Y-94971431D01*
X118202247Y-94971426D01*
X118113107Y-94862130D01*
X118077181Y-94818080D01*
X118003378Y-94757025D01*
X117924705Y-94691940D01*
X117924700Y-94691937D01*
X117919956Y-94688012D01*
X117914537Y-94685082D01*
X117914534Y-94685080D01*
X117745881Y-94593890D01*
X117745876Y-94593888D01*
X117740461Y-94590960D01*
X117676310Y-94571102D01*
X117617151Y-94531850D01*
X117588604Y-94466846D01*
X117599733Y-94396727D01*
X117647004Y-94343756D01*
X117677363Y-94330051D01*
X117827552Y-94284992D01*
X117837142Y-94281233D01*
X118028395Y-94187539D01*
X118037245Y-94182264D01*
X118197231Y-94068147D01*
X118264304Y-94044874D01*
X118333313Y-94061557D01*
X118359334Y-94083374D01*
X118359885Y-94084328D01*
X118368331Y-94091415D01*
X118387742Y-94107703D01*
X118395845Y-94115129D01*
X118774972Y-94494256D01*
X118782397Y-94502358D01*
X118805772Y-94530215D01*
X118837249Y-94548388D01*
X118846519Y-94554294D01*
X118867272Y-94568826D01*
X118867276Y-94568828D01*
X118876306Y-94575151D01*
X118886962Y-94578006D01*
X118889730Y-94579297D01*
X118892578Y-94580334D01*
X118902128Y-94585847D01*
X118937947Y-94592163D01*
X118948675Y-94594542D01*
X118973132Y-94601095D01*
X118973134Y-94601095D01*
X118983778Y-94603947D01*
X118994753Y-94602987D01*
X118994754Y-94602987D01*
X119009406Y-94601705D01*
X119019994Y-94600779D01*
X119030972Y-94600300D01*
X119047769Y-94600300D01*
X119115890Y-94620302D01*
X119162383Y-94673958D01*
X119172487Y-94744232D01*
X119143546Y-94807600D01*
X119143777Y-94807794D01*
X119012615Y-94964107D01*
X119009651Y-94969499D01*
X119009648Y-94969503D01*
X118974970Y-95032583D01*
X118914312Y-95142920D01*
X118852612Y-95337421D01*
X118829867Y-95540202D01*
X118846942Y-95743539D01*
X118903186Y-95939687D01*
X118996458Y-96121175D01*
X119123205Y-96281090D01*
X119278599Y-96413340D01*
X119283977Y-96416346D01*
X119283979Y-96416347D01*
X119326931Y-96440352D01*
X119456721Y-96512889D01*
X119650787Y-96575945D01*
X119853404Y-96600106D01*
X119859539Y-96599634D01*
X119859541Y-96599634D01*
X120050713Y-96584924D01*
X120050717Y-96584923D01*
X120056855Y-96584451D01*
X120253391Y-96529577D01*
X120435526Y-96437574D01*
X120462696Y-96416347D01*
X120591465Y-96315741D01*
X120596321Y-96311947D01*
X120729654Y-96157480D01*
X120830444Y-95980057D01*
X120894853Y-95786437D01*
X120920427Y-95583993D01*
X120920835Y-95554800D01*
X120900923Y-95351721D01*
X120841945Y-95156378D01*
X120746148Y-94976210D01*
X120742250Y-94971431D01*
X120742247Y-94971426D01*
X120621079Y-94822859D01*
X120621077Y-94822857D01*
X120617181Y-94818080D01*
X120613193Y-94814781D01*
X120579550Y-94752651D01*
X120584864Y-94681853D01*
X120627610Y-94625167D01*
X120694217Y-94600590D01*
X120702764Y-94600300D01*
X121532432Y-94600300D01*
X121543415Y-94600780D01*
X121568637Y-94602987D01*
X121568638Y-94602987D01*
X121579622Y-94603948D01*
X121614746Y-94594537D01*
X121625461Y-94592162D01*
X121639518Y-94589683D01*
X121650419Y-94587761D01*
X121650420Y-94587761D01*
X121661272Y-94585847D01*
X121670814Y-94580338D01*
X121673675Y-94579297D01*
X121676449Y-94578003D01*
X121687093Y-94575151D01*
X121716874Y-94554298D01*
X121726138Y-94548396D01*
X121757628Y-94530215D01*
X121764715Y-94521770D01*
X121781003Y-94502358D01*
X121788429Y-94494255D01*
X122148040Y-94134644D01*
X131265919Y-94134644D01*
X131266276Y-94141461D01*
X131266276Y-94141465D01*
X131271497Y-94241079D01*
X131275590Y-94319181D01*
X131277401Y-94325754D01*
X131277401Y-94325757D01*
X131303030Y-94418802D01*
X131324662Y-94497336D01*
X131410846Y-94660798D01*
X131530120Y-94801940D01*
X131535544Y-94806087D01*
X131535545Y-94806088D01*
X131671499Y-94910033D01*
X131671503Y-94910036D01*
X131676920Y-94914177D01*
X131683100Y-94917059D01*
X131683102Y-94917060D01*
X131838220Y-94989393D01*
X131838223Y-94989394D01*
X131844397Y-94992273D01*
X131851042Y-94993758D01*
X131851047Y-94993760D01*
X131959307Y-95017958D01*
X132024737Y-95032583D01*
X132030407Y-95032900D01*
X132166264Y-95032900D01*
X132303809Y-95017958D01*
X132478948Y-94959017D01*
X132637344Y-94863843D01*
X132642306Y-94859151D01*
X132766649Y-94741565D01*
X132766651Y-94741563D01*
X132771607Y-94736876D01*
X132875475Y-94584040D01*
X132878010Y-94577703D01*
X132916310Y-94481946D01*
X135991393Y-94481946D01*
X135992557Y-94490848D01*
X135992557Y-94490851D01*
X136007347Y-94603948D01*
X136009611Y-94621262D01*
X136066197Y-94749864D01*
X136071974Y-94756737D01*
X136071975Y-94756738D01*
X136150826Y-94850543D01*
X136150829Y-94850545D01*
X136156604Y-94857416D01*
X136157333Y-94857901D01*
X136192633Y-94914753D01*
X136197200Y-94948368D01*
X136197200Y-101298436D01*
X136177198Y-101366557D01*
X136165647Y-101381837D01*
X136123521Y-101429535D01*
X136063809Y-101556717D01*
X136062429Y-101565581D01*
X136062428Y-101565584D01*
X136061522Y-101571407D01*
X136042193Y-101695546D01*
X136043357Y-101704448D01*
X136043357Y-101704451D01*
X136045195Y-101718503D01*
X136060411Y-101834862D01*
X136116997Y-101963464D01*
X136122774Y-101970337D01*
X136122775Y-101970338D01*
X136191648Y-102052272D01*
X136207404Y-102071016D01*
X136324363Y-102148871D01*
X136458472Y-102190769D01*
X136467442Y-102190933D01*
X136467446Y-102190934D01*
X136532244Y-102192121D01*
X136598950Y-102193344D01*
X136672919Y-102173178D01*
X136725845Y-102158749D01*
X136725847Y-102158748D01*
X136734504Y-102156388D01*
X136854238Y-102082871D01*
X136948525Y-101978705D01*
X136986864Y-101899574D01*
X137005872Y-101860341D01*
X137005872Y-101860340D01*
X137009786Y-101852262D01*
X137033096Y-101713707D01*
X137033244Y-101701600D01*
X137013326Y-101562517D01*
X136955172Y-101434615D01*
X136921410Y-101395433D01*
X136908747Y-101380736D01*
X136879433Y-101316073D01*
X136878200Y-101298488D01*
X136878200Y-94830298D01*
X136898079Y-94765276D01*
X136897725Y-94765105D01*
X136898826Y-94762832D01*
X136914136Y-94731234D01*
X136955072Y-94646741D01*
X136955072Y-94646740D01*
X136958986Y-94638662D01*
X136982296Y-94500107D01*
X136982370Y-94494017D01*
X136982385Y-94492859D01*
X136982385Y-94492854D01*
X136982444Y-94488000D01*
X136962526Y-94348917D01*
X136904372Y-94221015D01*
X136812658Y-94114576D01*
X136805127Y-94109695D01*
X136805124Y-94109692D01*
X136702288Y-94043037D01*
X136702286Y-94043036D01*
X136694757Y-94038156D01*
X136686160Y-94035585D01*
X136686158Y-94035584D01*
X136606116Y-94011647D01*
X136560146Y-93997899D01*
X136551170Y-93997844D01*
X136551169Y-93997844D01*
X136491915Y-93997482D01*
X136419647Y-93997041D01*
X136284554Y-94035651D01*
X136165728Y-94110624D01*
X136072721Y-94215935D01*
X136013009Y-94343117D01*
X136011629Y-94351981D01*
X136011628Y-94351984D01*
X136001225Y-94418802D01*
X135991393Y-94481946D01*
X132916310Y-94481946D01*
X132941566Y-94418802D01*
X132941567Y-94418797D01*
X132944100Y-94412465D01*
X132974281Y-94230156D01*
X132973184Y-94209206D01*
X132964967Y-94052432D01*
X132964610Y-94045619D01*
X132962555Y-94038156D01*
X132917351Y-93874046D01*
X132915538Y-93867464D01*
X132829354Y-93704002D01*
X132710080Y-93562860D01*
X132673519Y-93534907D01*
X132568701Y-93454767D01*
X132568697Y-93454764D01*
X132563280Y-93450623D01*
X132557100Y-93447741D01*
X132557098Y-93447740D01*
X132401980Y-93375407D01*
X132401977Y-93375406D01*
X132395803Y-93372527D01*
X132389158Y-93371042D01*
X132389153Y-93371040D01*
X132249229Y-93339765D01*
X132215463Y-93332217D01*
X132209793Y-93331900D01*
X132073936Y-93331900D01*
X131936391Y-93346842D01*
X131761252Y-93405783D01*
X131602856Y-93500957D01*
X131597896Y-93505648D01*
X131597894Y-93505649D01*
X131519082Y-93580179D01*
X131468593Y-93627924D01*
X131364725Y-93780760D01*
X131362192Y-93787094D01*
X131362190Y-93787097D01*
X131298634Y-93945998D01*
X131298633Y-93946003D01*
X131296100Y-93952335D01*
X131288131Y-94000472D01*
X131267066Y-94127716D01*
X131265919Y-94134644D01*
X122148040Y-94134644D01*
X124248393Y-92034291D01*
X124265218Y-92020173D01*
X124273607Y-92014299D01*
X124282877Y-92008393D01*
X124304817Y-91995726D01*
X124304818Y-91995725D01*
X124314362Y-91990215D01*
X124337737Y-91962358D01*
X124345163Y-91954255D01*
X126795373Y-89504046D01*
X167698100Y-89504046D01*
X167699472Y-89510499D01*
X167699472Y-89510503D01*
X167700192Y-89513890D01*
X167737456Y-89689203D01*
X167814449Y-89862130D01*
X167818329Y-89867471D01*
X167818330Y-89867472D01*
X167839209Y-89896210D01*
X167925712Y-90015271D01*
X167930614Y-90019684D01*
X167930615Y-90019686D01*
X167993578Y-90076378D01*
X168066384Y-90141933D01*
X168230316Y-90236579D01*
X168410344Y-90295074D01*
X168416905Y-90295764D01*
X168416907Y-90295764D01*
X168470563Y-90301403D01*
X168551408Y-90309900D01*
X168645792Y-90309900D01*
X168726637Y-90301403D01*
X168780293Y-90295764D01*
X168780295Y-90295764D01*
X168786856Y-90295074D01*
X168966884Y-90236579D01*
X169130816Y-90141933D01*
X169203622Y-90076378D01*
X169266585Y-90019686D01*
X169266586Y-90019684D01*
X169271488Y-90015271D01*
X169357991Y-89896210D01*
X169378870Y-89867472D01*
X169378871Y-89867471D01*
X169382751Y-89862130D01*
X169459744Y-89689203D01*
X169497008Y-89513890D01*
X169497728Y-89510503D01*
X169497728Y-89510499D01*
X169499100Y-89504046D01*
X169499100Y-89314754D01*
X169459744Y-89129597D01*
X169382751Y-88956670D01*
X169351939Y-88914260D01*
X169275367Y-88808868D01*
X169271488Y-88803529D01*
X169255737Y-88789346D01*
X169135724Y-88681286D01*
X169135723Y-88681285D01*
X169130816Y-88676867D01*
X168966884Y-88582221D01*
X168786856Y-88523726D01*
X168780295Y-88523036D01*
X168780293Y-88523036D01*
X168726637Y-88517397D01*
X168645792Y-88508900D01*
X168551408Y-88508900D01*
X168470563Y-88517397D01*
X168416907Y-88523036D01*
X168416905Y-88523036D01*
X168410344Y-88523726D01*
X168230316Y-88582221D01*
X168066384Y-88676867D01*
X168061477Y-88681285D01*
X168061476Y-88681286D01*
X167941464Y-88789346D01*
X167925712Y-88803529D01*
X167921833Y-88808868D01*
X167845262Y-88914260D01*
X167814449Y-88956670D01*
X167737456Y-89129597D01*
X167698100Y-89314754D01*
X167698100Y-89504046D01*
X126795373Y-89504046D01*
X127774409Y-88525010D01*
X127836721Y-88490984D01*
X127863504Y-88488105D01*
X131514225Y-88488105D01*
X131582346Y-88508107D01*
X131610674Y-88533028D01*
X131612452Y-88535143D01*
X131618234Y-88542021D01*
X131735193Y-88619876D01*
X131869302Y-88661774D01*
X131878272Y-88661938D01*
X131878276Y-88661939D01*
X131943074Y-88663126D01*
X132009780Y-88664349D01*
X132067154Y-88648707D01*
X132136675Y-88629754D01*
X132136677Y-88629753D01*
X132145334Y-88627393D01*
X132265068Y-88553876D01*
X132359355Y-88449710D01*
X132400193Y-88365420D01*
X132416702Y-88331346D01*
X132416702Y-88331345D01*
X132420616Y-88323267D01*
X132443926Y-88184712D01*
X132444074Y-88172605D01*
X132424156Y-88033522D01*
X132366002Y-87905620D01*
X132368347Y-87904554D01*
X132352288Y-87849416D01*
X132372440Y-87781339D01*
X132387457Y-87764413D01*
X132386638Y-87763671D01*
X132387139Y-87763117D01*
X132480925Y-87659505D01*
X132542186Y-87533062D01*
X132565496Y-87394507D01*
X132565644Y-87382400D01*
X132545726Y-87243317D01*
X132500916Y-87144763D01*
X132491287Y-87123585D01*
X132491286Y-87123583D01*
X132487572Y-87115415D01*
X132468775Y-87093600D01*
X132439461Y-87028937D01*
X132449760Y-86958692D01*
X132470812Y-86926798D01*
X132539336Y-86851094D01*
X132589956Y-86746615D01*
X132596683Y-86732730D01*
X132596683Y-86732729D01*
X132600597Y-86724651D01*
X132623907Y-86586096D01*
X132624055Y-86573989D01*
X132604137Y-86434906D01*
X132545983Y-86307004D01*
X132504335Y-86258670D01*
X132475022Y-86194009D01*
X132485321Y-86123764D01*
X132506374Y-86091867D01*
X132574900Y-86016161D01*
X132580925Y-86009505D01*
X132642186Y-85883062D01*
X132665496Y-85744507D01*
X132665644Y-85732400D01*
X132645726Y-85593317D01*
X132587572Y-85465415D01*
X132495858Y-85358976D01*
X132488327Y-85354095D01*
X132488324Y-85354092D01*
X132385488Y-85287437D01*
X132385486Y-85287436D01*
X132377957Y-85282556D01*
X132369360Y-85279985D01*
X132369358Y-85279984D01*
X132289316Y-85256047D01*
X132243346Y-85242299D01*
X132234370Y-85242244D01*
X132234369Y-85242244D01*
X132177201Y-85241895D01*
X132109204Y-85221477D01*
X132088876Y-85204992D01*
X128188228Y-81304344D01*
X128180801Y-81296240D01*
X128164514Y-81276830D01*
X128157428Y-81268385D01*
X128125938Y-81250204D01*
X128116674Y-81244302D01*
X128095923Y-81229772D01*
X128086893Y-81223449D01*
X128076249Y-81220597D01*
X128073475Y-81219303D01*
X128070614Y-81218262D01*
X128061072Y-81212753D01*
X128050220Y-81210839D01*
X128050219Y-81210839D01*
X128034726Y-81208107D01*
X128025261Y-81206438D01*
X128014546Y-81204063D01*
X127979422Y-81194652D01*
X127968447Y-81195612D01*
X127968446Y-81195612D01*
X127943199Y-81197821D01*
X127932218Y-81198300D01*
X118695570Y-81198300D01*
X118684589Y-81197821D01*
X118659355Y-81195613D01*
X118659353Y-81195613D01*
X118648378Y-81194653D01*
X118637734Y-81197505D01*
X118637732Y-81197505D01*
X118613275Y-81204058D01*
X118602548Y-81206437D01*
X118566728Y-81212753D01*
X118557178Y-81218266D01*
X118554330Y-81219303D01*
X118551562Y-81220594D01*
X118540906Y-81223449D01*
X118531876Y-81229772D01*
X118531872Y-81229774D01*
X118511119Y-81244306D01*
X118501850Y-81250211D01*
X118470372Y-81268385D01*
X118463289Y-81276826D01*
X118463288Y-81276827D01*
X118446997Y-81296242D01*
X118439571Y-81304345D01*
X117879073Y-81864843D01*
X117816761Y-81898869D01*
X117742420Y-81892019D01*
X117740461Y-81890960D01*
X117605886Y-81849302D01*
X117551421Y-81832442D01*
X117551418Y-81832441D01*
X117545534Y-81830620D01*
X117539409Y-81829976D01*
X117539408Y-81829976D01*
X117348727Y-81809934D01*
X117348726Y-81809934D01*
X117342599Y-81809290D01*
X117214767Y-81820924D01*
X117145527Y-81827225D01*
X117145526Y-81827225D01*
X117139386Y-81827784D01*
X117133472Y-81829525D01*
X117133470Y-81829525D01*
X117066275Y-81849302D01*
X116943636Y-81885397D01*
X116762803Y-81979934D01*
X116603777Y-82107794D01*
X116472615Y-82264107D01*
X116469651Y-82269499D01*
X116469648Y-82269503D01*
X116446835Y-82311000D01*
X116374312Y-82442920D01*
X116372451Y-82448787D01*
X116372450Y-82448789D01*
X116343462Y-82540170D01*
X116312612Y-82637421D01*
X116289867Y-82840202D01*
X116306942Y-83043539D01*
X116363186Y-83239687D01*
X116456458Y-83421175D01*
X116583205Y-83581090D01*
X116738599Y-83713340D01*
X116743977Y-83716346D01*
X116743979Y-83716347D01*
X116784820Y-83739172D01*
X116916721Y-83812889D01*
X117110787Y-83875945D01*
X117313404Y-83900106D01*
X117319539Y-83899634D01*
X117319541Y-83899634D01*
X117510713Y-83884924D01*
X117510717Y-83884923D01*
X117516855Y-83884451D01*
X117713391Y-83829577D01*
X117895526Y-83737574D01*
X117906881Y-83728703D01*
X118051465Y-83615741D01*
X118056321Y-83611947D01*
X118189654Y-83457480D01*
X118290444Y-83280057D01*
X118354853Y-83086437D01*
X118380427Y-82883993D01*
X118380835Y-82854800D01*
X118360923Y-82651721D01*
X118301945Y-82456378D01*
X118299051Y-82450936D01*
X118297887Y-82448111D01*
X118290420Y-82377508D01*
X118325284Y-82311000D01*
X118619705Y-82016579D01*
X118682017Y-81982553D01*
X118752832Y-81987618D01*
X118809668Y-82030165D01*
X118834479Y-82096685D01*
X118834800Y-82105674D01*
X118834800Y-83723562D01*
X118834845Y-83723786D01*
X118822003Y-83791502D01*
X118773163Y-83843031D01*
X118709838Y-83860100D01*
X118573768Y-83860100D01*
X118562785Y-83859620D01*
X118537563Y-83857413D01*
X118537562Y-83857413D01*
X118526578Y-83856452D01*
X118491454Y-83865863D01*
X118480739Y-83868238D01*
X118471274Y-83869907D01*
X118455781Y-83872639D01*
X118455780Y-83872639D01*
X118444928Y-83874553D01*
X118435386Y-83880062D01*
X118432525Y-83881103D01*
X118429751Y-83882397D01*
X118419107Y-83885249D01*
X118410077Y-83891572D01*
X118389326Y-83906102D01*
X118380062Y-83912004D01*
X118348572Y-83930185D01*
X118341489Y-83938626D01*
X118341488Y-83938627D01*
X118325197Y-83958042D01*
X118317771Y-83966145D01*
X117879073Y-84404843D01*
X117816761Y-84438869D01*
X117742420Y-84432019D01*
X117740461Y-84430960D01*
X117654045Y-84404210D01*
X117551421Y-84372442D01*
X117551418Y-84372441D01*
X117545534Y-84370620D01*
X117539409Y-84369976D01*
X117539408Y-84369976D01*
X117348727Y-84349934D01*
X117348726Y-84349934D01*
X117342599Y-84349290D01*
X117214767Y-84360924D01*
X117145527Y-84367225D01*
X117145526Y-84367225D01*
X117139386Y-84367784D01*
X117133472Y-84369525D01*
X117133470Y-84369525D01*
X117013472Y-84404843D01*
X116943636Y-84425397D01*
X116762803Y-84519934D01*
X116603777Y-84647794D01*
X116472615Y-84804107D01*
X116469651Y-84809499D01*
X116469648Y-84809503D01*
X116446835Y-84851000D01*
X116374312Y-84982920D01*
X116372451Y-84988787D01*
X116372450Y-84988789D01*
X116368171Y-85002278D01*
X116312612Y-85177421D01*
X116289867Y-85380202D01*
X116306942Y-85583539D01*
X116308641Y-85589464D01*
X116354474Y-85749303D01*
X116363186Y-85779687D01*
X116456458Y-85961175D01*
X116583205Y-86121090D01*
X116738599Y-86253340D01*
X116743977Y-86256346D01*
X116743979Y-86256347D01*
X116786931Y-86280352D01*
X116916721Y-86352889D01*
X117110787Y-86415945D01*
X117313404Y-86440106D01*
X117319539Y-86439634D01*
X117319541Y-86439634D01*
X117510713Y-86424924D01*
X117510717Y-86424923D01*
X117516855Y-86424451D01*
X117713391Y-86369577D01*
X117895526Y-86277574D01*
X117922696Y-86256347D01*
X118051465Y-86155741D01*
X118056321Y-86151947D01*
X118173529Y-86016161D01*
X118185625Y-86002148D01*
X118185626Y-86002146D01*
X118189654Y-85997480D01*
X118290444Y-85820057D01*
X118354853Y-85626437D01*
X118380427Y-85423993D01*
X118380835Y-85394800D01*
X118360923Y-85191721D01*
X118301945Y-84996378D01*
X118299051Y-84990936D01*
X118297887Y-84988111D01*
X118290420Y-84917508D01*
X118325284Y-84851000D01*
X118648279Y-84528005D01*
X118710591Y-84493979D01*
X118737374Y-84491100D01*
X119005051Y-84491100D01*
X119073172Y-84511102D01*
X119119665Y-84564758D01*
X119129769Y-84635032D01*
X119101573Y-84698091D01*
X119012615Y-84804107D01*
X119009651Y-84809499D01*
X119009648Y-84809503D01*
X118986835Y-84851000D01*
X118914312Y-84982920D01*
X118912451Y-84988787D01*
X118912450Y-84988789D01*
X118908171Y-85002278D01*
X118852612Y-85177421D01*
X118829867Y-85380202D01*
X118846942Y-85583539D01*
X118848641Y-85589464D01*
X118894474Y-85749303D01*
X118903186Y-85779687D01*
X118996458Y-85961175D01*
X119123205Y-86121090D01*
X119278599Y-86253340D01*
X119283977Y-86256346D01*
X119283979Y-86256347D01*
X119326931Y-86280352D01*
X119456721Y-86352889D01*
X119650787Y-86415945D01*
X119853404Y-86440106D01*
X119859539Y-86439634D01*
X119859541Y-86439634D01*
X120050713Y-86424924D01*
X120050717Y-86424923D01*
X120056855Y-86424451D01*
X120253391Y-86369577D01*
X120435526Y-86277574D01*
X120462696Y-86256347D01*
X120591465Y-86155741D01*
X120596321Y-86151947D01*
X120713529Y-86016161D01*
X120725625Y-86002148D01*
X120725626Y-86002146D01*
X120729654Y-85997480D01*
X120830444Y-85820057D01*
X120894853Y-85626437D01*
X120920427Y-85423993D01*
X120920835Y-85394800D01*
X120900923Y-85191721D01*
X120841945Y-84996378D01*
X120746148Y-84816210D01*
X120742250Y-84811431D01*
X120742247Y-84811426D01*
X120648707Y-84696735D01*
X120621153Y-84631304D01*
X120633349Y-84561362D01*
X120681421Y-84509117D01*
X120746350Y-84491100D01*
X121380032Y-84491100D01*
X121391015Y-84491580D01*
X121416237Y-84493787D01*
X121416238Y-84493787D01*
X121427222Y-84494748D01*
X121462346Y-84485337D01*
X121473061Y-84482962D01*
X121482526Y-84481293D01*
X121498019Y-84478561D01*
X121498020Y-84478561D01*
X121508872Y-84476647D01*
X121518414Y-84471138D01*
X121521275Y-84470097D01*
X121524049Y-84468803D01*
X121534693Y-84465951D01*
X121564474Y-84445098D01*
X121573738Y-84439196D01*
X121605228Y-84421015D01*
X121628603Y-84393158D01*
X121636029Y-84385055D01*
X121645479Y-84375605D01*
X121707791Y-84341579D01*
X121734574Y-84338700D01*
X129394848Y-84338700D01*
X129462969Y-84358702D01*
X129483943Y-84375605D01*
X131597240Y-86488902D01*
X131631266Y-86551214D01*
X131632961Y-86567941D01*
X131633004Y-86567935D01*
X131651222Y-86707251D01*
X131707808Y-86835853D01*
X131713585Y-86842726D01*
X131713586Y-86842727D01*
X131720134Y-86850516D01*
X131726215Y-86857750D01*
X131727958Y-86859824D01*
X131756480Y-86924839D01*
X131745325Y-86994954D01*
X131698033Y-87047907D01*
X131631508Y-87066900D01*
X127762168Y-87066900D01*
X127751185Y-87066420D01*
X127725963Y-87064213D01*
X127725962Y-87064213D01*
X127714978Y-87063252D01*
X127679854Y-87072663D01*
X127669139Y-87075038D01*
X127659674Y-87076707D01*
X127644181Y-87079439D01*
X127644180Y-87079439D01*
X127633328Y-87081353D01*
X127623786Y-87086862D01*
X127620925Y-87087903D01*
X127618151Y-87089197D01*
X127607507Y-87092049D01*
X127598477Y-87098372D01*
X127577726Y-87112902D01*
X127568462Y-87118804D01*
X127536972Y-87136985D01*
X127529889Y-87145426D01*
X127529888Y-87145427D01*
X127513597Y-87164842D01*
X127506171Y-87172945D01*
X123286721Y-91392395D01*
X123224409Y-91426421D01*
X123197626Y-91429300D01*
X120701178Y-91429300D01*
X120633057Y-91409298D01*
X120586564Y-91355642D01*
X120576460Y-91285368D01*
X120605797Y-91220969D01*
X120725625Y-91082148D01*
X120725626Y-91082146D01*
X120729654Y-91077480D01*
X120830444Y-90900057D01*
X120894853Y-90706437D01*
X120920427Y-90503993D01*
X120920835Y-90474800D01*
X120900923Y-90271721D01*
X120841945Y-90076378D01*
X120839051Y-90070936D01*
X120837887Y-90068111D01*
X120830420Y-89997508D01*
X120865284Y-89931000D01*
X121797413Y-88998872D01*
X122777162Y-88019123D01*
X122785266Y-88011696D01*
X122804671Y-87995413D01*
X122813115Y-87988328D01*
X122818625Y-87978785D01*
X122818628Y-87978781D01*
X122831290Y-87956849D01*
X122837196Y-87947578D01*
X122843677Y-87938322D01*
X122858052Y-87917793D01*
X122860905Y-87907144D01*
X122862187Y-87904395D01*
X122863233Y-87901523D01*
X122868747Y-87891972D01*
X122875059Y-87856173D01*
X122877435Y-87845451D01*
X122886848Y-87810321D01*
X122883679Y-87774099D01*
X122883200Y-87763117D01*
X122883200Y-87451375D01*
X122903202Y-87383254D01*
X122915785Y-87366820D01*
X122972497Y-87304165D01*
X122972498Y-87304163D01*
X122978525Y-87297505D01*
X123029393Y-87192513D01*
X123035872Y-87179141D01*
X123035872Y-87179140D01*
X123039786Y-87171062D01*
X123063096Y-87032507D01*
X123063244Y-87020400D01*
X123043326Y-86881317D01*
X122985172Y-86753415D01*
X122893458Y-86646976D01*
X122885927Y-86642095D01*
X122885924Y-86642092D01*
X122783088Y-86575437D01*
X122783086Y-86575436D01*
X122775557Y-86570556D01*
X122766960Y-86567985D01*
X122766958Y-86567984D01*
X122686916Y-86544047D01*
X122640946Y-86530299D01*
X122631970Y-86530244D01*
X122631969Y-86530244D01*
X122572715Y-86529882D01*
X122500447Y-86529441D01*
X122365354Y-86568051D01*
X122246528Y-86643024D01*
X122153521Y-86748335D01*
X122093809Y-86875517D01*
X122092429Y-86884381D01*
X122092428Y-86884384D01*
X122079370Y-86968254D01*
X122072193Y-87014346D01*
X122073357Y-87023248D01*
X122073357Y-87023251D01*
X122088230Y-87136985D01*
X122090411Y-87153662D01*
X122146997Y-87282264D01*
X122222652Y-87372267D01*
X122251172Y-87437280D01*
X122252200Y-87453340D01*
X122252200Y-87599525D01*
X122232198Y-87667646D01*
X122215295Y-87688620D01*
X120419073Y-89484843D01*
X120356761Y-89518868D01*
X120282420Y-89512019D01*
X120280461Y-89510960D01*
X120194045Y-89484210D01*
X120091421Y-89452442D01*
X120091418Y-89452441D01*
X120085534Y-89450620D01*
X120079409Y-89449976D01*
X120079408Y-89449976D01*
X119888727Y-89429934D01*
X119888726Y-89429934D01*
X119882599Y-89429290D01*
X119754767Y-89440924D01*
X119685527Y-89447225D01*
X119685526Y-89447225D01*
X119679386Y-89447784D01*
X119673472Y-89449525D01*
X119673470Y-89449525D01*
X119553472Y-89484843D01*
X119483636Y-89505397D01*
X119302803Y-89599934D01*
X119298003Y-89603794D01*
X119298002Y-89603794D01*
X119260746Y-89633749D01*
X119143777Y-89727794D01*
X119139817Y-89732513D01*
X119135413Y-89736826D01*
X119133503Y-89734875D01*
X119084185Y-89767671D01*
X119013197Y-89768782D01*
X118952878Y-89731337D01*
X118922378Y-89667225D01*
X118920800Y-89647345D01*
X118920800Y-89224068D01*
X118921280Y-89213085D01*
X118923487Y-89187861D01*
X118924448Y-89176878D01*
X118915037Y-89141754D01*
X118912661Y-89131036D01*
X118911343Y-89123558D01*
X118906347Y-89095228D01*
X118900838Y-89085686D01*
X118899797Y-89082825D01*
X118898503Y-89080051D01*
X118895651Y-89069407D01*
X118874798Y-89039626D01*
X118868892Y-89030356D01*
X118850715Y-88998872D01*
X118822858Y-88975497D01*
X118814755Y-88968071D01*
X118324577Y-88477893D01*
X118290551Y-88415581D01*
X118294114Y-88349026D01*
X118347178Y-88189508D01*
X118354853Y-88166437D01*
X118380427Y-87963993D01*
X118380593Y-87952087D01*
X118380786Y-87938322D01*
X118380786Y-87938318D01*
X118380835Y-87934800D01*
X118379404Y-87920202D01*
X118829867Y-87920202D01*
X118846942Y-88123539D01*
X118903186Y-88319687D01*
X118906002Y-88325166D01*
X118991221Y-88490984D01*
X118996458Y-88501175D01*
X119123205Y-88661090D01*
X119278599Y-88793340D01*
X119283977Y-88796346D01*
X119283979Y-88796347D01*
X119326931Y-88820352D01*
X119456721Y-88892889D01*
X119650787Y-88955945D01*
X119853404Y-88980106D01*
X119859539Y-88979634D01*
X119859541Y-88979634D01*
X120050713Y-88964924D01*
X120050717Y-88964923D01*
X120056855Y-88964451D01*
X120253391Y-88909577D01*
X120435526Y-88817574D01*
X120596321Y-88691947D01*
X120600347Y-88687283D01*
X120725625Y-88542148D01*
X120725626Y-88542146D01*
X120729654Y-88537480D01*
X120736309Y-88525766D01*
X120798902Y-88415581D01*
X120830444Y-88360057D01*
X120894853Y-88166437D01*
X120920427Y-87963993D01*
X120920593Y-87952087D01*
X120920786Y-87938322D01*
X120920786Y-87938318D01*
X120920835Y-87934800D01*
X120900923Y-87731721D01*
X120841945Y-87536378D01*
X120746148Y-87356210D01*
X120742250Y-87351431D01*
X120742247Y-87351426D01*
X120647410Y-87235145D01*
X120617181Y-87198080D01*
X120521358Y-87118808D01*
X120464705Y-87071940D01*
X120464700Y-87071937D01*
X120459956Y-87068012D01*
X120454537Y-87065082D01*
X120454534Y-87065080D01*
X120285881Y-86973890D01*
X120285876Y-86973888D01*
X120280461Y-86970960D01*
X120229743Y-86955260D01*
X120091421Y-86912442D01*
X120091418Y-86912441D01*
X120085534Y-86910620D01*
X120079409Y-86909976D01*
X120079408Y-86909976D01*
X119888727Y-86889934D01*
X119888726Y-86889934D01*
X119882599Y-86889290D01*
X119754767Y-86900924D01*
X119685527Y-86907225D01*
X119685526Y-86907225D01*
X119679386Y-86907784D01*
X119673472Y-86909525D01*
X119673470Y-86909525D01*
X119541462Y-86948378D01*
X119483636Y-86965397D01*
X119302803Y-87059934D01*
X119298003Y-87063794D01*
X119298002Y-87063794D01*
X119286975Y-87072660D01*
X119143777Y-87187794D01*
X119012615Y-87344107D01*
X119009651Y-87349499D01*
X119009648Y-87349503D01*
X118961393Y-87437280D01*
X118914312Y-87522920D01*
X118852612Y-87717421D01*
X118829867Y-87920202D01*
X118379404Y-87920202D01*
X118360923Y-87731721D01*
X118301945Y-87536378D01*
X118206148Y-87356210D01*
X118202250Y-87351431D01*
X118202247Y-87351426D01*
X118107410Y-87235145D01*
X118077181Y-87198080D01*
X117981358Y-87118808D01*
X117924705Y-87071940D01*
X117924700Y-87071937D01*
X117919956Y-87068012D01*
X117914537Y-87065082D01*
X117914534Y-87065080D01*
X117745881Y-86973890D01*
X117745876Y-86973888D01*
X117740461Y-86970960D01*
X117689743Y-86955260D01*
X117551421Y-86912442D01*
X117551418Y-86912441D01*
X117545534Y-86910620D01*
X117539409Y-86909976D01*
X117539408Y-86909976D01*
X117348727Y-86889934D01*
X117348726Y-86889934D01*
X117342599Y-86889290D01*
X117214767Y-86900924D01*
X117145527Y-86907225D01*
X117145526Y-86907225D01*
X117139386Y-86907784D01*
X117133472Y-86909525D01*
X117133470Y-86909525D01*
X117001462Y-86948378D01*
X116943636Y-86965397D01*
X116762803Y-87059934D01*
X116758003Y-87063794D01*
X116758002Y-87063794D01*
X116746975Y-87072660D01*
X116603777Y-87187794D01*
X116472615Y-87344107D01*
X116469651Y-87349499D01*
X116469648Y-87349503D01*
X116421393Y-87437280D01*
X116374312Y-87522920D01*
X116312612Y-87717421D01*
X116289867Y-87920202D01*
X116306942Y-88123539D01*
X116363186Y-88319687D01*
X116366002Y-88325166D01*
X116451221Y-88490984D01*
X116456458Y-88501175D01*
X116583205Y-88661090D01*
X116738599Y-88793340D01*
X116743977Y-88796346D01*
X116743979Y-88796347D01*
X116786931Y-88820352D01*
X116916721Y-88892889D01*
X117110787Y-88955945D01*
X117313404Y-88980106D01*
X117319539Y-88979634D01*
X117319541Y-88979634D01*
X117510713Y-88964924D01*
X117510717Y-88964923D01*
X117516855Y-88964451D01*
X117713391Y-88909577D01*
X117731972Y-88900191D01*
X117801794Y-88887331D01*
X117867485Y-88914260D01*
X117877878Y-88923562D01*
X118252895Y-89298579D01*
X118286921Y-89360891D01*
X118289800Y-89387674D01*
X118289800Y-89647343D01*
X118269798Y-89715464D01*
X118216142Y-89761957D01*
X118145868Y-89772061D01*
X118081288Y-89742567D01*
X118079409Y-89740812D01*
X118077181Y-89738080D01*
X118069030Y-89731337D01*
X117924705Y-89611940D01*
X117924700Y-89611937D01*
X117919956Y-89608012D01*
X117914537Y-89605082D01*
X117914534Y-89605080D01*
X117745881Y-89513890D01*
X117745876Y-89513888D01*
X117740461Y-89510960D01*
X117722490Y-89505397D01*
X117551421Y-89452442D01*
X117551418Y-89452441D01*
X117545534Y-89450620D01*
X117539409Y-89449976D01*
X117539408Y-89449976D01*
X117348727Y-89429934D01*
X117348726Y-89429934D01*
X117342599Y-89429290D01*
X117214767Y-89440924D01*
X117145527Y-89447225D01*
X117145526Y-89447225D01*
X117139386Y-89447784D01*
X117133472Y-89449525D01*
X117133470Y-89449525D01*
X117013472Y-89484843D01*
X116943636Y-89505397D01*
X116762803Y-89599934D01*
X116758003Y-89603794D01*
X116758002Y-89603794D01*
X116720746Y-89633749D01*
X116603777Y-89727794D01*
X116472615Y-89884107D01*
X116469651Y-89889499D01*
X116469648Y-89889503D01*
X116465961Y-89896210D01*
X116374312Y-90062920D01*
X116372451Y-90068787D01*
X116372450Y-90068789D01*
X116350649Y-90137514D01*
X116312612Y-90257421D01*
X116289867Y-90460202D01*
X116306942Y-90663539D01*
X116363186Y-90859687D01*
X116456458Y-91041175D01*
X116583205Y-91201090D01*
X116738599Y-91333340D01*
X116743977Y-91336346D01*
X116743979Y-91336347D01*
X116827660Y-91383115D01*
X116916721Y-91432889D01*
X116993871Y-91457957D01*
X117052476Y-91498029D01*
X117080113Y-91563426D01*
X117068006Y-91633383D01*
X117020000Y-91685689D01*
X116994079Y-91697554D01*
X116812168Y-91757012D01*
X116802659Y-91761009D01*
X116613763Y-91859342D01*
X116605038Y-91864836D01*
X116434733Y-91992705D01*
X116427026Y-91999548D01*
X116279890Y-92153517D01*
X116273404Y-92161527D01*
X116153398Y-92337449D01*
X116148300Y-92346423D01*
X116058638Y-92539583D01*
X116055075Y-92549270D01*
X115999689Y-92748983D01*
X114526620Y-92748983D01*
X114552149Y-80410346D01*
X130860593Y-80410346D01*
X130878811Y-80549662D01*
X130935397Y-80678264D01*
X130941174Y-80685137D01*
X130941175Y-80685138D01*
X131010746Y-80767902D01*
X131025804Y-80785816D01*
X131142763Y-80863671D01*
X131276872Y-80905569D01*
X131285842Y-80905733D01*
X131285846Y-80905734D01*
X131350644Y-80906921D01*
X131417350Y-80908144D01*
X131474724Y-80892502D01*
X131544245Y-80873549D01*
X131544247Y-80873548D01*
X131552904Y-80871188D01*
X131672638Y-80797671D01*
X131680174Y-80789346D01*
X131682080Y-80788179D01*
X131685569Y-80785282D01*
X131685987Y-80785786D01*
X131740716Y-80752264D01*
X131773590Y-80747900D01*
X171949263Y-80747900D01*
X172017384Y-80767902D01*
X172061329Y-80816306D01*
X172139438Y-80968290D01*
X172139443Y-80968298D01*
X172142258Y-80973775D01*
X172269005Y-81133690D01*
X172424399Y-81265940D01*
X172429777Y-81268946D01*
X172429779Y-81268947D01*
X172472731Y-81292952D01*
X172602521Y-81365489D01*
X172796587Y-81428545D01*
X172999204Y-81452706D01*
X173005339Y-81452234D01*
X173005341Y-81452234D01*
X173196513Y-81437524D01*
X173196517Y-81437523D01*
X173202655Y-81437051D01*
X173399191Y-81382177D01*
X173581326Y-81290174D01*
X173598410Y-81276827D01*
X173737265Y-81168341D01*
X173742121Y-81164547D01*
X173875454Y-81010080D01*
X173976244Y-80832657D01*
X174040653Y-80639037D01*
X174066227Y-80436593D01*
X174066635Y-80407400D01*
X174046723Y-80204321D01*
X173987745Y-80008978D01*
X173891948Y-79828810D01*
X173888050Y-79824031D01*
X173888047Y-79824026D01*
X173820050Y-79740654D01*
X173762981Y-79670680D01*
X173704575Y-79622362D01*
X173610505Y-79544540D01*
X173610500Y-79544537D01*
X173605756Y-79540612D01*
X173600337Y-79537682D01*
X173600334Y-79537680D01*
X173431681Y-79446490D01*
X173431676Y-79446488D01*
X173426261Y-79443560D01*
X173402662Y-79436255D01*
X173237221Y-79385042D01*
X173237218Y-79385041D01*
X173231334Y-79383220D01*
X173225209Y-79382576D01*
X173225208Y-79382576D01*
X173034527Y-79362534D01*
X173034526Y-79362534D01*
X173028399Y-79361890D01*
X172900567Y-79373524D01*
X172831327Y-79379825D01*
X172831326Y-79379825D01*
X172825186Y-79380384D01*
X172819272Y-79382125D01*
X172819270Y-79382125D01*
X172687262Y-79420978D01*
X172629436Y-79437997D01*
X172448603Y-79532534D01*
X172443803Y-79536394D01*
X172443802Y-79536394D01*
X172406546Y-79566349D01*
X172289577Y-79660394D01*
X172158415Y-79816707D01*
X172155451Y-79822099D01*
X172155448Y-79822103D01*
X172098166Y-79926299D01*
X172060112Y-79995520D01*
X172059198Y-79995018D01*
X172017686Y-80045266D01*
X171947091Y-80066900D01*
X131754582Y-80066900D01*
X131686461Y-80046898D01*
X131682992Y-80044292D01*
X131681858Y-80042976D01*
X131601225Y-79990712D01*
X131571488Y-79971437D01*
X131571486Y-79971436D01*
X131563957Y-79966556D01*
X131555360Y-79963985D01*
X131555358Y-79963984D01*
X131475316Y-79940047D01*
X131429346Y-79926299D01*
X131420370Y-79926244D01*
X131420369Y-79926244D01*
X131361115Y-79925882D01*
X131288847Y-79925441D01*
X131153754Y-79964051D01*
X131034928Y-80039024D01*
X130941921Y-80144335D01*
X130882209Y-80271517D01*
X130860593Y-80410346D01*
X114552149Y-80410346D01*
X114557404Y-77870346D01*
X130860593Y-77870346D01*
X130878811Y-78009662D01*
X130935397Y-78138264D01*
X130941174Y-78145137D01*
X130941175Y-78145138D01*
X131010746Y-78227902D01*
X131025804Y-78245816D01*
X131142763Y-78323671D01*
X131276872Y-78365569D01*
X131285842Y-78365733D01*
X131285846Y-78365734D01*
X131350644Y-78366921D01*
X131417350Y-78368144D01*
X131474724Y-78352502D01*
X131544245Y-78333549D01*
X131544247Y-78333548D01*
X131552904Y-78331188D01*
X131672638Y-78257671D01*
X131680174Y-78249346D01*
X131682080Y-78248179D01*
X131685569Y-78245282D01*
X131685987Y-78245786D01*
X131740716Y-78212264D01*
X131773590Y-78207900D01*
X171949263Y-78207900D01*
X172017384Y-78227902D01*
X172061329Y-78276306D01*
X172139438Y-78428290D01*
X172139443Y-78428298D01*
X172142258Y-78433775D01*
X172269005Y-78593690D01*
X172424399Y-78725940D01*
X172429777Y-78728946D01*
X172429779Y-78728947D01*
X172472731Y-78752952D01*
X172602521Y-78825489D01*
X172796587Y-78888545D01*
X172999204Y-78912706D01*
X173005339Y-78912234D01*
X173005341Y-78912234D01*
X173196513Y-78897524D01*
X173196517Y-78897523D01*
X173202655Y-78897051D01*
X173399191Y-78842177D01*
X173581326Y-78750174D01*
X173608496Y-78728947D01*
X173737265Y-78628341D01*
X173742121Y-78624547D01*
X173875454Y-78470080D01*
X173976244Y-78292657D01*
X174040653Y-78099037D01*
X174066227Y-77896593D01*
X174066635Y-77867400D01*
X174046723Y-77664321D01*
X173987745Y-77468978D01*
X173891948Y-77288810D01*
X173888050Y-77284031D01*
X173888047Y-77284026D01*
X173820050Y-77200654D01*
X173762981Y-77130680D01*
X173704575Y-77082362D01*
X173610505Y-77004540D01*
X173610500Y-77004537D01*
X173605756Y-77000612D01*
X173600337Y-76997682D01*
X173600334Y-76997680D01*
X173460800Y-76922235D01*
X173410391Y-76872240D01*
X173395013Y-76802929D01*
X173419549Y-76736307D01*
X173476209Y-76693526D01*
X173520728Y-76685399D01*
X173915769Y-76685399D01*
X173922590Y-76685029D01*
X173973452Y-76679505D01*
X173988704Y-76675879D01*
X174109154Y-76630724D01*
X174124749Y-76622186D01*
X174226824Y-76545685D01*
X174239385Y-76533124D01*
X174315886Y-76431049D01*
X174324424Y-76415454D01*
X174369578Y-76295006D01*
X174373205Y-76279751D01*
X174378731Y-76228886D01*
X174379100Y-76222072D01*
X174379100Y-75599515D01*
X174374625Y-75584276D01*
X174373235Y-75583071D01*
X174365552Y-75581400D01*
X171681216Y-75581400D01*
X171665977Y-75585875D01*
X171664772Y-75587265D01*
X171663101Y-75594948D01*
X171663101Y-76222069D01*
X171663471Y-76228890D01*
X171668995Y-76279752D01*
X171672621Y-76295004D01*
X171717776Y-76415454D01*
X171726314Y-76431049D01*
X171802815Y-76533124D01*
X171815376Y-76545685D01*
X171917451Y-76622186D01*
X171933046Y-76630724D01*
X172053494Y-76675878D01*
X172068749Y-76679505D01*
X172119614Y-76685031D01*
X172126428Y-76685400D01*
X172523116Y-76685400D01*
X172591237Y-76705402D01*
X172637730Y-76759058D01*
X172647834Y-76829332D01*
X172618340Y-76893912D01*
X172581491Y-76923062D01*
X172448603Y-76992534D01*
X172443803Y-76996394D01*
X172443802Y-76996394D01*
X172406546Y-77026349D01*
X172289577Y-77120394D01*
X172158415Y-77276707D01*
X172155451Y-77282099D01*
X172155448Y-77282103D01*
X172098166Y-77386299D01*
X172060112Y-77455520D01*
X172059198Y-77455018D01*
X172017686Y-77505266D01*
X171947091Y-77526900D01*
X131754582Y-77526900D01*
X131686461Y-77506898D01*
X131682992Y-77504292D01*
X131681858Y-77502976D01*
X131601225Y-77450712D01*
X131571488Y-77431437D01*
X131571486Y-77431436D01*
X131563957Y-77426556D01*
X131555360Y-77423985D01*
X131555358Y-77423984D01*
X131475316Y-77400047D01*
X131429346Y-77386299D01*
X131420370Y-77386244D01*
X131420369Y-77386244D01*
X131361115Y-77385882D01*
X131288847Y-77385441D01*
X131153754Y-77424051D01*
X131034928Y-77499024D01*
X130941921Y-77604335D01*
X130882209Y-77731517D01*
X130860593Y-77870346D01*
X114557404Y-77870346D01*
X114564847Y-74273054D01*
X130968233Y-74273054D01*
X130969212Y-74278751D01*
X130969212Y-74278752D01*
X130985759Y-74375048D01*
X131004041Y-74481447D01*
X131077227Y-74679825D01*
X131185338Y-74861544D01*
X131324755Y-75020519D01*
X131490808Y-75151424D01*
X131495919Y-75154113D01*
X131495922Y-75154115D01*
X131526341Y-75170119D01*
X131677936Y-75249877D01*
X131879873Y-75312580D01*
X131885610Y-75313259D01*
X132047868Y-75332464D01*
X132047875Y-75332464D01*
X132051555Y-75332900D01*
X132173741Y-75332900D01*
X132330660Y-75318481D01*
X132336222Y-75316912D01*
X132336224Y-75316912D01*
X132392325Y-75301090D01*
X132534169Y-75261086D01*
X132539347Y-75258533D01*
X132539351Y-75258531D01*
X132718631Y-75170119D01*
X132723810Y-75167565D01*
X132874171Y-75055285D01*
X171663100Y-75055285D01*
X171667575Y-75070524D01*
X171668965Y-75071729D01*
X171676648Y-75073400D01*
X172748985Y-75073400D01*
X172764224Y-75068925D01*
X172765429Y-75067535D01*
X172767100Y-75059852D01*
X172767100Y-75055285D01*
X173275100Y-75055285D01*
X173279575Y-75070524D01*
X173280965Y-75071729D01*
X173288648Y-75073400D01*
X174360984Y-75073400D01*
X174376223Y-75068925D01*
X174377428Y-75067535D01*
X174379099Y-75059852D01*
X174379099Y-74432731D01*
X174378729Y-74425910D01*
X174373205Y-74375048D01*
X174369579Y-74359796D01*
X174324424Y-74239346D01*
X174315886Y-74223751D01*
X174239385Y-74121676D01*
X174226824Y-74109115D01*
X174124749Y-74032614D01*
X174109154Y-74024076D01*
X173988706Y-73978922D01*
X173973451Y-73975295D01*
X173922586Y-73969769D01*
X173915772Y-73969400D01*
X173293215Y-73969400D01*
X173277976Y-73973875D01*
X173276771Y-73975265D01*
X173275100Y-73982948D01*
X173275100Y-75055285D01*
X172767100Y-75055285D01*
X172767100Y-73987516D01*
X172762625Y-73972277D01*
X172761235Y-73971072D01*
X172753552Y-73969401D01*
X172126431Y-73969401D01*
X172119610Y-73969771D01*
X172068748Y-73975295D01*
X172053496Y-73978921D01*
X171933046Y-74024076D01*
X171917451Y-74032614D01*
X171815376Y-74109115D01*
X171802815Y-74121676D01*
X171726314Y-74223751D01*
X171717776Y-74239346D01*
X171672622Y-74359794D01*
X171668995Y-74375049D01*
X171663469Y-74425914D01*
X171663100Y-74432728D01*
X171663100Y-75055285D01*
X132874171Y-75055285D01*
X132893233Y-75041051D01*
X133036763Y-74885781D01*
X133049315Y-74865888D01*
X133146516Y-74711834D01*
X133146516Y-74711833D01*
X133149595Y-74706954D01*
X133227948Y-74510560D01*
X133229073Y-74504903D01*
X133229075Y-74504897D01*
X133268072Y-74308842D01*
X133268072Y-74308840D01*
X133269199Y-74303175D01*
X133269594Y-74273054D01*
X133271575Y-74121676D01*
X133271967Y-74091746D01*
X133236159Y-73883353D01*
X133162973Y-73684975D01*
X133054862Y-73503256D01*
X132915445Y-73344281D01*
X132749392Y-73213376D01*
X132744281Y-73210687D01*
X132744278Y-73210685D01*
X132649462Y-73160800D01*
X132562264Y-73114923D01*
X132360327Y-73052220D01*
X132345901Y-73050513D01*
X132192332Y-73032336D01*
X132192325Y-73032336D01*
X132188645Y-73031900D01*
X132066459Y-73031900D01*
X131909540Y-73046319D01*
X131903978Y-73047888D01*
X131903976Y-73047888D01*
X131847875Y-73063710D01*
X131706031Y-73103714D01*
X131700853Y-73106267D01*
X131700849Y-73106269D01*
X131525608Y-73192689D01*
X131516390Y-73197235D01*
X131346967Y-73323749D01*
X131203437Y-73479019D01*
X131200356Y-73483902D01*
X131188145Y-73503256D01*
X131090605Y-73657846D01*
X131012252Y-73854240D01*
X131011127Y-73859897D01*
X131011125Y-73859903D01*
X130972128Y-74055958D01*
X130971001Y-74061625D01*
X130970925Y-74067400D01*
X130970925Y-74067404D01*
X130970531Y-74097528D01*
X130968233Y-74273054D01*
X114564847Y-74273054D01*
X114569617Y-71967752D01*
X114570006Y-71958125D01*
X114578711Y-71847669D01*
X114578774Y-71846919D01*
X114584575Y-71780579D01*
X114587588Y-71762101D01*
X114601024Y-71706227D01*
X114611114Y-71664263D01*
X114611924Y-71661078D01*
X114623432Y-71618199D01*
X114631837Y-71586883D01*
X114637145Y-71571273D01*
X114674820Y-71480473D01*
X114677040Y-71475437D01*
X114710486Y-71403836D01*
X114717269Y-71391235D01*
X114768250Y-71308203D01*
X114772477Y-71301768D01*
X114818304Y-71236455D01*
X114825727Y-71226889D01*
X114888867Y-71153128D01*
X114895601Y-71145860D01*
X114952241Y-71089361D01*
X114959497Y-71082671D01*
X115033435Y-71019695D01*
X115043005Y-71012309D01*
X115083231Y-70984233D01*
X115108440Y-70966639D01*
X115114891Y-70962424D01*
X115131856Y-70952066D01*
X115198048Y-70911650D01*
X115210656Y-70904904D01*
X115282341Y-70871635D01*
X115287382Y-70869428D01*
X115333634Y-70850370D01*
X115378273Y-70831978D01*
X115393908Y-70826705D01*
X115468169Y-70806973D01*
X115471345Y-70806173D01*
X115569252Y-70782888D01*
X115587719Y-70779923D01*
X115652291Y-70774427D01*
X115653390Y-70774338D01*
X115726576Y-70768753D01*
X115765712Y-70765767D01*
X115775346Y-70765402D01*
X177580185Y-70791394D01*
G37*
%TD.AperFunction*%
%TA.AperFunction,Conductor*%
G36*
X123093947Y-92080302D02*
G01*
X123140440Y-92133958D01*
X123150544Y-92204232D01*
X123121050Y-92268812D01*
X123114921Y-92275395D01*
X121457921Y-93932395D01*
X121395609Y-93966421D01*
X121368826Y-93969300D01*
X121107448Y-93969300D01*
X121039327Y-93949298D01*
X120992834Y-93895642D01*
X120982730Y-93825368D01*
X121005126Y-93769773D01*
X121040307Y-93720813D01*
X121045613Y-93711983D01*
X121139970Y-93521067D01*
X121143769Y-93511472D01*
X121205677Y-93307710D01*
X121207855Y-93297637D01*
X121209286Y-93286762D01*
X121207075Y-93272578D01*
X121193917Y-93268800D01*
X119046800Y-93268800D01*
X118978679Y-93248798D01*
X118932186Y-93195142D01*
X118920800Y-93142800D01*
X118920800Y-92886800D01*
X118940802Y-92818679D01*
X118994458Y-92772186D01*
X119046800Y-92760800D01*
X121193644Y-92760800D01*
X121207175Y-92756827D01*
X121208480Y-92747747D01*
X121166514Y-92580675D01*
X121163194Y-92570924D01*
X121078272Y-92375614D01*
X121073405Y-92366539D01*
X121001080Y-92254740D01*
X120980873Y-92186680D01*
X121000669Y-92118499D01*
X121054185Y-92071845D01*
X121106872Y-92060300D01*
X123025826Y-92060300D01*
X123093947Y-92080302D01*
G37*
%TD.AperFunction*%
%TA.AperFunction,Conductor*%
G36*
X127836747Y-81849302D02*
G01*
X127857721Y-81866205D01*
X129484121Y-83492605D01*
X129518147Y-83554917D01*
X129513082Y-83625732D01*
X129470535Y-83682568D01*
X129404015Y-83707379D01*
X129395026Y-83707700D01*
X121570968Y-83707700D01*
X121559985Y-83707220D01*
X121534763Y-83705013D01*
X121534762Y-83705013D01*
X121523778Y-83704052D01*
X121488654Y-83713463D01*
X121477939Y-83715838D01*
X121469236Y-83717373D01*
X121452981Y-83720239D01*
X121452980Y-83720239D01*
X121442128Y-83722153D01*
X121432586Y-83727662D01*
X121429725Y-83728703D01*
X121426951Y-83729997D01*
X121416307Y-83732849D01*
X121407277Y-83739172D01*
X121386526Y-83753702D01*
X121377262Y-83759604D01*
X121345772Y-83777785D01*
X121338689Y-83786226D01*
X121338688Y-83786227D01*
X121322397Y-83805642D01*
X121314971Y-83813745D01*
X121305521Y-83823195D01*
X121243209Y-83857221D01*
X121216426Y-83860100D01*
X121040762Y-83860100D01*
X120972641Y-83840098D01*
X120926148Y-83786442D01*
X120915730Y-83723915D01*
X120915800Y-83723562D01*
X120915800Y-81986038D01*
X120914576Y-81979885D01*
X120914580Y-81979840D01*
X120913986Y-81973807D01*
X120915130Y-81973694D01*
X120920901Y-81909173D01*
X120964453Y-81853104D01*
X121038154Y-81829300D01*
X127768626Y-81829300D01*
X127836747Y-81849302D01*
G37*
%TD.AperFunction*%
%TD*%
M02*
