%TF.GenerationSoftware,KiCad,Pcbnew,6.0.11-2627ca5db0~126~ubuntu22.04.1*%
%TF.CreationDate,2023-05-15T07:50:27+07:00*%
%TF.ProjectId,MiSTeX-Pmod,4d695354-6558-42d5-906d-6f642e6b6963,rev?*%
%TF.SameCoordinates,Original*%
%TF.FileFunction,Soldermask,Top*%
%TF.FilePolarity,Negative*%
%FSLAX46Y46*%
G04 Gerber Fmt 4.6, Leading zero omitted, Abs format (unit mm)*
G04 Created by KiCad (PCBNEW 6.0.11-2627ca5db0~126~ubuntu22.04.1) date 2023-05-15 07:50:27*
%MOMM*%
%LPD*%
G01*
G04 APERTURE LIST*
G04 Aperture macros list*
%AMRoundRect*
0 Rectangle with rounded corners*
0 $1 Rounding radius*
0 $2 $3 $4 $5 $6 $7 $8 $9 X,Y pos of 4 corners*
0 Add a 4 corners polygon primitive as box body*
4,1,4,$2,$3,$4,$5,$6,$7,$8,$9,$2,$3,0*
0 Add four circle primitives for the rounded corners*
1,1,$1+$1,$2,$3*
1,1,$1+$1,$4,$5*
1,1,$1+$1,$6,$7*
1,1,$1+$1,$8,$9*
0 Add four rect primitives between the rounded corners*
20,1,$1+$1,$2,$3,$4,$5,0*
20,1,$1+$1,$4,$5,$6,$7,0*
20,1,$1+$1,$6,$7,$8,$9,0*
20,1,$1+$1,$8,$9,$2,$3,0*%
G04 Aperture macros list end*
%ADD10C,0.000000*%
%ADD11C,0.150000*%
%ADD12C,0.010000*%
%ADD13C,2.400000*%
%ADD14RoundRect,0.200000X-0.850000X-0.500000X0.850000X-0.500000X0.850000X0.500000X-0.850000X0.500000X0*%
%ADD15RoundRect,0.200000X-0.300000X0.300000X-0.300000X-0.300000X0.300000X-0.300000X0.300000X0.300000X0*%
%ADD16C,2.200000*%
%ADD17C,1.600000*%
%ADD18RoundRect,0.200000X0.775000X-0.150000X0.775000X0.150000X-0.775000X0.150000X-0.775000X-0.150000X0*%
%ADD19RoundRect,0.200000X0.760000X-0.150000X0.760000X0.150000X-0.760000X0.150000X-0.760000X-0.150000X0*%
%ADD20RoundRect,0.200000X1.400000X-0.650000X1.400000X0.650000X-1.400000X0.650000X-1.400000X-0.650000X0*%
%ADD21RoundRect,0.335000X0.135000X0.185000X-0.135000X0.185000X-0.135000X-0.185000X0.135000X-0.185000X0*%
%ADD22RoundRect,0.200000X-0.900000X1.250000X-0.900000X-1.250000X0.900000X-1.250000X0.900000X1.250000X0*%
%ADD23RoundRect,0.200000X0.300000X-0.300000X0.300000X0.300000X-0.300000X0.300000X-0.300000X-0.300000X0*%
%ADD24C,1.700000*%
%ADD25RoundRect,0.200000X1.500000X-0.500000X1.500000X0.500000X-1.500000X0.500000X-1.500000X-0.500000X0*%
%ADD26RoundRect,0.200000X2.400000X-1.100000X2.400000X1.100000X-2.400000X1.100000X-2.400000X-1.100000X0*%
%ADD27C,1.150000*%
%ADD28O,2.200000X1.600000*%
%ADD29O,2.400000X1.600000*%
%ADD30RoundRect,0.200000X0.650000X-0.150000X0.650000X0.150000X-0.650000X0.150000X-0.650000X-0.150000X0*%
%ADD31RoundRect,0.200000X0.850000X0.850000X-0.850000X0.850000X-0.850000X-0.850000X0.850000X-0.850000X0*%
%ADD32O,2.100000X2.100000*%
%ADD33RoundRect,0.200000X0.595000X0.865000X-0.595000X0.865000X-0.595000X-0.865000X0.595000X-0.865000X0*%
%ADD34RoundRect,0.200000X-0.850000X-0.850000X0.850000X-0.850000X0.850000X0.850000X-0.850000X0.850000X0*%
%ADD35RoundRect,0.340000X0.170000X-0.140000X0.170000X0.140000X-0.170000X0.140000X-0.170000X-0.140000X0*%
%ADD36RoundRect,0.335000X-0.135000X-0.185000X0.135000X-0.185000X0.135000X0.185000X-0.135000X0.185000X0*%
%ADD37C,3.000000*%
%ADD38C,3.900000*%
%ADD39RoundRect,0.200000X0.300000X0.300000X-0.300000X0.300000X-0.300000X-0.300000X0.300000X-0.300000X0*%
G04 APERTURE END LIST*
D10*
G36*
X161621417Y-75736496D02*
G01*
X161869772Y-75740730D01*
X161869772Y-75839507D01*
X161612950Y-75843741D01*
X161354717Y-75846563D01*
X161354717Y-75799996D01*
X161354766Y-75794990D01*
X161354910Y-75790044D01*
X161355145Y-75785185D01*
X161355467Y-75780439D01*
X161355871Y-75775834D01*
X161356354Y-75771396D01*
X161356911Y-75767153D01*
X161357539Y-75763131D01*
X161358233Y-75759357D01*
X161358989Y-75755858D01*
X161359803Y-75752660D01*
X161360670Y-75749792D01*
X161361587Y-75747278D01*
X161362550Y-75745148D01*
X161363553Y-75743426D01*
X161364070Y-75742727D01*
X161364595Y-75742141D01*
X161366921Y-75741364D01*
X161371694Y-75740625D01*
X161388054Y-75739274D01*
X161444323Y-75737202D01*
X161524932Y-75736187D01*
X161621417Y-75736496D01*
G37*
G36*
X164600506Y-73791595D02*
G01*
X164620558Y-73792338D01*
X164640263Y-73793709D01*
X164659432Y-73795700D01*
X164677878Y-73798303D01*
X164695412Y-73801510D01*
X164711847Y-73805312D01*
X164726994Y-73809701D01*
X164740665Y-73814669D01*
X164752672Y-73820207D01*
X164765935Y-73827632D01*
X164778210Y-73835622D01*
X164789501Y-73844178D01*
X164799813Y-73853302D01*
X164809148Y-73862997D01*
X164817512Y-73873264D01*
X164824909Y-73884107D01*
X164831342Y-73895525D01*
X164836816Y-73907523D01*
X164841336Y-73920101D01*
X164844904Y-73933263D01*
X164847526Y-73947009D01*
X164849205Y-73961342D01*
X164849946Y-73976265D01*
X164849752Y-73991778D01*
X164848628Y-74007885D01*
X164845236Y-74035123D01*
X164839814Y-74061281D01*
X164832350Y-74086373D01*
X164822831Y-74110411D01*
X164811245Y-74133407D01*
X164797580Y-74155374D01*
X164781823Y-74176323D01*
X164763961Y-74196268D01*
X164743983Y-74215221D01*
X164721876Y-74233194D01*
X164697627Y-74250200D01*
X164671225Y-74266251D01*
X164642656Y-74281359D01*
X164611909Y-74295537D01*
X164578970Y-74308797D01*
X164543828Y-74321152D01*
X164525435Y-74326378D01*
X164501922Y-74331942D01*
X164442206Y-74343707D01*
X164370022Y-74355705D01*
X164290710Y-74367189D01*
X164209613Y-74377417D01*
X164132070Y-74385644D01*
X164063425Y-74391126D01*
X164009017Y-74393118D01*
X164001287Y-74393078D01*
X163994473Y-74392925D01*
X163988531Y-74392616D01*
X163983418Y-74392104D01*
X163981159Y-74391758D01*
X163979091Y-74391344D01*
X163977208Y-74390857D01*
X163975506Y-74390291D01*
X163973978Y-74389640D01*
X163972619Y-74388898D01*
X163971424Y-74388060D01*
X163970388Y-74387121D01*
X163969504Y-74386074D01*
X163968768Y-74384914D01*
X163968174Y-74383635D01*
X163967717Y-74382232D01*
X163967391Y-74380698D01*
X163967191Y-74379029D01*
X163967111Y-74377217D01*
X163967146Y-74375259D01*
X163967291Y-74373147D01*
X163967540Y-74370877D01*
X163968329Y-74365839D01*
X163969469Y-74360097D01*
X163970917Y-74353607D01*
X163975600Y-74336810D01*
X163982123Y-74317850D01*
X163990308Y-74297046D01*
X163999977Y-74274717D01*
X164010952Y-74251181D01*
X164023056Y-74226756D01*
X164036111Y-74201760D01*
X164049939Y-74176513D01*
X164064362Y-74151331D01*
X164079203Y-74126534D01*
X164094284Y-74102440D01*
X164109426Y-74079367D01*
X164124453Y-74057633D01*
X164139187Y-74037557D01*
X164153449Y-74019457D01*
X164167062Y-74003652D01*
X164184033Y-73985651D01*
X164201562Y-73968189D01*
X164219579Y-73951311D01*
X164238014Y-73935058D01*
X164256796Y-73919476D01*
X164275855Y-73904607D01*
X164295121Y-73890494D01*
X164314523Y-73877181D01*
X164333991Y-73864711D01*
X164353455Y-73853129D01*
X164372845Y-73842476D01*
X164392090Y-73832797D01*
X164411120Y-73824135D01*
X164429865Y-73816533D01*
X164448254Y-73810036D01*
X164466217Y-73804685D01*
X164483433Y-73800798D01*
X164501619Y-73797596D01*
X164520586Y-73795073D01*
X164540146Y-73793220D01*
X164560112Y-73792028D01*
X164580294Y-73791489D01*
X164600506Y-73791595D01*
G37*
G36*
X163921529Y-75736496D02*
G01*
X164169884Y-75740730D01*
X164174117Y-75792940D01*
X164178351Y-75846563D01*
X163654828Y-75846563D01*
X163654828Y-75799996D01*
X163654877Y-75794990D01*
X163655021Y-75790044D01*
X163655256Y-75785185D01*
X163655578Y-75780439D01*
X163655982Y-75775834D01*
X163656465Y-75771396D01*
X163657023Y-75767153D01*
X163657650Y-75763131D01*
X163658344Y-75759357D01*
X163659100Y-75755858D01*
X163659914Y-75752660D01*
X163660781Y-75749792D01*
X163661698Y-75747278D01*
X163662661Y-75745148D01*
X163663665Y-75743426D01*
X163664181Y-75742727D01*
X163664706Y-75742141D01*
X163667032Y-75741364D01*
X163671805Y-75740625D01*
X163688166Y-75739274D01*
X163744434Y-75737202D01*
X163825044Y-75736187D01*
X163921529Y-75736496D01*
G37*
G36*
X164002491Y-76611032D02*
G01*
X164009849Y-76600843D01*
X164016407Y-76591497D01*
X164022109Y-76583078D01*
X164026899Y-76575667D01*
X164030722Y-76569347D01*
X164033522Y-76564201D01*
X164035243Y-76560313D01*
X164035681Y-76558865D01*
X164035829Y-76557763D01*
X164031555Y-76553976D01*
X164018636Y-76550548D01*
X163966287Y-76544754D01*
X163877624Y-76540350D01*
X163751490Y-76537302D01*
X163382175Y-76535141D01*
X162849084Y-76538007D01*
X162762424Y-76538272D01*
X162683653Y-76538008D01*
X162613117Y-76537214D01*
X162551163Y-76535891D01*
X162498139Y-76534039D01*
X162454392Y-76531657D01*
X162420268Y-76528747D01*
X162406925Y-76527093D01*
X162396117Y-76525307D01*
X162375696Y-76520331D01*
X162355715Y-76514402D01*
X162336186Y-76507526D01*
X162317117Y-76499709D01*
X162298519Y-76490958D01*
X162280403Y-76481279D01*
X162262779Y-76470678D01*
X162245657Y-76459162D01*
X162229048Y-76446736D01*
X162212962Y-76433406D01*
X162197409Y-76419180D01*
X162182400Y-76404062D01*
X162167944Y-76388060D01*
X162154053Y-76371179D01*
X162140737Y-76353427D01*
X162128006Y-76334807D01*
X162074383Y-76250141D01*
X161865539Y-76254374D01*
X161823617Y-76255151D01*
X161784158Y-76256358D01*
X161748039Y-76257896D01*
X161716138Y-76259666D01*
X161689329Y-76261567D01*
X161668491Y-76263502D01*
X161660584Y-76264451D01*
X161654498Y-76265371D01*
X161650343Y-76266249D01*
X161648228Y-76267074D01*
X161647170Y-76268782D01*
X161646117Y-76271740D01*
X161644039Y-76281119D01*
X161642027Y-76294632D01*
X161640114Y-76311700D01*
X161638334Y-76331745D01*
X161636719Y-76354188D01*
X161635302Y-76378450D01*
X161634117Y-76403952D01*
X161629884Y-76530952D01*
X160924328Y-76530952D01*
X160920095Y-76394074D01*
X160915861Y-76255785D01*
X160705606Y-76255785D01*
X160625925Y-76255479D01*
X160594341Y-76255571D01*
X160567692Y-76256248D01*
X160545549Y-76257826D01*
X160536033Y-76259052D01*
X160527483Y-76260622D01*
X160519847Y-76262575D01*
X160513069Y-76264951D01*
X160507097Y-76267790D01*
X160501877Y-76271131D01*
X160497355Y-76275013D01*
X160493479Y-76279477D01*
X160490195Y-76284561D01*
X160487449Y-76290305D01*
X160485187Y-76296749D01*
X160483357Y-76303932D01*
X160481905Y-76311894D01*
X160480776Y-76320674D01*
X160479279Y-76340848D01*
X160478436Y-76364769D01*
X160477006Y-76425119D01*
X160472773Y-76530952D01*
X158168428Y-76535185D01*
X155865494Y-76538007D01*
X155865494Y-75902755D01*
X156116129Y-75902755D01*
X156116169Y-75905410D01*
X156117014Y-75911047D01*
X156125139Y-75938285D01*
X156133606Y-75973563D01*
X158775206Y-75973563D01*
X158893739Y-76039885D01*
X158917469Y-76053927D01*
X158939644Y-76067292D01*
X158959769Y-76079697D01*
X158977347Y-76090862D01*
X158985027Y-76095891D01*
X158991883Y-76100505D01*
X158997855Y-76104669D01*
X159002880Y-76108346D01*
X159006896Y-76111503D01*
X159009842Y-76114104D01*
X159010893Y-76115184D01*
X159011654Y-76116113D01*
X159012117Y-76116885D01*
X159012272Y-76117496D01*
X158898458Y-76122479D01*
X158588586Y-76126668D01*
X157570117Y-76131607D01*
X157110230Y-76133112D01*
X156922302Y-76133858D01*
X156759896Y-76134650D01*
X156621146Y-76135524D01*
X156504185Y-76136519D01*
X156407146Y-76137670D01*
X156365514Y-76138316D01*
X156328163Y-76139016D01*
X156294859Y-76139773D01*
X156265368Y-76140593D01*
X156239459Y-76141480D01*
X156216897Y-76142439D01*
X156197449Y-76143474D01*
X156180882Y-76144590D01*
X156166962Y-76145793D01*
X156155456Y-76147085D01*
X156146131Y-76148473D01*
X156138753Y-76149961D01*
X156135721Y-76150743D01*
X156133089Y-76151553D01*
X156130827Y-76152389D01*
X156128906Y-76153254D01*
X156127297Y-76154146D01*
X156125971Y-76155068D01*
X156124898Y-76156020D01*
X156124050Y-76157001D01*
X156123397Y-76158013D01*
X156122910Y-76159057D01*
X156122317Y-76161241D01*
X156121837Y-76164030D01*
X156121454Y-76167089D01*
X156121166Y-76170387D01*
X156120972Y-76173897D01*
X156120853Y-76181432D01*
X156121082Y-76189463D01*
X156121641Y-76197759D01*
X156122515Y-76206088D01*
X156123686Y-76214218D01*
X156125139Y-76221918D01*
X156133606Y-76255785D01*
X159302961Y-76255785D01*
X159428550Y-76183818D01*
X159481864Y-76153105D01*
X159532267Y-76124375D01*
X159602117Y-76085041D01*
X159672102Y-76044515D01*
X159701543Y-76027395D01*
X159727551Y-76012192D01*
X159750327Y-75998776D01*
X159770069Y-75987013D01*
X159786980Y-75976771D01*
X159801260Y-75967918D01*
X159813109Y-75960323D01*
X159818184Y-75956955D01*
X159822727Y-75953851D01*
X159826762Y-75950996D01*
X159830315Y-75948372D01*
X159833411Y-75945963D01*
X159836075Y-75943753D01*
X159838331Y-75941725D01*
X159840205Y-75939862D01*
X159841722Y-75938147D01*
X159842907Y-75936565D01*
X159843785Y-75935099D01*
X159844381Y-75933732D01*
X159844720Y-75932448D01*
X159844828Y-75931229D01*
X159844706Y-75929519D01*
X159844348Y-75927829D01*
X159843764Y-75926157D01*
X159842964Y-75924502D01*
X159841959Y-75922865D01*
X159840760Y-75921245D01*
X159837819Y-75918050D01*
X159834225Y-75914913D01*
X159830062Y-75911827D01*
X159825414Y-75908788D01*
X159820364Y-75905790D01*
X159775552Y-75882596D01*
X159768227Y-75878485D01*
X159765879Y-75877158D01*
X159763747Y-75875910D01*
X159761336Y-75874433D01*
X159758150Y-75872420D01*
X159747468Y-75865565D01*
X159713142Y-75843068D01*
X159699515Y-75834657D01*
X160016146Y-75834657D01*
X160016984Y-75955219D01*
X160018546Y-76058682D01*
X160019504Y-76100586D01*
X160020754Y-76136546D01*
X160021529Y-76152439D01*
X160022425Y-76167016D01*
X160023460Y-76180334D01*
X160024648Y-76192451D01*
X160026008Y-76203422D01*
X160027554Y-76213304D01*
X160029303Y-76222156D01*
X160031271Y-76230032D01*
X160033475Y-76236991D01*
X160035931Y-76243089D01*
X160038656Y-76248383D01*
X160041664Y-76252930D01*
X160044974Y-76256786D01*
X160048600Y-76260009D01*
X160052560Y-76262655D01*
X160056870Y-76264781D01*
X160061545Y-76266444D01*
X160066602Y-76267701D01*
X160072058Y-76268609D01*
X160077929Y-76269224D01*
X160084230Y-76269603D01*
X160090979Y-76269804D01*
X160105884Y-76269896D01*
X160119161Y-76269689D01*
X160131008Y-76268965D01*
X160141516Y-76267571D01*
X160150775Y-76265354D01*
X160154964Y-76263890D01*
X160158876Y-76262162D01*
X160162521Y-76260152D01*
X160165911Y-76257841D01*
X160169057Y-76255210D01*
X160171970Y-76252239D01*
X160174663Y-76248909D01*
X160177145Y-76245202D01*
X160179429Y-76241098D01*
X160181526Y-76236577D01*
X160183447Y-76231622D01*
X160185204Y-76226212D01*
X160188270Y-76213954D01*
X160190815Y-76199649D01*
X160192930Y-76183145D01*
X160194706Y-76164289D01*
X160196235Y-76142927D01*
X160197606Y-76118907D01*
X160204661Y-75994729D01*
X160550384Y-75987674D01*
X160896106Y-75980618D01*
X160896106Y-75935463D01*
X161168450Y-75935463D01*
X161169126Y-76017412D01*
X161170148Y-76085173D01*
X161170815Y-76114095D01*
X161171600Y-76139903D01*
X161172514Y-76162743D01*
X161173565Y-76182760D01*
X161174766Y-76200098D01*
X161176126Y-76214901D01*
X161177655Y-76227316D01*
X161179364Y-76237485D01*
X161181263Y-76245554D01*
X161182288Y-76248846D01*
X161183363Y-76251667D01*
X161184492Y-76254036D01*
X161185674Y-76255970D01*
X161186912Y-76257488D01*
X161188206Y-76258607D01*
X161190329Y-76259744D01*
X161192970Y-76260776D01*
X161199666Y-76262526D01*
X161208006Y-76263872D01*
X161217707Y-76264825D01*
X161228482Y-76265398D01*
X161240047Y-76265602D01*
X161252117Y-76265451D01*
X161264406Y-76264957D01*
X161276628Y-76264132D01*
X161288499Y-76262989D01*
X161299734Y-76261540D01*
X161310046Y-76259798D01*
X161319152Y-76257774D01*
X161326765Y-76255482D01*
X161332600Y-76252933D01*
X161334762Y-76251567D01*
X161336372Y-76250141D01*
X161337927Y-76247793D01*
X161339415Y-76243931D01*
X161342193Y-76231686D01*
X161344707Y-76213455D01*
X161346956Y-76189287D01*
X161348940Y-76159232D01*
X161350660Y-76123339D01*
X161352115Y-76081659D01*
X161353306Y-76034241D01*
X161354717Y-75989085D01*
X161673628Y-75984852D01*
X161800645Y-75982969D01*
X161851583Y-75981723D01*
X161894952Y-75979847D01*
X161913988Y-75978572D01*
X161931359Y-75977019D01*
X161947142Y-75975149D01*
X161961412Y-75972921D01*
X161974246Y-75970295D01*
X161985719Y-75967230D01*
X161995907Y-75963688D01*
X162004886Y-75959628D01*
X162012733Y-75955010D01*
X162019523Y-75949793D01*
X162022541Y-75946752D01*
X162321328Y-75946752D01*
X162321791Y-76057287D01*
X162323486Y-76101750D01*
X162327149Y-76139677D01*
X162329951Y-76156346D01*
X162333524Y-76171568D01*
X162337961Y-76185407D01*
X162343355Y-76197924D01*
X162349799Y-76209182D01*
X162357386Y-76219244D01*
X162366209Y-76228173D01*
X162376361Y-76236030D01*
X162387936Y-76242878D01*
X162401026Y-76248780D01*
X162415723Y-76253798D01*
X162432122Y-76257995D01*
X162450316Y-76261434D01*
X162470396Y-76264177D01*
X162516591Y-76267824D01*
X162571450Y-76269437D01*
X162635719Y-76269516D01*
X162795461Y-76267074D01*
X163118606Y-76262841D01*
X163156706Y-76223330D01*
X163169342Y-76210608D01*
X163174500Y-76204701D01*
X163178953Y-76198812D01*
X163182752Y-76192723D01*
X163185950Y-76186222D01*
X163188599Y-76179092D01*
X163190749Y-76171119D01*
X163192452Y-76162087D01*
X163193761Y-76151782D01*
X163194727Y-76139989D01*
X163195401Y-76126492D01*
X163196082Y-76093529D01*
X163196217Y-76051174D01*
X163196178Y-76029863D01*
X163196038Y-76010800D01*
X163195761Y-75993816D01*
X163195313Y-75978744D01*
X163194658Y-75965417D01*
X163194539Y-75963685D01*
X163471384Y-75963685D01*
X163471403Y-76069215D01*
X163471672Y-76111416D01*
X163472332Y-76147262D01*
X163472859Y-76162964D01*
X163473546Y-76177271D01*
X163474411Y-76190248D01*
X163475477Y-76201959D01*
X163476762Y-76212469D01*
X163478288Y-76221844D01*
X163480075Y-76230146D01*
X163482144Y-76237441D01*
X163484514Y-76243793D01*
X163487206Y-76249268D01*
X163490241Y-76253929D01*
X163493639Y-76257841D01*
X163497421Y-76261069D01*
X163501606Y-76263678D01*
X163506216Y-76265731D01*
X163511270Y-76267295D01*
X163516789Y-76268432D01*
X163522794Y-76269208D01*
X163529305Y-76269687D01*
X163536342Y-76269935D01*
X163570162Y-76269896D01*
X163582972Y-76269591D01*
X163594462Y-76268582D01*
X163604699Y-76266724D01*
X163609369Y-76265433D01*
X163613752Y-76263877D01*
X163617855Y-76262037D01*
X163621688Y-76259897D01*
X163625259Y-76257437D01*
X163628577Y-76254641D01*
X163631649Y-76251491D01*
X163634485Y-76247968D01*
X163637093Y-76244055D01*
X163639482Y-76239734D01*
X163641660Y-76234987D01*
X163643636Y-76229796D01*
X163647015Y-76218013D01*
X163649686Y-76204241D01*
X163651719Y-76188338D01*
X163653182Y-76170162D01*
X163654142Y-76149569D01*
X163654668Y-76126417D01*
X163654828Y-76100563D01*
X163654828Y-75987674D01*
X163913062Y-75990496D01*
X164169884Y-75994729D01*
X164174117Y-76124552D01*
X164174446Y-76137886D01*
X164174897Y-76150856D01*
X164175460Y-76163396D01*
X164176124Y-76175440D01*
X164176879Y-76186922D01*
X164177714Y-76197775D01*
X164178620Y-76207934D01*
X164179585Y-76217332D01*
X164180601Y-76225904D01*
X164181655Y-76233582D01*
X164182738Y-76240301D01*
X164183840Y-76245995D01*
X164184951Y-76250598D01*
X164186059Y-76254043D01*
X164186609Y-76255311D01*
X164187155Y-76256265D01*
X164187695Y-76256896D01*
X164188228Y-76257196D01*
X164222828Y-76260900D01*
X164237658Y-76262356D01*
X164250978Y-76263546D01*
X164262894Y-76264472D01*
X164273507Y-76265134D01*
X164282921Y-76265531D01*
X164291239Y-76265663D01*
X164298566Y-76265531D01*
X164305003Y-76265134D01*
X164307921Y-76264836D01*
X164310655Y-76264472D01*
X164313219Y-76264042D01*
X164315625Y-76263546D01*
X164317887Y-76262984D01*
X164320016Y-76262356D01*
X164322027Y-76261661D01*
X164323932Y-76260900D01*
X164325744Y-76260074D01*
X164327476Y-76259181D01*
X164329140Y-76258222D01*
X164330751Y-76257196D01*
X164333282Y-76254724D01*
X164335593Y-76250910D01*
X164337693Y-76245603D01*
X164339592Y-76238653D01*
X164342830Y-76219220D01*
X164345391Y-76191403D01*
X164347356Y-76153995D01*
X164348808Y-76105789D01*
X164350506Y-75972152D01*
X164350316Y-75916463D01*
X164349778Y-75863452D01*
X164348943Y-75814345D01*
X164347860Y-75770363D01*
X164346579Y-75732732D01*
X164345148Y-75702674D01*
X164343618Y-75681413D01*
X164342832Y-75674465D01*
X164342039Y-75670174D01*
X164340787Y-75666936D01*
X164339162Y-75663587D01*
X164337190Y-75660147D01*
X164334895Y-75656636D01*
X164332303Y-75653076D01*
X164329438Y-75649487D01*
X164326325Y-75645889D01*
X164322989Y-75642305D01*
X164319454Y-75638753D01*
X164315746Y-75635254D01*
X164311889Y-75631831D01*
X164307908Y-75628502D01*
X164303827Y-75625289D01*
X164299673Y-75622213D01*
X164295468Y-75619293D01*
X164291239Y-75616551D01*
X164276819Y-75609444D01*
X164268196Y-75606478D01*
X164258166Y-75603874D01*
X164232502Y-75599660D01*
X164197047Y-75596620D01*
X164149026Y-75594572D01*
X164085658Y-75593335D01*
X163901773Y-75592563D01*
X163553228Y-75592563D01*
X163471384Y-75674407D01*
X163471384Y-75963685D01*
X163194539Y-75963685D01*
X163194242Y-75959355D01*
X163193761Y-75953667D01*
X163193211Y-75948331D01*
X163192587Y-75943326D01*
X163191886Y-75938632D01*
X163191102Y-75934228D01*
X163190231Y-75930093D01*
X163189269Y-75926205D01*
X163188211Y-75922544D01*
X163187053Y-75919089D01*
X163185791Y-75915819D01*
X163184420Y-75912713D01*
X163182936Y-75909750D01*
X163181334Y-75906910D01*
X163179611Y-75904171D01*
X163177761Y-75901512D01*
X163175780Y-75898912D01*
X163173664Y-75896352D01*
X163171409Y-75893808D01*
X163169010Y-75891261D01*
X163163762Y-75886074D01*
X163152635Y-75875766D01*
X163146848Y-75871551D01*
X163140368Y-75867906D01*
X163132789Y-75864790D01*
X163123702Y-75862162D01*
X163112702Y-75859981D01*
X163099380Y-75858205D01*
X163064143Y-75855702D01*
X163014735Y-75854324D01*
X162947897Y-75853740D01*
X162860373Y-75853618D01*
X162589439Y-75853618D01*
X162589439Y-75980618D01*
X162801106Y-75987674D01*
X163012773Y-75994729D01*
X163017006Y-76055407D01*
X163021239Y-76114674D01*
X162763006Y-76111852D01*
X162504773Y-76107618D01*
X162504773Y-75740730D01*
X162843439Y-75733674D01*
X163182106Y-75726618D01*
X163186339Y-75688518D01*
X163186980Y-75682890D01*
X163187298Y-75677621D01*
X163187269Y-75672674D01*
X163187117Y-75670310D01*
X163186868Y-75668013D01*
X163186521Y-75665778D01*
X163186071Y-75663600D01*
X163185515Y-75661475D01*
X163184851Y-75659398D01*
X163184075Y-75657364D01*
X163183185Y-75655369D01*
X163182177Y-75653408D01*
X163181048Y-75651477D01*
X163179795Y-75649570D01*
X163178414Y-75647684D01*
X163176904Y-75645813D01*
X163175260Y-75643953D01*
X163173480Y-75642099D01*
X163171560Y-75640246D01*
X163167290Y-75636528D01*
X163162424Y-75632760D01*
X163156938Y-75628905D01*
X163150807Y-75624926D01*
X163144006Y-75620785D01*
X163127858Y-75611875D01*
X163119297Y-75608225D01*
X163109809Y-75605065D01*
X163098939Y-75602359D01*
X163086236Y-75600073D01*
X163053518Y-75596620D01*
X163008035Y-75594423D01*
X162946164Y-75593202D01*
X162758772Y-75592563D01*
X162693045Y-75592909D01*
X162634719Y-75593475D01*
X162583326Y-75594352D01*
X162538397Y-75595628D01*
X162518209Y-75596443D01*
X162499462Y-75597391D01*
X162482096Y-75598484D01*
X162466052Y-75599731D01*
X162451273Y-75601146D01*
X162437699Y-75602737D01*
X162425271Y-75604518D01*
X162413932Y-75606498D01*
X162403622Y-75608689D01*
X162394283Y-75611101D01*
X162385856Y-75613747D01*
X162378282Y-75616637D01*
X162371503Y-75619783D01*
X162365461Y-75623194D01*
X162360095Y-75626884D01*
X162355349Y-75630861D01*
X162351163Y-75635139D01*
X162347478Y-75639727D01*
X162344236Y-75644638D01*
X162341378Y-75649881D01*
X162338846Y-75655469D01*
X162336581Y-75661411D01*
X162334524Y-75667721D01*
X162332617Y-75674407D01*
X162331327Y-75679543D01*
X162330106Y-75686920D01*
X162327877Y-75707833D01*
X162325945Y-75736022D01*
X162324327Y-75770363D01*
X162322100Y-75853001D01*
X162321328Y-75946752D01*
X162022541Y-75946752D01*
X162025332Y-75943939D01*
X162030237Y-75937406D01*
X162034312Y-75930155D01*
X162037635Y-75922145D01*
X162040280Y-75913337D01*
X162042325Y-75903691D01*
X162043844Y-75893166D01*
X162044915Y-75881722D01*
X162046012Y-75855920D01*
X162046161Y-75791530D01*
X162046117Y-75768341D01*
X162045935Y-75747837D01*
X162045547Y-75729794D01*
X162044882Y-75713984D01*
X162044424Y-75706847D01*
X162043870Y-75700184D01*
X162043212Y-75693967D01*
X162042441Y-75688168D01*
X162041547Y-75682759D01*
X162040523Y-75677711D01*
X162039359Y-75672996D01*
X162038047Y-75668586D01*
X162036578Y-75664454D01*
X162034943Y-75660570D01*
X162033134Y-75656907D01*
X162031141Y-75653436D01*
X162028955Y-75650130D01*
X162026569Y-75646960D01*
X162023973Y-75643898D01*
X162021158Y-75640915D01*
X162018116Y-75637985D01*
X162014838Y-75635078D01*
X162011315Y-75632166D01*
X162007538Y-75629221D01*
X161999187Y-75623121D01*
X161989717Y-75616551D01*
X161983847Y-75612794D01*
X161977091Y-75609444D01*
X161969058Y-75606478D01*
X161959356Y-75603874D01*
X161933385Y-75599660D01*
X161896054Y-75596620D01*
X161844237Y-75594572D01*
X161774809Y-75593335D01*
X161570617Y-75592563D01*
X161477823Y-75592767D01*
X161398175Y-75593401D01*
X161331326Y-75594498D01*
X161276929Y-75596091D01*
X161254292Y-75597084D01*
X161234637Y-75598213D01*
X161217922Y-75599483D01*
X161204103Y-75600897D01*
X161193136Y-75602461D01*
X161184978Y-75604177D01*
X161181940Y-75605094D01*
X161179587Y-75606051D01*
X161177914Y-75607047D01*
X161176917Y-75608085D01*
X161175338Y-75617522D01*
X161173808Y-75638600D01*
X161171096Y-75710391D01*
X161169178Y-75812873D01*
X161168450Y-75935463D01*
X160896106Y-75935463D01*
X160896106Y-75853618D01*
X160553206Y-75849385D01*
X160430806Y-75847897D01*
X160381405Y-75847041D01*
X160339180Y-75845945D01*
X160320596Y-75845269D01*
X160303610Y-75844486D01*
X160288159Y-75843581D01*
X160274178Y-75842539D01*
X160261601Y-75841344D01*
X160250364Y-75839980D01*
X160240401Y-75838432D01*
X160231649Y-75836685D01*
X160224042Y-75834723D01*
X160217515Y-75832530D01*
X160214636Y-75831343D01*
X160212003Y-75830092D01*
X160209608Y-75828775D01*
X160207442Y-75827392D01*
X160205498Y-75825939D01*
X160203767Y-75824415D01*
X160202241Y-75822817D01*
X160200913Y-75821145D01*
X160199773Y-75819396D01*
X160198814Y-75817567D01*
X160198028Y-75815658D01*
X160197407Y-75813666D01*
X160196943Y-75811590D01*
X160196626Y-75809426D01*
X160196407Y-75804832D01*
X160196684Y-75799867D01*
X160197393Y-75794517D01*
X160198469Y-75788766D01*
X160199847Y-75782599D01*
X160203250Y-75768952D01*
X160211717Y-75733674D01*
X160540506Y-75733674D01*
X160622904Y-75733467D01*
X160692751Y-75732814D01*
X160750725Y-75731665D01*
X160775472Y-75730889D01*
X160797504Y-75729970D01*
X160816908Y-75728902D01*
X160833766Y-75727679D01*
X160848165Y-75726295D01*
X160860189Y-75724744D01*
X160869922Y-75723019D01*
X160877450Y-75721114D01*
X160880413Y-75720093D01*
X160882857Y-75719024D01*
X160884792Y-75717906D01*
X160886228Y-75716740D01*
X160888523Y-75714202D01*
X160890645Y-75711364D01*
X160892596Y-75708249D01*
X160894378Y-75704881D01*
X160895991Y-75701283D01*
X160897437Y-75697477D01*
X160898717Y-75693486D01*
X160899832Y-75689334D01*
X160900784Y-75685044D01*
X160901574Y-75680638D01*
X160902673Y-75671571D01*
X160903140Y-75662319D01*
X160902985Y-75653064D01*
X160902218Y-75643992D01*
X160900849Y-75635285D01*
X160898889Y-75627128D01*
X160897691Y-75623313D01*
X160896348Y-75619705D01*
X160894863Y-75616326D01*
X160893237Y-75613199D01*
X160891471Y-75610348D01*
X160889566Y-75607796D01*
X160887523Y-75605565D01*
X160885345Y-75603678D01*
X160883031Y-75602159D01*
X160880584Y-75601030D01*
X160867647Y-75599450D01*
X160839529Y-75597921D01*
X160744764Y-75595209D01*
X160610312Y-75593291D01*
X160450195Y-75592563D01*
X160042384Y-75592563D01*
X160026861Y-75630663D01*
X160023890Y-75644377D01*
X160021349Y-75667087D01*
X160019271Y-75698132D01*
X160017689Y-75736849D01*
X160016636Y-75782578D01*
X160016146Y-75834657D01*
X159699515Y-75834657D01*
X159636285Y-75795628D01*
X159517651Y-75725136D01*
X159357994Y-75633485D01*
X159343894Y-75625310D01*
X159330390Y-75617831D01*
X159323964Y-75614403D01*
X159317811Y-75611210D01*
X159311972Y-75608275D01*
X159306489Y-75605616D01*
X159301403Y-75603254D01*
X159296755Y-75601211D01*
X159292586Y-75599507D01*
X159288938Y-75598163D01*
X159285853Y-75597199D01*
X159283371Y-75596636D01*
X159282370Y-75596512D01*
X159281534Y-75596495D01*
X159280871Y-75596589D01*
X159280384Y-75596796D01*
X157704172Y-75602441D01*
X156133606Y-75606674D01*
X156125139Y-75641952D01*
X156116829Y-75669195D01*
X156116293Y-75680049D01*
X156121633Y-75689246D01*
X156135448Y-75696930D01*
X156160337Y-75703244D01*
X156253726Y-75712331D01*
X156422588Y-75717647D01*
X156687709Y-75720335D01*
X157589872Y-75722385D01*
X159047550Y-75726618D01*
X158934661Y-75792940D01*
X158821772Y-75860674D01*
X157476984Y-75860674D01*
X156997084Y-75860594D01*
X156805979Y-75860702D01*
X156644251Y-75861093D01*
X156509511Y-75861906D01*
X156451514Y-75862514D01*
X156399369Y-75863279D01*
X156352775Y-75864218D01*
X156311435Y-75865350D01*
X156275049Y-75866691D01*
X156243319Y-75868259D01*
X156215947Y-75870070D01*
X156192634Y-75872143D01*
X156173080Y-75874494D01*
X156156988Y-75877142D01*
X156150147Y-75878582D01*
X156144059Y-75880102D01*
X156138686Y-75881705D01*
X156133993Y-75883393D01*
X156129941Y-75885167D01*
X156126492Y-75887031D01*
X156123611Y-75888986D01*
X156121258Y-75891035D01*
X156119398Y-75893179D01*
X156117992Y-75895421D01*
X156117004Y-75897763D01*
X156116395Y-75900207D01*
X156116129Y-75902755D01*
X155865494Y-75902755D01*
X155865494Y-75663118D01*
X155830217Y-75640541D01*
X155822511Y-75634954D01*
X155815802Y-75629183D01*
X155810094Y-75623044D01*
X155805390Y-75616353D01*
X155801695Y-75608927D01*
X155799012Y-75600580D01*
X155797347Y-75591130D01*
X155796703Y-75580392D01*
X155797084Y-75568182D01*
X155798494Y-75554317D01*
X155800938Y-75538612D01*
X155804420Y-75520883D01*
X155808943Y-75500946D01*
X155814513Y-75478618D01*
X155828806Y-75426052D01*
X155845408Y-75367160D01*
X155852457Y-75341233D01*
X156124199Y-75341233D01*
X156124509Y-75344643D01*
X156124783Y-75345968D01*
X156125139Y-75347029D01*
X156126554Y-75349809D01*
X156128722Y-75352335D01*
X156131700Y-75354617D01*
X156135546Y-75356665D01*
X156140318Y-75358490D01*
X156146074Y-75360102D01*
X156152872Y-75361511D01*
X156160769Y-75362728D01*
X156169825Y-75363763D01*
X156180095Y-75364627D01*
X156204514Y-75365881D01*
X156234489Y-75366573D01*
X156270483Y-75366785D01*
X156335519Y-75366658D01*
X156361786Y-75366208D01*
X156384364Y-75365242D01*
X156394382Y-75364504D01*
X156403610Y-75363564D01*
X156412096Y-75362398D01*
X156419882Y-75360981D01*
X156427014Y-75359289D01*
X156433537Y-75357298D01*
X156439494Y-75354984D01*
X156444932Y-75352321D01*
X156449894Y-75349287D01*
X156454426Y-75345856D01*
X156458571Y-75342005D01*
X156462375Y-75337709D01*
X156465883Y-75332943D01*
X156469138Y-75327684D01*
X156472187Y-75321907D01*
X156475072Y-75315588D01*
X156477840Y-75308703D01*
X156480535Y-75301227D01*
X156485885Y-75284406D01*
X156497672Y-75242607D01*
X156540535Y-75091442D01*
X156599272Y-74879952D01*
X156687709Y-74569573D01*
X156778660Y-74259592D01*
X156870933Y-73954638D01*
X156963339Y-73659341D01*
X157014139Y-73497063D01*
X157031072Y-73581729D01*
X157199876Y-74447975D01*
X157263046Y-74781681D01*
X157297772Y-74974496D01*
X157306239Y-75028118D01*
X157594106Y-75028118D01*
X157705583Y-74854552D01*
X157955306Y-74475095D01*
X158244981Y-74040341D01*
X158488618Y-73678611D01*
X158566301Y-73565231D01*
X158600228Y-73518229D01*
X158602030Y-73527697D01*
X158598773Y-73563217D01*
X158579061Y-73701123D01*
X158500745Y-74165400D01*
X158397028Y-74730484D01*
X158299661Y-75215796D01*
X158295174Y-75238393D01*
X158291283Y-75260312D01*
X158288053Y-75281008D01*
X158285550Y-75299934D01*
X158283841Y-75316545D01*
X158283305Y-75323811D01*
X158282992Y-75330295D01*
X158282911Y-75335926D01*
X158283070Y-75340638D01*
X158283476Y-75344362D01*
X158284139Y-75347029D01*
X158285545Y-75350041D01*
X158287714Y-75352737D01*
X158290746Y-75355131D01*
X158294744Y-75357238D01*
X158299809Y-75359072D01*
X158306042Y-75360647D01*
X158313543Y-75361979D01*
X158322415Y-75363081D01*
X158344676Y-75364655D01*
X158373634Y-75365484D01*
X158410100Y-75365685D01*
X158454884Y-75365374D01*
X158487507Y-75365120D01*
X158518229Y-75364404D01*
X158546338Y-75363290D01*
X158571124Y-75361846D01*
X158591874Y-75360137D01*
X158600514Y-75359205D01*
X158607879Y-75358230D01*
X158613879Y-75357223D01*
X158618426Y-75356191D01*
X158621431Y-75355142D01*
X158622328Y-75354614D01*
X158622806Y-75354085D01*
X158626476Y-75343017D01*
X159116033Y-75343017D01*
X159116208Y-75346652D01*
X159116566Y-75349802D01*
X159117102Y-75352487D01*
X159117813Y-75354730D01*
X159118697Y-75356554D01*
X159119748Y-75357980D01*
X159120963Y-75359032D01*
X159122339Y-75359730D01*
X159130476Y-75361682D01*
X159143313Y-75363310D01*
X159180327Y-75365617D01*
X159227858Y-75366700D01*
X159280384Y-75366609D01*
X159332380Y-75365393D01*
X159378323Y-75363103D01*
X159397300Y-75361570D01*
X159412692Y-75359787D01*
X159423809Y-75357760D01*
X159429961Y-75355496D01*
X159437957Y-75347440D01*
X159447093Y-75328883D01*
X159458908Y-75293956D01*
X159474940Y-75236786D01*
X159477244Y-75227522D01*
X159849867Y-75227522D01*
X159849927Y-75230495D01*
X159850472Y-75232730D01*
X159852845Y-75237476D01*
X159856487Y-75242443D01*
X159867372Y-75252959D01*
X159882706Y-75264120D01*
X159902066Y-75275768D01*
X159925031Y-75287748D01*
X159951179Y-75299901D01*
X159980089Y-75312070D01*
X160011339Y-75324099D01*
X160044507Y-75335830D01*
X160079172Y-75347107D01*
X160114911Y-75357771D01*
X160151304Y-75367667D01*
X160187928Y-75376637D01*
X160224362Y-75384523D01*
X160260184Y-75391169D01*
X160294973Y-75396418D01*
X160328857Y-75400225D01*
X160365627Y-75403193D01*
X160445873Y-75406693D01*
X160531808Y-75407084D01*
X160619528Y-75404532D01*
X160705132Y-75399202D01*
X160784716Y-75391259D01*
X160821032Y-75386359D01*
X160854379Y-75380869D01*
X160884270Y-75374807D01*
X160910217Y-75368196D01*
X160947714Y-75356787D01*
X160983052Y-75345255D01*
X161016384Y-75333507D01*
X161047866Y-75321453D01*
X161077654Y-75309002D01*
X161105901Y-75296064D01*
X161132764Y-75282547D01*
X161158396Y-75268360D01*
X161182954Y-75253412D01*
X161206592Y-75237613D01*
X161229465Y-75220871D01*
X161251728Y-75203096D01*
X161273536Y-75184196D01*
X161295045Y-75164081D01*
X161316409Y-75142659D01*
X161337783Y-75119840D01*
X161361420Y-75092816D01*
X161383143Y-75065634D01*
X161402989Y-75038171D01*
X161420995Y-75010303D01*
X161437199Y-74981906D01*
X161451637Y-74952855D01*
X161464347Y-74923028D01*
X161475367Y-74892299D01*
X161484733Y-74860545D01*
X161492482Y-74827641D01*
X161498652Y-74793465D01*
X161503280Y-74757890D01*
X161506404Y-74720795D01*
X161508059Y-74682054D01*
X161508285Y-74641544D01*
X161507117Y-74599140D01*
X161505298Y-74558654D01*
X161504178Y-74540756D01*
X161502884Y-74524219D01*
X161501391Y-74508889D01*
X161499675Y-74494614D01*
X161497712Y-74481239D01*
X161495475Y-74468613D01*
X161492941Y-74456582D01*
X161490084Y-74444993D01*
X161486880Y-74433694D01*
X161483304Y-74422531D01*
X161479332Y-74411352D01*
X161474937Y-74400003D01*
X161470096Y-74388332D01*
X161464784Y-74376185D01*
X161450690Y-74347434D01*
X161435707Y-74320272D01*
X161419509Y-74294438D01*
X161401769Y-74269668D01*
X161382160Y-74245700D01*
X161360356Y-74222272D01*
X161336030Y-74199120D01*
X161308856Y-74175984D01*
X161278507Y-74152599D01*
X161244656Y-74128703D01*
X161206977Y-74104035D01*
X161165143Y-74078330D01*
X161118828Y-74051328D01*
X161067705Y-74022765D01*
X160949728Y-73959907D01*
X160917613Y-73942843D01*
X160887873Y-73926515D01*
X160860403Y-73910831D01*
X160835097Y-73895702D01*
X160811850Y-73881035D01*
X160790556Y-73866741D01*
X160771110Y-73852727D01*
X160753407Y-73838904D01*
X160737341Y-73825181D01*
X160722806Y-73811465D01*
X160709698Y-73797667D01*
X160697911Y-73783695D01*
X160687339Y-73769458D01*
X160677877Y-73754866D01*
X160669419Y-73739828D01*
X160661861Y-73724252D01*
X160656588Y-73711006D01*
X160651887Y-73696275D01*
X160647769Y-73680257D01*
X160644244Y-73663155D01*
X160641323Y-73645168D01*
X160639016Y-73626496D01*
X160637333Y-73607341D01*
X160636285Y-73587903D01*
X160635882Y-73568382D01*
X160636133Y-73548979D01*
X160637051Y-73529894D01*
X160638644Y-73511328D01*
X160640924Y-73493482D01*
X160643900Y-73476555D01*
X160647583Y-73460748D01*
X160651983Y-73446263D01*
X160658318Y-73429058D01*
X160665667Y-73412374D01*
X160674011Y-73396218D01*
X160683331Y-73380599D01*
X160704824Y-73351004D01*
X160729992Y-73323650D01*
X160758682Y-73298604D01*
X160790741Y-73275929D01*
X160826017Y-73255689D01*
X160864356Y-73237947D01*
X160905605Y-73222769D01*
X160949612Y-73210219D01*
X160996224Y-73200359D01*
X161045287Y-73193255D01*
X161096648Y-73188970D01*
X161150155Y-73187569D01*
X161205655Y-73189115D01*
X161262995Y-73193674D01*
X161313459Y-73199260D01*
X161335307Y-73201986D01*
X161355290Y-73204764D01*
X161373703Y-73207666D01*
X161390838Y-73210764D01*
X161406989Y-73214131D01*
X161422450Y-73217839D01*
X161437514Y-73221961D01*
X161452475Y-73226568D01*
X161467626Y-73231733D01*
X161483260Y-73237529D01*
X161499672Y-73244027D01*
X161517155Y-73251301D01*
X161556506Y-73268463D01*
X161575686Y-73276637D01*
X161593790Y-73284117D01*
X161610406Y-73290737D01*
X161625121Y-73296332D01*
X161637521Y-73300736D01*
X161642723Y-73302440D01*
X161647192Y-73303785D01*
X161650875Y-73304748D01*
X161653721Y-73305311D01*
X161655678Y-73305453D01*
X161656307Y-73305359D01*
X161656695Y-73305151D01*
X161667578Y-73288486D01*
X161686615Y-73256755D01*
X161709958Y-73216252D01*
X162088495Y-73216252D01*
X162089201Y-73219264D01*
X162091499Y-73221962D01*
X162095657Y-73224363D01*
X162101944Y-73226482D01*
X162121981Y-73229944D01*
X162153759Y-73232479D01*
X162199427Y-73234221D01*
X162261135Y-73235301D01*
X162441272Y-73236007D01*
X162532193Y-73236214D01*
X162607717Y-73236867D01*
X162640022Y-73237376D01*
X162668855Y-73238016D01*
X162694345Y-73238792D01*
X162716616Y-73239711D01*
X162735794Y-73240779D01*
X162752006Y-73242002D01*
X162765378Y-73243385D01*
X162776037Y-73244937D01*
X162784107Y-73246662D01*
X162787211Y-73247591D01*
X162789715Y-73248567D01*
X162791635Y-73249588D01*
X162792988Y-73250657D01*
X162793787Y-73251774D01*
X162794050Y-73252940D01*
X162792896Y-73261024D01*
X162789574Y-73278186D01*
X162777293Y-73335314D01*
X162758927Y-73415461D01*
X162736195Y-73509763D01*
X162651528Y-73871007D01*
X162625952Y-73978781D01*
X162613627Y-74029162D01*
X162603550Y-74068563D01*
X162574799Y-74183215D01*
X162534406Y-74350785D01*
X162442331Y-74736900D01*
X162369306Y-75039407D01*
X162347941Y-75131813D01*
X162329618Y-75214561D01*
X162316323Y-75278524D01*
X162312181Y-75300609D01*
X162310039Y-75314574D01*
X162307217Y-75359730D01*
X162472317Y-75362552D01*
X162506746Y-75362819D01*
X162538728Y-75362574D01*
X162567666Y-75361832D01*
X162580809Y-75361281D01*
X162592967Y-75360612D01*
X162604067Y-75359826D01*
X162614035Y-75358928D01*
X162622795Y-75357917D01*
X162630273Y-75356797D01*
X162636396Y-75355570D01*
X162641088Y-75354237D01*
X162642875Y-75353532D01*
X162644276Y-75352801D01*
X162645282Y-75352044D01*
X162645884Y-75351263D01*
X162647088Y-75349242D01*
X162648571Y-75345875D01*
X162652300Y-75335410D01*
X162656922Y-75320480D01*
X162662288Y-75301698D01*
X162674657Y-75255021D01*
X162688217Y-75200274D01*
X162739017Y-74992311D01*
X162789861Y-74779021D01*
X163581222Y-74779021D01*
X163581373Y-74802396D01*
X163581737Y-74823573D01*
X163582341Y-74842791D01*
X163583212Y-74860287D01*
X163584376Y-74876299D01*
X163585860Y-74891064D01*
X163587692Y-74904821D01*
X163589898Y-74917806D01*
X163592505Y-74930259D01*
X163595539Y-74942415D01*
X163599029Y-74954514D01*
X163603000Y-74966793D01*
X163607480Y-74979489D01*
X163612495Y-74992841D01*
X163636802Y-75049494D01*
X163664742Y-75101978D01*
X163696307Y-75150291D01*
X163731491Y-75194431D01*
X163770289Y-75234395D01*
X163812693Y-75270182D01*
X163858699Y-75301789D01*
X163908299Y-75329214D01*
X163961487Y-75352456D01*
X164018258Y-75371512D01*
X164078605Y-75386380D01*
X164142521Y-75397058D01*
X164210002Y-75403544D01*
X164281039Y-75405836D01*
X164355628Y-75403932D01*
X164433762Y-75397830D01*
X164467201Y-75393817D01*
X164501252Y-75389275D01*
X164534940Y-75384336D01*
X164567288Y-75379132D01*
X164597321Y-75373797D01*
X164624063Y-75368461D01*
X164646539Y-75363257D01*
X164655872Y-75360747D01*
X164663773Y-75358318D01*
X164690363Y-75349895D01*
X164714633Y-75342063D01*
X164736680Y-75334785D01*
X164756597Y-75328024D01*
X164774481Y-75321742D01*
X164790425Y-75315902D01*
X164804526Y-75310468D01*
X164816878Y-75305402D01*
X164827577Y-75300666D01*
X164836716Y-75296224D01*
X164840732Y-75294101D01*
X164844393Y-75292038D01*
X164847712Y-75290030D01*
X164850701Y-75288072D01*
X164853371Y-75286159D01*
X164855735Y-75284287D01*
X164857805Y-75282451D01*
X164859592Y-75280647D01*
X164861108Y-75278869D01*
X164862365Y-75277114D01*
X164863375Y-75275377D01*
X164864150Y-75273652D01*
X164864862Y-75270919D01*
X164865415Y-75267004D01*
X164866069Y-75255925D01*
X164866160Y-75241009D01*
X164865738Y-75222852D01*
X164864854Y-75202049D01*
X164863556Y-75179195D01*
X164859918Y-75129718D01*
X164855235Y-75082909D01*
X164852920Y-75064284D01*
X164850238Y-75048668D01*
X164848670Y-75041947D01*
X164846904Y-75035929D01*
X164844902Y-75030597D01*
X164842628Y-75025936D01*
X164840048Y-75021927D01*
X164837126Y-75018555D01*
X164833824Y-75015803D01*
X164830108Y-75013654D01*
X164825941Y-75012093D01*
X164821287Y-75011102D01*
X164816111Y-75010666D01*
X164810377Y-75010766D01*
X164804048Y-75011388D01*
X164797089Y-75012513D01*
X164781138Y-75016212D01*
X164762234Y-75021730D01*
X164740091Y-75028934D01*
X164684939Y-75047874D01*
X164629885Y-75065262D01*
X164574504Y-75079357D01*
X164519164Y-75090206D01*
X164464233Y-75097858D01*
X164410079Y-75102360D01*
X164357071Y-75103759D01*
X164305576Y-75102103D01*
X164255962Y-75097439D01*
X164208596Y-75089816D01*
X164185872Y-75084909D01*
X164163848Y-75079279D01*
X164142570Y-75072934D01*
X164122084Y-75065878D01*
X164102437Y-75058118D01*
X164083674Y-75049660D01*
X164065841Y-75040509D01*
X164048984Y-75030671D01*
X164033149Y-75020153D01*
X164018382Y-75008961D01*
X164004730Y-74997099D01*
X163992237Y-74984575D01*
X163980951Y-74971395D01*
X163970917Y-74957563D01*
X163964638Y-74947333D01*
X163958525Y-74935781D01*
X163952611Y-74923044D01*
X163946928Y-74909254D01*
X163941509Y-74894547D01*
X163936389Y-74879056D01*
X163931599Y-74862916D01*
X163927172Y-74846261D01*
X163923143Y-74829226D01*
X163919543Y-74811945D01*
X163916407Y-74794553D01*
X163913767Y-74777183D01*
X163911656Y-74759970D01*
X163910107Y-74743049D01*
X163909153Y-74726554D01*
X163908828Y-74710618D01*
X163908828Y-74665463D01*
X164004784Y-74656996D01*
X164025305Y-74654951D01*
X164047249Y-74653072D01*
X164069921Y-74651390D01*
X164092625Y-74649941D01*
X164114668Y-74648756D01*
X164135356Y-74647868D01*
X164153992Y-74647311D01*
X164169884Y-74647118D01*
X164190964Y-74646412D01*
X164217217Y-74644379D01*
X164282376Y-74636844D01*
X164359639Y-74625538D01*
X164443286Y-74611488D01*
X164527594Y-74595718D01*
X164606843Y-74579253D01*
X164675309Y-74563119D01*
X164727272Y-74548340D01*
X164750708Y-74540235D01*
X164773404Y-74531785D01*
X164795380Y-74522975D01*
X164816658Y-74513790D01*
X164837257Y-74504217D01*
X164857200Y-74494241D01*
X164876505Y-74483848D01*
X164895195Y-74473022D01*
X164913289Y-74461750D01*
X164930809Y-74450018D01*
X164947775Y-74437809D01*
X164964207Y-74425111D01*
X164980127Y-74411908D01*
X164995555Y-74398187D01*
X165010511Y-74383932D01*
X165025017Y-74369130D01*
X165041285Y-74351777D01*
X165056271Y-74335081D01*
X165070050Y-74318906D01*
X165082696Y-74303116D01*
X165094284Y-74287574D01*
X165104888Y-74272143D01*
X165114583Y-74256688D01*
X165123442Y-74241071D01*
X165131541Y-74225157D01*
X165138953Y-74208808D01*
X165145754Y-74191889D01*
X165152017Y-74174264D01*
X165157817Y-74155795D01*
X165163229Y-74136346D01*
X165168326Y-74115780D01*
X165173184Y-74093963D01*
X165178854Y-74064452D01*
X165183174Y-74035466D01*
X165186158Y-74007023D01*
X165187821Y-73979142D01*
X165188177Y-73951843D01*
X165187239Y-73925145D01*
X165185022Y-73899068D01*
X165181540Y-73873631D01*
X165176808Y-73848853D01*
X165170839Y-73824754D01*
X165163649Y-73801354D01*
X165155250Y-73778670D01*
X165145658Y-73756724D01*
X165134886Y-73735534D01*
X165122948Y-73715120D01*
X165109860Y-73695500D01*
X165095635Y-73676695D01*
X165080287Y-73658724D01*
X165063831Y-73641606D01*
X165046280Y-73625361D01*
X165027650Y-73610007D01*
X165007953Y-73595565D01*
X164987205Y-73582054D01*
X164965419Y-73569492D01*
X164942611Y-73557901D01*
X164918793Y-73547297D01*
X164893981Y-73537703D01*
X164868188Y-73529135D01*
X164841428Y-73521615D01*
X164813717Y-73515161D01*
X164785067Y-73509793D01*
X164755494Y-73505530D01*
X164711684Y-73499973D01*
X164676737Y-73496004D01*
X164661678Y-73494615D01*
X164647743Y-73493623D01*
X164634569Y-73493028D01*
X164621792Y-73492829D01*
X164609048Y-73493028D01*
X164595973Y-73493623D01*
X164582204Y-73494615D01*
X164567376Y-73496004D01*
X164533090Y-73499973D01*
X164490206Y-73505530D01*
X164426930Y-73516125D01*
X164364733Y-73531420D01*
X164303768Y-73551288D01*
X164244188Y-73575600D01*
X164186145Y-73604228D01*
X164129794Y-73637044D01*
X164075286Y-73673920D01*
X164022776Y-73714727D01*
X163972415Y-73759337D01*
X163924356Y-73807623D01*
X163878753Y-73859456D01*
X163835759Y-73914708D01*
X163795527Y-73973250D01*
X163758209Y-74034955D01*
X163723958Y-74099695D01*
X163692928Y-74167340D01*
X163678654Y-74202420D01*
X163665450Y-74236840D01*
X163653296Y-74270736D01*
X163642172Y-74304240D01*
X163632057Y-74337489D01*
X163622929Y-74370615D01*
X163614769Y-74403754D01*
X163607556Y-74437039D01*
X163601269Y-74470606D01*
X163595887Y-74504588D01*
X163591390Y-74539120D01*
X163587756Y-74574336D01*
X163584967Y-74610370D01*
X163582999Y-74647358D01*
X163581834Y-74685433D01*
X163581451Y-74724729D01*
X163581222Y-74779021D01*
X162789861Y-74779021D01*
X162844850Y-74548340D01*
X162956328Y-74089730D01*
X163026531Y-73795866D01*
X163090384Y-73525285D01*
X163133422Y-73340606D01*
X163147930Y-73280611D01*
X163152621Y-73262694D01*
X163154225Y-73257255D01*
X163155295Y-73254351D01*
X163156889Y-73251819D01*
X163160702Y-73249506D01*
X163166872Y-73247400D01*
X163175535Y-73245488D01*
X163200886Y-73242197D01*
X163237845Y-73239535D01*
X163287504Y-73237402D01*
X163350954Y-73235698D01*
X163523595Y-73233185D01*
X163887662Y-73228952D01*
X163910239Y-73137229D01*
X163920095Y-73096748D01*
X163929819Y-73054679D01*
X163938219Y-73015786D01*
X163941551Y-72999018D01*
X163944106Y-72984829D01*
X163953983Y-72925563D01*
X162159051Y-72925563D01*
X162143528Y-72963663D01*
X162136707Y-72985744D01*
X162128381Y-73017020D01*
X162119294Y-73054249D01*
X162110191Y-73094190D01*
X162101815Y-73133602D01*
X162094911Y-73169244D01*
X162090223Y-73197874D01*
X162088942Y-73208547D01*
X162088495Y-73216252D01*
X161709958Y-73216252D01*
X161737305Y-73168803D01*
X161785084Y-73082703D01*
X161800483Y-73053288D01*
X161804764Y-73044253D01*
X161806273Y-73039863D01*
X161805816Y-73038125D01*
X161804471Y-73036098D01*
X161799267Y-73031239D01*
X161790962Y-73025417D01*
X161779859Y-73018762D01*
X161750462Y-73003474D01*
X161713492Y-72986417D01*
X161671363Y-72968632D01*
X161626488Y-72951161D01*
X161581283Y-72935046D01*
X161538162Y-72921330D01*
X161509369Y-72914072D01*
X161476290Y-72907651D01*
X161439504Y-72902078D01*
X161399586Y-72897363D01*
X161357113Y-72893516D01*
X161312662Y-72890547D01*
X161220132Y-72887286D01*
X161126610Y-72887664D01*
X161036710Y-72891762D01*
X160994559Y-72895233D01*
X160955045Y-72899664D01*
X160918742Y-72905067D01*
X160886228Y-72911452D01*
X160838082Y-72923236D01*
X160791573Y-72936865D01*
X160746751Y-72952302D01*
X160703666Y-72969506D01*
X160662366Y-72988438D01*
X160622901Y-73009058D01*
X160585322Y-73031328D01*
X160549678Y-73055209D01*
X160516018Y-73080660D01*
X160484392Y-73107643D01*
X160454850Y-73136118D01*
X160427441Y-73166047D01*
X160402214Y-73197389D01*
X160379220Y-73230106D01*
X160368576Y-73246968D01*
X160358508Y-73264159D01*
X160349024Y-73281673D01*
X160340128Y-73299507D01*
X160328481Y-73324997D01*
X160317880Y-73350650D01*
X160308320Y-73376435D01*
X160299796Y-73402325D01*
X160292303Y-73428292D01*
X160285837Y-73454307D01*
X160280393Y-73480342D01*
X160275967Y-73506367D01*
X160272553Y-73532356D01*
X160270148Y-73558279D01*
X160268746Y-73584108D01*
X160268343Y-73609814D01*
X160268935Y-73635369D01*
X160270516Y-73660745D01*
X160273082Y-73685914D01*
X160276628Y-73710846D01*
X160281150Y-73735514D01*
X160286643Y-73759888D01*
X160293102Y-73783942D01*
X160300523Y-73807645D01*
X160308901Y-73830970D01*
X160318232Y-73853889D01*
X160328510Y-73876372D01*
X160339731Y-73898392D01*
X160351891Y-73919919D01*
X160364984Y-73940927D01*
X160379007Y-73961385D01*
X160393954Y-73981267D01*
X160409821Y-74000543D01*
X160426603Y-74019184D01*
X160444296Y-74037163D01*
X160462895Y-74054452D01*
X160482270Y-74070263D01*
X160508888Y-74089663D01*
X160541525Y-74111875D01*
X160578959Y-74136120D01*
X160619964Y-74161622D01*
X160663317Y-74187603D01*
X160707794Y-74213287D01*
X160752173Y-74237896D01*
X160813536Y-74271535D01*
X160868234Y-74302352D01*
X160916643Y-74330768D01*
X160959143Y-74357201D01*
X160996111Y-74382072D01*
X161012639Y-74394052D01*
X161027926Y-74405799D01*
X161042020Y-74417365D01*
X161054966Y-74428803D01*
X161066814Y-74440165D01*
X161077610Y-74451503D01*
X161087401Y-74462870D01*
X161096235Y-74474319D01*
X161104159Y-74485901D01*
X161111220Y-74497670D01*
X161117466Y-74509678D01*
X161122944Y-74521976D01*
X161127700Y-74534619D01*
X161131783Y-74547657D01*
X161135240Y-74561144D01*
X161138118Y-74575132D01*
X161140464Y-74589674D01*
X161142325Y-74604821D01*
X161144784Y-74637143D01*
X161145872Y-74672518D01*
X161145621Y-74706222D01*
X161145249Y-74720835D01*
X161144660Y-74734188D01*
X161143814Y-74746459D01*
X161142673Y-74757822D01*
X161141196Y-74768453D01*
X161139346Y-74778528D01*
X161137082Y-74788223D01*
X161134366Y-74797713D01*
X161131158Y-74807174D01*
X161127418Y-74816782D01*
X161123108Y-74826713D01*
X161118188Y-74837142D01*
X161112619Y-74848244D01*
X161106361Y-74860196D01*
X161097001Y-74876336D01*
X161086906Y-74891952D01*
X161076072Y-74907046D01*
X161064491Y-74921624D01*
X161052158Y-74935689D01*
X161039066Y-74949245D01*
X161025210Y-74962297D01*
X161010582Y-74974849D01*
X160995178Y-74986905D01*
X160978989Y-74998469D01*
X160962012Y-75009545D01*
X160944238Y-75020137D01*
X160925662Y-75030250D01*
X160906279Y-75039887D01*
X160886080Y-75049053D01*
X160865061Y-75057752D01*
X160839066Y-75067657D01*
X160826763Y-75071760D01*
X160814526Y-75075347D01*
X160802057Y-75078453D01*
X160789060Y-75081118D01*
X160775235Y-75083377D01*
X160760286Y-75085268D01*
X160725824Y-75088096D01*
X160683293Y-75089899D01*
X160630310Y-75090973D01*
X160564495Y-75091618D01*
X160483014Y-75091020D01*
X160447900Y-75090121D01*
X160415887Y-75088686D01*
X160386487Y-75086614D01*
X160359211Y-75083805D01*
X160333573Y-75080156D01*
X160309084Y-75075567D01*
X160285256Y-75069936D01*
X160261602Y-75063162D01*
X160237634Y-75055143D01*
X160212863Y-75045779D01*
X160186803Y-75034968D01*
X160158965Y-75022609D01*
X160096006Y-74992841D01*
X160002873Y-74947685D01*
X159976061Y-74984374D01*
X159965256Y-74999503D01*
X159954112Y-75016113D01*
X159942786Y-75033896D01*
X159931435Y-75052548D01*
X159920216Y-75071762D01*
X159909287Y-75091233D01*
X159898804Y-75110653D01*
X159888925Y-75129718D01*
X159879807Y-75148122D01*
X159871606Y-75165558D01*
X159864480Y-75181721D01*
X159858586Y-75196305D01*
X159854081Y-75209004D01*
X159851123Y-75219511D01*
X159849867Y-75227522D01*
X159477244Y-75227522D01*
X159525807Y-75032242D01*
X159611995Y-74668285D01*
X159661891Y-74455670D01*
X159696838Y-74309334D01*
X159719349Y-74217237D01*
X159731939Y-74167340D01*
X159761021Y-74052093D01*
X159803729Y-73874006D01*
X159844056Y-73700417D01*
X159865995Y-73598663D01*
X159875872Y-73546452D01*
X159537206Y-73546452D01*
X159506161Y-73676274D01*
X159464710Y-73851781D01*
X159407384Y-74089730D01*
X159293084Y-74562451D01*
X159240343Y-74785054D01*
X159175961Y-75052107D01*
X159156410Y-75133968D01*
X159148199Y-75169092D01*
X159140992Y-75200583D01*
X159134762Y-75228617D01*
X159129477Y-75253372D01*
X159125111Y-75275028D01*
X159121634Y-75293760D01*
X159119016Y-75309747D01*
X159117229Y-75323167D01*
X159116639Y-75328970D01*
X159116245Y-75334198D01*
X159116044Y-75338873D01*
X159116033Y-75343017D01*
X158626476Y-75343017D01*
X158627893Y-75338742D01*
X158636255Y-75304895D01*
X158659495Y-75197628D01*
X158685909Y-75064168D01*
X158708883Y-74936396D01*
X158772384Y-74576563D01*
X158838662Y-74185045D01*
X158897267Y-73800275D01*
X158950580Y-73406774D01*
X159000983Y-72989063D01*
X159001980Y-72979048D01*
X159002213Y-72970128D01*
X159001511Y-72962243D01*
X158999705Y-72955328D01*
X158998335Y-72952216D01*
X158996625Y-72949324D01*
X158994555Y-72946643D01*
X158992103Y-72944166D01*
X158989248Y-72941886D01*
X158985969Y-72939794D01*
X158978053Y-72936146D01*
X158968186Y-72933159D01*
X158956197Y-72930772D01*
X158941919Y-72928922D01*
X158925180Y-72927547D01*
X158905813Y-72926586D01*
X158883646Y-72925976D01*
X158830239Y-72925563D01*
X158677839Y-72925563D01*
X158600228Y-73027163D01*
X158539749Y-73108963D01*
X158464585Y-73213782D01*
X158369048Y-73349822D01*
X158247450Y-73525285D01*
X158099813Y-73743302D01*
X157853750Y-74109485D01*
X157537661Y-74582207D01*
X157520728Y-74469318D01*
X157495838Y-74311990D01*
X157465276Y-74136737D01*
X157391435Y-73753885D01*
X157307804Y-73363625D01*
X157265005Y-73179111D01*
X157222983Y-73008818D01*
X157220219Y-72998152D01*
X157217273Y-72987519D01*
X157214227Y-72977217D01*
X157211165Y-72967543D01*
X157208170Y-72958796D01*
X157205322Y-72951271D01*
X157203981Y-72948061D01*
X157202707Y-72945269D01*
X157201512Y-72942931D01*
X157200406Y-72941085D01*
X157198349Y-72939163D01*
X157194633Y-72937364D01*
X157182667Y-72934140D01*
X157165394Y-72931411D01*
X157143697Y-72929179D01*
X157090570Y-72926202D01*
X157030367Y-72925210D01*
X156970163Y-72926202D01*
X156917037Y-72929179D01*
X156895340Y-72931411D01*
X156878066Y-72934140D01*
X156866101Y-72937364D01*
X156862385Y-72939163D01*
X156860328Y-72941085D01*
X156846429Y-72975900D01*
X156818458Y-73055032D01*
X156732799Y-73308679D01*
X156628354Y-73626885D01*
X156530128Y-73934507D01*
X156496261Y-74039635D01*
X156453928Y-74174396D01*
X156415762Y-74298794D01*
X156368732Y-74456266D01*
X156259194Y-74833385D01*
X156218956Y-74976414D01*
X156190226Y-75076978D01*
X156147717Y-75224263D01*
X156144626Y-75234835D01*
X156141711Y-75245339D01*
X156138982Y-75255706D01*
X156136450Y-75265869D01*
X156134124Y-75275758D01*
X156132015Y-75285307D01*
X156130134Y-75294447D01*
X156128490Y-75303109D01*
X156127095Y-75311225D01*
X156125957Y-75318727D01*
X156125089Y-75325548D01*
X156124499Y-75331618D01*
X156124199Y-75336869D01*
X156124199Y-75341233D01*
X155852457Y-75341233D01*
X155864260Y-75297817D01*
X155900772Y-75162174D01*
X155984844Y-74857286D01*
X156084393Y-74511652D01*
X156189499Y-74159668D01*
X156290239Y-73835730D01*
X156411793Y-73461807D01*
X156533479Y-73097542D01*
X156630559Y-72815562D01*
X156662141Y-72728126D01*
X156678294Y-72688496D01*
X156685615Y-72678249D01*
X156690002Y-72674103D01*
X156695581Y-72670548D01*
X156702879Y-72667540D01*
X156712426Y-72665031D01*
X156724751Y-72662977D01*
X156740383Y-72661332D01*
X156783687Y-72659089D01*
X156846570Y-72657937D01*
X157048006Y-72657452D01*
X157118404Y-72657705D01*
X157184685Y-72658422D01*
X157245377Y-72659535D01*
X157299007Y-72660979D01*
X157344105Y-72662688D01*
X157379198Y-72664595D01*
X157402815Y-72666635D01*
X157409859Y-72667683D01*
X157413483Y-72668740D01*
X157420406Y-72676157D01*
X157428446Y-72690367D01*
X157447725Y-72738568D01*
X157471006Y-72812136D01*
X157497974Y-72909864D01*
X157528315Y-73030544D01*
X157561716Y-73172970D01*
X157597862Y-73335934D01*
X157636439Y-73518229D01*
X157657727Y-73619284D01*
X157666291Y-73659808D01*
X157673657Y-73694310D01*
X157679964Y-73723271D01*
X157682765Y-73735826D01*
X157685354Y-73747177D01*
X157687748Y-73757385D01*
X157689966Y-73766510D01*
X157692025Y-73774613D01*
X157693942Y-73781754D01*
X157695735Y-73787995D01*
X157697421Y-73793394D01*
X157699019Y-73798013D01*
X157699790Y-73800049D01*
X157700545Y-73801912D01*
X157701287Y-73803611D01*
X157702018Y-73805152D01*
X157702740Y-73806544D01*
X157703454Y-73807793D01*
X157704164Y-73808908D01*
X157704872Y-73809896D01*
X157705580Y-73810764D01*
X157706289Y-73811520D01*
X157707002Y-73812172D01*
X157707722Y-73812727D01*
X157708451Y-73813193D01*
X157709190Y-73813577D01*
X157709942Y-73813887D01*
X157710709Y-73814130D01*
X157711493Y-73814314D01*
X157712297Y-73814447D01*
X157713972Y-73814588D01*
X157715752Y-73814614D01*
X157719694Y-73814563D01*
X157722672Y-73813228D01*
X157727307Y-73809312D01*
X157741170Y-73794256D01*
X157760523Y-73770435D01*
X157784606Y-73738892D01*
X157812657Y-73700668D01*
X157843917Y-73656805D01*
X157877623Y-73608345D01*
X157913017Y-73556330D01*
X158027570Y-73387630D01*
X158136766Y-73228819D01*
X158238157Y-73083304D01*
X158329295Y-72954490D01*
X158407733Y-72845785D01*
X158471023Y-72760595D01*
X158516719Y-72702326D01*
X158532204Y-72684351D01*
X158542372Y-72674385D01*
X158546792Y-72672102D01*
X158553256Y-72670011D01*
X158572821Y-72666381D01*
X158602077Y-72663446D01*
X158642032Y-72661156D01*
X158693695Y-72659461D01*
X158758074Y-72658312D01*
X158929017Y-72657452D01*
X159022936Y-72657658D01*
X159101195Y-72658312D01*
X159164934Y-72659461D01*
X159191716Y-72660237D01*
X159215296Y-72661156D01*
X159235817Y-72662223D01*
X159253421Y-72663446D01*
X159268251Y-72664830D01*
X159280450Y-72666381D01*
X159290160Y-72668106D01*
X159297524Y-72670011D01*
X159300370Y-72671033D01*
X159302684Y-72672102D01*
X159304483Y-72673219D01*
X159305784Y-72674385D01*
X159308082Y-72679992D01*
X159309686Y-72689943D01*
X159310811Y-72722914D01*
X159309157Y-72773380D01*
X159304725Y-72841425D01*
X159287527Y-73030580D01*
X159259217Y-73291040D01*
X159254730Y-73328870D01*
X159250838Y-73364551D01*
X159247608Y-73397254D01*
X159245106Y-73426154D01*
X159243397Y-73450425D01*
X159242548Y-73469238D01*
X159242467Y-73476339D01*
X159242625Y-73481767D01*
X159243032Y-73485416D01*
X159243331Y-73486542D01*
X159243695Y-73487185D01*
X159245828Y-73489108D01*
X159247991Y-73490645D01*
X159250184Y-73491799D01*
X159252404Y-73492573D01*
X159254648Y-73492970D01*
X159256916Y-73492992D01*
X159259204Y-73492643D01*
X159261510Y-73491926D01*
X159263833Y-73490842D01*
X159266171Y-73489395D01*
X159270881Y-73485424D01*
X159275624Y-73480035D01*
X159280384Y-73473250D01*
X159285143Y-73465093D01*
X159289887Y-73455587D01*
X159294597Y-73444753D01*
X159299257Y-73432615D01*
X159303851Y-73419195D01*
X159308363Y-73404517D01*
X159312776Y-73388602D01*
X159317072Y-73371474D01*
X159319765Y-73360270D01*
X159322538Y-73349445D01*
X159325372Y-73339045D01*
X159328251Y-73329119D01*
X159331154Y-73319713D01*
X159334063Y-73310876D01*
X159336960Y-73302655D01*
X159339826Y-73295098D01*
X159342643Y-73288251D01*
X159345391Y-73282163D01*
X159348052Y-73276882D01*
X159350608Y-73272454D01*
X159351841Y-73270575D01*
X159353040Y-73268927D01*
X159354204Y-73267516D01*
X159355329Y-73266349D01*
X159356415Y-73265431D01*
X159357458Y-73264767D01*
X159358455Y-73264365D01*
X159359406Y-73264230D01*
X159361861Y-73264127D01*
X159364200Y-73263819D01*
X159366422Y-73263309D01*
X159368526Y-73262598D01*
X159370510Y-73261689D01*
X159372376Y-73260583D01*
X159374120Y-73259283D01*
X159375744Y-73257791D01*
X159377245Y-73256109D01*
X159378624Y-73254239D01*
X159379880Y-73252182D01*
X159381011Y-73249942D01*
X159382897Y-73244918D01*
X159384277Y-73239182D01*
X159385144Y-73232752D01*
X159385492Y-73225644D01*
X159385315Y-73217875D01*
X159384607Y-73209461D01*
X159383362Y-73200418D01*
X159381573Y-73190763D01*
X159379234Y-73180514D01*
X159376339Y-73169685D01*
X159373834Y-73156439D01*
X159371643Y-73139390D01*
X159369815Y-73119232D01*
X159368402Y-73096660D01*
X159367451Y-73072368D01*
X159367012Y-73047051D01*
X159367136Y-73021403D01*
X159367210Y-73018892D01*
X159616625Y-73018892D01*
X159616699Y-73029919D01*
X159617248Y-73040900D01*
X159618268Y-73051809D01*
X159619756Y-73062617D01*
X159621706Y-73073297D01*
X159624116Y-73083821D01*
X159626980Y-73094162D01*
X159630295Y-73104292D01*
X159634056Y-73114183D01*
X159638260Y-73123807D01*
X159642902Y-73133138D01*
X159647978Y-73142146D01*
X159653484Y-73150806D01*
X159659416Y-73159088D01*
X159665769Y-73166966D01*
X159672540Y-73174412D01*
X159679725Y-73181397D01*
X159687318Y-73187896D01*
X159695317Y-73193878D01*
X159703717Y-73199318D01*
X159713411Y-73204296D01*
X159724382Y-73208642D01*
X159736453Y-73212356D01*
X159749446Y-73215436D01*
X159763183Y-73217879D01*
X159777486Y-73219683D01*
X159792178Y-73220846D01*
X159807081Y-73221367D01*
X159822017Y-73221243D01*
X159836808Y-73220471D01*
X159851277Y-73219051D01*
X159865245Y-73216979D01*
X159878536Y-73214254D01*
X159890970Y-73210874D01*
X159902372Y-73206837D01*
X159912562Y-73202140D01*
X159928233Y-73193281D01*
X159942968Y-73183671D01*
X159956762Y-73173362D01*
X159969612Y-73162403D01*
X159981516Y-73150848D01*
X159992470Y-73138746D01*
X160002471Y-73126149D01*
X160011516Y-73113108D01*
X160019601Y-73099675D01*
X160026725Y-73085900D01*
X160032883Y-73071834D01*
X160038073Y-73057529D01*
X160042291Y-73043036D01*
X160045535Y-73028406D01*
X160047801Y-73013691D01*
X160049086Y-72998941D01*
X160049388Y-72984207D01*
X160048702Y-72969541D01*
X160047026Y-72954994D01*
X160044357Y-72940616D01*
X160040692Y-72926460D01*
X160036027Y-72912577D01*
X160030359Y-72899017D01*
X160023686Y-72885831D01*
X160016005Y-72873071D01*
X160007311Y-72860789D01*
X159997603Y-72849034D01*
X159986876Y-72837859D01*
X159975128Y-72827314D01*
X159962357Y-72817451D01*
X159948557Y-72808320D01*
X159933728Y-72799974D01*
X159925778Y-72796260D01*
X159917552Y-72793051D01*
X159909074Y-72790339D01*
X159900365Y-72788117D01*
X159891449Y-72786376D01*
X159882348Y-72785109D01*
X159873084Y-72784309D01*
X159863679Y-72783966D01*
X159854157Y-72784075D01*
X159844539Y-72784626D01*
X159834849Y-72785612D01*
X159825108Y-72787026D01*
X159815339Y-72788859D01*
X159805565Y-72791104D01*
X159786090Y-72796799D01*
X159766864Y-72804048D01*
X159748065Y-72812790D01*
X159729874Y-72822962D01*
X159721062Y-72828565D01*
X159712470Y-72834502D01*
X159704120Y-72840766D01*
X159696034Y-72847349D01*
X159688235Y-72854243D01*
X159680745Y-72861440D01*
X159673587Y-72868933D01*
X159666783Y-72876713D01*
X159660356Y-72884774D01*
X159654328Y-72893107D01*
X159648374Y-72902520D01*
X159642945Y-72912220D01*
X159638038Y-72922178D01*
X159633646Y-72932368D01*
X159629768Y-72942761D01*
X159626398Y-72953330D01*
X159623532Y-72964047D01*
X159621167Y-72974886D01*
X159619298Y-72985817D01*
X159617920Y-72996813D01*
X159617031Y-73007847D01*
X159616625Y-73018892D01*
X159367210Y-73018892D01*
X159367872Y-72996118D01*
X159369697Y-72961756D01*
X159370830Y-72946397D01*
X159372150Y-72932089D01*
X159373684Y-72918707D01*
X159375463Y-72906127D01*
X159377514Y-72894225D01*
X159379867Y-72882877D01*
X159382551Y-72871958D01*
X159385594Y-72861346D01*
X159389026Y-72850916D01*
X159392875Y-72840543D01*
X159397172Y-72830105D01*
X159401943Y-72819476D01*
X159407219Y-72808533D01*
X159413028Y-72797152D01*
X159427810Y-72770265D01*
X159443576Y-72744648D01*
X159460318Y-72720313D01*
X159478027Y-72697271D01*
X159496696Y-72675536D01*
X159516315Y-72655120D01*
X159536876Y-72636035D01*
X159558372Y-72618293D01*
X159580795Y-72601908D01*
X159604134Y-72586890D01*
X159628384Y-72573254D01*
X159653534Y-72561011D01*
X159679578Y-72550173D01*
X159706506Y-72540754D01*
X159734311Y-72532764D01*
X159762984Y-72526218D01*
X159784703Y-72522338D01*
X159806447Y-72519416D01*
X159828182Y-72517438D01*
X159849874Y-72516387D01*
X159871492Y-72516246D01*
X159893000Y-72517000D01*
X159914367Y-72518632D01*
X159935558Y-72521125D01*
X159956540Y-72524464D01*
X159977281Y-72528631D01*
X159997745Y-72533612D01*
X160017901Y-72539389D01*
X160037715Y-72545947D01*
X160057154Y-72553269D01*
X160076183Y-72561338D01*
X160094771Y-72570139D01*
X160112883Y-72579655D01*
X160130487Y-72589870D01*
X160147548Y-72600768D01*
X160164034Y-72612332D01*
X160179911Y-72624546D01*
X160195146Y-72637394D01*
X160209706Y-72650859D01*
X160223557Y-72664926D01*
X160236666Y-72679578D01*
X160248999Y-72694798D01*
X160260524Y-72710571D01*
X160271207Y-72726880D01*
X160281014Y-72743709D01*
X160289913Y-72761041D01*
X160297869Y-72778861D01*
X160304850Y-72797152D01*
X160307525Y-72804471D01*
X160310244Y-72811588D01*
X160312983Y-72818465D01*
X160315720Y-72825065D01*
X160318432Y-72831351D01*
X160321097Y-72837286D01*
X160323692Y-72842831D01*
X160326193Y-72847952D01*
X160328579Y-72852609D01*
X160330826Y-72856765D01*
X160332912Y-72860385D01*
X160334814Y-72863430D01*
X160336510Y-72865863D01*
X160337976Y-72867646D01*
X160338615Y-72868283D01*
X160339189Y-72868744D01*
X160339694Y-72869024D01*
X160340128Y-72869118D01*
X160341593Y-72868825D01*
X160343840Y-72867966D01*
X160350513Y-72864664D01*
X160359798Y-72859444D01*
X160371349Y-72852538D01*
X160384818Y-72844176D01*
X160399858Y-72834590D01*
X160433262Y-72812674D01*
X160471260Y-72788564D01*
X160510636Y-72765978D01*
X160551375Y-72744917D01*
X160593467Y-72725383D01*
X160636898Y-72707380D01*
X160681656Y-72690908D01*
X160727728Y-72675969D01*
X160775103Y-72662567D01*
X160823768Y-72650702D01*
X160873710Y-72640378D01*
X160924917Y-72631595D01*
X160977377Y-72624357D01*
X161031077Y-72618664D01*
X161086005Y-72614520D01*
X161142148Y-72611926D01*
X161199494Y-72610885D01*
X161283819Y-72612244D01*
X161323952Y-72613982D01*
X161362919Y-72616463D01*
X161400860Y-72619713D01*
X161437917Y-72623759D01*
X161474230Y-72628627D01*
X161509939Y-72634345D01*
X161545185Y-72640939D01*
X161580109Y-72648437D01*
X161614851Y-72656864D01*
X161649551Y-72666249D01*
X161684351Y-72676618D01*
X161719390Y-72687997D01*
X161754810Y-72700414D01*
X161790751Y-72713896D01*
X161811652Y-72721834D01*
X161830501Y-72728713D01*
X161839187Y-72731755D01*
X161847395Y-72734534D01*
X161855139Y-72737047D01*
X161862430Y-72739296D01*
X161869282Y-72741280D01*
X161875705Y-72743000D01*
X161881712Y-72744455D01*
X161887315Y-72745646D01*
X161892526Y-72746572D01*
X161897358Y-72747234D01*
X161901823Y-72747631D01*
X161905932Y-72747763D01*
X161909698Y-72747631D01*
X161913133Y-72747234D01*
X161916250Y-72746572D01*
X161919059Y-72745646D01*
X161920353Y-72745084D01*
X161921574Y-72744455D01*
X161922725Y-72743761D01*
X161923807Y-72743000D01*
X161924821Y-72742173D01*
X161925769Y-72741280D01*
X161926653Y-72740321D01*
X161927474Y-72739296D01*
X161928932Y-72737047D01*
X161930156Y-72734534D01*
X161931159Y-72731755D01*
X161931952Y-72728713D01*
X161932548Y-72725405D01*
X161932959Y-72721834D01*
X161933196Y-72717997D01*
X161933272Y-72713896D01*
X161933309Y-72712433D01*
X161933419Y-72710956D01*
X161933598Y-72709467D01*
X161933846Y-72707968D01*
X161934160Y-72706462D01*
X161934538Y-72704951D01*
X161934978Y-72703437D01*
X161935477Y-72701924D01*
X161936649Y-72698905D01*
X161938035Y-72695913D01*
X161939620Y-72692966D01*
X161941387Y-72690084D01*
X161943319Y-72687284D01*
X161945399Y-72684585D01*
X161947613Y-72682007D01*
X161949941Y-72679566D01*
X161952370Y-72677283D01*
X161954880Y-72675176D01*
X161957457Y-72673263D01*
X161960084Y-72671563D01*
X161984420Y-72668120D01*
X162043648Y-72665191D01*
X162266647Y-72660803D01*
X163129895Y-72657452D01*
X163467156Y-72657609D01*
X163732219Y-72658179D01*
X163933716Y-72659312D01*
X164013324Y-72660136D01*
X164080278Y-72661156D01*
X164135657Y-72662391D01*
X164180539Y-72663859D01*
X164216004Y-72665580D01*
X164243130Y-72667572D01*
X164262996Y-72669853D01*
X164270544Y-72671108D01*
X164276682Y-72672442D01*
X164281544Y-72673858D01*
X164285266Y-72675357D01*
X164287983Y-72676943D01*
X164289828Y-72678618D01*
X164292942Y-72683247D01*
X164295360Y-72688923D01*
X164297012Y-72696034D01*
X164297832Y-72704966D01*
X164297750Y-72716106D01*
X164296699Y-72729840D01*
X164291415Y-72766636D01*
X164281436Y-72818448D01*
X164266214Y-72888367D01*
X164217861Y-73094896D01*
X164202025Y-73164173D01*
X164195692Y-73192428D01*
X164190389Y-73216781D01*
X164188117Y-73227576D01*
X164186094Y-73237495D01*
X164184319Y-73246571D01*
X164182788Y-73254837D01*
X164181498Y-73262325D01*
X164180448Y-73269069D01*
X164179635Y-73275102D01*
X164179056Y-73280457D01*
X164178708Y-73285167D01*
X164178589Y-73289266D01*
X164178697Y-73292785D01*
X164178835Y-73294338D01*
X164179028Y-73295759D01*
X164179277Y-73297051D01*
X164179581Y-73298220D01*
X164179939Y-73299269D01*
X164180352Y-73300202D01*
X164180818Y-73301023D01*
X164181339Y-73301737D01*
X164181913Y-73302347D01*
X164182539Y-73302858D01*
X164183219Y-73303275D01*
X164183951Y-73303600D01*
X164184735Y-73303838D01*
X164185570Y-73303994D01*
X164186457Y-73304071D01*
X164187395Y-73304074D01*
X164189424Y-73303873D01*
X164191653Y-73303423D01*
X164194079Y-73302759D01*
X164196702Y-73301913D01*
X164199516Y-73300918D01*
X164250981Y-73282083D01*
X164275925Y-73273962D01*
X164300610Y-73266655D01*
X164325237Y-73260125D01*
X164350007Y-73254335D01*
X164375120Y-73249248D01*
X164400777Y-73244827D01*
X164427178Y-73241034D01*
X164454523Y-73237832D01*
X164483014Y-73235184D01*
X164512850Y-73233053D01*
X164577361Y-73230192D01*
X164649661Y-73228952D01*
X164712891Y-73229191D01*
X164764446Y-73230076D01*
X164786580Y-73230838D01*
X164806675Y-73231854D01*
X164825026Y-73233155D01*
X164841925Y-73234772D01*
X164857667Y-73236737D01*
X164872545Y-73239080D01*
X164886853Y-73241832D01*
X164900883Y-73245025D01*
X164914930Y-73248689D01*
X164929287Y-73252855D01*
X164944248Y-73257554D01*
X164960106Y-73262818D01*
X164980410Y-73269736D01*
X164999771Y-73276621D01*
X165017777Y-73283307D01*
X165034013Y-73289629D01*
X165048066Y-73295423D01*
X165059523Y-73300521D01*
X165064149Y-73302759D01*
X165067971Y-73304760D01*
X165070937Y-73306506D01*
X165072995Y-73307974D01*
X165075040Y-73309752D01*
X165077197Y-73311383D01*
X165079454Y-73312868D01*
X165081801Y-73314211D01*
X165084225Y-73315412D01*
X165086715Y-73316473D01*
X165089260Y-73317395D01*
X165091847Y-73318182D01*
X165094465Y-73318835D01*
X165097102Y-73319355D01*
X165099747Y-73319744D01*
X165102389Y-73320004D01*
X165105015Y-73320137D01*
X165107613Y-73320145D01*
X165110173Y-73320029D01*
X165112683Y-73319792D01*
X165115130Y-73319435D01*
X165117504Y-73318959D01*
X165119793Y-73318368D01*
X165121984Y-73317661D01*
X165124067Y-73316843D01*
X165126030Y-73315913D01*
X165127862Y-73314874D01*
X165129550Y-73313728D01*
X165131082Y-73312477D01*
X165132449Y-73311122D01*
X165133636Y-73309665D01*
X165134634Y-73308109D01*
X165135431Y-73306454D01*
X165136014Y-73304703D01*
X165136373Y-73302857D01*
X165136495Y-73300918D01*
X165133874Y-73290941D01*
X165126374Y-73270315D01*
X165098924Y-73202140D01*
X165058509Y-73106449D01*
X165009495Y-72993296D01*
X164983844Y-72935035D01*
X164960128Y-72879635D01*
X164938826Y-72828370D01*
X164920418Y-72782511D01*
X164905384Y-72743334D01*
X164894202Y-72712110D01*
X164890206Y-72699879D01*
X164887354Y-72690114D01*
X164885704Y-72682974D01*
X164885317Y-72678618D01*
X164888715Y-72669294D01*
X164893363Y-72665506D01*
X164901390Y-72662236D01*
X164931826Y-72657063D01*
X164988505Y-72653395D01*
X165079910Y-72650851D01*
X165214525Y-72649051D01*
X165647317Y-72646163D01*
X166403672Y-72643341D01*
X166477051Y-72829607D01*
X166626628Y-73214841D01*
X166642255Y-73255291D01*
X166656391Y-73291586D01*
X166669134Y-73323938D01*
X166680581Y-73352556D01*
X166690829Y-73377652D01*
X166699976Y-73399437D01*
X166708118Y-73418121D01*
X166711842Y-73426366D01*
X166715352Y-73433916D01*
X166718659Y-73440795D01*
X166721776Y-73447031D01*
X166724715Y-73452650D01*
X166727487Y-73457678D01*
X166730105Y-73462142D01*
X166732582Y-73466069D01*
X166734929Y-73469483D01*
X166737158Y-73472412D01*
X166739282Y-73474883D01*
X166741312Y-73476921D01*
X166743262Y-73478552D01*
X166745142Y-73479804D01*
X166746966Y-73480703D01*
X166748744Y-73481274D01*
X166750491Y-73481544D01*
X166752216Y-73481540D01*
X166759580Y-73475854D01*
X166774282Y-73459991D01*
X166822640Y-73401747D01*
X166891173Y-73314828D01*
X166973761Y-73207256D01*
X167156632Y-72962230D01*
X167244678Y-72840816D01*
X167322306Y-72730830D01*
X167384395Y-72643341D01*
X168157683Y-72643341D01*
X168453945Y-72643112D01*
X168571482Y-72643238D01*
X168670402Y-72643892D01*
X168752042Y-72645347D01*
X168786799Y-72646462D01*
X168817737Y-72647880D01*
X168845022Y-72649636D01*
X168868821Y-72651764D01*
X168889302Y-72654299D01*
X168906631Y-72657275D01*
X168920976Y-72660727D01*
X168927081Y-72662642D01*
X168932502Y-72664688D01*
X168937261Y-72666871D01*
X168941377Y-72669194D01*
X168944873Y-72671661D01*
X168947769Y-72674277D01*
X168950085Y-72677047D01*
X168951843Y-72679974D01*
X168953063Y-72683063D01*
X168953767Y-72686318D01*
X168953974Y-72689744D01*
X168953707Y-72693344D01*
X168952986Y-72697123D01*
X168951831Y-72701086D01*
X168948306Y-72709578D01*
X168943298Y-72718855D01*
X168936974Y-72728950D01*
X168929502Y-72739900D01*
X168891462Y-72792918D01*
X168710099Y-73050981D01*
X168532754Y-73297699D01*
X168358682Y-73534033D01*
X168187141Y-73760941D01*
X168017386Y-73979382D01*
X167848673Y-74190315D01*
X167680257Y-74394700D01*
X167511395Y-74593496D01*
X167482056Y-74627302D01*
X167454752Y-74659422D01*
X167430060Y-74689093D01*
X167408560Y-74715557D01*
X167390830Y-74738052D01*
X167377450Y-74755818D01*
X167372571Y-74762690D01*
X167368997Y-74768094D01*
X167366799Y-74771935D01*
X167366239Y-74773240D01*
X167366051Y-74774118D01*
X167367782Y-74780658D01*
X167372754Y-74794425D01*
X167391098Y-74840264D01*
X167418438Y-74904889D01*
X167452129Y-74981552D01*
X167537627Y-75177591D01*
X167618066Y-75368505D01*
X167694470Y-75556971D01*
X167767864Y-75745668D01*
X167839274Y-75937276D01*
X167909725Y-76134474D01*
X167980242Y-76339939D01*
X168051850Y-76556352D01*
X168080095Y-76642970D01*
X168092059Y-76680462D01*
X168102650Y-76714308D01*
X168111919Y-76744681D01*
X168119914Y-76771756D01*
X168126686Y-76795705D01*
X168132284Y-76816702D01*
X168136757Y-76834921D01*
X168140155Y-76850535D01*
X168142528Y-76863719D01*
X168143925Y-76874645D01*
X168144273Y-76879316D01*
X168144396Y-76883488D01*
X168144300Y-76887183D01*
X168143991Y-76890421D01*
X168143475Y-76893226D01*
X168142759Y-76895618D01*
X168141849Y-76897619D01*
X168140750Y-76899252D01*
X168136757Y-76902264D01*
X168129709Y-76904962D01*
X168104282Y-76909482D01*
X168060135Y-76912944D01*
X167992937Y-76915480D01*
X167772054Y-76918302D01*
X167406973Y-76919007D01*
X167184051Y-76918900D01*
X167092239Y-76918719D01*
X167012391Y-76918412D01*
X166943656Y-76917948D01*
X166885182Y-76917296D01*
X166836117Y-76916425D01*
X166814846Y-76915897D01*
X166795609Y-76915303D01*
X166778298Y-76914639D01*
X166762808Y-76913901D01*
X166749030Y-76913084D01*
X166736860Y-76912186D01*
X166726191Y-76911202D01*
X166716916Y-76910128D01*
X166708929Y-76908961D01*
X166702123Y-76907696D01*
X166696392Y-76906331D01*
X166691629Y-76904859D01*
X166687728Y-76903279D01*
X166684583Y-76901586D01*
X166682087Y-76899776D01*
X166680133Y-76897846D01*
X166678616Y-76895791D01*
X166677428Y-76893607D01*
X166662325Y-76854339D01*
X166630685Y-76764667D01*
X166536317Y-76488618D01*
X166479266Y-76320189D01*
X166454920Y-76249055D01*
X166433130Y-76186023D01*
X166413720Y-76130632D01*
X166396518Y-76082417D01*
X166381350Y-76040916D01*
X166368042Y-76005666D01*
X166356421Y-75976203D01*
X166346313Y-75952065D01*
X166337545Y-75932789D01*
X166333609Y-75924830D01*
X166329942Y-75917912D01*
X166326524Y-75911978D01*
X166323332Y-75906970D01*
X166320344Y-75902831D01*
X166317540Y-75899502D01*
X166314897Y-75896925D01*
X166312393Y-75895042D01*
X166310007Y-75893796D01*
X166307717Y-75893129D01*
X166306499Y-75893202D01*
X166304968Y-75893679D01*
X166301004Y-75895803D01*
X166295898Y-75899424D01*
X166289726Y-75904463D01*
X166274479Y-75918480D01*
X166255859Y-75937227D01*
X166234461Y-75960075D01*
X166210880Y-75986395D01*
X166185711Y-76015560D01*
X166159551Y-76046941D01*
X165992224Y-76253338D01*
X165810477Y-76475742D01*
X165534428Y-76810352D01*
X165442705Y-76919007D01*
X164629906Y-76916185D01*
X163817105Y-76911952D01*
X163812873Y-76880907D01*
X163812745Y-76876370D01*
X163813433Y-76871203D01*
X163814960Y-76865370D01*
X163817349Y-76858837D01*
X163820623Y-76851567D01*
X163824804Y-76843527D01*
X163829916Y-76834680D01*
X163835980Y-76824992D01*
X163843020Y-76814428D01*
X163851059Y-76802952D01*
X163870222Y-76777125D01*
X163893651Y-76747229D01*
X163921529Y-76712985D01*
X163944672Y-76685248D01*
X163966177Y-76658569D01*
X163984141Y-76635484D01*
X164344112Y-76635484D01*
X164344118Y-76636995D01*
X164344302Y-76638368D01*
X164344662Y-76639607D01*
X164345198Y-76640713D01*
X164345910Y-76641687D01*
X164346797Y-76642532D01*
X164347859Y-76643249D01*
X164349095Y-76643841D01*
X164362195Y-76645296D01*
X164392773Y-76646487D01*
X164498496Y-76648074D01*
X164650521Y-76648603D01*
X164833106Y-76648074D01*
X165297361Y-76643841D01*
X165380617Y-76545063D01*
X165488038Y-76415064D01*
X165630384Y-76241674D01*
X166273851Y-75457096D01*
X166284054Y-75445182D01*
X166294356Y-75432953D01*
X166304460Y-75420757D01*
X166314067Y-75408942D01*
X166322881Y-75397854D01*
X166330604Y-75387842D01*
X166336937Y-75379251D01*
X166341583Y-75372429D01*
X166343714Y-75369836D01*
X166345861Y-75367356D01*
X166348008Y-75365004D01*
X166350139Y-75362794D01*
X166352236Y-75360742D01*
X166354284Y-75358861D01*
X166356266Y-75357167D01*
X166358165Y-75355673D01*
X166359964Y-75354393D01*
X166360822Y-75353839D01*
X166361648Y-75353344D01*
X166362442Y-75352909D01*
X166363200Y-75352538D01*
X166363921Y-75352231D01*
X166364603Y-75351991D01*
X166365243Y-75351818D01*
X166365840Y-75351716D01*
X166366392Y-75351686D01*
X166366896Y-75351729D01*
X166367350Y-75351847D01*
X166367753Y-75352043D01*
X166368102Y-75352318D01*
X166368395Y-75352674D01*
X166372035Y-75358478D01*
X166378931Y-75371983D01*
X166400564Y-75417717D01*
X166461705Y-75553405D01*
X166520994Y-75689621D01*
X166540311Y-75736017D01*
X166547607Y-75756252D01*
X166547704Y-75757272D01*
X166547992Y-75758727D01*
X166549106Y-75762822D01*
X166550881Y-75768307D01*
X166553251Y-75774949D01*
X166556150Y-75782517D01*
X166559512Y-75790780D01*
X166563272Y-75799506D01*
X166567362Y-75808463D01*
X166576424Y-75829475D01*
X166581178Y-75840982D01*
X166585882Y-75852737D01*
X166590388Y-75864425D01*
X166594547Y-75875733D01*
X166598210Y-75886347D01*
X166601228Y-75895952D01*
X166622395Y-75954337D01*
X166652028Y-76037063D01*
X166700888Y-76174823D01*
X166767740Y-76368674D01*
X166799534Y-76461190D01*
X166827359Y-76540477D01*
X166838874Y-76572513D01*
X166848305Y-76598068D01*
X166855289Y-76616081D01*
X166859462Y-76625496D01*
X166862209Y-76629735D01*
X166866027Y-76633475D01*
X166871424Y-76636748D01*
X166878908Y-76639585D01*
X166888989Y-76642017D01*
X166902175Y-76644075D01*
X166939895Y-76647192D01*
X166996135Y-76649185D01*
X167074965Y-76650301D01*
X167316662Y-76650896D01*
X167405515Y-76650643D01*
X167488795Y-76649926D01*
X167564634Y-76648813D01*
X167631163Y-76647368D01*
X167686514Y-76645660D01*
X167728817Y-76643753D01*
X167756204Y-76641713D01*
X167763720Y-76640664D01*
X167766807Y-76639608D01*
X167766864Y-76635033D01*
X167764949Y-76625108D01*
X167755385Y-76589755D01*
X167714595Y-76460925D01*
X167647347Y-76261981D01*
X167556551Y-76001785D01*
X167540083Y-75955128D01*
X167520061Y-75900780D01*
X167474177Y-75781123D01*
X167428559Y-75667021D01*
X167408866Y-75619619D01*
X167392861Y-75582685D01*
X167387253Y-75570630D01*
X167382124Y-75559005D01*
X167377558Y-75548107D01*
X167373636Y-75538235D01*
X167370441Y-75529686D01*
X167368057Y-75522757D01*
X167367195Y-75519993D01*
X167366566Y-75517746D01*
X167366181Y-75516054D01*
X167366051Y-75514952D01*
X167365953Y-75513683D01*
X167365665Y-75512011D01*
X167364551Y-75507566D01*
X167362776Y-75501830D01*
X167360406Y-75495020D01*
X167357507Y-75487350D01*
X167354144Y-75479035D01*
X167350385Y-75470290D01*
X167346295Y-75461330D01*
X167243483Y-75227570D01*
X167139744Y-74989313D01*
X167059553Y-74802914D01*
X167035936Y-74746773D01*
X167027384Y-74724729D01*
X167032375Y-74717327D01*
X167046677Y-74699109D01*
X167099174Y-74635124D01*
X167176807Y-74542564D01*
X167271505Y-74431218D01*
X167475257Y-74189301D01*
X167690782Y-73925688D01*
X167899164Y-73663662D01*
X167994764Y-73540521D01*
X168081484Y-73426507D01*
X168151519Y-73332575D01*
X168217634Y-73242842D01*
X168278161Y-73159658D01*
X168331427Y-73085371D01*
X168375765Y-73022329D01*
X168409502Y-72972879D01*
X168430969Y-72939371D01*
X168436579Y-72929328D01*
X168438496Y-72924152D01*
X168436260Y-72922846D01*
X168429671Y-72921580D01*
X168404144Y-72919191D01*
X168308673Y-72915156D01*
X168163461Y-72912444D01*
X167979883Y-72911452D01*
X167839348Y-72911556D01*
X167781158Y-72911731D01*
X167730316Y-72912025D01*
X167686295Y-72912468D01*
X167648568Y-72913089D01*
X167616608Y-72913916D01*
X167589888Y-72914979D01*
X167578329Y-72915608D01*
X167567881Y-72916307D01*
X167558481Y-72917079D01*
X167550060Y-72917928D01*
X167542555Y-72918858D01*
X167535898Y-72919872D01*
X167530024Y-72920974D01*
X167524867Y-72922167D01*
X167520361Y-72923456D01*
X167516441Y-72924843D01*
X167513039Y-72926332D01*
X167510092Y-72927928D01*
X167507531Y-72929632D01*
X167505293Y-72931450D01*
X167503310Y-72933385D01*
X167501517Y-72935441D01*
X167485003Y-72957004D01*
X167455127Y-72996824D01*
X167371695Y-73109007D01*
X167220530Y-73314500D01*
X167178616Y-73370746D01*
X167165439Y-73387996D01*
X167157207Y-73398285D01*
X167147637Y-73410654D01*
X167129336Y-73434797D01*
X167105215Y-73467143D01*
X167078183Y-73504118D01*
X167036732Y-73557961D01*
X166975173Y-73636410D01*
X166825595Y-73825852D01*
X166642151Y-74054452D01*
X166580062Y-73896407D01*
X166519737Y-73740479D01*
X166461528Y-73588785D01*
X166438377Y-73528372D01*
X166417078Y-73473779D01*
X166400013Y-73430829D01*
X166389562Y-73405341D01*
X166287962Y-73144285D01*
X166200473Y-72918507D01*
X165731984Y-72914274D01*
X165549840Y-72913987D01*
X165470269Y-72914398D01*
X165400902Y-72915156D01*
X165343639Y-72916244D01*
X165300382Y-72917647D01*
X165273033Y-72919348D01*
X165265919Y-72920305D01*
X165264106Y-72920809D01*
X165263495Y-72921330D01*
X165269608Y-72938549D01*
X165286469Y-72979450D01*
X165343575Y-73112182D01*
X165417086Y-73279311D01*
X165489273Y-73440618D01*
X165540778Y-73554036D01*
X165574998Y-73630523D01*
X165609217Y-73708729D01*
X165680125Y-73866774D01*
X165736217Y-73990952D01*
X165763138Y-74049799D01*
X165802363Y-74137884D01*
X165897083Y-74353607D01*
X166014206Y-74617485D01*
X165627562Y-75078919D01*
X164969984Y-75866318D01*
X164620204Y-76284537D01*
X164495916Y-76434445D01*
X164398483Y-76553530D01*
X164389867Y-76564016D01*
X164382008Y-76573790D01*
X164374901Y-76582864D01*
X164368542Y-76591255D01*
X164362927Y-76598976D01*
X164358052Y-76606041D01*
X164355891Y-76609333D01*
X164353913Y-76612466D01*
X164352118Y-76615442D01*
X164350506Y-76618264D01*
X164349076Y-76620933D01*
X164347827Y-76623451D01*
X164346758Y-76625819D01*
X164345870Y-76628040D01*
X164345162Y-76630115D01*
X164344634Y-76632046D01*
X164344284Y-76633835D01*
X164344112Y-76635484D01*
X163984141Y-76635484D01*
X163985599Y-76633610D01*
X164002491Y-76611032D01*
G37*
D11*
X159964666Y-78684380D02*
X159964666Y-77684380D01*
X160345619Y-77684380D01*
X160440857Y-77732000D01*
X160488476Y-77779619D01*
X160536095Y-77874857D01*
X160536095Y-78017714D01*
X160488476Y-78112952D01*
X160440857Y-78160571D01*
X160345619Y-78208190D01*
X159964666Y-78208190D01*
X160964666Y-78684380D02*
X160964666Y-78017714D01*
X160964666Y-78112952D02*
X161012285Y-78065333D01*
X161107523Y-78017714D01*
X161250380Y-78017714D01*
X161345619Y-78065333D01*
X161393238Y-78160571D01*
X161393238Y-78684380D01*
X161393238Y-78160571D02*
X161440857Y-78065333D01*
X161536095Y-78017714D01*
X161678952Y-78017714D01*
X161774190Y-78065333D01*
X161821809Y-78160571D01*
X161821809Y-78684380D01*
X162440857Y-78684380D02*
X162345619Y-78636761D01*
X162298000Y-78589142D01*
X162250380Y-78493904D01*
X162250380Y-78208190D01*
X162298000Y-78112952D01*
X162345619Y-78065333D01*
X162440857Y-78017714D01*
X162583714Y-78017714D01*
X162678952Y-78065333D01*
X162726571Y-78112952D01*
X162774190Y-78208190D01*
X162774190Y-78493904D01*
X162726571Y-78589142D01*
X162678952Y-78636761D01*
X162583714Y-78684380D01*
X162440857Y-78684380D01*
X163631333Y-78684380D02*
X163631333Y-77684380D01*
X163631333Y-78636761D02*
X163536095Y-78684380D01*
X163345619Y-78684380D01*
X163250380Y-78636761D01*
X163202761Y-78589142D01*
X163155142Y-78493904D01*
X163155142Y-78208190D01*
X163202761Y-78112952D01*
X163250380Y-78065333D01*
X163345619Y-78017714D01*
X163536095Y-78017714D01*
X163631333Y-78065333D01*
X159191666Y-80215666D02*
X159191666Y-79515666D01*
X159191666Y-79849000D02*
X159591666Y-79849000D01*
X159591666Y-80215666D02*
X159591666Y-79515666D01*
X160225000Y-80215666D02*
X160225000Y-79849000D01*
X160191666Y-79782333D01*
X160125000Y-79749000D01*
X159991666Y-79749000D01*
X159925000Y-79782333D01*
X160225000Y-80182333D02*
X160158333Y-80215666D01*
X159991666Y-80215666D01*
X159925000Y-80182333D01*
X159891666Y-80115666D01*
X159891666Y-80049000D01*
X159925000Y-79982333D01*
X159991666Y-79949000D01*
X160158333Y-79949000D01*
X160225000Y-79915666D01*
X160558333Y-79749000D02*
X160558333Y-80215666D01*
X160558333Y-79815666D02*
X160591666Y-79782333D01*
X160658333Y-79749000D01*
X160758333Y-79749000D01*
X160825000Y-79782333D01*
X160858333Y-79849000D01*
X160858333Y-80215666D01*
X161158333Y-80182333D02*
X161225000Y-80215666D01*
X161358333Y-80215666D01*
X161425000Y-80182333D01*
X161458333Y-80115666D01*
X161458333Y-80082333D01*
X161425000Y-80015666D01*
X161358333Y-79982333D01*
X161258333Y-79982333D01*
X161191666Y-79949000D01*
X161158333Y-79882333D01*
X161158333Y-79849000D01*
X161191666Y-79782333D01*
X161258333Y-79749000D01*
X161358333Y-79749000D01*
X161425000Y-79782333D01*
X162525000Y-79849000D02*
X162625000Y-79882333D01*
X162658333Y-79915666D01*
X162691666Y-79982333D01*
X162691666Y-80082333D01*
X162658333Y-80149000D01*
X162625000Y-80182333D01*
X162558333Y-80215666D01*
X162291666Y-80215666D01*
X162291666Y-79515666D01*
X162525000Y-79515666D01*
X162591666Y-79549000D01*
X162625000Y-79582333D01*
X162658333Y-79649000D01*
X162658333Y-79715666D01*
X162625000Y-79782333D01*
X162591666Y-79815666D01*
X162525000Y-79849000D01*
X162291666Y-79849000D01*
X163291666Y-80215666D02*
X163291666Y-79849000D01*
X163258333Y-79782333D01*
X163191666Y-79749000D01*
X163058333Y-79749000D01*
X162991666Y-79782333D01*
X163291666Y-80182333D02*
X163225000Y-80215666D01*
X163058333Y-80215666D01*
X162991666Y-80182333D01*
X162958333Y-80115666D01*
X162958333Y-80049000D01*
X162991666Y-79982333D01*
X163058333Y-79949000D01*
X163225000Y-79949000D01*
X163291666Y-79915666D01*
X163625000Y-80215666D02*
X163625000Y-79749000D01*
X163625000Y-79515666D02*
X163591666Y-79549000D01*
X163625000Y-79582333D01*
X163658333Y-79549000D01*
X163625000Y-79515666D01*
X163625000Y-79582333D01*
X164225000Y-80182333D02*
X164158333Y-80215666D01*
X164025000Y-80215666D01*
X163958333Y-80182333D01*
X163925000Y-80115666D01*
X163925000Y-79849000D01*
X163958333Y-79782333D01*
X164025000Y-79749000D01*
X164158333Y-79749000D01*
X164225000Y-79782333D01*
X164258333Y-79849000D01*
X164258333Y-79915666D01*
X163925000Y-79982333D01*
X164558333Y-80215666D02*
X164558333Y-79749000D01*
X164558333Y-79882333D02*
X164591666Y-79815666D01*
X164625000Y-79782333D01*
X164691666Y-79749000D01*
X164758333Y-79749000D01*
X160975000Y-81342666D02*
X160975000Y-80876000D01*
X160975000Y-81009333D02*
X161008333Y-80942666D01*
X161041666Y-80909333D01*
X161108333Y-80876000D01*
X161175000Y-80876000D01*
X161675000Y-81309333D02*
X161608333Y-81342666D01*
X161475000Y-81342666D01*
X161408333Y-81309333D01*
X161375000Y-81242666D01*
X161375000Y-80976000D01*
X161408333Y-80909333D01*
X161475000Y-80876000D01*
X161608333Y-80876000D01*
X161675000Y-80909333D01*
X161708333Y-80976000D01*
X161708333Y-81042666D01*
X161375000Y-81109333D01*
X161941666Y-80876000D02*
X162108333Y-81342666D01*
X162275000Y-80876000D01*
X162675000Y-80642666D02*
X162741666Y-80642666D01*
X162808333Y-80676000D01*
X162841666Y-80709333D01*
X162875000Y-80776000D01*
X162908333Y-80909333D01*
X162908333Y-81076000D01*
X162875000Y-81209333D01*
X162841666Y-81276000D01*
X162808333Y-81309333D01*
X162741666Y-81342666D01*
X162675000Y-81342666D01*
X162608333Y-81309333D01*
X162575000Y-81276000D01*
X162541666Y-81209333D01*
X162508333Y-81076000D01*
X162508333Y-80909333D01*
X162541666Y-80776000D01*
X162575000Y-80709333D01*
X162608333Y-80676000D01*
X162675000Y-80642666D01*
X158525000Y-81836333D02*
X158558333Y-81803000D01*
X158625000Y-81769666D01*
X158791666Y-81769666D01*
X158858333Y-81803000D01*
X158891666Y-81836333D01*
X158925000Y-81903000D01*
X158925000Y-81969666D01*
X158891666Y-82069666D01*
X158491666Y-82469666D01*
X158925000Y-82469666D01*
X159358333Y-81769666D02*
X159425000Y-81769666D01*
X159491666Y-81803000D01*
X159525000Y-81836333D01*
X159558333Y-81903000D01*
X159591666Y-82036333D01*
X159591666Y-82203000D01*
X159558333Y-82336333D01*
X159525000Y-82403000D01*
X159491666Y-82436333D01*
X159425000Y-82469666D01*
X159358333Y-82469666D01*
X159291666Y-82436333D01*
X159258333Y-82403000D01*
X159225000Y-82336333D01*
X159191666Y-82203000D01*
X159191666Y-82036333D01*
X159225000Y-81903000D01*
X159258333Y-81836333D01*
X159291666Y-81803000D01*
X159358333Y-81769666D01*
X159858333Y-81836333D02*
X159891666Y-81803000D01*
X159958333Y-81769666D01*
X160125000Y-81769666D01*
X160191666Y-81803000D01*
X160225000Y-81836333D01*
X160258333Y-81903000D01*
X160258333Y-81969666D01*
X160225000Y-82069666D01*
X159825000Y-82469666D01*
X160258333Y-82469666D01*
X160491666Y-81769666D02*
X160925000Y-81769666D01*
X160691666Y-82036333D01*
X160791666Y-82036333D01*
X160858333Y-82069666D01*
X160891666Y-82103000D01*
X160925000Y-82169666D01*
X160925000Y-82336333D01*
X160891666Y-82403000D01*
X160858333Y-82436333D01*
X160791666Y-82469666D01*
X160591666Y-82469666D01*
X160525000Y-82436333D01*
X160491666Y-82403000D01*
X161225000Y-82203000D02*
X161758333Y-82203000D01*
X162225000Y-81769666D02*
X162291666Y-81769666D01*
X162358333Y-81803000D01*
X162391666Y-81836333D01*
X162425000Y-81903000D01*
X162458333Y-82036333D01*
X162458333Y-82203000D01*
X162425000Y-82336333D01*
X162391666Y-82403000D01*
X162358333Y-82436333D01*
X162291666Y-82469666D01*
X162225000Y-82469666D01*
X162158333Y-82436333D01*
X162125000Y-82403000D01*
X162091666Y-82336333D01*
X162058333Y-82203000D01*
X162058333Y-82036333D01*
X162091666Y-81903000D01*
X162125000Y-81836333D01*
X162158333Y-81803000D01*
X162225000Y-81769666D01*
X163058333Y-82003000D02*
X163058333Y-82469666D01*
X162891666Y-81736333D02*
X162725000Y-82236333D01*
X163158333Y-82236333D01*
X163425000Y-82203000D02*
X163958333Y-82203000D01*
X164658333Y-82469666D02*
X164258333Y-82469666D01*
X164458333Y-82469666D02*
X164458333Y-81769666D01*
X164391666Y-81869666D01*
X164325000Y-81936333D01*
X164258333Y-81969666D01*
X165291666Y-81769666D02*
X164958333Y-81769666D01*
X164925000Y-82103000D01*
X164958333Y-82069666D01*
X165025000Y-82036333D01*
X165191666Y-82036333D01*
X165258333Y-82069666D01*
X165291666Y-82103000D01*
X165325000Y-82169666D01*
X165325000Y-82336333D01*
X165291666Y-82403000D01*
X165258333Y-82436333D01*
X165191666Y-82469666D01*
X165025000Y-82469666D01*
X164958333Y-82436333D01*
X164925000Y-82403000D01*
%TO.C,N1*%
G36*
X120824814Y-72652931D02*
G01*
X120908635Y-73097555D01*
X121217920Y-73225053D01*
X121527206Y-73352551D01*
X121898246Y-73100246D01*
X122002157Y-73029996D01*
X122096087Y-72967272D01*
X122175652Y-72914938D01*
X122236470Y-72875857D01*
X122274157Y-72852893D01*
X122284421Y-72847942D01*
X122302910Y-72860676D01*
X122342420Y-72895882D01*
X122398522Y-72949062D01*
X122466787Y-73015718D01*
X122542786Y-73091354D01*
X122622092Y-73171472D01*
X122700275Y-73251574D01*
X122772907Y-73327164D01*
X122835559Y-73393745D01*
X122883803Y-73446818D01*
X122913210Y-73481887D01*
X122920241Y-73493623D01*
X122910123Y-73515260D01*
X122881759Y-73562662D01*
X122838129Y-73631193D01*
X122782218Y-73716215D01*
X122717006Y-73813093D01*
X122679219Y-73868350D01*
X122610343Y-73969248D01*
X122549140Y-74060299D01*
X122498578Y-74136970D01*
X122461628Y-74194728D01*
X122441258Y-74229043D01*
X122438197Y-74236254D01*
X122445136Y-74256748D01*
X122464051Y-74304513D01*
X122492087Y-74372832D01*
X122526391Y-74454989D01*
X122564109Y-74544270D01*
X122602387Y-74633958D01*
X122638370Y-74717338D01*
X122669206Y-74787694D01*
X122692039Y-74838310D01*
X122704017Y-74862471D01*
X122704724Y-74863422D01*
X122723531Y-74868036D01*
X122773618Y-74878328D01*
X122849793Y-74893287D01*
X122946865Y-74911901D01*
X123059643Y-74933159D01*
X123125442Y-74945418D01*
X123245950Y-74968362D01*
X123354797Y-74990195D01*
X123446476Y-75009722D01*
X123515481Y-75025748D01*
X123556304Y-75037079D01*
X123564511Y-75040674D01*
X123572548Y-75065006D01*
X123579033Y-75119959D01*
X123583970Y-75199108D01*
X123587364Y-75296026D01*
X123589218Y-75404287D01*
X123589538Y-75517465D01*
X123588327Y-75629135D01*
X123585590Y-75732868D01*
X123581331Y-75822241D01*
X123575555Y-75890826D01*
X123568267Y-75932197D01*
X123563895Y-75940810D01*
X123537764Y-75951133D01*
X123482393Y-75965892D01*
X123405107Y-75983352D01*
X123313230Y-76001780D01*
X123281158Y-76007741D01*
X123126524Y-76036066D01*
X123004375Y-76058876D01*
X122910673Y-76077080D01*
X122841384Y-76091583D01*
X122792471Y-76103292D01*
X122759897Y-76113115D01*
X122739628Y-76121956D01*
X122727626Y-76130724D01*
X122725947Y-76132457D01*
X122709184Y-76160371D01*
X122683614Y-76214695D01*
X122651788Y-76288777D01*
X122616260Y-76375965D01*
X122579583Y-76469608D01*
X122544311Y-76563052D01*
X122512996Y-76649647D01*
X122488193Y-76722740D01*
X122472454Y-76775678D01*
X122468332Y-76801811D01*
X122468676Y-76802726D01*
X122482641Y-76824086D01*
X122514322Y-76871084D01*
X122560391Y-76938827D01*
X122617518Y-77022423D01*
X122682373Y-77116982D01*
X122700843Y-77143854D01*
X122766699Y-77241275D01*
X122824650Y-77330163D01*
X122871538Y-77405412D01*
X122904207Y-77461920D01*
X122919500Y-77494581D01*
X122920241Y-77498593D01*
X122907392Y-77519684D01*
X122871888Y-77561464D01*
X122818293Y-77619445D01*
X122751171Y-77689135D01*
X122675087Y-77766045D01*
X122594604Y-77845683D01*
X122514287Y-77923561D01*
X122438699Y-77995186D01*
X122372405Y-78056070D01*
X122319969Y-78101721D01*
X122285955Y-78127650D01*
X122276545Y-78131883D01*
X122254643Y-78121912D01*
X122209800Y-78095020D01*
X122149321Y-78055736D01*
X122102789Y-78024117D01*
X122018475Y-77966098D01*
X121918626Y-77897784D01*
X121818473Y-77829579D01*
X121764627Y-77793075D01*
X121582371Y-77669800D01*
X121429381Y-77752520D01*
X121359682Y-77788759D01*
X121300414Y-77816926D01*
X121260311Y-77832991D01*
X121250103Y-77835226D01*
X121237829Y-77818722D01*
X121213613Y-77772082D01*
X121179263Y-77699609D01*
X121136588Y-77605606D01*
X121087394Y-77494374D01*
X121033490Y-77370215D01*
X120976684Y-77237432D01*
X120918782Y-77100327D01*
X120861593Y-76963202D01*
X120806924Y-76830358D01*
X120756584Y-76706098D01*
X120712380Y-76594725D01*
X120676119Y-76500539D01*
X120649609Y-76427844D01*
X120634658Y-76380941D01*
X120632254Y-76364833D01*
X120651311Y-76344286D01*
X120693036Y-76310933D01*
X120748706Y-76271702D01*
X120753378Y-76268599D01*
X120897264Y-76153423D01*
X121013283Y-76019053D01*
X121100430Y-75869784D01*
X121157699Y-75709913D01*
X121184086Y-75543737D01*
X121178585Y-75375552D01*
X121140190Y-75209655D01*
X121067895Y-75050342D01*
X121046626Y-75015487D01*
X120935996Y-74874737D01*
X120805302Y-74761714D01*
X120659064Y-74677003D01*
X120501808Y-74621194D01*
X120338057Y-74594874D01*
X120172333Y-74598630D01*
X120009162Y-74633050D01*
X119853065Y-74698723D01*
X119708567Y-74796235D01*
X119663869Y-74835813D01*
X119550112Y-74959703D01*
X119467218Y-75090124D01*
X119410356Y-75236315D01*
X119378687Y-75381088D01*
X119370869Y-75543860D01*
X119396938Y-75707440D01*
X119454245Y-75866298D01*
X119540144Y-76014906D01*
X119651986Y-76147735D01*
X119787123Y-76259256D01*
X119804883Y-76271011D01*
X119861150Y-76309508D01*
X119903923Y-76342863D01*
X119924372Y-76364160D01*
X119924669Y-76364833D01*
X119920279Y-76387871D01*
X119902876Y-76440157D01*
X119874268Y-76517390D01*
X119836265Y-76615268D01*
X119790674Y-76729491D01*
X119739303Y-76855758D01*
X119683962Y-76989767D01*
X119626458Y-77127218D01*
X119568601Y-77263808D01*
X119512198Y-77395237D01*
X119459058Y-77517205D01*
X119410990Y-77625409D01*
X119369801Y-77715549D01*
X119337301Y-77783323D01*
X119315297Y-77824430D01*
X119306436Y-77835226D01*
X119279360Y-77826819D01*
X119228697Y-77804272D01*
X119163183Y-77771613D01*
X119127159Y-77752520D01*
X118974168Y-77669800D01*
X118791912Y-77793075D01*
X118698875Y-77856228D01*
X118597015Y-77925727D01*
X118501562Y-77991165D01*
X118453750Y-78024117D01*
X118386505Y-78069273D01*
X118329564Y-78105057D01*
X118290354Y-78126938D01*
X118277619Y-78131563D01*
X118259083Y-78119085D01*
X118218059Y-78084252D01*
X118158525Y-78030678D01*
X118084458Y-77961983D01*
X117999835Y-77881781D01*
X117946315Y-77830286D01*
X117852681Y-77738286D01*
X117771759Y-77655999D01*
X117706823Y-77586945D01*
X117661142Y-77534644D01*
X117637989Y-77502616D01*
X117635768Y-77496116D01*
X117646076Y-77471394D01*
X117674561Y-77421405D01*
X117718063Y-77351212D01*
X117773423Y-77265875D01*
X117837480Y-77170456D01*
X117855697Y-77143854D01*
X117922073Y-77047167D01*
X117981622Y-76960117D01*
X118031016Y-76887595D01*
X118066925Y-76834493D01*
X118086019Y-76805703D01*
X118087864Y-76802726D01*
X118085105Y-76779782D01*
X118070462Y-76729336D01*
X118046487Y-76658041D01*
X118015734Y-76572547D01*
X117980756Y-76479507D01*
X117944107Y-76385574D01*
X117908339Y-76297399D01*
X117876006Y-76221634D01*
X117849662Y-76164931D01*
X117831858Y-76133943D01*
X117830593Y-76132457D01*
X117819706Y-76123601D01*
X117801318Y-76114843D01*
X117771394Y-76105277D01*
X117725897Y-76093996D01*
X117660791Y-76080093D01*
X117572039Y-76062663D01*
X117455607Y-76040798D01*
X117307458Y-76013591D01*
X117275382Y-76007741D01*
X117180314Y-75989374D01*
X117097435Y-75971405D01*
X117034070Y-75955569D01*
X116997542Y-75943600D01*
X116992644Y-75940810D01*
X116984573Y-75916072D01*
X116978013Y-75860790D01*
X116972967Y-75781389D01*
X116969441Y-75684296D01*
X116967439Y-75575938D01*
X116966964Y-75462740D01*
X116968023Y-75351128D01*
X116970618Y-75247529D01*
X116974754Y-75158368D01*
X116980437Y-75090072D01*
X116987669Y-75049066D01*
X116992029Y-75040674D01*
X117016302Y-75032208D01*
X117071574Y-75018435D01*
X117152338Y-75000550D01*
X117253088Y-74979748D01*
X117368317Y-74957223D01*
X117431098Y-74945418D01*
X117550213Y-74923151D01*
X117656435Y-74902979D01*
X117744573Y-74885915D01*
X117809434Y-74872969D01*
X117845826Y-74865155D01*
X117851816Y-74863422D01*
X117861939Y-74843890D01*
X117883338Y-74796843D01*
X117913161Y-74729003D01*
X117948555Y-74647091D01*
X117986668Y-74557828D01*
X118024647Y-74467935D01*
X118059640Y-74384135D01*
X118088794Y-74313147D01*
X118109257Y-74261694D01*
X118118177Y-74236497D01*
X118118343Y-74235396D01*
X118108231Y-74215519D01*
X118079883Y-74169777D01*
X118036277Y-74102717D01*
X117980394Y-74018884D01*
X117915213Y-73922826D01*
X117877321Y-73867650D01*
X117808275Y-73766481D01*
X117746950Y-73674630D01*
X117696337Y-73596744D01*
X117659429Y-73537469D01*
X117639218Y-73501451D01*
X117636299Y-73493377D01*
X117648847Y-73474584D01*
X117683537Y-73434457D01*
X117735937Y-73377493D01*
X117801616Y-73308185D01*
X117876144Y-73231031D01*
X117955087Y-73150525D01*
X118034017Y-73071163D01*
X118108500Y-72997440D01*
X118174106Y-72933852D01*
X118226404Y-72884894D01*
X118260961Y-72855061D01*
X118272522Y-72847942D01*
X118291346Y-72857953D01*
X118336369Y-72886078D01*
X118403213Y-72929454D01*
X118487501Y-72985218D01*
X118584856Y-73050506D01*
X118658293Y-73100246D01*
X119029333Y-73352551D01*
X119647905Y-73097555D01*
X119731725Y-72652931D01*
X119815546Y-72208307D01*
X120740994Y-72208307D01*
X120824814Y-72652931D01*
G37*
D12*
X120824814Y-72652931D02*
X120908635Y-73097555D01*
X121217920Y-73225053D01*
X121527206Y-73352551D01*
X121898246Y-73100246D01*
X122002157Y-73029996D01*
X122096087Y-72967272D01*
X122175652Y-72914938D01*
X122236470Y-72875857D01*
X122274157Y-72852893D01*
X122284421Y-72847942D01*
X122302910Y-72860676D01*
X122342420Y-72895882D01*
X122398522Y-72949062D01*
X122466787Y-73015718D01*
X122542786Y-73091354D01*
X122622092Y-73171472D01*
X122700275Y-73251574D01*
X122772907Y-73327164D01*
X122835559Y-73393745D01*
X122883803Y-73446818D01*
X122913210Y-73481887D01*
X122920241Y-73493623D01*
X122910123Y-73515260D01*
X122881759Y-73562662D01*
X122838129Y-73631193D01*
X122782218Y-73716215D01*
X122717006Y-73813093D01*
X122679219Y-73868350D01*
X122610343Y-73969248D01*
X122549140Y-74060299D01*
X122498578Y-74136970D01*
X122461628Y-74194728D01*
X122441258Y-74229043D01*
X122438197Y-74236254D01*
X122445136Y-74256748D01*
X122464051Y-74304513D01*
X122492087Y-74372832D01*
X122526391Y-74454989D01*
X122564109Y-74544270D01*
X122602387Y-74633958D01*
X122638370Y-74717338D01*
X122669206Y-74787694D01*
X122692039Y-74838310D01*
X122704017Y-74862471D01*
X122704724Y-74863422D01*
X122723531Y-74868036D01*
X122773618Y-74878328D01*
X122849793Y-74893287D01*
X122946865Y-74911901D01*
X123059643Y-74933159D01*
X123125442Y-74945418D01*
X123245950Y-74968362D01*
X123354797Y-74990195D01*
X123446476Y-75009722D01*
X123515481Y-75025748D01*
X123556304Y-75037079D01*
X123564511Y-75040674D01*
X123572548Y-75065006D01*
X123579033Y-75119959D01*
X123583970Y-75199108D01*
X123587364Y-75296026D01*
X123589218Y-75404287D01*
X123589538Y-75517465D01*
X123588327Y-75629135D01*
X123585590Y-75732868D01*
X123581331Y-75822241D01*
X123575555Y-75890826D01*
X123568267Y-75932197D01*
X123563895Y-75940810D01*
X123537764Y-75951133D01*
X123482393Y-75965892D01*
X123405107Y-75983352D01*
X123313230Y-76001780D01*
X123281158Y-76007741D01*
X123126524Y-76036066D01*
X123004375Y-76058876D01*
X122910673Y-76077080D01*
X122841384Y-76091583D01*
X122792471Y-76103292D01*
X122759897Y-76113115D01*
X122739628Y-76121956D01*
X122727626Y-76130724D01*
X122725947Y-76132457D01*
X122709184Y-76160371D01*
X122683614Y-76214695D01*
X122651788Y-76288777D01*
X122616260Y-76375965D01*
X122579583Y-76469608D01*
X122544311Y-76563052D01*
X122512996Y-76649647D01*
X122488193Y-76722740D01*
X122472454Y-76775678D01*
X122468332Y-76801811D01*
X122468676Y-76802726D01*
X122482641Y-76824086D01*
X122514322Y-76871084D01*
X122560391Y-76938827D01*
X122617518Y-77022423D01*
X122682373Y-77116982D01*
X122700843Y-77143854D01*
X122766699Y-77241275D01*
X122824650Y-77330163D01*
X122871538Y-77405412D01*
X122904207Y-77461920D01*
X122919500Y-77494581D01*
X122920241Y-77498593D01*
X122907392Y-77519684D01*
X122871888Y-77561464D01*
X122818293Y-77619445D01*
X122751171Y-77689135D01*
X122675087Y-77766045D01*
X122594604Y-77845683D01*
X122514287Y-77923561D01*
X122438699Y-77995186D01*
X122372405Y-78056070D01*
X122319969Y-78101721D01*
X122285955Y-78127650D01*
X122276545Y-78131883D01*
X122254643Y-78121912D01*
X122209800Y-78095020D01*
X122149321Y-78055736D01*
X122102789Y-78024117D01*
X122018475Y-77966098D01*
X121918626Y-77897784D01*
X121818473Y-77829579D01*
X121764627Y-77793075D01*
X121582371Y-77669800D01*
X121429381Y-77752520D01*
X121359682Y-77788759D01*
X121300414Y-77816926D01*
X121260311Y-77832991D01*
X121250103Y-77835226D01*
X121237829Y-77818722D01*
X121213613Y-77772082D01*
X121179263Y-77699609D01*
X121136588Y-77605606D01*
X121087394Y-77494374D01*
X121033490Y-77370215D01*
X120976684Y-77237432D01*
X120918782Y-77100327D01*
X120861593Y-76963202D01*
X120806924Y-76830358D01*
X120756584Y-76706098D01*
X120712380Y-76594725D01*
X120676119Y-76500539D01*
X120649609Y-76427844D01*
X120634658Y-76380941D01*
X120632254Y-76364833D01*
X120651311Y-76344286D01*
X120693036Y-76310933D01*
X120748706Y-76271702D01*
X120753378Y-76268599D01*
X120897264Y-76153423D01*
X121013283Y-76019053D01*
X121100430Y-75869784D01*
X121157699Y-75709913D01*
X121184086Y-75543737D01*
X121178585Y-75375552D01*
X121140190Y-75209655D01*
X121067895Y-75050342D01*
X121046626Y-75015487D01*
X120935996Y-74874737D01*
X120805302Y-74761714D01*
X120659064Y-74677003D01*
X120501808Y-74621194D01*
X120338057Y-74594874D01*
X120172333Y-74598630D01*
X120009162Y-74633050D01*
X119853065Y-74698723D01*
X119708567Y-74796235D01*
X119663869Y-74835813D01*
X119550112Y-74959703D01*
X119467218Y-75090124D01*
X119410356Y-75236315D01*
X119378687Y-75381088D01*
X119370869Y-75543860D01*
X119396938Y-75707440D01*
X119454245Y-75866298D01*
X119540144Y-76014906D01*
X119651986Y-76147735D01*
X119787123Y-76259256D01*
X119804883Y-76271011D01*
X119861150Y-76309508D01*
X119903923Y-76342863D01*
X119924372Y-76364160D01*
X119924669Y-76364833D01*
X119920279Y-76387871D01*
X119902876Y-76440157D01*
X119874268Y-76517390D01*
X119836265Y-76615268D01*
X119790674Y-76729491D01*
X119739303Y-76855758D01*
X119683962Y-76989767D01*
X119626458Y-77127218D01*
X119568601Y-77263808D01*
X119512198Y-77395237D01*
X119459058Y-77517205D01*
X119410990Y-77625409D01*
X119369801Y-77715549D01*
X119337301Y-77783323D01*
X119315297Y-77824430D01*
X119306436Y-77835226D01*
X119279360Y-77826819D01*
X119228697Y-77804272D01*
X119163183Y-77771613D01*
X119127159Y-77752520D01*
X118974168Y-77669800D01*
X118791912Y-77793075D01*
X118698875Y-77856228D01*
X118597015Y-77925727D01*
X118501562Y-77991165D01*
X118453750Y-78024117D01*
X118386505Y-78069273D01*
X118329564Y-78105057D01*
X118290354Y-78126938D01*
X118277619Y-78131563D01*
X118259083Y-78119085D01*
X118218059Y-78084252D01*
X118158525Y-78030678D01*
X118084458Y-77961983D01*
X117999835Y-77881781D01*
X117946315Y-77830286D01*
X117852681Y-77738286D01*
X117771759Y-77655999D01*
X117706823Y-77586945D01*
X117661142Y-77534644D01*
X117637989Y-77502616D01*
X117635768Y-77496116D01*
X117646076Y-77471394D01*
X117674561Y-77421405D01*
X117718063Y-77351212D01*
X117773423Y-77265875D01*
X117837480Y-77170456D01*
X117855697Y-77143854D01*
X117922073Y-77047167D01*
X117981622Y-76960117D01*
X118031016Y-76887595D01*
X118066925Y-76834493D01*
X118086019Y-76805703D01*
X118087864Y-76802726D01*
X118085105Y-76779782D01*
X118070462Y-76729336D01*
X118046487Y-76658041D01*
X118015734Y-76572547D01*
X117980756Y-76479507D01*
X117944107Y-76385574D01*
X117908339Y-76297399D01*
X117876006Y-76221634D01*
X117849662Y-76164931D01*
X117831858Y-76133943D01*
X117830593Y-76132457D01*
X117819706Y-76123601D01*
X117801318Y-76114843D01*
X117771394Y-76105277D01*
X117725897Y-76093996D01*
X117660791Y-76080093D01*
X117572039Y-76062663D01*
X117455607Y-76040798D01*
X117307458Y-76013591D01*
X117275382Y-76007741D01*
X117180314Y-75989374D01*
X117097435Y-75971405D01*
X117034070Y-75955569D01*
X116997542Y-75943600D01*
X116992644Y-75940810D01*
X116984573Y-75916072D01*
X116978013Y-75860790D01*
X116972967Y-75781389D01*
X116969441Y-75684296D01*
X116967439Y-75575938D01*
X116966964Y-75462740D01*
X116968023Y-75351128D01*
X116970618Y-75247529D01*
X116974754Y-75158368D01*
X116980437Y-75090072D01*
X116987669Y-75049066D01*
X116992029Y-75040674D01*
X117016302Y-75032208D01*
X117071574Y-75018435D01*
X117152338Y-75000550D01*
X117253088Y-74979748D01*
X117368317Y-74957223D01*
X117431098Y-74945418D01*
X117550213Y-74923151D01*
X117656435Y-74902979D01*
X117744573Y-74885915D01*
X117809434Y-74872969D01*
X117845826Y-74865155D01*
X117851816Y-74863422D01*
X117861939Y-74843890D01*
X117883338Y-74796843D01*
X117913161Y-74729003D01*
X117948555Y-74647091D01*
X117986668Y-74557828D01*
X118024647Y-74467935D01*
X118059640Y-74384135D01*
X118088794Y-74313147D01*
X118109257Y-74261694D01*
X118118177Y-74236497D01*
X118118343Y-74235396D01*
X118108231Y-74215519D01*
X118079883Y-74169777D01*
X118036277Y-74102717D01*
X117980394Y-74018884D01*
X117915213Y-73922826D01*
X117877321Y-73867650D01*
X117808275Y-73766481D01*
X117746950Y-73674630D01*
X117696337Y-73596744D01*
X117659429Y-73537469D01*
X117639218Y-73501451D01*
X117636299Y-73493377D01*
X117648847Y-73474584D01*
X117683537Y-73434457D01*
X117735937Y-73377493D01*
X117801616Y-73308185D01*
X117876144Y-73231031D01*
X117955087Y-73150525D01*
X118034017Y-73071163D01*
X118108500Y-72997440D01*
X118174106Y-72933852D01*
X118226404Y-72884894D01*
X118260961Y-72855061D01*
X118272522Y-72847942D01*
X118291346Y-72857953D01*
X118336369Y-72886078D01*
X118403213Y-72929454D01*
X118487501Y-72985218D01*
X118584856Y-73050506D01*
X118658293Y-73100246D01*
X119029333Y-73352551D01*
X119647905Y-73097555D01*
X119731725Y-72652931D01*
X119815546Y-72208307D01*
X120740994Y-72208307D01*
X120824814Y-72652931D01*
%TD*%
D13*
%TO.C,TP1*%
X116078000Y-79502000D03*
%TD*%
D14*
%TO.C,SW1*%
X160988400Y-116437800D03*
X167588400Y-116437800D03*
X160988400Y-120137800D03*
X167588400Y-120137800D03*
%TD*%
D15*
%TO.C,D4*%
X162996100Y-95909400D03*
X162996100Y-96909400D03*
%TD*%
%TO.C,D6*%
X175071100Y-80927400D03*
X175071100Y-81927400D03*
%TD*%
D16*
%TO.C,CN2*%
X132120100Y-74182400D03*
D17*
X132120100Y-94182400D03*
D18*
X126850100Y-93432400D03*
X134400100Y-93182400D03*
X126850100Y-92932400D03*
X134400100Y-92682400D03*
X126850100Y-92432400D03*
X134400100Y-92182400D03*
X126850100Y-91932400D03*
X134400100Y-91682400D03*
X126850100Y-91432400D03*
X134400100Y-91182400D03*
X126850100Y-90932400D03*
X134400100Y-88682400D03*
X126850100Y-88432400D03*
X134400100Y-88182400D03*
X126850100Y-87932400D03*
X134400100Y-87682400D03*
X126850100Y-87432400D03*
X134400100Y-87182400D03*
X126850100Y-86932400D03*
X134400100Y-86682400D03*
X126850100Y-86432400D03*
X134400100Y-86182400D03*
X126850100Y-85932400D03*
X134400100Y-85682400D03*
X126850100Y-85432400D03*
X134400100Y-85182400D03*
X126850100Y-84932400D03*
X134400100Y-84682400D03*
X126850100Y-84432400D03*
X134400100Y-84182400D03*
X126850100Y-83932400D03*
X134400100Y-83682400D03*
X126850100Y-83432400D03*
X134390100Y-83182400D03*
X126850100Y-82932400D03*
X134390100Y-82682400D03*
X126850100Y-82432400D03*
X134390100Y-82182400D03*
X126850100Y-81932400D03*
X134390100Y-81682400D03*
X126850100Y-81432400D03*
X134390100Y-81182400D03*
X126850100Y-80932400D03*
X134390100Y-80682400D03*
X126850100Y-80432400D03*
X134390100Y-80182400D03*
X126850100Y-79932400D03*
X134390100Y-79682400D03*
X126850100Y-79432400D03*
X134390100Y-79182400D03*
D19*
X126840100Y-78932400D03*
X134390100Y-78682400D03*
X126840100Y-78432400D03*
X134390100Y-78182400D03*
X126840100Y-77932400D03*
X134390100Y-77682400D03*
X126840100Y-77432400D03*
X134390100Y-77182400D03*
D18*
X126850100Y-76932400D03*
X134390100Y-76682400D03*
X126850100Y-76432400D03*
X134390100Y-76182400D03*
X126850100Y-75932400D03*
X134390100Y-75682400D03*
X126850100Y-75432400D03*
X134390100Y-75182400D03*
X126850100Y-74932400D03*
D20*
X127570100Y-73832400D03*
X127570100Y-94532400D03*
%TD*%
D21*
%TO.C,R1*%
X158879000Y-91399400D03*
X157859000Y-91399400D03*
%TD*%
D22*
%TO.C,D1*%
X159296100Y-104832400D03*
X159296100Y-108832400D03*
%TD*%
D23*
%TO.C,D5*%
X162687400Y-114565800D03*
X162687400Y-113565800D03*
%TD*%
D24*
%TO.C,J2*%
X168598600Y-89409400D03*
X168598600Y-94409400D03*
D25*
X165058600Y-95409400D03*
X165058600Y-92909400D03*
X165058600Y-90909400D03*
X165048600Y-88409400D03*
D26*
X167288600Y-99259400D03*
X167288600Y-84559400D03*
%TD*%
D21*
%TO.C,R5*%
X124502100Y-86055200D03*
X123482100Y-86055200D03*
%TD*%
D27*
%TO.C,J5*%
X172329000Y-113394000D03*
X172329000Y-107594000D03*
D28*
X176029000Y-106164000D03*
X176029000Y-114824000D03*
D29*
X171829000Y-106164000D03*
X171829000Y-114824000D03*
D30*
X171069000Y-113844000D03*
X171069000Y-113044000D03*
X171069000Y-111744000D03*
X171069000Y-110744000D03*
X171069000Y-110244000D03*
X171069000Y-109244000D03*
X171069000Y-107944000D03*
X171069000Y-107144000D03*
X171069000Y-107444000D03*
X171069000Y-108244000D03*
X171069000Y-108744000D03*
X171069000Y-109744000D03*
X171069000Y-111244000D03*
X171069000Y-112244000D03*
X171069000Y-112744000D03*
X171069000Y-113544000D03*
%TD*%
D31*
%TO.C,J1*%
X119875300Y-105714800D03*
D32*
X119875300Y-108254800D03*
X119875300Y-110794800D03*
X119875300Y-113334800D03*
X119875300Y-115874800D03*
X119875300Y-118414800D03*
X117335300Y-105714800D03*
X117335300Y-108254800D03*
X117335300Y-110794800D03*
X117335300Y-113334800D03*
X117335300Y-115874800D03*
X117335300Y-118414800D03*
%TD*%
D13*
%TO.C,TP5*%
X116078000Y-99339400D03*
%TD*%
D15*
%TO.C,D3*%
X160909000Y-92456000D03*
X160909000Y-93456000D03*
%TD*%
D21*
%TO.C,R6*%
X124529500Y-87985600D03*
X123509500Y-87985600D03*
%TD*%
D33*
%TO.C,F1*%
X165379400Y-104495600D03*
X162479400Y-104495600D03*
%TD*%
D21*
%TO.C,R3*%
X159043400Y-115757800D03*
X158023400Y-115757800D03*
%TD*%
D23*
%TO.C,D2*%
X160909598Y-91329099D03*
X160909598Y-90329099D03*
%TD*%
D34*
%TO.C,J3*%
X173021100Y-75327400D03*
D32*
X173021100Y-77867400D03*
X173021100Y-80407400D03*
%TD*%
D35*
%TO.C,C1*%
X161293400Y-115287800D03*
X161293400Y-114327800D03*
%TD*%
D31*
%TO.C,J4*%
X119875300Y-82854800D03*
D32*
X119875300Y-85394800D03*
X119875300Y-87934800D03*
X119875300Y-90474800D03*
X119875300Y-93014800D03*
X119875300Y-95554800D03*
X117335300Y-82854800D03*
X117335300Y-85394800D03*
X117335300Y-87934800D03*
X117335300Y-90474800D03*
X117335300Y-93014800D03*
X117335300Y-95554800D03*
%TD*%
D16*
%TO.C,CN1*%
X132120100Y-98332400D03*
D17*
X132120100Y-118332400D03*
D18*
X126850100Y-117582400D03*
X134400100Y-117332400D03*
X126850100Y-117082400D03*
X134400100Y-116832400D03*
X126850100Y-116582400D03*
X134400100Y-116332400D03*
X126850100Y-116082400D03*
X134400100Y-115832400D03*
X126850100Y-115582400D03*
X134400100Y-115332400D03*
X126850100Y-115082400D03*
X134400100Y-112832400D03*
X126850100Y-112582400D03*
X134400100Y-112332400D03*
X126850100Y-112082400D03*
X134400100Y-111832400D03*
X126850100Y-111582400D03*
X134400100Y-111332400D03*
X126850100Y-111082400D03*
X134400100Y-110832400D03*
X126850100Y-110582400D03*
X134400100Y-110332400D03*
X126850100Y-110082400D03*
X134400100Y-109832400D03*
X126850100Y-109582400D03*
X134400100Y-109332400D03*
X126850100Y-109082400D03*
X134400100Y-108832400D03*
X126850100Y-108582400D03*
X134400100Y-108332400D03*
X126850100Y-108082400D03*
X134400100Y-107832400D03*
X126850100Y-107582400D03*
X134390100Y-107332400D03*
X126850100Y-107082400D03*
X134390100Y-106832400D03*
X126850100Y-106582400D03*
X134390100Y-106332400D03*
X126850100Y-106082400D03*
X134390100Y-105832400D03*
X126850100Y-105582400D03*
X134390100Y-105332400D03*
X126850100Y-105082400D03*
X134390100Y-104832400D03*
X126850100Y-104582400D03*
X134390100Y-104332400D03*
X126850100Y-104082400D03*
X134390100Y-103832400D03*
X126850100Y-103582400D03*
X134390100Y-103332400D03*
D19*
X126840100Y-103082400D03*
X134390100Y-102832400D03*
X126840100Y-102582400D03*
X134390100Y-102332400D03*
X126840100Y-102082400D03*
X134390100Y-101832400D03*
X126840100Y-101582400D03*
X134390100Y-101332400D03*
D18*
X126850100Y-101082400D03*
X134390100Y-100832400D03*
X126850100Y-100582400D03*
X134390100Y-100332400D03*
X126850100Y-100082400D03*
X134390100Y-99832400D03*
X126850100Y-99582400D03*
X134390100Y-99332400D03*
X126850100Y-99082400D03*
D20*
X127570100Y-97982400D03*
X127570100Y-118682400D03*
%TD*%
D21*
%TO.C,R2*%
X158889000Y-92379400D03*
X157869000Y-92379400D03*
%TD*%
D36*
%TO.C,R8*%
X123509500Y-88950800D03*
X124529500Y-88950800D03*
%TD*%
D37*
%TO.C,H1*%
X154820100Y-96322400D03*
D38*
X154820100Y-96322400D03*
%TD*%
D39*
%TO.C,D8*%
X169108700Y-110341600D03*
X168108700Y-110341600D03*
%TD*%
D23*
%TO.C,D7*%
X175021100Y-77377400D03*
X175021100Y-76377400D03*
%TD*%
D36*
%TO.C,R7*%
X123484100Y-87020400D03*
X124504100Y-87020400D03*
%TD*%
M02*
