%TF.GenerationSoftware,KiCad,Pcbnew,6.0.11-2627ca5db0~126~ubuntu22.04.1*%
%TF.CreationDate,2023-04-14T13:07:02+07:00*%
%TF.ProjectId,MiSTeX-Pmod,4d695354-6558-42d5-906d-6f642e6b6963,rev?*%
%TF.SameCoordinates,Original*%
%TF.FileFunction,Copper,L2,Inr*%
%TF.FilePolarity,Positive*%
%FSLAX46Y46*%
G04 Gerber Fmt 4.6, Leading zero omitted, Abs format (unit mm)*
G04 Created by KiCad (PCBNEW 6.0.11-2627ca5db0~126~ubuntu22.04.1) date 2023-04-14 13:07:02*
%MOMM*%
%LPD*%
G01*
G04 APERTURE LIST*
%TA.AperFunction,ComponentPad*%
%ADD10C,1.800000*%
%TD*%
%TA.AperFunction,ComponentPad*%
%ADD11C,1.200000*%
%TD*%
%TA.AperFunction,ComponentPad*%
%ADD12C,1.300000*%
%TD*%
%TA.AperFunction,ComponentPad*%
%ADD13C,0.750000*%
%TD*%
%TA.AperFunction,ComponentPad*%
%ADD14O,1.800000X1.200000*%
%TD*%
%TA.AperFunction,ComponentPad*%
%ADD15O,2.000000X1.200000*%
%TD*%
%TA.AperFunction,ComponentPad*%
%ADD16R,1.700000X1.700000*%
%TD*%
%TA.AperFunction,ComponentPad*%
%ADD17O,1.700000X1.700000*%
%TD*%
%TA.AperFunction,ComponentPad*%
%ADD18C,2.600000*%
%TD*%
%TA.AperFunction,ViaPad*%
%ADD19C,0.450000*%
%TD*%
%TA.AperFunction,ViaPad*%
%ADD20C,0.600000*%
%TD*%
%TA.AperFunction,ViaPad*%
%ADD21C,1.300000*%
%TD*%
G04 APERTURE END LIST*
D10*
%TO.N,*%
%TO.C,CN2*%
X132120100Y-74182400D03*
D11*
X132120100Y-94182400D03*
%TD*%
D12*
%TO.N,*%
%TO.C,J2*%
X168598600Y-89409400D03*
X168598600Y-94409400D03*
%TD*%
D13*
%TO.N,*%
%TO.C,J5*%
X172329000Y-113394000D03*
X172329000Y-107594000D03*
D14*
%TO.N,N/C*%
X176029000Y-106164000D03*
X176029000Y-114824000D03*
D15*
X171829000Y-106164000D03*
X171829000Y-114824000D03*
%TD*%
D16*
%TO.N,/PC0_UART2_TX*%
%TO.C,J1*%
X119875300Y-105714800D03*
D17*
%TO.N,/PC1_UART2_RX*%
X119875300Y-108254800D03*
%TO.N,/PB0_SCL*%
X119875300Y-110794800D03*
%TO.N,/PB1_SDA*%
X119875300Y-113334800D03*
%TO.N,GND*%
X119875300Y-115874800D03*
%TO.N,unconnected-(J1-Pad6)*%
X119875300Y-118414800D03*
%TO.N,/PG9_UART1_CTS*%
X117335300Y-105714800D03*
%TO.N,/PG6_UART1_TX*%
X117335300Y-108254800D03*
%TO.N,/PG7_UART1_RX*%
X117335300Y-110794800D03*
%TO.N,/PG8_UART1_RTS*%
X117335300Y-113334800D03*
%TO.N,GND*%
X117335300Y-115874800D03*
%TO.N,unconnected-(J1-Pad12)*%
X117335300Y-118414800D03*
%TD*%
D16*
%TO.N,GND*%
%TO.C,J3*%
X173021100Y-75327400D03*
D17*
%TO.N,/PB9_UART0_RX*%
X173021100Y-77867400D03*
%TO.N,/PB8_UART0_TX*%
X173021100Y-80407400D03*
%TD*%
D16*
%TO.N,Net-(J4-Pad1)*%
%TO.C,J4*%
X119875300Y-82854800D03*
D17*
%TO.N,Net-(J4-Pad2)*%
X119875300Y-85394800D03*
%TO.N,Net-(J4-Pad3)*%
X119875300Y-87934800D03*
%TO.N,Net-(J4-Pad4)*%
X119875300Y-90474800D03*
%TO.N,GND*%
X119875300Y-93014800D03*
%TO.N,unconnected-(J4-Pad6)*%
X119875300Y-95554800D03*
%TO.N,/PD6_CORE_RESET*%
X117335300Y-82854800D03*
%TO.N,/PD7_FPGA_EN*%
X117335300Y-85394800D03*
%TO.N,/PD8_OSD_EN*%
X117335300Y-87934800D03*
%TO.N,/PD9_IO_EN*%
X117335300Y-90474800D03*
%TO.N,GND*%
X117335300Y-93014800D03*
%TO.N,unconnected-(J4-Pad12)*%
X117335300Y-95554800D03*
%TD*%
D10*
%TO.N,*%
%TO.C,CN1*%
X132120100Y-98332400D03*
D11*
X132120100Y-118332400D03*
%TD*%
D18*
%TO.N,GND*%
%TO.C,H1*%
X154820100Y-96322400D03*
%TD*%
D19*
%TO.N,GND*%
X137325100Y-95382400D03*
X133582600Y-95382400D03*
X122270100Y-103332400D03*
X124620100Y-97882400D03*
X140855700Y-97332400D03*
X150184427Y-90860800D03*
X155656972Y-90860800D03*
X124620100Y-106432400D03*
X163106100Y-92735400D03*
D20*
X161096100Y-95809400D03*
D19*
X148180136Y-92710000D03*
X124879100Y-74447400D03*
X155712388Y-92710000D03*
X125220100Y-95282400D03*
D20*
X135870100Y-87182400D03*
X135870100Y-88682400D03*
D19*
X134782600Y-97332400D03*
D20*
X162996100Y-98059400D03*
D19*
X124879100Y-83337400D03*
X132370100Y-95382400D03*
X124070100Y-98732400D03*
X156788424Y-92710000D03*
X124752100Y-108864400D03*
X143154758Y-95883000D03*
X122770100Y-107182400D03*
D21*
X130020100Y-98032400D03*
D19*
X124070100Y-100469900D03*
X161964100Y-92735400D03*
X144767300Y-91592400D03*
X158940500Y-90860800D03*
X122270100Y-99232400D03*
X124070100Y-103076150D03*
X125320100Y-97132400D03*
X144454758Y-94483000D03*
X156751481Y-90860800D03*
X145854758Y-93033000D03*
X124070100Y-101338650D03*
X158940500Y-92710000D03*
X137362600Y-97332400D03*
X124070100Y-99601150D03*
X147104100Y-92710000D03*
D21*
X162687000Y-88359400D03*
D20*
X135870100Y-81182400D03*
D19*
X124070100Y-105682400D03*
X153467954Y-90860800D03*
X124879100Y-84607400D03*
D20*
X128520100Y-100582400D03*
D19*
X124879100Y-82067400D03*
X141904758Y-97183000D03*
X150332208Y-92710000D03*
X124879100Y-75717400D03*
X124070100Y-104813650D03*
D20*
X132870100Y-116332400D03*
X161293400Y-113507800D03*
X135870100Y-82682400D03*
D21*
X130170100Y-94532400D03*
D19*
X134745100Y-95382400D03*
X128420100Y-84632400D03*
D20*
X169802500Y-113846800D03*
D19*
X124070100Y-102207400D03*
D20*
X161096100Y-87859400D03*
D19*
X149256172Y-92710000D03*
X138976100Y-97352400D03*
X143254758Y-92983000D03*
X122270100Y-98207400D03*
X143954758Y-92283000D03*
X124244100Y-95707200D03*
D20*
X128520100Y-102082400D03*
D19*
X157845990Y-90860800D03*
X142654758Y-93683000D03*
X122270100Y-104357400D03*
X122270100Y-101282400D03*
X149089918Y-90860800D03*
X152373445Y-90860800D03*
X141211300Y-95199200D03*
D20*
X128520100Y-105082400D03*
D21*
X130020100Y-73832400D03*
D19*
X143754758Y-95183000D03*
D20*
X135870100Y-84182400D03*
X132575300Y-103832400D03*
D19*
X142504758Y-96583000D03*
X145630900Y-90881200D03*
X154636352Y-92710000D03*
X147995409Y-90860800D03*
X122270100Y-106407400D03*
X133620100Y-97332400D03*
X157864460Y-92710000D03*
X131207600Y-95382400D03*
X153560316Y-92710000D03*
D20*
X128520100Y-103582400D03*
D19*
X152484280Y-92710000D03*
D21*
X130170100Y-118682400D03*
D19*
X122270100Y-105382400D03*
X151278936Y-90860800D03*
X129527300Y-97028000D03*
X124879100Y-80797400D03*
X124879100Y-79527400D03*
X123736100Y-108102400D03*
D20*
X135870100Y-85682400D03*
D19*
X135945100Y-97332400D03*
X138976100Y-95402400D03*
X130949700Y-97129600D03*
X129527300Y-95504000D03*
X142004758Y-94383000D03*
X125420100Y-106832400D03*
X123532900Y-96469200D03*
D20*
X169675500Y-107115800D03*
D19*
X146900900Y-90860800D03*
D20*
X173971100Y-82227400D03*
D19*
X124879100Y-76987400D03*
X124879100Y-78257400D03*
X139992100Y-95402400D03*
D20*
X159293400Y-120107800D03*
D19*
X122270100Y-100257400D03*
X124070100Y-103944900D03*
X162218100Y-90957400D03*
X154562463Y-90860800D03*
X139941300Y-97332400D03*
X145154758Y-93783000D03*
X151408244Y-92710000D03*
X122270100Y-102307400D03*
X122720100Y-97231200D03*
X162976100Y-90957400D03*
X135907600Y-95382400D03*
D20*
%TO.N,/RESET*%
X143802100Y-115341400D03*
X152311100Y-115341400D03*
%TO.N,/PD9_IO_EN*%
X131948530Y-88172605D03*
%TO.N,/PD8_OSD_EN*%
X132070100Y-87382400D03*
%TO.N,/PD7_FPGA_EN*%
X132128511Y-86573989D03*
%TO.N,/PD6_CORE_RESET*%
X132170100Y-85732400D03*
%TO.N,/PC0_UART2_TX*%
X138112500Y-93522800D03*
%TO.N,/PC1_UART2_RX*%
X136537700Y-101701600D03*
X136537700Y-105410000D03*
X136486900Y-94488000D03*
%TO.N,Net-(J4-Pad4)*%
X122567700Y-87020400D03*
%TO.N,/PB0_SCL*%
X118579900Y-102539800D03*
%TO.N,/PB1_SDA*%
X116268500Y-102514400D03*
%TO.N,/PB8_UART0_TX*%
X131356100Y-80416400D03*
%TO.N,/PB9_UART0_RX*%
X131356100Y-77876400D03*
%TD*%
%TA.AperFunction,Conductor*%
%TO.N,GND*%
G36*
X177580185Y-70791394D02*
G01*
X177607623Y-70794431D01*
X177663714Y-70806973D01*
X177689245Y-70812682D01*
X177690489Y-70812966D01*
X177782349Y-70834486D01*
X177800213Y-70840101D01*
X177827699Y-70851044D01*
X177889047Y-70875469D01*
X177892511Y-70876909D01*
X177976272Y-70913183D01*
X177990739Y-70920591D01*
X178073664Y-70970052D01*
X178078947Y-70973384D01*
X178154068Y-71023407D01*
X178165087Y-71031646D01*
X178239405Y-71093828D01*
X178245913Y-71099669D01*
X178310701Y-71162022D01*
X178318448Y-71170175D01*
X178382052Y-71243405D01*
X178389048Y-71252228D01*
X178429506Y-71308212D01*
X178441702Y-71325089D01*
X178446583Y-71332362D01*
X178497745Y-71414652D01*
X178504360Y-71426714D01*
X178543373Y-71508100D01*
X178545930Y-71513792D01*
X178583297Y-71602835D01*
X178588607Y-71618196D01*
X178612802Y-71706227D01*
X178613730Y-71709814D01*
X178636310Y-71802721D01*
X178639370Y-71821221D01*
X178648010Y-71917546D01*
X178648111Y-71918739D01*
X178651649Y-71963128D01*
X178655227Y-72008033D01*
X178655625Y-72018329D01*
X178546027Y-119297574D01*
X178542574Y-120787024D01*
X178542291Y-120795165D01*
X178534788Y-120907021D01*
X178534712Y-120908094D01*
X178529285Y-120979826D01*
X178526616Y-120997773D01*
X178504310Y-121097682D01*
X178503600Y-121100684D01*
X178484672Y-121176354D01*
X178483771Y-121179957D01*
X178478903Y-121195218D01*
X178442325Y-121288874D01*
X178440276Y-121293811D01*
X178406707Y-121370051D01*
X178400418Y-121382433D01*
X178350354Y-121468859D01*
X178346416Y-121475216D01*
X178300138Y-121545178D01*
X178293213Y-121554654D01*
X178230749Y-121632261D01*
X178224450Y-121639502D01*
X178177810Y-121689162D01*
X178166910Y-121700768D01*
X178160078Y-121707508D01*
X178110349Y-121752952D01*
X178086541Y-121774708D01*
X178077507Y-121782221D01*
X178010582Y-121832793D01*
X178004481Y-121837125D01*
X177921363Y-121892502D01*
X177909401Y-121899552D01*
X177835426Y-121937826D01*
X177830634Y-121940178D01*
X177739431Y-121982563D01*
X177724508Y-121988375D01*
X177675619Y-122003917D01*
X177646720Y-122013104D01*
X177643654Y-122014036D01*
X177545368Y-122042549D01*
X177527648Y-122046332D01*
X177455573Y-122056353D01*
X177454825Y-122056454D01*
X177348320Y-122070342D01*
X177332030Y-122071400D01*
X115675055Y-122071400D01*
X115665169Y-122071012D01*
X115556737Y-122062478D01*
X115555870Y-122062406D01*
X115487606Y-122056434D01*
X115469189Y-122053434D01*
X115372625Y-122030251D01*
X115369429Y-122029439D01*
X115350721Y-122024426D01*
X115293941Y-122009212D01*
X115278361Y-122003924D01*
X115188356Y-121966643D01*
X115183365Y-121964446D01*
X115110884Y-121930647D01*
X115098301Y-121923886D01*
X115015882Y-121873380D01*
X115009454Y-121869165D01*
X114943454Y-121822951D01*
X114933907Y-121815561D01*
X114860601Y-121752951D01*
X114853338Y-121746236D01*
X114796264Y-121689162D01*
X114789548Y-121681898D01*
X114747147Y-121632253D01*
X114726939Y-121608593D01*
X114719549Y-121599046D01*
X114673335Y-121533046D01*
X114669120Y-121526618D01*
X114618614Y-121444199D01*
X114611853Y-121431616D01*
X114578054Y-121359135D01*
X114575857Y-121354144D01*
X114538576Y-121264139D01*
X114533288Y-121248559D01*
X114513061Y-121173071D01*
X114512249Y-121169875D01*
X114489066Y-121073311D01*
X114486066Y-121054894D01*
X114480094Y-120986630D01*
X114480022Y-120985763D01*
X114471488Y-120877331D01*
X114471100Y-120867445D01*
X114471100Y-119582596D01*
X114472269Y-119017480D01*
X114478217Y-116142766D01*
X116003557Y-116142766D01*
X116033865Y-116277246D01*
X116036945Y-116287075D01*
X116117070Y-116484403D01*
X116121713Y-116493594D01*
X116232994Y-116675188D01*
X116239077Y-116683499D01*
X116378513Y-116844467D01*
X116385880Y-116851683D01*
X116549734Y-116987716D01*
X116558181Y-116993631D01*
X116742056Y-117101079D01*
X116751342Y-117105529D01*
X116950301Y-117181503D01*
X116960210Y-117184382D01*
X116977722Y-117187945D01*
X117040488Y-117221126D01*
X117075350Y-117282974D01*
X117071241Y-117353851D01*
X117029464Y-117411256D01*
X116988183Y-117432286D01*
X116943636Y-117445397D01*
X116762803Y-117539934D01*
X116758003Y-117543794D01*
X116758002Y-117543794D01*
X116720746Y-117573749D01*
X116603777Y-117667794D01*
X116472615Y-117824107D01*
X116469651Y-117829499D01*
X116469648Y-117829503D01*
X116417084Y-117925117D01*
X116374312Y-118002920D01*
X116312612Y-118197421D01*
X116289867Y-118400202D01*
X116291093Y-118414800D01*
X116302928Y-118555733D01*
X116306942Y-118603539D01*
X116363186Y-118799687D01*
X116456458Y-118981175D01*
X116583205Y-119141090D01*
X116738599Y-119273340D01*
X116743977Y-119276346D01*
X116743979Y-119276347D01*
X116786931Y-119300352D01*
X116916721Y-119372889D01*
X117110787Y-119435945D01*
X117313404Y-119460106D01*
X117319539Y-119459634D01*
X117319541Y-119459634D01*
X117510713Y-119444924D01*
X117510717Y-119444923D01*
X117516855Y-119444451D01*
X117713391Y-119389577D01*
X117895526Y-119297574D01*
X117922696Y-119276347D01*
X118051465Y-119175741D01*
X118056321Y-119171947D01*
X118060347Y-119167283D01*
X118185625Y-119022148D01*
X118185626Y-119022146D01*
X118189654Y-119017480D01*
X118290444Y-118840057D01*
X118354853Y-118646437D01*
X118380427Y-118443993D01*
X118380835Y-118414800D01*
X118360923Y-118211721D01*
X118301945Y-118016378D01*
X118206148Y-117836210D01*
X118202250Y-117831431D01*
X118202247Y-117831426D01*
X118109799Y-117718074D01*
X118077181Y-117678080D01*
X117980067Y-117597740D01*
X117924705Y-117551940D01*
X117924700Y-117551937D01*
X117919956Y-117548012D01*
X117914537Y-117545082D01*
X117914534Y-117545080D01*
X117745881Y-117453890D01*
X117745876Y-117453888D01*
X117740461Y-117450960D01*
X117676310Y-117431102D01*
X117617151Y-117391850D01*
X117588604Y-117326846D01*
X117599733Y-117256727D01*
X117647004Y-117203756D01*
X117677363Y-117190051D01*
X117827552Y-117144992D01*
X117837142Y-117141233D01*
X118028395Y-117047539D01*
X118037245Y-117042264D01*
X118210628Y-116918592D01*
X118218500Y-116911939D01*
X118369352Y-116761612D01*
X118376030Y-116753765D01*
X118503322Y-116576619D01*
X118504447Y-116577427D01*
X118551969Y-116533676D01*
X118621907Y-116521461D01*
X118687346Y-116548997D01*
X118715170Y-116580828D01*
X118772990Y-116675183D01*
X118779077Y-116683499D01*
X118918513Y-116844467D01*
X118925880Y-116851683D01*
X119089734Y-116987716D01*
X119098181Y-116993631D01*
X119282056Y-117101079D01*
X119291342Y-117105529D01*
X119490301Y-117181503D01*
X119500210Y-117184382D01*
X119517722Y-117187945D01*
X119580488Y-117221126D01*
X119615350Y-117282974D01*
X119611241Y-117353851D01*
X119569464Y-117411256D01*
X119528183Y-117432286D01*
X119483636Y-117445397D01*
X119302803Y-117539934D01*
X119298003Y-117543794D01*
X119298002Y-117543794D01*
X119260746Y-117573749D01*
X119143777Y-117667794D01*
X119012615Y-117824107D01*
X119009651Y-117829499D01*
X119009648Y-117829503D01*
X118957084Y-117925117D01*
X118914312Y-118002920D01*
X118852612Y-118197421D01*
X118829867Y-118400202D01*
X118831093Y-118414800D01*
X118842928Y-118555733D01*
X118846942Y-118603539D01*
X118903186Y-118799687D01*
X118996458Y-118981175D01*
X119123205Y-119141090D01*
X119278599Y-119273340D01*
X119283977Y-119276346D01*
X119283979Y-119276347D01*
X119326931Y-119300352D01*
X119456721Y-119372889D01*
X119650787Y-119435945D01*
X119853404Y-119460106D01*
X119859539Y-119459634D01*
X119859541Y-119459634D01*
X120050713Y-119444924D01*
X120050717Y-119444923D01*
X120056855Y-119444451D01*
X120253391Y-119389577D01*
X120435526Y-119297574D01*
X120462696Y-119276347D01*
X120591465Y-119175741D01*
X120596321Y-119171947D01*
X120600347Y-119167283D01*
X120725625Y-119022148D01*
X120725626Y-119022146D01*
X120729654Y-119017480D01*
X120830444Y-118840057D01*
X120894853Y-118646437D01*
X120920427Y-118443993D01*
X120920835Y-118414800D01*
X120908073Y-118284644D01*
X131265919Y-118284644D01*
X131266276Y-118291461D01*
X131266276Y-118291465D01*
X131271654Y-118394077D01*
X131275590Y-118469181D01*
X131277401Y-118475754D01*
X131277401Y-118475757D01*
X131312598Y-118603539D01*
X131324662Y-118647336D01*
X131410846Y-118810798D01*
X131530120Y-118951940D01*
X131535544Y-118956087D01*
X131535545Y-118956088D01*
X131671499Y-119060033D01*
X131671503Y-119060036D01*
X131676920Y-119064177D01*
X131683100Y-119067059D01*
X131683102Y-119067060D01*
X131838220Y-119139393D01*
X131838223Y-119139394D01*
X131844397Y-119142273D01*
X131851042Y-119143758D01*
X131851047Y-119143760D01*
X131956287Y-119167283D01*
X132024737Y-119182583D01*
X132030407Y-119182900D01*
X132166264Y-119182900D01*
X132303809Y-119167958D01*
X132478948Y-119109017D01*
X132637344Y-119013843D01*
X132666784Y-118986003D01*
X132766649Y-118891565D01*
X132766651Y-118891563D01*
X132771607Y-118886876D01*
X132875475Y-118734040D01*
X132907739Y-118653375D01*
X132941566Y-118568802D01*
X132941567Y-118568797D01*
X132944100Y-118562465D01*
X132969126Y-118411294D01*
X132973166Y-118386894D01*
X132973166Y-118386890D01*
X132974281Y-118380156D01*
X132968923Y-118277906D01*
X132964967Y-118202432D01*
X132964610Y-118195619D01*
X132938916Y-118102335D01*
X132917351Y-118024046D01*
X132915538Y-118017464D01*
X132829354Y-117854002D01*
X132710080Y-117712860D01*
X132659456Y-117674155D01*
X132568701Y-117604767D01*
X132568697Y-117604764D01*
X132563280Y-117600623D01*
X132557100Y-117597741D01*
X132557098Y-117597740D01*
X132401980Y-117525407D01*
X132401977Y-117525406D01*
X132395803Y-117522527D01*
X132389158Y-117521042D01*
X132389153Y-117521040D01*
X132249229Y-117489765D01*
X132215463Y-117482217D01*
X132209793Y-117481900D01*
X132073936Y-117481900D01*
X131936391Y-117496842D01*
X131761252Y-117555783D01*
X131602856Y-117650957D01*
X131597896Y-117655648D01*
X131597894Y-117655649D01*
X131537396Y-117712860D01*
X131468593Y-117777924D01*
X131364725Y-117930760D01*
X131362192Y-117937094D01*
X131362190Y-117937097D01*
X131298634Y-118095998D01*
X131298633Y-118096003D01*
X131296100Y-118102335D01*
X131265919Y-118284644D01*
X120908073Y-118284644D01*
X120900923Y-118211721D01*
X120841945Y-118016378D01*
X120746148Y-117836210D01*
X120742250Y-117831431D01*
X120742247Y-117831426D01*
X120649799Y-117718074D01*
X120617181Y-117678080D01*
X120520067Y-117597740D01*
X120464705Y-117551940D01*
X120464700Y-117551937D01*
X120459956Y-117548012D01*
X120454537Y-117545082D01*
X120454534Y-117545080D01*
X120285881Y-117453890D01*
X120285876Y-117453888D01*
X120280461Y-117450960D01*
X120216310Y-117431102D01*
X120157151Y-117391850D01*
X120128604Y-117326846D01*
X120139733Y-117256727D01*
X120187004Y-117203756D01*
X120217363Y-117190051D01*
X120367552Y-117144992D01*
X120377142Y-117141233D01*
X120568395Y-117047539D01*
X120577245Y-117042264D01*
X120750628Y-116918592D01*
X120758500Y-116911939D01*
X120909352Y-116761612D01*
X120916030Y-116753765D01*
X121040303Y-116580820D01*
X121045613Y-116571983D01*
X121139970Y-116381067D01*
X121143769Y-116371472D01*
X121205677Y-116167710D01*
X121207855Y-116157637D01*
X121209286Y-116146762D01*
X121207075Y-116132578D01*
X121193917Y-116128800D01*
X116018525Y-116128800D01*
X116004994Y-116132773D01*
X116003557Y-116142766D01*
X114478217Y-116142766D01*
X114479321Y-115608983D01*
X115999689Y-115608983D01*
X116001212Y-115617407D01*
X116013592Y-115620800D01*
X121193644Y-115620800D01*
X121207175Y-115616827D01*
X121208480Y-115607747D01*
X121166514Y-115440675D01*
X121163194Y-115430924D01*
X121121636Y-115335346D01*
X143306593Y-115335346D01*
X143307757Y-115344248D01*
X143307757Y-115344251D01*
X143321250Y-115447430D01*
X143324811Y-115474662D01*
X143381397Y-115603264D01*
X143387174Y-115610137D01*
X143387175Y-115610138D01*
X143399803Y-115625161D01*
X143471804Y-115710816D01*
X143588763Y-115788671D01*
X143722872Y-115830569D01*
X143731842Y-115830733D01*
X143731846Y-115830734D01*
X143796644Y-115831921D01*
X143863350Y-115833144D01*
X143920724Y-115817502D01*
X143990245Y-115798549D01*
X143990247Y-115798548D01*
X143998904Y-115796188D01*
X144118638Y-115722671D01*
X144212925Y-115618505D01*
X144252637Y-115536540D01*
X144270272Y-115500141D01*
X144270272Y-115500140D01*
X144274186Y-115492062D01*
X144297496Y-115353507D01*
X144297644Y-115341400D01*
X144296777Y-115335346D01*
X151815593Y-115335346D01*
X151816757Y-115344248D01*
X151816757Y-115344251D01*
X151830250Y-115447430D01*
X151833811Y-115474662D01*
X151890397Y-115603264D01*
X151896174Y-115610137D01*
X151896175Y-115610138D01*
X151908803Y-115625161D01*
X151980804Y-115710816D01*
X152097763Y-115788671D01*
X152231872Y-115830569D01*
X152240842Y-115830733D01*
X152240846Y-115830734D01*
X152305644Y-115831921D01*
X152372350Y-115833144D01*
X152429724Y-115817502D01*
X152499245Y-115798549D01*
X152499247Y-115798548D01*
X152507904Y-115796188D01*
X152627638Y-115722671D01*
X152721925Y-115618505D01*
X152761637Y-115536540D01*
X152779272Y-115500141D01*
X152779272Y-115500140D01*
X152783186Y-115492062D01*
X152806496Y-115353507D01*
X152806644Y-115341400D01*
X152786726Y-115202317D01*
X152728572Y-115074415D01*
X152636858Y-114967976D01*
X152629327Y-114963095D01*
X152629324Y-114963092D01*
X152526488Y-114896437D01*
X152526486Y-114896436D01*
X152518957Y-114891556D01*
X152510360Y-114888985D01*
X152510358Y-114888984D01*
X152411929Y-114859548D01*
X152384346Y-114851299D01*
X152375370Y-114851244D01*
X152375369Y-114851244D01*
X152316115Y-114850882D01*
X152243847Y-114850441D01*
X152108754Y-114889051D01*
X151989928Y-114964024D01*
X151983986Y-114970752D01*
X151983985Y-114970753D01*
X151943424Y-115016680D01*
X151896921Y-115069335D01*
X151837209Y-115196517D01*
X151835829Y-115205381D01*
X151835828Y-115205384D01*
X151817599Y-115322465D01*
X151815593Y-115335346D01*
X144296777Y-115335346D01*
X144277726Y-115202317D01*
X144219572Y-115074415D01*
X144127858Y-114967976D01*
X144120327Y-114963095D01*
X144120324Y-114963092D01*
X144017488Y-114896437D01*
X144017486Y-114896436D01*
X144009957Y-114891556D01*
X144001360Y-114888985D01*
X144001358Y-114888984D01*
X143902929Y-114859548D01*
X143875346Y-114851299D01*
X143866370Y-114851244D01*
X143866369Y-114851244D01*
X143807115Y-114850882D01*
X143734847Y-114850441D01*
X143599754Y-114889051D01*
X143480928Y-114964024D01*
X143474986Y-114970752D01*
X143474985Y-114970753D01*
X143434424Y-115016680D01*
X143387921Y-115069335D01*
X143328209Y-115196517D01*
X143326829Y-115205381D01*
X143326828Y-115205384D01*
X143308599Y-115322465D01*
X143306593Y-115335346D01*
X121121636Y-115335346D01*
X121078272Y-115235614D01*
X121073405Y-115226539D01*
X120957726Y-115047726D01*
X120951436Y-115039557D01*
X120808106Y-114882040D01*
X120800573Y-114875015D01*
X120728943Y-114818446D01*
X170633517Y-114818446D01*
X170634253Y-114825449D01*
X170634253Y-114825450D01*
X170648315Y-114959234D01*
X170652055Y-114994822D01*
X170709208Y-115162708D01*
X170712898Y-115168706D01*
X170712899Y-115168708D01*
X170754060Y-115235614D01*
X170802136Y-115313760D01*
X170807063Y-115318791D01*
X170807065Y-115318794D01*
X170864177Y-115377115D01*
X170926219Y-115440470D01*
X171075292Y-115536540D01*
X171081912Y-115538950D01*
X171081913Y-115538950D01*
X171235327Y-115594789D01*
X171235330Y-115594790D01*
X171241944Y-115597197D01*
X171289971Y-115603264D01*
X171374987Y-115614004D01*
X171374990Y-115614004D01*
X171378915Y-115614500D01*
X172273593Y-115614500D01*
X172373763Y-115603264D01*
X172398245Y-115600518D01*
X172398246Y-115600518D01*
X172405242Y-115599733D01*
X172411888Y-115597419D01*
X172411891Y-115597418D01*
X172566078Y-115543725D01*
X172566080Y-115543724D01*
X172572725Y-115541410D01*
X172586626Y-115532724D01*
X172717150Y-115451163D01*
X172723124Y-115447430D01*
X172729927Y-115440675D01*
X172843967Y-115327428D01*
X172848965Y-115322465D01*
X172928434Y-115197241D01*
X172940221Y-115178668D01*
X172940223Y-115178665D01*
X172943992Y-115172725D01*
X172976090Y-115082585D01*
X173001122Y-115012288D01*
X173001123Y-115012286D01*
X173003484Y-115005654D01*
X173005611Y-114987822D01*
X173023649Y-114836547D01*
X173024483Y-114829554D01*
X173023747Y-114822550D01*
X173023316Y-114818446D01*
X174933517Y-114818446D01*
X174934253Y-114825449D01*
X174934253Y-114825450D01*
X174948315Y-114959234D01*
X174952055Y-114994822D01*
X175009208Y-115162708D01*
X175012898Y-115168706D01*
X175012899Y-115168708D01*
X175054060Y-115235614D01*
X175102136Y-115313760D01*
X175107063Y-115318791D01*
X175107065Y-115318794D01*
X175164177Y-115377115D01*
X175226219Y-115440470D01*
X175375292Y-115536540D01*
X175381912Y-115538950D01*
X175381913Y-115538950D01*
X175535327Y-115594789D01*
X175535330Y-115594790D01*
X175541944Y-115597197D01*
X175589971Y-115603264D01*
X175674987Y-115614004D01*
X175674990Y-115614004D01*
X175678915Y-115614500D01*
X176373593Y-115614500D01*
X176473763Y-115603264D01*
X176498245Y-115600518D01*
X176498246Y-115600518D01*
X176505242Y-115599733D01*
X176511888Y-115597419D01*
X176511891Y-115597418D01*
X176666078Y-115543725D01*
X176666080Y-115543724D01*
X176672725Y-115541410D01*
X176686626Y-115532724D01*
X176817150Y-115451163D01*
X176823124Y-115447430D01*
X176829927Y-115440675D01*
X176943967Y-115327428D01*
X176948965Y-115322465D01*
X177028434Y-115197241D01*
X177040221Y-115178668D01*
X177040223Y-115178665D01*
X177043992Y-115172725D01*
X177076090Y-115082585D01*
X177101122Y-115012288D01*
X177101123Y-115012286D01*
X177103484Y-115005654D01*
X177105611Y-114987822D01*
X177123649Y-114836547D01*
X177124483Y-114829554D01*
X177123747Y-114822550D01*
X177106681Y-114660178D01*
X177106680Y-114660176D01*
X177105945Y-114653178D01*
X177061598Y-114522909D01*
X177051063Y-114491962D01*
X177051062Y-114491959D01*
X177048792Y-114485292D01*
X177042630Y-114475275D01*
X176959555Y-114340240D01*
X176955864Y-114334240D01*
X176950937Y-114329209D01*
X176950935Y-114329206D01*
X176844337Y-114220352D01*
X176831781Y-114207530D01*
X176682708Y-114111460D01*
X176639521Y-114095741D01*
X176522673Y-114053211D01*
X176522670Y-114053210D01*
X176516056Y-114050803D01*
X176459644Y-114043677D01*
X176383013Y-114033996D01*
X176383010Y-114033996D01*
X176379085Y-114033500D01*
X175684407Y-114033500D01*
X175592414Y-114043819D01*
X175559755Y-114047482D01*
X175559754Y-114047482D01*
X175552758Y-114048267D01*
X175546112Y-114050581D01*
X175546109Y-114050582D01*
X175391922Y-114104275D01*
X175391920Y-114104276D01*
X175385275Y-114106590D01*
X175379305Y-114110321D01*
X175379304Y-114110321D01*
X175314718Y-114150679D01*
X175234876Y-114200570D01*
X175109035Y-114325535D01*
X175074404Y-114380106D01*
X175017779Y-114469332D01*
X175017777Y-114469335D01*
X175014008Y-114475275D01*
X175011646Y-114481907D01*
X175011646Y-114481908D01*
X174984781Y-114557354D01*
X174954516Y-114642346D01*
X174953683Y-114649334D01*
X174953682Y-114649337D01*
X174943191Y-114737317D01*
X174933517Y-114818446D01*
X173023316Y-114818446D01*
X173006681Y-114660178D01*
X173006680Y-114660176D01*
X173005945Y-114653178D01*
X172961598Y-114522909D01*
X172951063Y-114491962D01*
X172951062Y-114491959D01*
X172948792Y-114485292D01*
X172942630Y-114475275D01*
X172859555Y-114340240D01*
X172855864Y-114334240D01*
X172850937Y-114329209D01*
X172850935Y-114329206D01*
X172744337Y-114220352D01*
X172731781Y-114207530D01*
X172725861Y-114203715D01*
X172725855Y-114203710D01*
X172643567Y-114150679D01*
X172597142Y-114096965D01*
X172587127Y-114026678D01*
X172616702Y-113962135D01*
X172637761Y-113942832D01*
X172638703Y-113942148D01*
X172760587Y-113853594D01*
X172803844Y-113801305D01*
X172856271Y-113737932D01*
X172856274Y-113737928D01*
X172861324Y-113731823D01*
X172928614Y-113588826D01*
X172958227Y-113433588D01*
X172948304Y-113275862D01*
X172936546Y-113239675D01*
X172901916Y-113133095D01*
X172901915Y-113133092D01*
X172899467Y-113125559D01*
X172814786Y-112992123D01*
X172699582Y-112883938D01*
X172561092Y-112807803D01*
X172408019Y-112768500D01*
X172289650Y-112768500D01*
X172285725Y-112768996D01*
X172285722Y-112768996D01*
X172180067Y-112782343D01*
X172180065Y-112782343D01*
X172172208Y-112783336D01*
X172164840Y-112786253D01*
X172164841Y-112786253D01*
X172032637Y-112838596D01*
X172032634Y-112838597D01*
X172025268Y-112841514D01*
X171897413Y-112934406D01*
X171892360Y-112940514D01*
X171801729Y-113050068D01*
X171801726Y-113050072D01*
X171796676Y-113056177D01*
X171729386Y-113199174D01*
X171699773Y-113354412D01*
X171709696Y-113512138D01*
X171715326Y-113529464D01*
X171732085Y-113581042D01*
X171758533Y-113662441D01*
X171843214Y-113795877D01*
X171848993Y-113801304D01*
X171848994Y-113801305D01*
X171864270Y-113815650D01*
X171900236Y-113876863D01*
X171897397Y-113947803D01*
X171856657Y-114005947D01*
X171790949Y-114032835D01*
X171778017Y-114033500D01*
X171384407Y-114033500D01*
X171292414Y-114043819D01*
X171259755Y-114047482D01*
X171259754Y-114047482D01*
X171252758Y-114048267D01*
X171246112Y-114050581D01*
X171246109Y-114050582D01*
X171091922Y-114104275D01*
X171091920Y-114104276D01*
X171085275Y-114106590D01*
X171079305Y-114110321D01*
X171079304Y-114110321D01*
X171014718Y-114150679D01*
X170934876Y-114200570D01*
X170809035Y-114325535D01*
X170774404Y-114380106D01*
X170717779Y-114469332D01*
X170717777Y-114469335D01*
X170714008Y-114475275D01*
X170711646Y-114481907D01*
X170711646Y-114481908D01*
X170684781Y-114557354D01*
X170654516Y-114642346D01*
X170653683Y-114649334D01*
X170653682Y-114649337D01*
X170643191Y-114737317D01*
X170633517Y-114818446D01*
X120728943Y-114818446D01*
X120633439Y-114743022D01*
X120624852Y-114737317D01*
X120438417Y-114634399D01*
X120429005Y-114630169D01*
X120223384Y-114557354D01*
X120223954Y-114555745D01*
X120169654Y-114522909D01*
X120138409Y-114459158D01*
X120146590Y-114388634D01*
X120191600Y-114333729D01*
X120228702Y-114316470D01*
X120253391Y-114309577D01*
X120435526Y-114217574D01*
X120441939Y-114212564D01*
X120591465Y-114095741D01*
X120596321Y-114091947D01*
X120631836Y-114050803D01*
X120725625Y-113942148D01*
X120725626Y-113942146D01*
X120729654Y-113937480D01*
X120830444Y-113760057D01*
X120894853Y-113566437D01*
X120920427Y-113363993D01*
X120920835Y-113334800D01*
X120900923Y-113131721D01*
X120841945Y-112936378D01*
X120746148Y-112756210D01*
X120742250Y-112751431D01*
X120742247Y-112751426D01*
X120674250Y-112668054D01*
X120617181Y-112598080D01*
X120558775Y-112549762D01*
X120464705Y-112471940D01*
X120464700Y-112471937D01*
X120459956Y-112468012D01*
X120454537Y-112465082D01*
X120454534Y-112465080D01*
X120285881Y-112373890D01*
X120285876Y-112373888D01*
X120280461Y-112370960D01*
X120256862Y-112363655D01*
X120091421Y-112312442D01*
X120091418Y-112312441D01*
X120085534Y-112310620D01*
X120079409Y-112309976D01*
X120079408Y-112309976D01*
X119888727Y-112289934D01*
X119888726Y-112289934D01*
X119882599Y-112289290D01*
X119754767Y-112300924D01*
X119685527Y-112307225D01*
X119685526Y-112307225D01*
X119679386Y-112307784D01*
X119673472Y-112309525D01*
X119673470Y-112309525D01*
X119541462Y-112348378D01*
X119483636Y-112365397D01*
X119302803Y-112459934D01*
X119298003Y-112463794D01*
X119298002Y-112463794D01*
X119260746Y-112493749D01*
X119143777Y-112587794D01*
X119012615Y-112744107D01*
X119009651Y-112749499D01*
X119009648Y-112749503D01*
X118989445Y-112786253D01*
X118914312Y-112922920D01*
X118912451Y-112928787D01*
X118912450Y-112928789D01*
X118911769Y-112930936D01*
X118852612Y-113117421D01*
X118829867Y-113320202D01*
X118831093Y-113334800D01*
X118845985Y-113512138D01*
X118846942Y-113523539D01*
X118848641Y-113529464D01*
X118865663Y-113588826D01*
X118903186Y-113719687D01*
X118996458Y-113901175D01*
X119123205Y-114061090D01*
X119278599Y-114193340D01*
X119283977Y-114196346D01*
X119283979Y-114196347D01*
X119326931Y-114220352D01*
X119456721Y-114292889D01*
X119533871Y-114317957D01*
X119592476Y-114358029D01*
X119620113Y-114423426D01*
X119608006Y-114493383D01*
X119560000Y-114545689D01*
X119534079Y-114557554D01*
X119352168Y-114617012D01*
X119342659Y-114621009D01*
X119153763Y-114719342D01*
X119145038Y-114724836D01*
X118974733Y-114852705D01*
X118967026Y-114859548D01*
X118819890Y-115013517D01*
X118813404Y-115021527D01*
X118708493Y-115175321D01*
X118653582Y-115220324D01*
X118583057Y-115228495D01*
X118519310Y-115197241D01*
X118498613Y-115172757D01*
X118417727Y-115047726D01*
X118411436Y-115039557D01*
X118268106Y-114882040D01*
X118260573Y-114875015D01*
X118093439Y-114743022D01*
X118084852Y-114737317D01*
X117898417Y-114634399D01*
X117889005Y-114630169D01*
X117683384Y-114557354D01*
X117683954Y-114555745D01*
X117629654Y-114522909D01*
X117598409Y-114459158D01*
X117606590Y-114388634D01*
X117651600Y-114333729D01*
X117688702Y-114316470D01*
X117713391Y-114309577D01*
X117895526Y-114217574D01*
X117901939Y-114212564D01*
X118051465Y-114095741D01*
X118056321Y-114091947D01*
X118091836Y-114050803D01*
X118185625Y-113942148D01*
X118185626Y-113942146D01*
X118189654Y-113937480D01*
X118290444Y-113760057D01*
X118354853Y-113566437D01*
X118380427Y-113363993D01*
X118380835Y-113334800D01*
X118360923Y-113131721D01*
X118301945Y-112936378D01*
X118206148Y-112756210D01*
X118202250Y-112751431D01*
X118202247Y-112751426D01*
X118134250Y-112668054D01*
X118077181Y-112598080D01*
X118018775Y-112549762D01*
X117924705Y-112471940D01*
X117924700Y-112471937D01*
X117919956Y-112468012D01*
X117914537Y-112465082D01*
X117914534Y-112465080D01*
X117745881Y-112373890D01*
X117745876Y-112373888D01*
X117740461Y-112370960D01*
X117716862Y-112363655D01*
X117551421Y-112312442D01*
X117551418Y-112312441D01*
X117545534Y-112310620D01*
X117539409Y-112309976D01*
X117539408Y-112309976D01*
X117348727Y-112289934D01*
X117348726Y-112289934D01*
X117342599Y-112289290D01*
X117214767Y-112300924D01*
X117145527Y-112307225D01*
X117145526Y-112307225D01*
X117139386Y-112307784D01*
X117133472Y-112309525D01*
X117133470Y-112309525D01*
X117001462Y-112348378D01*
X116943636Y-112365397D01*
X116762803Y-112459934D01*
X116758003Y-112463794D01*
X116758002Y-112463794D01*
X116720746Y-112493749D01*
X116603777Y-112587794D01*
X116472615Y-112744107D01*
X116469651Y-112749499D01*
X116469648Y-112749503D01*
X116449445Y-112786253D01*
X116374312Y-112922920D01*
X116372451Y-112928787D01*
X116372450Y-112928789D01*
X116371769Y-112930936D01*
X116312612Y-113117421D01*
X116289867Y-113320202D01*
X116291093Y-113334800D01*
X116305985Y-113512138D01*
X116306942Y-113523539D01*
X116308641Y-113529464D01*
X116325663Y-113588826D01*
X116363186Y-113719687D01*
X116456458Y-113901175D01*
X116583205Y-114061090D01*
X116738599Y-114193340D01*
X116743977Y-114196346D01*
X116743979Y-114196347D01*
X116786931Y-114220352D01*
X116916721Y-114292889D01*
X116993871Y-114317957D01*
X117052476Y-114358029D01*
X117080113Y-114423426D01*
X117068006Y-114493383D01*
X117020000Y-114545689D01*
X116994079Y-114557554D01*
X116812168Y-114617012D01*
X116802659Y-114621009D01*
X116613763Y-114719342D01*
X116605038Y-114724836D01*
X116434733Y-114852705D01*
X116427026Y-114859548D01*
X116279890Y-115013517D01*
X116273404Y-115021527D01*
X116153398Y-115197449D01*
X116148300Y-115206423D01*
X116058638Y-115399583D01*
X116055075Y-115409270D01*
X115999689Y-115608983D01*
X114479321Y-115608983D01*
X114489312Y-110780202D01*
X116289867Y-110780202D01*
X116306942Y-110983539D01*
X116363186Y-111179687D01*
X116456458Y-111361175D01*
X116583205Y-111521090D01*
X116738599Y-111653340D01*
X116743977Y-111656346D01*
X116743979Y-111656347D01*
X116786931Y-111680352D01*
X116916721Y-111752889D01*
X117110787Y-111815945D01*
X117313404Y-111840106D01*
X117319539Y-111839634D01*
X117319541Y-111839634D01*
X117510713Y-111824924D01*
X117510717Y-111824923D01*
X117516855Y-111824451D01*
X117713391Y-111769577D01*
X117895526Y-111677574D01*
X117922696Y-111656347D01*
X118051465Y-111555741D01*
X118056321Y-111551947D01*
X118189654Y-111397480D01*
X118290444Y-111220057D01*
X118354853Y-111026437D01*
X118380427Y-110823993D01*
X118380835Y-110794800D01*
X118379404Y-110780202D01*
X118829867Y-110780202D01*
X118846942Y-110983539D01*
X118903186Y-111179687D01*
X118996458Y-111361175D01*
X119123205Y-111521090D01*
X119278599Y-111653340D01*
X119283977Y-111656346D01*
X119283979Y-111656347D01*
X119326931Y-111680352D01*
X119456721Y-111752889D01*
X119650787Y-111815945D01*
X119853404Y-111840106D01*
X119859539Y-111839634D01*
X119859541Y-111839634D01*
X120050713Y-111824924D01*
X120050717Y-111824923D01*
X120056855Y-111824451D01*
X120253391Y-111769577D01*
X120435526Y-111677574D01*
X120462696Y-111656347D01*
X120591465Y-111555741D01*
X120596321Y-111551947D01*
X120729654Y-111397480D01*
X120830444Y-111220057D01*
X120894853Y-111026437D01*
X120920427Y-110823993D01*
X120920835Y-110794800D01*
X120900923Y-110591721D01*
X120841945Y-110396378D01*
X120746148Y-110216210D01*
X120742250Y-110211431D01*
X120742247Y-110211426D01*
X120674250Y-110128054D01*
X120617181Y-110058080D01*
X120558775Y-110009762D01*
X120464705Y-109931940D01*
X120464700Y-109931937D01*
X120459956Y-109928012D01*
X120454537Y-109925082D01*
X120454534Y-109925080D01*
X120285881Y-109833890D01*
X120285876Y-109833888D01*
X120280461Y-109830960D01*
X120256862Y-109823655D01*
X120091421Y-109772442D01*
X120091418Y-109772441D01*
X120085534Y-109770620D01*
X120079409Y-109769976D01*
X120079408Y-109769976D01*
X119888727Y-109749934D01*
X119888726Y-109749934D01*
X119882599Y-109749290D01*
X119754767Y-109760924D01*
X119685527Y-109767225D01*
X119685526Y-109767225D01*
X119679386Y-109767784D01*
X119673472Y-109769525D01*
X119673470Y-109769525D01*
X119541462Y-109808378D01*
X119483636Y-109825397D01*
X119302803Y-109919934D01*
X119298003Y-109923794D01*
X119298002Y-109923794D01*
X119260745Y-109953749D01*
X119143777Y-110047794D01*
X119012615Y-110204107D01*
X119009651Y-110209499D01*
X119009648Y-110209503D01*
X118929615Y-110355083D01*
X118914312Y-110382920D01*
X118852612Y-110577421D01*
X118829867Y-110780202D01*
X118379404Y-110780202D01*
X118360923Y-110591721D01*
X118301945Y-110396378D01*
X118206148Y-110216210D01*
X118202250Y-110211431D01*
X118202247Y-110211426D01*
X118134250Y-110128054D01*
X118077181Y-110058080D01*
X118018775Y-110009762D01*
X117924705Y-109931940D01*
X117924700Y-109931937D01*
X117919956Y-109928012D01*
X117914537Y-109925082D01*
X117914534Y-109925080D01*
X117745881Y-109833890D01*
X117745876Y-109833888D01*
X117740461Y-109830960D01*
X117716862Y-109823655D01*
X117551421Y-109772442D01*
X117551418Y-109772441D01*
X117545534Y-109770620D01*
X117539409Y-109769976D01*
X117539408Y-109769976D01*
X117348727Y-109749934D01*
X117348726Y-109749934D01*
X117342599Y-109749290D01*
X117214767Y-109760924D01*
X117145527Y-109767225D01*
X117145526Y-109767225D01*
X117139386Y-109767784D01*
X117133472Y-109769525D01*
X117133470Y-109769525D01*
X117001462Y-109808378D01*
X116943636Y-109825397D01*
X116762803Y-109919934D01*
X116758003Y-109923794D01*
X116758002Y-109923794D01*
X116720745Y-109953749D01*
X116603777Y-110047794D01*
X116472615Y-110204107D01*
X116469651Y-110209499D01*
X116469648Y-110209503D01*
X116389615Y-110355083D01*
X116374312Y-110382920D01*
X116312612Y-110577421D01*
X116289867Y-110780202D01*
X114489312Y-110780202D01*
X114494568Y-108240202D01*
X116289867Y-108240202D01*
X116306942Y-108443539D01*
X116363186Y-108639687D01*
X116456458Y-108821175D01*
X116583205Y-108981090D01*
X116738599Y-109113340D01*
X116743977Y-109116346D01*
X116743979Y-109116347D01*
X116786931Y-109140352D01*
X116916721Y-109212889D01*
X117110787Y-109275945D01*
X117313404Y-109300106D01*
X117319539Y-109299634D01*
X117319541Y-109299634D01*
X117510713Y-109284924D01*
X117510717Y-109284923D01*
X117516855Y-109284451D01*
X117713391Y-109229577D01*
X117895526Y-109137574D01*
X117922696Y-109116347D01*
X118051465Y-109015741D01*
X118056321Y-109011947D01*
X118189654Y-108857480D01*
X118290444Y-108680057D01*
X118354853Y-108486437D01*
X118380427Y-108283993D01*
X118380835Y-108254800D01*
X118379404Y-108240202D01*
X118829867Y-108240202D01*
X118846942Y-108443539D01*
X118903186Y-108639687D01*
X118996458Y-108821175D01*
X119123205Y-108981090D01*
X119278599Y-109113340D01*
X119283977Y-109116346D01*
X119283979Y-109116347D01*
X119326931Y-109140352D01*
X119456721Y-109212889D01*
X119650787Y-109275945D01*
X119853404Y-109300106D01*
X119859539Y-109299634D01*
X119859541Y-109299634D01*
X120050713Y-109284924D01*
X120050717Y-109284923D01*
X120056855Y-109284451D01*
X120253391Y-109229577D01*
X120435526Y-109137574D01*
X120462696Y-109116347D01*
X120591465Y-109015741D01*
X120596321Y-109011947D01*
X120729654Y-108857480D01*
X120830444Y-108680057D01*
X120894853Y-108486437D01*
X120920427Y-108283993D01*
X120920835Y-108254800D01*
X120900923Y-108051721D01*
X120841945Y-107856378D01*
X120746148Y-107676210D01*
X120742250Y-107671431D01*
X120742247Y-107671426D01*
X120674250Y-107588054D01*
X120617181Y-107518080D01*
X120473449Y-107399174D01*
X120464705Y-107391940D01*
X120464700Y-107391937D01*
X120459956Y-107388012D01*
X120454537Y-107385082D01*
X120454534Y-107385080D01*
X120285881Y-107293890D01*
X120285876Y-107293888D01*
X120280461Y-107290960D01*
X120191268Y-107263350D01*
X120091421Y-107232442D01*
X120091418Y-107232441D01*
X120085534Y-107230620D01*
X120079409Y-107229976D01*
X120079408Y-107229976D01*
X119888727Y-107209934D01*
X119888726Y-107209934D01*
X119882599Y-107209290D01*
X119754767Y-107220924D01*
X119685527Y-107227225D01*
X119685526Y-107227225D01*
X119679386Y-107227784D01*
X119673472Y-107229525D01*
X119673470Y-107229525D01*
X119603672Y-107250068D01*
X119483636Y-107285397D01*
X119302803Y-107379934D01*
X119298003Y-107383794D01*
X119298002Y-107383794D01*
X119287790Y-107392005D01*
X119143777Y-107507794D01*
X119012615Y-107664107D01*
X119009651Y-107669499D01*
X119009648Y-107669503D01*
X118944050Y-107788826D01*
X118914312Y-107842920D01*
X118912451Y-107848787D01*
X118912450Y-107848789D01*
X118888385Y-107924650D01*
X118852612Y-108037421D01*
X118829867Y-108240202D01*
X118379404Y-108240202D01*
X118360923Y-108051721D01*
X118301945Y-107856378D01*
X118206148Y-107676210D01*
X118202250Y-107671431D01*
X118202247Y-107671426D01*
X118134250Y-107588054D01*
X118077181Y-107518080D01*
X117933449Y-107399174D01*
X117924705Y-107391940D01*
X117924700Y-107391937D01*
X117919956Y-107388012D01*
X117914537Y-107385082D01*
X117914534Y-107385080D01*
X117745881Y-107293890D01*
X117745876Y-107293888D01*
X117740461Y-107290960D01*
X117651268Y-107263350D01*
X117551421Y-107232442D01*
X117551418Y-107232441D01*
X117545534Y-107230620D01*
X117539409Y-107229976D01*
X117539408Y-107229976D01*
X117348727Y-107209934D01*
X117348726Y-107209934D01*
X117342599Y-107209290D01*
X117214767Y-107220924D01*
X117145527Y-107227225D01*
X117145526Y-107227225D01*
X117139386Y-107227784D01*
X117133472Y-107229525D01*
X117133470Y-107229525D01*
X117063672Y-107250068D01*
X116943636Y-107285397D01*
X116762803Y-107379934D01*
X116758003Y-107383794D01*
X116758002Y-107383794D01*
X116747790Y-107392005D01*
X116603777Y-107507794D01*
X116472615Y-107664107D01*
X116469651Y-107669499D01*
X116469648Y-107669503D01*
X116404050Y-107788826D01*
X116374312Y-107842920D01*
X116372451Y-107848787D01*
X116372450Y-107848789D01*
X116348385Y-107924650D01*
X116312612Y-108037421D01*
X116289867Y-108240202D01*
X114494568Y-108240202D01*
X114499823Y-105700202D01*
X116289867Y-105700202D01*
X116291093Y-105714800D01*
X116303294Y-105860092D01*
X116306942Y-105903539D01*
X116308641Y-105909464D01*
X116334653Y-106000178D01*
X116363186Y-106099687D01*
X116456458Y-106281175D01*
X116583205Y-106441090D01*
X116738599Y-106573340D01*
X116743977Y-106576346D01*
X116743979Y-106576347D01*
X116786931Y-106600352D01*
X116916721Y-106672889D01*
X117110787Y-106735945D01*
X117313404Y-106760106D01*
X117319539Y-106759634D01*
X117319541Y-106759634D01*
X117510713Y-106744924D01*
X117510717Y-106744923D01*
X117516855Y-106744451D01*
X117713391Y-106689577D01*
X117895526Y-106597574D01*
X117913461Y-106583562D01*
X118834800Y-106583562D01*
X118845853Y-106639129D01*
X118887957Y-106702143D01*
X118950971Y-106744247D01*
X118963140Y-106746668D01*
X118963141Y-106746668D01*
X119000470Y-106754093D01*
X119006538Y-106755300D01*
X120744062Y-106755300D01*
X120750130Y-106754093D01*
X120787459Y-106746668D01*
X120787460Y-106746668D01*
X120799629Y-106744247D01*
X120862643Y-106702143D01*
X120904747Y-106639129D01*
X120915800Y-106583562D01*
X120915800Y-106158446D01*
X170633517Y-106158446D01*
X170634253Y-106165449D01*
X170634253Y-106165450D01*
X170635420Y-106176547D01*
X170652055Y-106334822D01*
X170654324Y-106341486D01*
X170700028Y-106475741D01*
X170709208Y-106502708D01*
X170712898Y-106508706D01*
X170712899Y-106508708D01*
X170750204Y-106569346D01*
X170802136Y-106653760D01*
X170807063Y-106658791D01*
X170807065Y-106658794D01*
X170849516Y-106702143D01*
X170926219Y-106780470D01*
X171075292Y-106876540D01*
X171081912Y-106878950D01*
X171081913Y-106878950D01*
X171235327Y-106934789D01*
X171235330Y-106934790D01*
X171241944Y-106937197D01*
X171298356Y-106944323D01*
X171374987Y-106954004D01*
X171374990Y-106954004D01*
X171378915Y-106954500D01*
X171778481Y-106954500D01*
X171846602Y-106974502D01*
X171893095Y-107028158D01*
X171903199Y-107098432D01*
X171875566Y-107160815D01*
X171801729Y-107250068D01*
X171801726Y-107250072D01*
X171796676Y-107256177D01*
X171729386Y-107399174D01*
X171727901Y-107406957D01*
X171727901Y-107406958D01*
X171706704Y-107518080D01*
X171699773Y-107554412D01*
X171709696Y-107712138D01*
X171712147Y-107719681D01*
X171754795Y-107850936D01*
X171758533Y-107862441D01*
X171843214Y-107995877D01*
X171848993Y-108001304D01*
X171848994Y-108001305D01*
X171887453Y-108037421D01*
X171958418Y-108104062D01*
X172096908Y-108180197D01*
X172249981Y-108219500D01*
X172368350Y-108219500D01*
X172372275Y-108219004D01*
X172372278Y-108219004D01*
X172477933Y-108205657D01*
X172477935Y-108205657D01*
X172485792Y-108204664D01*
X172557234Y-108176378D01*
X172625363Y-108149404D01*
X172625366Y-108149403D01*
X172632732Y-108146486D01*
X172760587Y-108053594D01*
X172803844Y-108001305D01*
X172856271Y-107937932D01*
X172856274Y-107937928D01*
X172861324Y-107931823D01*
X172928614Y-107788826D01*
X172949057Y-107681661D01*
X172956742Y-107641374D01*
X172956742Y-107641372D01*
X172958227Y-107633588D01*
X172948304Y-107475862D01*
X172936546Y-107439675D01*
X172901916Y-107333095D01*
X172901915Y-107333092D01*
X172899467Y-107325559D01*
X172814786Y-107192123D01*
X172699582Y-107083938D01*
X172647875Y-107055512D01*
X172597817Y-107005167D01*
X172582923Y-106935750D01*
X172607924Y-106869300D01*
X172641806Y-106838243D01*
X172717150Y-106791163D01*
X172723124Y-106787430D01*
X172848965Y-106662465D01*
X172908060Y-106569346D01*
X172940221Y-106518668D01*
X172940223Y-106518665D01*
X172943992Y-106512725D01*
X172968078Y-106445085D01*
X173001122Y-106352288D01*
X173001123Y-106352286D01*
X173003484Y-106345654D01*
X173005611Y-106327822D01*
X173023649Y-106176547D01*
X173024483Y-106169554D01*
X173023747Y-106162550D01*
X173023316Y-106158446D01*
X174933517Y-106158446D01*
X174934253Y-106165449D01*
X174934253Y-106165450D01*
X174935420Y-106176547D01*
X174952055Y-106334822D01*
X174954324Y-106341486D01*
X175000028Y-106475741D01*
X175009208Y-106502708D01*
X175012898Y-106508706D01*
X175012899Y-106508708D01*
X175050204Y-106569346D01*
X175102136Y-106653760D01*
X175107063Y-106658791D01*
X175107065Y-106658794D01*
X175149516Y-106702143D01*
X175226219Y-106780470D01*
X175375292Y-106876540D01*
X175381912Y-106878950D01*
X175381913Y-106878950D01*
X175535327Y-106934789D01*
X175535330Y-106934790D01*
X175541944Y-106937197D01*
X175598356Y-106944323D01*
X175674987Y-106954004D01*
X175674990Y-106954004D01*
X175678915Y-106954500D01*
X176373593Y-106954500D01*
X176465586Y-106944181D01*
X176498245Y-106940518D01*
X176498246Y-106940518D01*
X176505242Y-106939733D01*
X176511888Y-106937419D01*
X176511891Y-106937418D01*
X176666078Y-106883725D01*
X176666080Y-106883724D01*
X176672725Y-106881410D01*
X176686626Y-106872724D01*
X176817150Y-106791163D01*
X176823124Y-106787430D01*
X176948965Y-106662465D01*
X177008060Y-106569346D01*
X177040221Y-106518668D01*
X177040223Y-106518665D01*
X177043992Y-106512725D01*
X177068078Y-106445085D01*
X177101122Y-106352288D01*
X177101123Y-106352286D01*
X177103484Y-106345654D01*
X177105611Y-106327822D01*
X177123649Y-106176547D01*
X177124483Y-106169554D01*
X177123747Y-106162550D01*
X177106681Y-106000178D01*
X177106680Y-106000176D01*
X177105945Y-105993178D01*
X177048792Y-105825292D01*
X177042630Y-105815275D01*
X176967873Y-105693761D01*
X176955864Y-105674240D01*
X176950937Y-105669209D01*
X176950935Y-105669206D01*
X176852552Y-105568741D01*
X176831781Y-105547530D01*
X176682708Y-105451460D01*
X176662968Y-105444275D01*
X176522673Y-105393211D01*
X176522670Y-105393210D01*
X176516056Y-105390803D01*
X176459644Y-105383677D01*
X176383013Y-105373996D01*
X176383010Y-105373996D01*
X176379085Y-105373500D01*
X175684407Y-105373500D01*
X175592414Y-105383819D01*
X175559755Y-105387482D01*
X175559754Y-105387482D01*
X175552758Y-105388267D01*
X175546112Y-105390581D01*
X175546109Y-105390582D01*
X175391922Y-105444275D01*
X175391920Y-105444276D01*
X175385275Y-105446590D01*
X175379305Y-105450321D01*
X175379304Y-105450321D01*
X175313321Y-105491552D01*
X175234876Y-105540570D01*
X175229878Y-105545533D01*
X175229877Y-105545534D01*
X175172940Y-105602075D01*
X175109035Y-105665535D01*
X175079996Y-105711294D01*
X175017779Y-105809332D01*
X175017777Y-105809335D01*
X175014008Y-105815275D01*
X175011646Y-105821907D01*
X175011646Y-105821908D01*
X174984076Y-105899334D01*
X174954516Y-105982346D01*
X174953683Y-105989334D01*
X174953682Y-105989337D01*
X174941230Y-106093763D01*
X174933517Y-106158446D01*
X173023316Y-106158446D01*
X173006681Y-106000178D01*
X173006680Y-106000176D01*
X173005945Y-105993178D01*
X172948792Y-105825292D01*
X172942630Y-105815275D01*
X172867873Y-105693761D01*
X172855864Y-105674240D01*
X172850937Y-105669209D01*
X172850935Y-105669206D01*
X172752552Y-105568741D01*
X172731781Y-105547530D01*
X172582708Y-105451460D01*
X172562968Y-105444275D01*
X172422673Y-105393211D01*
X172422670Y-105393210D01*
X172416056Y-105390803D01*
X172359644Y-105383677D01*
X172283013Y-105373996D01*
X172283010Y-105373996D01*
X172279085Y-105373500D01*
X171384407Y-105373500D01*
X171292414Y-105383819D01*
X171259755Y-105387482D01*
X171259754Y-105387482D01*
X171252758Y-105388267D01*
X171246112Y-105390581D01*
X171246109Y-105390582D01*
X171091922Y-105444275D01*
X171091920Y-105444276D01*
X171085275Y-105446590D01*
X171079305Y-105450321D01*
X171079304Y-105450321D01*
X171013321Y-105491552D01*
X170934876Y-105540570D01*
X170929878Y-105545533D01*
X170929877Y-105545534D01*
X170872940Y-105602075D01*
X170809035Y-105665535D01*
X170779996Y-105711294D01*
X170717779Y-105809332D01*
X170717777Y-105809335D01*
X170714008Y-105815275D01*
X170711646Y-105821907D01*
X170711646Y-105821908D01*
X170684076Y-105899334D01*
X170654516Y-105982346D01*
X170653683Y-105989334D01*
X170653682Y-105989337D01*
X170641230Y-106093763D01*
X170633517Y-106158446D01*
X120915800Y-106158446D01*
X120915800Y-105403946D01*
X136042193Y-105403946D01*
X136043357Y-105412848D01*
X136043357Y-105412851D01*
X136056286Y-105511721D01*
X136060411Y-105543262D01*
X136116997Y-105671864D01*
X136122774Y-105678737D01*
X136122775Y-105678738D01*
X136156049Y-105718322D01*
X136207404Y-105779416D01*
X136324363Y-105857271D01*
X136458472Y-105899169D01*
X136467442Y-105899333D01*
X136467446Y-105899334D01*
X136532244Y-105900521D01*
X136598950Y-105901744D01*
X136656324Y-105886102D01*
X136725845Y-105867149D01*
X136725847Y-105867148D01*
X136734504Y-105864788D01*
X136854238Y-105791271D01*
X136948525Y-105687105D01*
X137009786Y-105560662D01*
X137033096Y-105422107D01*
X137033244Y-105410000D01*
X137013326Y-105270917D01*
X136955172Y-105143015D01*
X136863458Y-105036576D01*
X136855927Y-105031695D01*
X136855924Y-105031692D01*
X136753088Y-104965037D01*
X136753086Y-104965036D01*
X136745557Y-104960156D01*
X136736960Y-104957585D01*
X136736958Y-104957584D01*
X136656916Y-104933647D01*
X136610946Y-104919899D01*
X136601970Y-104919844D01*
X136601969Y-104919844D01*
X136542715Y-104919482D01*
X136470447Y-104919041D01*
X136335354Y-104957651D01*
X136216528Y-105032624D01*
X136123521Y-105137935D01*
X136063809Y-105265117D01*
X136062429Y-105273981D01*
X136062428Y-105273984D01*
X136044274Y-105390582D01*
X136042193Y-105403946D01*
X120915800Y-105403946D01*
X120915800Y-104846038D01*
X120904747Y-104790471D01*
X120862643Y-104727457D01*
X120799629Y-104685353D01*
X120787460Y-104682932D01*
X120787459Y-104682932D01*
X120750130Y-104675507D01*
X120744062Y-104674300D01*
X119006538Y-104674300D01*
X119000470Y-104675507D01*
X118963141Y-104682932D01*
X118963140Y-104682932D01*
X118950971Y-104685353D01*
X118887957Y-104727457D01*
X118845853Y-104790471D01*
X118834800Y-104846038D01*
X118834800Y-106583562D01*
X117913461Y-106583562D01*
X117922696Y-106576347D01*
X118051465Y-106475741D01*
X118056321Y-106471947D01*
X118087126Y-106436259D01*
X118185625Y-106322148D01*
X118185626Y-106322146D01*
X118189654Y-106317480D01*
X118290444Y-106140057D01*
X118354853Y-105946437D01*
X118380427Y-105743993D01*
X118380835Y-105714800D01*
X118360923Y-105511721D01*
X118301945Y-105316378D01*
X118206148Y-105136210D01*
X118202250Y-105131431D01*
X118202247Y-105131426D01*
X118117759Y-105027834D01*
X118077181Y-104978080D01*
X118005815Y-104919041D01*
X117924705Y-104851940D01*
X117924700Y-104851937D01*
X117919956Y-104848012D01*
X117914537Y-104845082D01*
X117914534Y-104845080D01*
X117745881Y-104753890D01*
X117745876Y-104753888D01*
X117740461Y-104750960D01*
X117716862Y-104743655D01*
X117551421Y-104692442D01*
X117551418Y-104692441D01*
X117545534Y-104690620D01*
X117539409Y-104689976D01*
X117539408Y-104689976D01*
X117348727Y-104669934D01*
X117348726Y-104669934D01*
X117342599Y-104669290D01*
X117214767Y-104680924D01*
X117145527Y-104687225D01*
X117145526Y-104687225D01*
X117139386Y-104687784D01*
X117133472Y-104689525D01*
X117133470Y-104689525D01*
X117028007Y-104720565D01*
X116943636Y-104745397D01*
X116762803Y-104839934D01*
X116758003Y-104843794D01*
X116758002Y-104843794D01*
X116747516Y-104852225D01*
X116603777Y-104967794D01*
X116472615Y-105124107D01*
X116469651Y-105129499D01*
X116469648Y-105129503D01*
X116399560Y-105256994D01*
X116374312Y-105302920D01*
X116312612Y-105497421D01*
X116289867Y-105700202D01*
X114499823Y-105700202D01*
X114506427Y-102508346D01*
X115772993Y-102508346D01*
X115774157Y-102517248D01*
X115774157Y-102517251D01*
X115790047Y-102638763D01*
X115791211Y-102647662D01*
X115847797Y-102776264D01*
X115853574Y-102783137D01*
X115853575Y-102783138D01*
X115881959Y-102816905D01*
X115938204Y-102883816D01*
X116055163Y-102961671D01*
X116189272Y-103003569D01*
X116198242Y-103003733D01*
X116198246Y-103003734D01*
X116263044Y-103004921D01*
X116329750Y-103006144D01*
X116389890Y-102989748D01*
X116456645Y-102971549D01*
X116456647Y-102971548D01*
X116465304Y-102969188D01*
X116585038Y-102895671D01*
X116679325Y-102791505D01*
X116740586Y-102665062D01*
X116762678Y-102533746D01*
X118084393Y-102533746D01*
X118085557Y-102542648D01*
X118085557Y-102542651D01*
X118100407Y-102656210D01*
X118102611Y-102673062D01*
X118159197Y-102801664D01*
X118164974Y-102808537D01*
X118164975Y-102808538D01*
X118172008Y-102816905D01*
X118249604Y-102909216D01*
X118366563Y-102987071D01*
X118500672Y-103028969D01*
X118509642Y-103029133D01*
X118509646Y-103029134D01*
X118574444Y-103030321D01*
X118641150Y-103031544D01*
X118734317Y-103006144D01*
X118768045Y-102996949D01*
X118768047Y-102996948D01*
X118776704Y-102994588D01*
X118896438Y-102921071D01*
X118990725Y-102816905D01*
X119051986Y-102690462D01*
X119075296Y-102551907D01*
X119075444Y-102539800D01*
X119055526Y-102400717D01*
X118997372Y-102272815D01*
X118905658Y-102166376D01*
X118898127Y-102161495D01*
X118898124Y-102161492D01*
X118795288Y-102094837D01*
X118795286Y-102094836D01*
X118787757Y-102089956D01*
X118779160Y-102087385D01*
X118779158Y-102087384D01*
X118699116Y-102063447D01*
X118653146Y-102049699D01*
X118644170Y-102049644D01*
X118644169Y-102049644D01*
X118584915Y-102049282D01*
X118512647Y-102048841D01*
X118377554Y-102087451D01*
X118258728Y-102162424D01*
X118252786Y-102169152D01*
X118252785Y-102169153D01*
X118212224Y-102215080D01*
X118165721Y-102267735D01*
X118106009Y-102394917D01*
X118104629Y-102403781D01*
X118104628Y-102403784D01*
X118086649Y-102519259D01*
X118084393Y-102533746D01*
X116762678Y-102533746D01*
X116763896Y-102526507D01*
X116764044Y-102514400D01*
X116744126Y-102375317D01*
X116711672Y-102303940D01*
X116689687Y-102255585D01*
X116689686Y-102255583D01*
X116685972Y-102247415D01*
X116594258Y-102140976D01*
X116586727Y-102136095D01*
X116586724Y-102136092D01*
X116483888Y-102069437D01*
X116483886Y-102069436D01*
X116476357Y-102064556D01*
X116467760Y-102061985D01*
X116467758Y-102061984D01*
X116387716Y-102038047D01*
X116341746Y-102024299D01*
X116332770Y-102024244D01*
X116332769Y-102024244D01*
X116273515Y-102023882D01*
X116201247Y-102023441D01*
X116066154Y-102062051D01*
X115947328Y-102137024D01*
X115941386Y-102143752D01*
X115941385Y-102143753D01*
X115921405Y-102166376D01*
X115854321Y-102242335D01*
X115794609Y-102369517D01*
X115793229Y-102378381D01*
X115793228Y-102378384D01*
X115789274Y-102403784D01*
X115772993Y-102508346D01*
X114506427Y-102508346D01*
X114508109Y-101695546D01*
X136042193Y-101695546D01*
X136043357Y-101704448D01*
X136043357Y-101704451D01*
X136045195Y-101718503D01*
X136060411Y-101834862D01*
X136116997Y-101963464D01*
X136122774Y-101970337D01*
X136122775Y-101970338D01*
X136129808Y-101978705D01*
X136207404Y-102071016D01*
X136324363Y-102148871D01*
X136458472Y-102190769D01*
X136467442Y-102190933D01*
X136467446Y-102190934D01*
X136532244Y-102192121D01*
X136598950Y-102193344D01*
X136672919Y-102173178D01*
X136725845Y-102158749D01*
X136725847Y-102158748D01*
X136734504Y-102156388D01*
X136854238Y-102082871D01*
X136948525Y-101978705D01*
X137009786Y-101852262D01*
X137033096Y-101713707D01*
X137033244Y-101701600D01*
X137013326Y-101562517D01*
X136955172Y-101434615D01*
X136863458Y-101328176D01*
X136855927Y-101323295D01*
X136855924Y-101323292D01*
X136753088Y-101256637D01*
X136753086Y-101256636D01*
X136745557Y-101251756D01*
X136736960Y-101249185D01*
X136736958Y-101249184D01*
X136656916Y-101225247D01*
X136610946Y-101211499D01*
X136601970Y-101211444D01*
X136601969Y-101211444D01*
X136542715Y-101211082D01*
X136470447Y-101210641D01*
X136335354Y-101249251D01*
X136216528Y-101324224D01*
X136123521Y-101429535D01*
X136063809Y-101556717D01*
X136062429Y-101565581D01*
X136062428Y-101565584D01*
X136061522Y-101571407D01*
X136042193Y-101695546D01*
X114508109Y-101695546D01*
X114514880Y-98423054D01*
X130968233Y-98423054D01*
X131004041Y-98631447D01*
X131077227Y-98829825D01*
X131185338Y-99011544D01*
X131324755Y-99170519D01*
X131490808Y-99301424D01*
X131495919Y-99304113D01*
X131495922Y-99304115D01*
X131526341Y-99320119D01*
X131677936Y-99399877D01*
X131879873Y-99462580D01*
X131885610Y-99463259D01*
X132047868Y-99482464D01*
X132047875Y-99482464D01*
X132051555Y-99482900D01*
X132173741Y-99482900D01*
X132330660Y-99468481D01*
X132336222Y-99466912D01*
X132336224Y-99466912D01*
X132392325Y-99451090D01*
X132534169Y-99411086D01*
X132539347Y-99408533D01*
X132539351Y-99408531D01*
X132718631Y-99320119D01*
X132723810Y-99317565D01*
X132893233Y-99191051D01*
X133036763Y-99035781D01*
X133049315Y-99015888D01*
X133146516Y-98861834D01*
X133146516Y-98861833D01*
X133149595Y-98856954D01*
X133227948Y-98660560D01*
X133229073Y-98654903D01*
X133229075Y-98654897D01*
X133268072Y-98458842D01*
X133268072Y-98458840D01*
X133269199Y-98453175D01*
X133269594Y-98423054D01*
X133271891Y-98247528D01*
X133271967Y-98241746D01*
X133253429Y-98133857D01*
X133237138Y-98039050D01*
X133237138Y-98039049D01*
X133236159Y-98033353D01*
X133162973Y-97834975D01*
X133133943Y-97786180D01*
X133122714Y-97767306D01*
X153739939Y-97767306D01*
X153748653Y-97778827D01*
X153855552Y-97857209D01*
X153863451Y-97862145D01*
X154093005Y-97982919D01*
X154101554Y-97986636D01*
X154346427Y-98072149D01*
X154355436Y-98074563D01*
X154610266Y-98122944D01*
X154619523Y-98123998D01*
X154878707Y-98134183D01*
X154888021Y-98133857D01*
X155145853Y-98105620D01*
X155155030Y-98103919D01*
X155405858Y-98037881D01*
X155414674Y-98034845D01*
X155652980Y-97932462D01*
X155661267Y-97928148D01*
X155881818Y-97791666D01*
X155889368Y-97786180D01*
X155894659Y-97781701D01*
X155903097Y-97768897D01*
X155897035Y-97758545D01*
X154832912Y-96694422D01*
X154818968Y-96686808D01*
X154817135Y-96686939D01*
X154810520Y-96691190D01*
X153746597Y-97755113D01*
X153739939Y-97767306D01*
X133122714Y-97767306D01*
X133057816Y-97658221D01*
X133057815Y-97658220D01*
X133054862Y-97653256D01*
X132915445Y-97494281D01*
X132749392Y-97363376D01*
X132744281Y-97360687D01*
X132744278Y-97360685D01*
X132614569Y-97292442D01*
X132562264Y-97264923D01*
X132360327Y-97202220D01*
X132345901Y-97200513D01*
X132192332Y-97182336D01*
X132192325Y-97182336D01*
X132188645Y-97181900D01*
X132066459Y-97181900D01*
X131909540Y-97196319D01*
X131903978Y-97197888D01*
X131903976Y-97197888D01*
X131847875Y-97213710D01*
X131706031Y-97253714D01*
X131700853Y-97256267D01*
X131700849Y-97256269D01*
X131611556Y-97300304D01*
X131516390Y-97347235D01*
X131346967Y-97473749D01*
X131203437Y-97629019D01*
X131200356Y-97633902D01*
X131188145Y-97653256D01*
X131090605Y-97807846D01*
X131012252Y-98004240D01*
X131011127Y-98009897D01*
X131011125Y-98009903D01*
X130986405Y-98134183D01*
X130971001Y-98211625D01*
X130970925Y-98217400D01*
X130970925Y-98217404D01*
X130970531Y-98247528D01*
X130968233Y-98423054D01*
X114514880Y-98423054D01*
X114525516Y-93282766D01*
X116003557Y-93282766D01*
X116033865Y-93417246D01*
X116036945Y-93427075D01*
X116117070Y-93624403D01*
X116121713Y-93633594D01*
X116232994Y-93815188D01*
X116239077Y-93823499D01*
X116378513Y-93984467D01*
X116385880Y-93991683D01*
X116549734Y-94127716D01*
X116558181Y-94133631D01*
X116742056Y-94241079D01*
X116751342Y-94245529D01*
X116950301Y-94321503D01*
X116960210Y-94324382D01*
X116977722Y-94327945D01*
X117040488Y-94361126D01*
X117075350Y-94422974D01*
X117071241Y-94493851D01*
X117029464Y-94551256D01*
X116988183Y-94572286D01*
X116943636Y-94585397D01*
X116762803Y-94679934D01*
X116758003Y-94683794D01*
X116758002Y-94683794D01*
X116743764Y-94695242D01*
X116603777Y-94807794D01*
X116472615Y-94964107D01*
X116469651Y-94969499D01*
X116469648Y-94969503D01*
X116434970Y-95032583D01*
X116374312Y-95142920D01*
X116312612Y-95337421D01*
X116289867Y-95540202D01*
X116306942Y-95743539D01*
X116363186Y-95939687D01*
X116456458Y-96121175D01*
X116583205Y-96281090D01*
X116738599Y-96413340D01*
X116743977Y-96416346D01*
X116743979Y-96416347D01*
X116786931Y-96440352D01*
X116916721Y-96512889D01*
X117110787Y-96575945D01*
X117313404Y-96600106D01*
X117319539Y-96599634D01*
X117319541Y-96599634D01*
X117510713Y-96584924D01*
X117510717Y-96584923D01*
X117516855Y-96584451D01*
X117713391Y-96529577D01*
X117895526Y-96437574D01*
X117917484Y-96420419D01*
X118051465Y-96315741D01*
X118056321Y-96311947D01*
X118189654Y-96157480D01*
X118290444Y-95980057D01*
X118354853Y-95786437D01*
X118380427Y-95583993D01*
X118380835Y-95554800D01*
X118360923Y-95351721D01*
X118301945Y-95156378D01*
X118206148Y-94976210D01*
X118202250Y-94971431D01*
X118202247Y-94971426D01*
X118113504Y-94862617D01*
X118077181Y-94818080D01*
X118003377Y-94757024D01*
X117924705Y-94691940D01*
X117924700Y-94691937D01*
X117919956Y-94688012D01*
X117914537Y-94685082D01*
X117914534Y-94685080D01*
X117745881Y-94593890D01*
X117745876Y-94593888D01*
X117740461Y-94590960D01*
X117676310Y-94571102D01*
X117617151Y-94531850D01*
X117588604Y-94466846D01*
X117599733Y-94396727D01*
X117647004Y-94343756D01*
X117677363Y-94330051D01*
X117827552Y-94284992D01*
X117837142Y-94281233D01*
X118028395Y-94187539D01*
X118037245Y-94182264D01*
X118210628Y-94058592D01*
X118218500Y-94051939D01*
X118369352Y-93901612D01*
X118376030Y-93893765D01*
X118503322Y-93716619D01*
X118504447Y-93717427D01*
X118551969Y-93673676D01*
X118621907Y-93661461D01*
X118687346Y-93688997D01*
X118715170Y-93720828D01*
X118772990Y-93815183D01*
X118779077Y-93823499D01*
X118918513Y-93984467D01*
X118925880Y-93991683D01*
X119089734Y-94127716D01*
X119098181Y-94133631D01*
X119282056Y-94241079D01*
X119291342Y-94245529D01*
X119490301Y-94321503D01*
X119500210Y-94324382D01*
X119517722Y-94327945D01*
X119580488Y-94361126D01*
X119615350Y-94422974D01*
X119611241Y-94493851D01*
X119569464Y-94551256D01*
X119528183Y-94572286D01*
X119483636Y-94585397D01*
X119302803Y-94679934D01*
X119298003Y-94683794D01*
X119298002Y-94683794D01*
X119283764Y-94695242D01*
X119143777Y-94807794D01*
X119012615Y-94964107D01*
X119009651Y-94969499D01*
X119009648Y-94969503D01*
X118974970Y-95032583D01*
X118914312Y-95142920D01*
X118852612Y-95337421D01*
X118829867Y-95540202D01*
X118846942Y-95743539D01*
X118903186Y-95939687D01*
X118996458Y-96121175D01*
X119123205Y-96281090D01*
X119278599Y-96413340D01*
X119283977Y-96416346D01*
X119283979Y-96416347D01*
X119326931Y-96440352D01*
X119456721Y-96512889D01*
X119650787Y-96575945D01*
X119853404Y-96600106D01*
X119859539Y-96599634D01*
X119859541Y-96599634D01*
X120050713Y-96584924D01*
X120050717Y-96584923D01*
X120056855Y-96584451D01*
X120253391Y-96529577D01*
X120435526Y-96437574D01*
X120457484Y-96420419D01*
X120591465Y-96315741D01*
X120596321Y-96311947D01*
X120624233Y-96279611D01*
X153007875Y-96279611D01*
X153020320Y-96538688D01*
X153021456Y-96547943D01*
X153072061Y-96802345D01*
X153074549Y-96811317D01*
X153162195Y-97055433D01*
X153165995Y-97063968D01*
X153288758Y-97292442D01*
X153293766Y-97300304D01*
X153363820Y-97394116D01*
X153375079Y-97402565D01*
X153387497Y-97395793D01*
X154448078Y-96335212D01*
X154454456Y-96323532D01*
X155184508Y-96323532D01*
X155184639Y-96325365D01*
X155188890Y-96331980D01*
X156256194Y-97399284D01*
X156268574Y-97406044D01*
X156276915Y-97399800D01*
X156410932Y-97191448D01*
X156415375Y-97183264D01*
X156521907Y-96946770D01*
X156525097Y-96938005D01*
X156595502Y-96688372D01*
X156597362Y-96679230D01*
X156630287Y-96420419D01*
X156630768Y-96414133D01*
X156633087Y-96325560D01*
X156632936Y-96319251D01*
X156613601Y-96059063D01*
X156612225Y-96049857D01*
X156554978Y-95796867D01*
X156552254Y-95787956D01*
X156458243Y-95546206D01*
X156454232Y-95537797D01*
X156325522Y-95312602D01*
X156320311Y-95304876D01*
X156277096Y-95250058D01*
X156265171Y-95241587D01*
X156253637Y-95248073D01*
X155192122Y-96309588D01*
X155184508Y-96323532D01*
X154454456Y-96323532D01*
X154455692Y-96321268D01*
X154455561Y-96319435D01*
X154451310Y-96312820D01*
X153385916Y-95247426D01*
X153372607Y-95240158D01*
X153362572Y-95247278D01*
X153347037Y-95265956D01*
X153341631Y-95273535D01*
X153207065Y-95495291D01*
X153202836Y-95503592D01*
X153102532Y-95742789D01*
X153099571Y-95751639D01*
X153035728Y-96003025D01*
X153034106Y-96012222D01*
X153008120Y-96270285D01*
X153007875Y-96279611D01*
X120624233Y-96279611D01*
X120729654Y-96157480D01*
X120830444Y-95980057D01*
X120894853Y-95786437D01*
X120920427Y-95583993D01*
X120920835Y-95554800D01*
X120900923Y-95351721D01*
X120841945Y-95156378D01*
X120746148Y-94976210D01*
X120742250Y-94971431D01*
X120742247Y-94971426D01*
X120653504Y-94862617D01*
X120617181Y-94818080D01*
X120543377Y-94757024D01*
X120464705Y-94691940D01*
X120464700Y-94691937D01*
X120459956Y-94688012D01*
X120454537Y-94685082D01*
X120454534Y-94685080D01*
X120285881Y-94593890D01*
X120285876Y-94593888D01*
X120280461Y-94590960D01*
X120216310Y-94571102D01*
X120157151Y-94531850D01*
X120128604Y-94466846D01*
X120139733Y-94396727D01*
X120187004Y-94343756D01*
X120217363Y-94330051D01*
X120367552Y-94284992D01*
X120377142Y-94281233D01*
X120568395Y-94187539D01*
X120577245Y-94182264D01*
X120644006Y-94134644D01*
X131265919Y-94134644D01*
X131266276Y-94141461D01*
X131266276Y-94141465D01*
X131271497Y-94241079D01*
X131275590Y-94319181D01*
X131277401Y-94325754D01*
X131277401Y-94325757D01*
X131303030Y-94418802D01*
X131324662Y-94497336D01*
X131410846Y-94660798D01*
X131530120Y-94801940D01*
X131535544Y-94806087D01*
X131535545Y-94806088D01*
X131671499Y-94910033D01*
X131671503Y-94910036D01*
X131676920Y-94914177D01*
X131683100Y-94917059D01*
X131683102Y-94917060D01*
X131838220Y-94989393D01*
X131838223Y-94989394D01*
X131844397Y-94992273D01*
X131851042Y-94993758D01*
X131851047Y-94993760D01*
X131959307Y-95017958D01*
X132024737Y-95032583D01*
X132030407Y-95032900D01*
X132166264Y-95032900D01*
X132303809Y-95017958D01*
X132478948Y-94959017D01*
X132637344Y-94863843D01*
X132642306Y-94859151D01*
X132766649Y-94741565D01*
X132766651Y-94741563D01*
X132771607Y-94736876D01*
X132875475Y-94584040D01*
X132880650Y-94571102D01*
X132916310Y-94481946D01*
X135991393Y-94481946D01*
X135992557Y-94490848D01*
X135992557Y-94490851D01*
X136008447Y-94612363D01*
X136009611Y-94621262D01*
X136066197Y-94749864D01*
X136071974Y-94756737D01*
X136071975Y-94756738D01*
X136150824Y-94850540D01*
X136156604Y-94857416D01*
X136273563Y-94935271D01*
X136282133Y-94937948D01*
X136282132Y-94937948D01*
X136389290Y-94971426D01*
X136407672Y-94977169D01*
X136416642Y-94977333D01*
X136416646Y-94977334D01*
X136481444Y-94978521D01*
X136548150Y-94979744D01*
X136622812Y-94959389D01*
X136675045Y-94945149D01*
X136675047Y-94945148D01*
X136683704Y-94942788D01*
X136793962Y-94875089D01*
X153737202Y-94875089D01*
X153741775Y-94884865D01*
X154807288Y-95950378D01*
X154821232Y-95957992D01*
X154823065Y-95957861D01*
X154829680Y-95953610D01*
X155894449Y-94888841D01*
X155900833Y-94877151D01*
X155891421Y-94865041D01*
X155744145Y-94762871D01*
X155736110Y-94758138D01*
X155503476Y-94643416D01*
X155494843Y-94639928D01*
X155247803Y-94560850D01*
X155238743Y-94558674D01*
X154982730Y-94516980D01*
X154973443Y-94516168D01*
X154714092Y-94512773D01*
X154704781Y-94513343D01*
X154447782Y-94548319D01*
X154438646Y-94550260D01*
X154189643Y-94622839D01*
X154180900Y-94626107D01*
X153945352Y-94734696D01*
X153937197Y-94739216D01*
X153746340Y-94864347D01*
X153737202Y-94875089D01*
X136793962Y-94875089D01*
X136803438Y-94869271D01*
X136815364Y-94856096D01*
X136854813Y-94812513D01*
X136897725Y-94765105D01*
X136958986Y-94638662D01*
X136981633Y-94504046D01*
X167698100Y-94504046D01*
X167699472Y-94510499D01*
X167699472Y-94510503D01*
X167709711Y-94558674D01*
X167737456Y-94689203D01*
X167814449Y-94862130D01*
X167818329Y-94867471D01*
X167818330Y-94867472D01*
X167886423Y-94961194D01*
X167925712Y-95015271D01*
X168066384Y-95141933D01*
X168230316Y-95236579D01*
X168410344Y-95295074D01*
X168416905Y-95295764D01*
X168416907Y-95295764D01*
X168470563Y-95301403D01*
X168551408Y-95309900D01*
X168645792Y-95309900D01*
X168726637Y-95301403D01*
X168780293Y-95295764D01*
X168780295Y-95295764D01*
X168786856Y-95295074D01*
X168966884Y-95236579D01*
X169130816Y-95141933D01*
X169271488Y-95015271D01*
X169310777Y-94961194D01*
X169378870Y-94867472D01*
X169378871Y-94867471D01*
X169382751Y-94862130D01*
X169459744Y-94689203D01*
X169487489Y-94558674D01*
X169497728Y-94510503D01*
X169497728Y-94510499D01*
X169499100Y-94504046D01*
X169499100Y-94314754D01*
X169482551Y-94236894D01*
X169479175Y-94221015D01*
X169459744Y-94129597D01*
X169382751Y-93956670D01*
X169374998Y-93945998D01*
X169275367Y-93808868D01*
X169271488Y-93803529D01*
X169258489Y-93791824D01*
X169135724Y-93681286D01*
X169135723Y-93681285D01*
X169130816Y-93676867D01*
X169039946Y-93624403D01*
X168972607Y-93585525D01*
X168972606Y-93585524D01*
X168966884Y-93582221D01*
X168786856Y-93523726D01*
X168780295Y-93523036D01*
X168780293Y-93523036D01*
X168720444Y-93516746D01*
X168645792Y-93508900D01*
X168551408Y-93508900D01*
X168476756Y-93516746D01*
X168416907Y-93523036D01*
X168416905Y-93523036D01*
X168410344Y-93523726D01*
X168230316Y-93582221D01*
X168224594Y-93585524D01*
X168224593Y-93585525D01*
X168157254Y-93624403D01*
X168066384Y-93676867D01*
X168061477Y-93681285D01*
X168061476Y-93681286D01*
X167938712Y-93791824D01*
X167925712Y-93803529D01*
X167921833Y-93808868D01*
X167822203Y-93945998D01*
X167814449Y-93956670D01*
X167737456Y-94129597D01*
X167718025Y-94221015D01*
X167714650Y-94236894D01*
X167698100Y-94314754D01*
X167698100Y-94504046D01*
X136981633Y-94504046D01*
X136982296Y-94500107D01*
X136982370Y-94494017D01*
X136982385Y-94492859D01*
X136982385Y-94492854D01*
X136982444Y-94488000D01*
X136962526Y-94348917D01*
X136904372Y-94221015D01*
X136812658Y-94114576D01*
X136805127Y-94109695D01*
X136805124Y-94109692D01*
X136702288Y-94043037D01*
X136702286Y-94043036D01*
X136694757Y-94038156D01*
X136686160Y-94035585D01*
X136686158Y-94035584D01*
X136598242Y-94009292D01*
X136560146Y-93997899D01*
X136551170Y-93997844D01*
X136551169Y-93997844D01*
X136491915Y-93997482D01*
X136419647Y-93997041D01*
X136284554Y-94035651D01*
X136165728Y-94110624D01*
X136072721Y-94215935D01*
X136013009Y-94343117D01*
X136011629Y-94351981D01*
X136011628Y-94351984D01*
X136001225Y-94418802D01*
X135991393Y-94481946D01*
X132916310Y-94481946D01*
X132941566Y-94418802D01*
X132941567Y-94418797D01*
X132944100Y-94412465D01*
X132974281Y-94230156D01*
X132973184Y-94209206D01*
X132964967Y-94052432D01*
X132964610Y-94045619D01*
X132962555Y-94038156D01*
X132917351Y-93874046D01*
X132915538Y-93867464D01*
X132829354Y-93704002D01*
X132710080Y-93562860D01*
X132673519Y-93534907D01*
X132649766Y-93516746D01*
X137616993Y-93516746D01*
X137618157Y-93525648D01*
X137618157Y-93525651D01*
X137623023Y-93562860D01*
X137635211Y-93656062D01*
X137691797Y-93784664D01*
X137697574Y-93791537D01*
X137697575Y-93791538D01*
X137776424Y-93885340D01*
X137782204Y-93892216D01*
X137899163Y-93970071D01*
X138033272Y-94011969D01*
X138042242Y-94012133D01*
X138042246Y-94012134D01*
X138107044Y-94013321D01*
X138173750Y-94014544D01*
X138257604Y-93991683D01*
X138300645Y-93979949D01*
X138300647Y-93979948D01*
X138309304Y-93977588D01*
X138429038Y-93904071D01*
X138523325Y-93799905D01*
X138572317Y-93698785D01*
X138580672Y-93681541D01*
X138580672Y-93681540D01*
X138584586Y-93673462D01*
X138607896Y-93534907D01*
X138608044Y-93522800D01*
X138588126Y-93383717D01*
X138553567Y-93307710D01*
X138533687Y-93263985D01*
X138533686Y-93263983D01*
X138529972Y-93255815D01*
X138438258Y-93149376D01*
X138430727Y-93144495D01*
X138430724Y-93144492D01*
X138327888Y-93077837D01*
X138327886Y-93077836D01*
X138320357Y-93072956D01*
X138311760Y-93070385D01*
X138311758Y-93070384D01*
X138231716Y-93046447D01*
X138185746Y-93032699D01*
X138176770Y-93032644D01*
X138176769Y-93032644D01*
X138117515Y-93032282D01*
X138045247Y-93031841D01*
X137910154Y-93070451D01*
X137791328Y-93145424D01*
X137698321Y-93250735D01*
X137638609Y-93377917D01*
X137637229Y-93386781D01*
X137637228Y-93386784D01*
X137618721Y-93505649D01*
X137616993Y-93516746D01*
X132649766Y-93516746D01*
X132568701Y-93454767D01*
X132568697Y-93454764D01*
X132563280Y-93450623D01*
X132557100Y-93447741D01*
X132557098Y-93447740D01*
X132401980Y-93375407D01*
X132401977Y-93375406D01*
X132395803Y-93372527D01*
X132389158Y-93371042D01*
X132389153Y-93371040D01*
X132249229Y-93339765D01*
X132215463Y-93332217D01*
X132209793Y-93331900D01*
X132073936Y-93331900D01*
X131936391Y-93346842D01*
X131761252Y-93405783D01*
X131602856Y-93500957D01*
X131597896Y-93505648D01*
X131597894Y-93505649D01*
X131519082Y-93580179D01*
X131468593Y-93627924D01*
X131364725Y-93780760D01*
X131362192Y-93787094D01*
X131362190Y-93787097D01*
X131298634Y-93945998D01*
X131298633Y-93946003D01*
X131296100Y-93952335D01*
X131282715Y-94033185D01*
X131267066Y-94127716D01*
X131265919Y-94134644D01*
X120644006Y-94134644D01*
X120750628Y-94058592D01*
X120758500Y-94051939D01*
X120909352Y-93901612D01*
X120916030Y-93893765D01*
X121040303Y-93720820D01*
X121045613Y-93711983D01*
X121139970Y-93521067D01*
X121143769Y-93511472D01*
X121205677Y-93307710D01*
X121207855Y-93297637D01*
X121209286Y-93286762D01*
X121207075Y-93272578D01*
X121193917Y-93268800D01*
X116018525Y-93268800D01*
X116004994Y-93272773D01*
X116003557Y-93282766D01*
X114525516Y-93282766D01*
X114526620Y-92748983D01*
X115999689Y-92748983D01*
X116001212Y-92757407D01*
X116013592Y-92760800D01*
X121193644Y-92760800D01*
X121207175Y-92756827D01*
X121208480Y-92747747D01*
X121166514Y-92580675D01*
X121163194Y-92570924D01*
X121078272Y-92375614D01*
X121073405Y-92366539D01*
X120957726Y-92187726D01*
X120951436Y-92179557D01*
X120808106Y-92022040D01*
X120800573Y-92015015D01*
X120633439Y-91883022D01*
X120624852Y-91877317D01*
X120438417Y-91774399D01*
X120429005Y-91770169D01*
X120223384Y-91697354D01*
X120223954Y-91695745D01*
X120169654Y-91662909D01*
X120138409Y-91599158D01*
X120146590Y-91528634D01*
X120191600Y-91473729D01*
X120228702Y-91456470D01*
X120253391Y-91449577D01*
X120435526Y-91357574D01*
X120462696Y-91336347D01*
X120591465Y-91235741D01*
X120596321Y-91231947D01*
X120729654Y-91077480D01*
X120830444Y-90900057D01*
X120894853Y-90706437D01*
X120920427Y-90503993D01*
X120920835Y-90474800D01*
X120900923Y-90271721D01*
X120841945Y-90076378D01*
X120746148Y-89896210D01*
X120742250Y-89891431D01*
X120742247Y-89891426D01*
X120674250Y-89808054D01*
X120617181Y-89738080D01*
X120550288Y-89682741D01*
X120464705Y-89611940D01*
X120464700Y-89611937D01*
X120459956Y-89608012D01*
X120454537Y-89605082D01*
X120454534Y-89605080D01*
X120285881Y-89513890D01*
X120285876Y-89513888D01*
X120280461Y-89510960D01*
X120262490Y-89505397D01*
X120258126Y-89504046D01*
X167698100Y-89504046D01*
X167699472Y-89510499D01*
X167699472Y-89510503D01*
X167700192Y-89513890D01*
X167737456Y-89689203D01*
X167814449Y-89862130D01*
X167818329Y-89867471D01*
X167818330Y-89867472D01*
X167835734Y-89891426D01*
X167925712Y-90015271D01*
X167930614Y-90019684D01*
X167930615Y-90019686D01*
X168061476Y-90137514D01*
X168066384Y-90141933D01*
X168230316Y-90236579D01*
X168410344Y-90295074D01*
X168416905Y-90295764D01*
X168416907Y-90295764D01*
X168470563Y-90301403D01*
X168551408Y-90309900D01*
X168645792Y-90309900D01*
X168726637Y-90301403D01*
X168780293Y-90295764D01*
X168780295Y-90295764D01*
X168786856Y-90295074D01*
X168966884Y-90236579D01*
X169130816Y-90141933D01*
X169135724Y-90137514D01*
X169266585Y-90019686D01*
X169266586Y-90019684D01*
X169271488Y-90015271D01*
X169361466Y-89891426D01*
X169378870Y-89867472D01*
X169378871Y-89867471D01*
X169382751Y-89862130D01*
X169459744Y-89689203D01*
X169497008Y-89513890D01*
X169497728Y-89510503D01*
X169497728Y-89510499D01*
X169499100Y-89504046D01*
X169499100Y-89314754D01*
X169459744Y-89129597D01*
X169382751Y-88956670D01*
X169346519Y-88906800D01*
X169275367Y-88808868D01*
X169271488Y-88803529D01*
X169255737Y-88789346D01*
X169135724Y-88681286D01*
X169135723Y-88681285D01*
X169130816Y-88676867D01*
X168966884Y-88582221D01*
X168786856Y-88523726D01*
X168780295Y-88523036D01*
X168780293Y-88523036D01*
X168726637Y-88517397D01*
X168645792Y-88508900D01*
X168551408Y-88508900D01*
X168470563Y-88517397D01*
X168416907Y-88523036D01*
X168416905Y-88523036D01*
X168410344Y-88523726D01*
X168230316Y-88582221D01*
X168066384Y-88676867D01*
X168061477Y-88681285D01*
X168061476Y-88681286D01*
X167941464Y-88789346D01*
X167925712Y-88803529D01*
X167921833Y-88808868D01*
X167850682Y-88906800D01*
X167814449Y-88956670D01*
X167737456Y-89129597D01*
X167698100Y-89314754D01*
X167698100Y-89504046D01*
X120258126Y-89504046D01*
X120091421Y-89452442D01*
X120091418Y-89452441D01*
X120085534Y-89450620D01*
X120079409Y-89449976D01*
X120079408Y-89449976D01*
X119888727Y-89429934D01*
X119888726Y-89429934D01*
X119882599Y-89429290D01*
X119754767Y-89440924D01*
X119685527Y-89447225D01*
X119685526Y-89447225D01*
X119679386Y-89447784D01*
X119673472Y-89449525D01*
X119673470Y-89449525D01*
X119541462Y-89488378D01*
X119483636Y-89505397D01*
X119302803Y-89599934D01*
X119298003Y-89603794D01*
X119298002Y-89603794D01*
X119260746Y-89633749D01*
X119143777Y-89727794D01*
X119012615Y-89884107D01*
X119009651Y-89889499D01*
X119009648Y-89889503D01*
X118943442Y-90009932D01*
X118914312Y-90062920D01*
X118852612Y-90257421D01*
X118829867Y-90460202D01*
X118846942Y-90663539D01*
X118903186Y-90859687D01*
X118996458Y-91041175D01*
X119123205Y-91201090D01*
X119278599Y-91333340D01*
X119283977Y-91336346D01*
X119283979Y-91336347D01*
X119326931Y-91360352D01*
X119456721Y-91432889D01*
X119533871Y-91457957D01*
X119592476Y-91498029D01*
X119620113Y-91563426D01*
X119608006Y-91633383D01*
X119560000Y-91685689D01*
X119534079Y-91697554D01*
X119352168Y-91757012D01*
X119342659Y-91761009D01*
X119153763Y-91859342D01*
X119145038Y-91864836D01*
X118974733Y-91992705D01*
X118967026Y-91999548D01*
X118819890Y-92153517D01*
X118813404Y-92161527D01*
X118708493Y-92315321D01*
X118653582Y-92360324D01*
X118583057Y-92368495D01*
X118519310Y-92337241D01*
X118498613Y-92312757D01*
X118417727Y-92187726D01*
X118411436Y-92179557D01*
X118268106Y-92022040D01*
X118260573Y-92015015D01*
X118093439Y-91883022D01*
X118084852Y-91877317D01*
X117898417Y-91774399D01*
X117889005Y-91770169D01*
X117683384Y-91697354D01*
X117683954Y-91695745D01*
X117629654Y-91662909D01*
X117598409Y-91599158D01*
X117606590Y-91528634D01*
X117651600Y-91473729D01*
X117688702Y-91456470D01*
X117713391Y-91449577D01*
X117895526Y-91357574D01*
X117922696Y-91336347D01*
X118051465Y-91235741D01*
X118056321Y-91231947D01*
X118189654Y-91077480D01*
X118290444Y-90900057D01*
X118354853Y-90706437D01*
X118380427Y-90503993D01*
X118380835Y-90474800D01*
X118360923Y-90271721D01*
X118301945Y-90076378D01*
X118206148Y-89896210D01*
X118202250Y-89891431D01*
X118202247Y-89891426D01*
X118134250Y-89808054D01*
X118077181Y-89738080D01*
X118010288Y-89682741D01*
X117924705Y-89611940D01*
X117924700Y-89611937D01*
X117919956Y-89608012D01*
X117914537Y-89605082D01*
X117914534Y-89605080D01*
X117745881Y-89513890D01*
X117745876Y-89513888D01*
X117740461Y-89510960D01*
X117722490Y-89505397D01*
X117551421Y-89452442D01*
X117551418Y-89452441D01*
X117545534Y-89450620D01*
X117539409Y-89449976D01*
X117539408Y-89449976D01*
X117348727Y-89429934D01*
X117348726Y-89429934D01*
X117342599Y-89429290D01*
X117214767Y-89440924D01*
X117145527Y-89447225D01*
X117145526Y-89447225D01*
X117139386Y-89447784D01*
X117133472Y-89449525D01*
X117133470Y-89449525D01*
X117001462Y-89488378D01*
X116943636Y-89505397D01*
X116762803Y-89599934D01*
X116758003Y-89603794D01*
X116758002Y-89603794D01*
X116720746Y-89633749D01*
X116603777Y-89727794D01*
X116472615Y-89884107D01*
X116469651Y-89889499D01*
X116469648Y-89889503D01*
X116403442Y-90009932D01*
X116374312Y-90062920D01*
X116312612Y-90257421D01*
X116289867Y-90460202D01*
X116306942Y-90663539D01*
X116363186Y-90859687D01*
X116456458Y-91041175D01*
X116583205Y-91201090D01*
X116738599Y-91333340D01*
X116743977Y-91336346D01*
X116743979Y-91336347D01*
X116786931Y-91360352D01*
X116916721Y-91432889D01*
X116993871Y-91457957D01*
X117052476Y-91498029D01*
X117080113Y-91563426D01*
X117068006Y-91633383D01*
X117020000Y-91685689D01*
X116994079Y-91697554D01*
X116812168Y-91757012D01*
X116802659Y-91761009D01*
X116613763Y-91859342D01*
X116605038Y-91864836D01*
X116434733Y-91992705D01*
X116427026Y-91999548D01*
X116279890Y-92153517D01*
X116273404Y-92161527D01*
X116153398Y-92337449D01*
X116148300Y-92346423D01*
X116058638Y-92539583D01*
X116055075Y-92549270D01*
X115999689Y-92748983D01*
X114526620Y-92748983D01*
X114536611Y-87920202D01*
X116289867Y-87920202D01*
X116306942Y-88123539D01*
X116363186Y-88319687D01*
X116366002Y-88325166D01*
X116425856Y-88441629D01*
X116456458Y-88501175D01*
X116583205Y-88661090D01*
X116738599Y-88793340D01*
X116743977Y-88796346D01*
X116743979Y-88796347D01*
X116786931Y-88820352D01*
X116916721Y-88892889D01*
X117110787Y-88955945D01*
X117313404Y-88980106D01*
X117319539Y-88979634D01*
X117319541Y-88979634D01*
X117510713Y-88964924D01*
X117510717Y-88964923D01*
X117516855Y-88964451D01*
X117713391Y-88909577D01*
X117895526Y-88817574D01*
X118056321Y-88691947D01*
X118060347Y-88687283D01*
X118185625Y-88542148D01*
X118185626Y-88542146D01*
X118189654Y-88537480D01*
X118196309Y-88525766D01*
X118287397Y-88365420D01*
X118290444Y-88360057D01*
X118354853Y-88166437D01*
X118380427Y-87963993D01*
X118380835Y-87934800D01*
X118379404Y-87920202D01*
X118829867Y-87920202D01*
X118846942Y-88123539D01*
X118903186Y-88319687D01*
X118906002Y-88325166D01*
X118965856Y-88441629D01*
X118996458Y-88501175D01*
X119123205Y-88661090D01*
X119278599Y-88793340D01*
X119283977Y-88796346D01*
X119283979Y-88796347D01*
X119326931Y-88820352D01*
X119456721Y-88892889D01*
X119650787Y-88955945D01*
X119853404Y-88980106D01*
X119859539Y-88979634D01*
X119859541Y-88979634D01*
X120050713Y-88964924D01*
X120050717Y-88964923D01*
X120056855Y-88964451D01*
X120253391Y-88909577D01*
X120435526Y-88817574D01*
X120596321Y-88691947D01*
X120600347Y-88687283D01*
X120725625Y-88542148D01*
X120725626Y-88542146D01*
X120729654Y-88537480D01*
X120736309Y-88525766D01*
X120827397Y-88365420D01*
X120830444Y-88360057D01*
X120894815Y-88166551D01*
X131453023Y-88166551D01*
X131454187Y-88175453D01*
X131454187Y-88175456D01*
X131456025Y-88189508D01*
X131471241Y-88305867D01*
X131527827Y-88434469D01*
X131533604Y-88441342D01*
X131533605Y-88441343D01*
X131540638Y-88449710D01*
X131618234Y-88542021D01*
X131735193Y-88619876D01*
X131869302Y-88661774D01*
X131878272Y-88661938D01*
X131878276Y-88661939D01*
X131943074Y-88663126D01*
X132009780Y-88664349D01*
X132067154Y-88648707D01*
X132136675Y-88629754D01*
X132136677Y-88629753D01*
X132145334Y-88627393D01*
X132265068Y-88553876D01*
X132359355Y-88449710D01*
X132400193Y-88365420D01*
X132416702Y-88331346D01*
X132416702Y-88331345D01*
X132420616Y-88323267D01*
X132443926Y-88184712D01*
X132444074Y-88172605D01*
X132424156Y-88033522D01*
X132366002Y-87905620D01*
X132368347Y-87904554D01*
X132352288Y-87849416D01*
X132372440Y-87781339D01*
X132387457Y-87764413D01*
X132386638Y-87763671D01*
X132480925Y-87659505D01*
X132542186Y-87533062D01*
X132565496Y-87394507D01*
X132565644Y-87382400D01*
X132545726Y-87243317D01*
X132487572Y-87115415D01*
X132468775Y-87093600D01*
X132439461Y-87028937D01*
X132449760Y-86958692D01*
X132470812Y-86926798D01*
X132539336Y-86851094D01*
X132589956Y-86746615D01*
X132596683Y-86732730D01*
X132596683Y-86732729D01*
X132600597Y-86724651D01*
X132623907Y-86586096D01*
X132624055Y-86573989D01*
X132604137Y-86434906D01*
X132545983Y-86307004D01*
X132504335Y-86258670D01*
X132475022Y-86194009D01*
X132485321Y-86123764D01*
X132506374Y-86091867D01*
X132574900Y-86016161D01*
X132580925Y-86009505D01*
X132642186Y-85883062D01*
X132665496Y-85744507D01*
X132665644Y-85732400D01*
X132645726Y-85593317D01*
X132587572Y-85465415D01*
X132495858Y-85358976D01*
X132488327Y-85354095D01*
X132488324Y-85354092D01*
X132385488Y-85287437D01*
X132385486Y-85287436D01*
X132377957Y-85282556D01*
X132369360Y-85279985D01*
X132369358Y-85279984D01*
X132289316Y-85256047D01*
X132243346Y-85242299D01*
X132234370Y-85242244D01*
X132234369Y-85242244D01*
X132175115Y-85241882D01*
X132102847Y-85241441D01*
X131967754Y-85280051D01*
X131848928Y-85355024D01*
X131755921Y-85460335D01*
X131696209Y-85587517D01*
X131694829Y-85596381D01*
X131694828Y-85596384D01*
X131691101Y-85620326D01*
X131674593Y-85726346D01*
X131675757Y-85735248D01*
X131675757Y-85735251D01*
X131691647Y-85856763D01*
X131692811Y-85865662D01*
X131749397Y-85994264D01*
X131755174Y-86001137D01*
X131755175Y-86001138D01*
X131756024Y-86002148D01*
X131794941Y-86048445D01*
X131823462Y-86113458D01*
X131812307Y-86183573D01*
X131792931Y-86212926D01*
X131720278Y-86295191D01*
X131714332Y-86301924D01*
X131654620Y-86429106D01*
X131653240Y-86437970D01*
X131653239Y-86437973D01*
X131638873Y-86530244D01*
X131633004Y-86567935D01*
X131634168Y-86576837D01*
X131634168Y-86576840D01*
X131642701Y-86642092D01*
X131651222Y-86707251D01*
X131707808Y-86835853D01*
X131730861Y-86863277D01*
X131759380Y-86928292D01*
X131748223Y-86998407D01*
X131728850Y-87027758D01*
X131655921Y-87110335D01*
X131596209Y-87237517D01*
X131594829Y-87246381D01*
X131594828Y-87246384D01*
X131578773Y-87349503D01*
X131574593Y-87376346D01*
X131575757Y-87385248D01*
X131575757Y-87385251D01*
X131586535Y-87467671D01*
X131592811Y-87515662D01*
X131648334Y-87641848D01*
X131649397Y-87644264D01*
X131649048Y-87644417D01*
X131666497Y-87707175D01*
X131645515Y-87775001D01*
X131627840Y-87794925D01*
X131627358Y-87795229D01*
X131534351Y-87900540D01*
X131474639Y-88027722D01*
X131473259Y-88036586D01*
X131473258Y-88036589D01*
X131458798Y-88129464D01*
X131453023Y-88166551D01*
X120894815Y-88166551D01*
X120894853Y-88166437D01*
X120920427Y-87963993D01*
X120920835Y-87934800D01*
X120900923Y-87731721D01*
X120841945Y-87536378D01*
X120746148Y-87356210D01*
X120742250Y-87351431D01*
X120742247Y-87351426D01*
X120661326Y-87252207D01*
X120617181Y-87198080D01*
X120527132Y-87123585D01*
X120464705Y-87071940D01*
X120464700Y-87071937D01*
X120459956Y-87068012D01*
X120454537Y-87065082D01*
X120454534Y-87065080D01*
X120360703Y-87014346D01*
X122072193Y-87014346D01*
X122073357Y-87023248D01*
X122073357Y-87023251D01*
X122085808Y-87118461D01*
X122090411Y-87153662D01*
X122146997Y-87282264D01*
X122152774Y-87289137D01*
X122152775Y-87289138D01*
X122226081Y-87376346D01*
X122237404Y-87389816D01*
X122354363Y-87467671D01*
X122488472Y-87509569D01*
X122497442Y-87509733D01*
X122497446Y-87509734D01*
X122562244Y-87510921D01*
X122628950Y-87512144D01*
X122686324Y-87496502D01*
X122755845Y-87477549D01*
X122755847Y-87477548D01*
X122764504Y-87475188D01*
X122884238Y-87401671D01*
X122978525Y-87297505D01*
X123029393Y-87192513D01*
X123035872Y-87179141D01*
X123035872Y-87179140D01*
X123039786Y-87171062D01*
X123063096Y-87032507D01*
X123063244Y-87020400D01*
X123043326Y-86881317D01*
X122985172Y-86753415D01*
X122893458Y-86646976D01*
X122885927Y-86642095D01*
X122885924Y-86642092D01*
X122783088Y-86575437D01*
X122783086Y-86575436D01*
X122775557Y-86570556D01*
X122766960Y-86567985D01*
X122766958Y-86567984D01*
X122686916Y-86544047D01*
X122640946Y-86530299D01*
X122631970Y-86530244D01*
X122631969Y-86530244D01*
X122572715Y-86529882D01*
X122500447Y-86529441D01*
X122365354Y-86568051D01*
X122246528Y-86643024D01*
X122153521Y-86748335D01*
X122093809Y-86875517D01*
X122092429Y-86884381D01*
X122092428Y-86884384D01*
X122074675Y-86998407D01*
X122072193Y-87014346D01*
X120360703Y-87014346D01*
X120285881Y-86973890D01*
X120285876Y-86973888D01*
X120280461Y-86970960D01*
X120229743Y-86955260D01*
X120091421Y-86912442D01*
X120091418Y-86912441D01*
X120085534Y-86910620D01*
X120079409Y-86909976D01*
X120079408Y-86909976D01*
X119888727Y-86889934D01*
X119888726Y-86889934D01*
X119882599Y-86889290D01*
X119754767Y-86900924D01*
X119685527Y-86907225D01*
X119685526Y-86907225D01*
X119679386Y-86907784D01*
X119673472Y-86909525D01*
X119673470Y-86909525D01*
X119541462Y-86948378D01*
X119483636Y-86965397D01*
X119302803Y-87059934D01*
X119298003Y-87063794D01*
X119298002Y-87063794D01*
X119260931Y-87093600D01*
X119143777Y-87187794D01*
X119012615Y-87344107D01*
X119009651Y-87349499D01*
X119009648Y-87349503D01*
X118980969Y-87401671D01*
X118914312Y-87522920D01*
X118852612Y-87717421D01*
X118829867Y-87920202D01*
X118379404Y-87920202D01*
X118360923Y-87731721D01*
X118301945Y-87536378D01*
X118206148Y-87356210D01*
X118202250Y-87351431D01*
X118202247Y-87351426D01*
X118121326Y-87252207D01*
X118077181Y-87198080D01*
X117987132Y-87123585D01*
X117924705Y-87071940D01*
X117924700Y-87071937D01*
X117919956Y-87068012D01*
X117914537Y-87065082D01*
X117914534Y-87065080D01*
X117745881Y-86973890D01*
X117745876Y-86973888D01*
X117740461Y-86970960D01*
X117689743Y-86955260D01*
X117551421Y-86912442D01*
X117551418Y-86912441D01*
X117545534Y-86910620D01*
X117539409Y-86909976D01*
X117539408Y-86909976D01*
X117348727Y-86889934D01*
X117348726Y-86889934D01*
X117342599Y-86889290D01*
X117214767Y-86900924D01*
X117145527Y-86907225D01*
X117145526Y-86907225D01*
X117139386Y-86907784D01*
X117133472Y-86909525D01*
X117133470Y-86909525D01*
X117001462Y-86948378D01*
X116943636Y-86965397D01*
X116762803Y-87059934D01*
X116758003Y-87063794D01*
X116758002Y-87063794D01*
X116720931Y-87093600D01*
X116603777Y-87187794D01*
X116472615Y-87344107D01*
X116469651Y-87349499D01*
X116469648Y-87349503D01*
X116440969Y-87401671D01*
X116374312Y-87522920D01*
X116312612Y-87717421D01*
X116289867Y-87920202D01*
X114536611Y-87920202D01*
X114541867Y-85380202D01*
X116289867Y-85380202D01*
X116306942Y-85583539D01*
X116308641Y-85589464D01*
X116354474Y-85749303D01*
X116363186Y-85779687D01*
X116456458Y-85961175D01*
X116583205Y-86121090D01*
X116738599Y-86253340D01*
X116743977Y-86256346D01*
X116743979Y-86256347D01*
X116822452Y-86300204D01*
X116916721Y-86352889D01*
X117110787Y-86415945D01*
X117313404Y-86440106D01*
X117319539Y-86439634D01*
X117319541Y-86439634D01*
X117510713Y-86424924D01*
X117510717Y-86424923D01*
X117516855Y-86424451D01*
X117713391Y-86369577D01*
X117895526Y-86277574D01*
X117922696Y-86256347D01*
X118051465Y-86155741D01*
X118056321Y-86151947D01*
X118173529Y-86016161D01*
X118185625Y-86002148D01*
X118185626Y-86002146D01*
X118189654Y-85997480D01*
X118290444Y-85820057D01*
X118354853Y-85626437D01*
X118380427Y-85423993D01*
X118380835Y-85394800D01*
X118379404Y-85380202D01*
X118829867Y-85380202D01*
X118846942Y-85583539D01*
X118848641Y-85589464D01*
X118894474Y-85749303D01*
X118903186Y-85779687D01*
X118996458Y-85961175D01*
X119123205Y-86121090D01*
X119278599Y-86253340D01*
X119283977Y-86256346D01*
X119283979Y-86256347D01*
X119362452Y-86300204D01*
X119456721Y-86352889D01*
X119650787Y-86415945D01*
X119853404Y-86440106D01*
X119859539Y-86439634D01*
X119859541Y-86439634D01*
X120050713Y-86424924D01*
X120050717Y-86424923D01*
X120056855Y-86424451D01*
X120253391Y-86369577D01*
X120435526Y-86277574D01*
X120462696Y-86256347D01*
X120591465Y-86155741D01*
X120596321Y-86151947D01*
X120713529Y-86016161D01*
X120725625Y-86002148D01*
X120725626Y-86002146D01*
X120729654Y-85997480D01*
X120830444Y-85820057D01*
X120894853Y-85626437D01*
X120920427Y-85423993D01*
X120920835Y-85394800D01*
X120900923Y-85191721D01*
X120841945Y-84996378D01*
X120746148Y-84816210D01*
X120742250Y-84811431D01*
X120742247Y-84811426D01*
X120674250Y-84728054D01*
X120617181Y-84658080D01*
X120558775Y-84609762D01*
X120464705Y-84531940D01*
X120464700Y-84531937D01*
X120459956Y-84528012D01*
X120454537Y-84525082D01*
X120454534Y-84525080D01*
X120285881Y-84433890D01*
X120285876Y-84433888D01*
X120280461Y-84430960D01*
X120256862Y-84423655D01*
X120091421Y-84372442D01*
X120091418Y-84372441D01*
X120085534Y-84370620D01*
X120079409Y-84369976D01*
X120079408Y-84369976D01*
X119888727Y-84349934D01*
X119888726Y-84349934D01*
X119882599Y-84349290D01*
X119754767Y-84360924D01*
X119685527Y-84367225D01*
X119685526Y-84367225D01*
X119679386Y-84367784D01*
X119673472Y-84369525D01*
X119673470Y-84369525D01*
X119541462Y-84408378D01*
X119483636Y-84425397D01*
X119302803Y-84519934D01*
X119298003Y-84523794D01*
X119298002Y-84523794D01*
X119260746Y-84553749D01*
X119143777Y-84647794D01*
X119012615Y-84804107D01*
X119009651Y-84809499D01*
X119009648Y-84809503D01*
X118929615Y-84955083D01*
X118914312Y-84982920D01*
X118852612Y-85177421D01*
X118829867Y-85380202D01*
X118379404Y-85380202D01*
X118360923Y-85191721D01*
X118301945Y-84996378D01*
X118206148Y-84816210D01*
X118202250Y-84811431D01*
X118202247Y-84811426D01*
X118134250Y-84728054D01*
X118077181Y-84658080D01*
X118018775Y-84609762D01*
X117924705Y-84531940D01*
X117924700Y-84531937D01*
X117919956Y-84528012D01*
X117914537Y-84525082D01*
X117914534Y-84525080D01*
X117745881Y-84433890D01*
X117745876Y-84433888D01*
X117740461Y-84430960D01*
X117716862Y-84423655D01*
X117551421Y-84372442D01*
X117551418Y-84372441D01*
X117545534Y-84370620D01*
X117539409Y-84369976D01*
X117539408Y-84369976D01*
X117348727Y-84349934D01*
X117348726Y-84349934D01*
X117342599Y-84349290D01*
X117214767Y-84360924D01*
X117145527Y-84367225D01*
X117145526Y-84367225D01*
X117139386Y-84367784D01*
X117133472Y-84369525D01*
X117133470Y-84369525D01*
X117001462Y-84408378D01*
X116943636Y-84425397D01*
X116762803Y-84519934D01*
X116758003Y-84523794D01*
X116758002Y-84523794D01*
X116720746Y-84553749D01*
X116603777Y-84647794D01*
X116472615Y-84804107D01*
X116469651Y-84809499D01*
X116469648Y-84809503D01*
X116389615Y-84955083D01*
X116374312Y-84982920D01*
X116312612Y-85177421D01*
X116289867Y-85380202D01*
X114541867Y-85380202D01*
X114547122Y-82840202D01*
X116289867Y-82840202D01*
X116306942Y-83043539D01*
X116363186Y-83239687D01*
X116456458Y-83421175D01*
X116583205Y-83581090D01*
X116738599Y-83713340D01*
X116743977Y-83716346D01*
X116743979Y-83716347D01*
X116786931Y-83740352D01*
X116916721Y-83812889D01*
X117110787Y-83875945D01*
X117313404Y-83900106D01*
X117319539Y-83899634D01*
X117319541Y-83899634D01*
X117510713Y-83884924D01*
X117510717Y-83884923D01*
X117516855Y-83884451D01*
X117713391Y-83829577D01*
X117895526Y-83737574D01*
X117913461Y-83723562D01*
X118834800Y-83723562D01*
X118845853Y-83779129D01*
X118887957Y-83842143D01*
X118950971Y-83884247D01*
X118963140Y-83886668D01*
X118963141Y-83886668D01*
X119000470Y-83894093D01*
X119006538Y-83895300D01*
X120744062Y-83895300D01*
X120750130Y-83894093D01*
X120787459Y-83886668D01*
X120787460Y-83886668D01*
X120799629Y-83884247D01*
X120862643Y-83842143D01*
X120904747Y-83779129D01*
X120915800Y-83723562D01*
X120915800Y-81986038D01*
X120904747Y-81930471D01*
X120862643Y-81867457D01*
X120799629Y-81825353D01*
X120787460Y-81822932D01*
X120787459Y-81822932D01*
X120750130Y-81815507D01*
X120744062Y-81814300D01*
X119006538Y-81814300D01*
X119000470Y-81815507D01*
X118963141Y-81822932D01*
X118963140Y-81822932D01*
X118950971Y-81825353D01*
X118887957Y-81867457D01*
X118845853Y-81930471D01*
X118834800Y-81986038D01*
X118834800Y-83723562D01*
X117913461Y-83723562D01*
X117922696Y-83716347D01*
X118051465Y-83615741D01*
X118056321Y-83611947D01*
X118189654Y-83457480D01*
X118290444Y-83280057D01*
X118354853Y-83086437D01*
X118380427Y-82883993D01*
X118380835Y-82854800D01*
X118360923Y-82651721D01*
X118301945Y-82456378D01*
X118206148Y-82276210D01*
X118202250Y-82271431D01*
X118202247Y-82271426D01*
X118134250Y-82188054D01*
X118077181Y-82118080D01*
X118018775Y-82069762D01*
X117924705Y-81991940D01*
X117924700Y-81991937D01*
X117919956Y-81988012D01*
X117914537Y-81985082D01*
X117914534Y-81985080D01*
X117745881Y-81893890D01*
X117745876Y-81893888D01*
X117740461Y-81890960D01*
X117716862Y-81883655D01*
X117551421Y-81832442D01*
X117551418Y-81832441D01*
X117545534Y-81830620D01*
X117539409Y-81829976D01*
X117539408Y-81829976D01*
X117348727Y-81809934D01*
X117348726Y-81809934D01*
X117342599Y-81809290D01*
X117214767Y-81820924D01*
X117145527Y-81827225D01*
X117145526Y-81827225D01*
X117139386Y-81827784D01*
X117133472Y-81829525D01*
X117133470Y-81829525D01*
X117028007Y-81860565D01*
X116943636Y-81885397D01*
X116762803Y-81979934D01*
X116758003Y-81983794D01*
X116758002Y-81983794D01*
X116747516Y-81992225D01*
X116603777Y-82107794D01*
X116472615Y-82264107D01*
X116469651Y-82269499D01*
X116469648Y-82269503D01*
X116389615Y-82415083D01*
X116374312Y-82442920D01*
X116312612Y-82637421D01*
X116289867Y-82840202D01*
X114547122Y-82840202D01*
X114552150Y-80410346D01*
X130860593Y-80410346D01*
X130861757Y-80419248D01*
X130861757Y-80419251D01*
X130863566Y-80433084D01*
X130878811Y-80549662D01*
X130935397Y-80678264D01*
X130941174Y-80685137D01*
X130941175Y-80685138D01*
X130948208Y-80693505D01*
X131025804Y-80785816D01*
X131142763Y-80863671D01*
X131276872Y-80905569D01*
X131285842Y-80905733D01*
X131285846Y-80905734D01*
X131350644Y-80906921D01*
X131417350Y-80908144D01*
X131474724Y-80892502D01*
X131544245Y-80873549D01*
X131544247Y-80873548D01*
X131552904Y-80871188D01*
X131672638Y-80797671D01*
X131766925Y-80693505D01*
X131828186Y-80567062D01*
X131851496Y-80428507D01*
X131851644Y-80416400D01*
X131848265Y-80392802D01*
X171975667Y-80392802D01*
X171992742Y-80596139D01*
X171994441Y-80602064D01*
X172022570Y-80700161D01*
X172048986Y-80792287D01*
X172066725Y-80826804D01*
X172108444Y-80907979D01*
X172142258Y-80973775D01*
X172269005Y-81133690D01*
X172424399Y-81265940D01*
X172429777Y-81268946D01*
X172429779Y-81268947D01*
X172472731Y-81292952D01*
X172602521Y-81365489D01*
X172796587Y-81428545D01*
X172999204Y-81452706D01*
X173005339Y-81452234D01*
X173005341Y-81452234D01*
X173196513Y-81437524D01*
X173196517Y-81437523D01*
X173202655Y-81437051D01*
X173399191Y-81382177D01*
X173581326Y-81290174D01*
X173608496Y-81268947D01*
X173737265Y-81168341D01*
X173742121Y-81164547D01*
X173875454Y-81010080D01*
X173976244Y-80832657D01*
X174040653Y-80639037D01*
X174066227Y-80436593D01*
X174066635Y-80407400D01*
X174046723Y-80204321D01*
X173987745Y-80008978D01*
X173891948Y-79828810D01*
X173888050Y-79824031D01*
X173888047Y-79824026D01*
X173820050Y-79740654D01*
X173762981Y-79670680D01*
X173704575Y-79622362D01*
X173610505Y-79544540D01*
X173610500Y-79544537D01*
X173605756Y-79540612D01*
X173600337Y-79537682D01*
X173600334Y-79537680D01*
X173431681Y-79446490D01*
X173431676Y-79446488D01*
X173426261Y-79443560D01*
X173402662Y-79436255D01*
X173237221Y-79385042D01*
X173237218Y-79385041D01*
X173231334Y-79383220D01*
X173225209Y-79382576D01*
X173225208Y-79382576D01*
X173034527Y-79362534D01*
X173034526Y-79362534D01*
X173028399Y-79361890D01*
X172900567Y-79373524D01*
X172831327Y-79379825D01*
X172831326Y-79379825D01*
X172825186Y-79380384D01*
X172819272Y-79382125D01*
X172819270Y-79382125D01*
X172687262Y-79420978D01*
X172629436Y-79437997D01*
X172448603Y-79532534D01*
X172443803Y-79536394D01*
X172443802Y-79536394D01*
X172406546Y-79566349D01*
X172289577Y-79660394D01*
X172158415Y-79816707D01*
X172155451Y-79822099D01*
X172155448Y-79822103D01*
X172098638Y-79925441D01*
X172060112Y-79995520D01*
X172058251Y-80001387D01*
X172058250Y-80001389D01*
X172045058Y-80042976D01*
X171998412Y-80190021D01*
X171975667Y-80392802D01*
X131848265Y-80392802D01*
X131831726Y-80277317D01*
X131773572Y-80149415D01*
X131681858Y-80042976D01*
X131674327Y-80038095D01*
X131674324Y-80038092D01*
X131571488Y-79971437D01*
X131571486Y-79971436D01*
X131563957Y-79966556D01*
X131555360Y-79963985D01*
X131555358Y-79963984D01*
X131475316Y-79940047D01*
X131429346Y-79926299D01*
X131420370Y-79926244D01*
X131420369Y-79926244D01*
X131361115Y-79925882D01*
X131288847Y-79925441D01*
X131153754Y-79964051D01*
X131034928Y-80039024D01*
X130941921Y-80144335D01*
X130882209Y-80271517D01*
X130880829Y-80280381D01*
X130880828Y-80280384D01*
X130863325Y-80392802D01*
X130860593Y-80410346D01*
X114552150Y-80410346D01*
X114557405Y-77870346D01*
X130860593Y-77870346D01*
X130861757Y-77879248D01*
X130861757Y-77879251D01*
X130863566Y-77893084D01*
X130878811Y-78009662D01*
X130935397Y-78138264D01*
X130941174Y-78145137D01*
X130941175Y-78145138D01*
X130948208Y-78153505D01*
X131025804Y-78245816D01*
X131142763Y-78323671D01*
X131276872Y-78365569D01*
X131285842Y-78365733D01*
X131285846Y-78365734D01*
X131350644Y-78366921D01*
X131417350Y-78368144D01*
X131474724Y-78352502D01*
X131544245Y-78333549D01*
X131544247Y-78333548D01*
X131552904Y-78331188D01*
X131672638Y-78257671D01*
X131766925Y-78153505D01*
X131828186Y-78027062D01*
X131851496Y-77888507D01*
X131851644Y-77876400D01*
X131831726Y-77737317D01*
X131773572Y-77609415D01*
X131681858Y-77502976D01*
X131674327Y-77498095D01*
X131674324Y-77498092D01*
X131571488Y-77431437D01*
X131571486Y-77431436D01*
X131563957Y-77426556D01*
X131555360Y-77423985D01*
X131555358Y-77423984D01*
X131475316Y-77400047D01*
X131429346Y-77386299D01*
X131420370Y-77386244D01*
X131420369Y-77386244D01*
X131361115Y-77385882D01*
X131288847Y-77385441D01*
X131153754Y-77424051D01*
X131034928Y-77499024D01*
X130941921Y-77604335D01*
X130882209Y-77731517D01*
X130880829Y-77740381D01*
X130880828Y-77740384D01*
X130863325Y-77852802D01*
X130860593Y-77870346D01*
X114557405Y-77870346D01*
X114560815Y-76222069D01*
X171663101Y-76222069D01*
X171663471Y-76228890D01*
X171668995Y-76279752D01*
X171672621Y-76295004D01*
X171717776Y-76415454D01*
X171726314Y-76431049D01*
X171802815Y-76533124D01*
X171815376Y-76545685D01*
X171917451Y-76622186D01*
X171933046Y-76630724D01*
X172053494Y-76675878D01*
X172068749Y-76679505D01*
X172119614Y-76685031D01*
X172126428Y-76685400D01*
X172523116Y-76685400D01*
X172591237Y-76705402D01*
X172637730Y-76759058D01*
X172647834Y-76829332D01*
X172618340Y-76893912D01*
X172581491Y-76923062D01*
X172448603Y-76992534D01*
X172443803Y-76996394D01*
X172443802Y-76996394D01*
X172406546Y-77026349D01*
X172289577Y-77120394D01*
X172158415Y-77276707D01*
X172155451Y-77282099D01*
X172155448Y-77282103D01*
X172098638Y-77385441D01*
X172060112Y-77455520D01*
X172058251Y-77461387D01*
X172058250Y-77461389D01*
X172045058Y-77502976D01*
X171998412Y-77650021D01*
X171975667Y-77852802D01*
X171992742Y-78056139D01*
X171994441Y-78062064D01*
X172022570Y-78160161D01*
X172048986Y-78252287D01*
X172066725Y-78286804D01*
X172108444Y-78367979D01*
X172142258Y-78433775D01*
X172269005Y-78593690D01*
X172424399Y-78725940D01*
X172429777Y-78728946D01*
X172429779Y-78728947D01*
X172472731Y-78752952D01*
X172602521Y-78825489D01*
X172796587Y-78888545D01*
X172999204Y-78912706D01*
X173005339Y-78912234D01*
X173005341Y-78912234D01*
X173196513Y-78897524D01*
X173196517Y-78897523D01*
X173202655Y-78897051D01*
X173399191Y-78842177D01*
X173581326Y-78750174D01*
X173608496Y-78728947D01*
X173737265Y-78628341D01*
X173742121Y-78624547D01*
X173875454Y-78470080D01*
X173976244Y-78292657D01*
X174040653Y-78099037D01*
X174066227Y-77896593D01*
X174066635Y-77867400D01*
X174046723Y-77664321D01*
X173987745Y-77468978D01*
X173891948Y-77288810D01*
X173888050Y-77284031D01*
X173888047Y-77284026D01*
X173820050Y-77200654D01*
X173762981Y-77130680D01*
X173704575Y-77082362D01*
X173610505Y-77004540D01*
X173610500Y-77004537D01*
X173605756Y-77000612D01*
X173600337Y-76997682D01*
X173600334Y-76997680D01*
X173460800Y-76922235D01*
X173410391Y-76872240D01*
X173395013Y-76802929D01*
X173419549Y-76736307D01*
X173476209Y-76693526D01*
X173520728Y-76685399D01*
X173915769Y-76685399D01*
X173922590Y-76685029D01*
X173973452Y-76679505D01*
X173988704Y-76675879D01*
X174109154Y-76630724D01*
X174124749Y-76622186D01*
X174226824Y-76545685D01*
X174239385Y-76533124D01*
X174315886Y-76431049D01*
X174324424Y-76415454D01*
X174369578Y-76295006D01*
X174373205Y-76279751D01*
X174378731Y-76228886D01*
X174379100Y-76222072D01*
X174379100Y-75599515D01*
X174374625Y-75584276D01*
X174373235Y-75583071D01*
X174365552Y-75581400D01*
X171681216Y-75581400D01*
X171665977Y-75585875D01*
X171664772Y-75587265D01*
X171663101Y-75594948D01*
X171663101Y-76222069D01*
X114560815Y-76222069D01*
X114564848Y-74273054D01*
X130968233Y-74273054D01*
X130969212Y-74278751D01*
X130969212Y-74278752D01*
X130985759Y-74375048D01*
X131004041Y-74481447D01*
X131077227Y-74679825D01*
X131185338Y-74861544D01*
X131324755Y-75020519D01*
X131490808Y-75151424D01*
X131495919Y-75154113D01*
X131495922Y-75154115D01*
X131526341Y-75170119D01*
X131677936Y-75249877D01*
X131879873Y-75312580D01*
X131885610Y-75313259D01*
X132047868Y-75332464D01*
X132047875Y-75332464D01*
X132051555Y-75332900D01*
X132173741Y-75332900D01*
X132330660Y-75318481D01*
X132336222Y-75316912D01*
X132336224Y-75316912D01*
X132392325Y-75301090D01*
X132534169Y-75261086D01*
X132539347Y-75258533D01*
X132539351Y-75258531D01*
X132718631Y-75170119D01*
X132723810Y-75167565D01*
X132874171Y-75055285D01*
X171663100Y-75055285D01*
X171667575Y-75070524D01*
X171668965Y-75071729D01*
X171676648Y-75073400D01*
X172748985Y-75073400D01*
X172764224Y-75068925D01*
X172765429Y-75067535D01*
X172767100Y-75059852D01*
X172767100Y-75055285D01*
X173275100Y-75055285D01*
X173279575Y-75070524D01*
X173280965Y-75071729D01*
X173288648Y-75073400D01*
X174360984Y-75073400D01*
X174376223Y-75068925D01*
X174377428Y-75067535D01*
X174379099Y-75059852D01*
X174379099Y-74432731D01*
X174378729Y-74425910D01*
X174373205Y-74375048D01*
X174369579Y-74359796D01*
X174324424Y-74239346D01*
X174315886Y-74223751D01*
X174239385Y-74121676D01*
X174226824Y-74109115D01*
X174124749Y-74032614D01*
X174109154Y-74024076D01*
X173988706Y-73978922D01*
X173973451Y-73975295D01*
X173922586Y-73969769D01*
X173915772Y-73969400D01*
X173293215Y-73969400D01*
X173277976Y-73973875D01*
X173276771Y-73975265D01*
X173275100Y-73982948D01*
X173275100Y-75055285D01*
X172767100Y-75055285D01*
X172767100Y-73987516D01*
X172762625Y-73972277D01*
X172761235Y-73971072D01*
X172753552Y-73969401D01*
X172126431Y-73969401D01*
X172119610Y-73969771D01*
X172068748Y-73975295D01*
X172053496Y-73978921D01*
X171933046Y-74024076D01*
X171917451Y-74032614D01*
X171815376Y-74109115D01*
X171802815Y-74121676D01*
X171726314Y-74223751D01*
X171717776Y-74239346D01*
X171672622Y-74359794D01*
X171668995Y-74375049D01*
X171663469Y-74425914D01*
X171663100Y-74432728D01*
X171663100Y-75055285D01*
X132874171Y-75055285D01*
X132893233Y-75041051D01*
X133036763Y-74885781D01*
X133049315Y-74865888D01*
X133146516Y-74711834D01*
X133146516Y-74711833D01*
X133149595Y-74706954D01*
X133227948Y-74510560D01*
X133229073Y-74504903D01*
X133229075Y-74504897D01*
X133268072Y-74308842D01*
X133268072Y-74308840D01*
X133269199Y-74303175D01*
X133269594Y-74273054D01*
X133271575Y-74121676D01*
X133271967Y-74091746D01*
X133236159Y-73883353D01*
X133162973Y-73684975D01*
X133054862Y-73503256D01*
X132915445Y-73344281D01*
X132749392Y-73213376D01*
X132744281Y-73210687D01*
X132744278Y-73210685D01*
X132649462Y-73160800D01*
X132562264Y-73114923D01*
X132360327Y-73052220D01*
X132345901Y-73050513D01*
X132192332Y-73032336D01*
X132192325Y-73032336D01*
X132188645Y-73031900D01*
X132066459Y-73031900D01*
X131909540Y-73046319D01*
X131903978Y-73047888D01*
X131903976Y-73047888D01*
X131847875Y-73063710D01*
X131706031Y-73103714D01*
X131700853Y-73106267D01*
X131700849Y-73106269D01*
X131525608Y-73192689D01*
X131516390Y-73197235D01*
X131346967Y-73323749D01*
X131203437Y-73479019D01*
X131200356Y-73483902D01*
X131188145Y-73503256D01*
X131090605Y-73657846D01*
X131012252Y-73854240D01*
X131011127Y-73859897D01*
X131011125Y-73859903D01*
X130972128Y-74055958D01*
X130971001Y-74061625D01*
X130970925Y-74067400D01*
X130970925Y-74067404D01*
X130970531Y-74097528D01*
X130968233Y-74273054D01*
X114564848Y-74273054D01*
X114569617Y-71967752D01*
X114570006Y-71958125D01*
X114578711Y-71847669D01*
X114578774Y-71846919D01*
X114584575Y-71780579D01*
X114587588Y-71762101D01*
X114601024Y-71706227D01*
X114611114Y-71664263D01*
X114611924Y-71661078D01*
X114623432Y-71618199D01*
X114631837Y-71586883D01*
X114637145Y-71571273D01*
X114674820Y-71480473D01*
X114677040Y-71475437D01*
X114710486Y-71403836D01*
X114717269Y-71391235D01*
X114768250Y-71308203D01*
X114772477Y-71301768D01*
X114818304Y-71236455D01*
X114825727Y-71226889D01*
X114888867Y-71153128D01*
X114895601Y-71145860D01*
X114952241Y-71089361D01*
X114959497Y-71082671D01*
X115033435Y-71019695D01*
X115043005Y-71012309D01*
X115083231Y-70984233D01*
X115108440Y-70966639D01*
X115114891Y-70962424D01*
X115131856Y-70952066D01*
X115198048Y-70911650D01*
X115210656Y-70904904D01*
X115282341Y-70871635D01*
X115287382Y-70869428D01*
X115333634Y-70850370D01*
X115378273Y-70831978D01*
X115393908Y-70826705D01*
X115468169Y-70806973D01*
X115471345Y-70806173D01*
X115569252Y-70782888D01*
X115587719Y-70779923D01*
X115652291Y-70774427D01*
X115653390Y-70774338D01*
X115726576Y-70768753D01*
X115765712Y-70765767D01*
X115775346Y-70765402D01*
X177580185Y-70791394D01*
G37*
%TD.AperFunction*%
%TD*%
M02*
