%TF.GenerationSoftware,KiCad,Pcbnew,6.0.11-2627ca5db0~126~ubuntu22.04.1*%
%TF.CreationDate,2023-05-15T07:50:27+07:00*%
%TF.ProjectId,MiSTeX-Pmod,4d695354-6558-42d5-906d-6f642e6b6963,rev?*%
%TF.SameCoordinates,Original*%
%TF.FileFunction,Paste,Top*%
%TF.FilePolarity,Positive*%
%FSLAX46Y46*%
G04 Gerber Fmt 4.6, Leading zero omitted, Abs format (unit mm)*
G04 Created by KiCad (PCBNEW 6.0.11-2627ca5db0~126~ubuntu22.04.1) date 2023-05-15 07:50:27*
%MOMM*%
%LPD*%
G01*
G04 APERTURE LIST*
G04 Aperture macros list*
%AMRoundRect*
0 Rectangle with rounded corners*
0 $1 Rounding radius*
0 $2 $3 $4 $5 $6 $7 $8 $9 X,Y pos of 4 corners*
0 Add a 4 corners polygon primitive as box body*
4,1,4,$2,$3,$4,$5,$6,$7,$8,$9,$2,$3,0*
0 Add four circle primitives for the rounded corners*
1,1,$1+$1,$2,$3*
1,1,$1+$1,$4,$5*
1,1,$1+$1,$6,$7*
1,1,$1+$1,$8,$9*
0 Add four rect primitives between the rounded corners*
20,1,$1+$1,$2,$3,$4,$5,0*
20,1,$1+$1,$4,$5,$6,$7,0*
20,1,$1+$1,$6,$7,$8,$9,0*
20,1,$1+$1,$8,$9,$2,$3,0*%
G04 Aperture macros list end*
%ADD10R,1.700000X1.000000*%
%ADD11R,0.600000X0.600000*%
%ADD12R,1.550000X0.300000*%
%ADD13R,1.520000X0.300000*%
%ADD14R,2.800000X1.300000*%
%ADD15RoundRect,0.135000X0.135000X0.185000X-0.135000X0.185000X-0.135000X-0.185000X0.135000X-0.185000X0*%
%ADD16R,1.800000X2.500000*%
%ADD17R,3.000000X1.000000*%
%ADD18R,4.800000X2.200000*%
%ADD19O,1.800000X1.200000*%
%ADD20O,2.000000X1.200000*%
%ADD21R,1.300000X0.300000*%
%ADD22R,1.190000X1.730000*%
%ADD23RoundRect,0.140000X0.170000X-0.140000X0.170000X0.140000X-0.170000X0.140000X-0.170000X-0.140000X0*%
%ADD24RoundRect,0.135000X-0.135000X-0.185000X0.135000X-0.185000X0.135000X0.185000X-0.135000X0.185000X0*%
G04 APERTURE END LIST*
D10*
%TO.C,SW1*%
X160988400Y-116437800D03*
X167588400Y-116437800D03*
X160988400Y-120137800D03*
X167588400Y-120137800D03*
%TD*%
D11*
%TO.C,D4*%
X162996100Y-95909400D03*
X162996100Y-96909400D03*
%TD*%
%TO.C,D6*%
X175071100Y-80927400D03*
X175071100Y-81927400D03*
%TD*%
D12*
%TO.C,CN2*%
X126850100Y-93432400D03*
X134400100Y-93182400D03*
X126850100Y-92932400D03*
X134400100Y-92682400D03*
X126850100Y-92432400D03*
X134400100Y-92182400D03*
X126850100Y-91932400D03*
X134400100Y-91682400D03*
X126850100Y-91432400D03*
X134400100Y-91182400D03*
X126850100Y-90932400D03*
X134400100Y-88682400D03*
X126850100Y-88432400D03*
X134400100Y-88182400D03*
X126850100Y-87932400D03*
X134400100Y-87682400D03*
X126850100Y-87432400D03*
X134400100Y-87182400D03*
X126850100Y-86932400D03*
X134400100Y-86682400D03*
X126850100Y-86432400D03*
X134400100Y-86182400D03*
X126850100Y-85932400D03*
X134400100Y-85682400D03*
X126850100Y-85432400D03*
X134400100Y-85182400D03*
X126850100Y-84932400D03*
X134400100Y-84682400D03*
X126850100Y-84432400D03*
X134400100Y-84182400D03*
X126850100Y-83932400D03*
X134400100Y-83682400D03*
X126850100Y-83432400D03*
X134390100Y-83182400D03*
X126850100Y-82932400D03*
X134390100Y-82682400D03*
X126850100Y-82432400D03*
X134390100Y-82182400D03*
X126850100Y-81932400D03*
X134390100Y-81682400D03*
X126850100Y-81432400D03*
X134390100Y-81182400D03*
X126850100Y-80932400D03*
X134390100Y-80682400D03*
X126850100Y-80432400D03*
X134390100Y-80182400D03*
X126850100Y-79932400D03*
X134390100Y-79682400D03*
X126850100Y-79432400D03*
X134390100Y-79182400D03*
D13*
X126840100Y-78932400D03*
X134390100Y-78682400D03*
X126840100Y-78432400D03*
X134390100Y-78182400D03*
X126840100Y-77932400D03*
X134390100Y-77682400D03*
X126840100Y-77432400D03*
X134390100Y-77182400D03*
D12*
X126850100Y-76932400D03*
X134390100Y-76682400D03*
X126850100Y-76432400D03*
X134390100Y-76182400D03*
X126850100Y-75932400D03*
X134390100Y-75682400D03*
X126850100Y-75432400D03*
X134390100Y-75182400D03*
X126850100Y-74932400D03*
D14*
X127570100Y-73832400D03*
X127570100Y-94532400D03*
%TD*%
D15*
%TO.C,R1*%
X158879000Y-91399400D03*
X157859000Y-91399400D03*
%TD*%
D16*
%TO.C,D1*%
X159296100Y-104832400D03*
X159296100Y-108832400D03*
%TD*%
D11*
%TO.C,D5*%
X162687400Y-114565800D03*
X162687400Y-113565800D03*
%TD*%
D17*
%TO.C,J2*%
X165058600Y-95409400D03*
X165058600Y-92909400D03*
X165058600Y-90909400D03*
X165048600Y-88409400D03*
D18*
X167288600Y-99259400D03*
X167288600Y-84559400D03*
%TD*%
D15*
%TO.C,R5*%
X124502100Y-86055200D03*
X123482100Y-86055200D03*
%TD*%
D19*
%TO.C,J5*%
X176029000Y-106164000D03*
X176029000Y-114824000D03*
D20*
X171829000Y-106164000D03*
X171829000Y-114824000D03*
D21*
X171069000Y-113844000D03*
X171069000Y-113044000D03*
X171069000Y-111744000D03*
X171069000Y-110744000D03*
X171069000Y-110244000D03*
X171069000Y-109244000D03*
X171069000Y-107944000D03*
X171069000Y-107144000D03*
X171069000Y-107444000D03*
X171069000Y-108244000D03*
X171069000Y-108744000D03*
X171069000Y-109744000D03*
X171069000Y-111244000D03*
X171069000Y-112244000D03*
X171069000Y-112744000D03*
X171069000Y-113544000D03*
%TD*%
D11*
%TO.C,D3*%
X160909000Y-92456000D03*
X160909000Y-93456000D03*
%TD*%
D15*
%TO.C,R6*%
X124529500Y-87985600D03*
X123509500Y-87985600D03*
%TD*%
D22*
%TO.C,F1*%
X165379400Y-104495600D03*
X162479400Y-104495600D03*
%TD*%
D15*
%TO.C,R3*%
X159043400Y-115757800D03*
X158023400Y-115757800D03*
%TD*%
D11*
%TO.C,D2*%
X160909598Y-91329099D03*
X160909598Y-90329099D03*
%TD*%
D23*
%TO.C,C1*%
X161293400Y-115287800D03*
X161293400Y-114327800D03*
%TD*%
D12*
%TO.C,CN1*%
X126850100Y-117582400D03*
X134400100Y-117332400D03*
X126850100Y-117082400D03*
X134400100Y-116832400D03*
X126850100Y-116582400D03*
X134400100Y-116332400D03*
X126850100Y-116082400D03*
X134400100Y-115832400D03*
X126850100Y-115582400D03*
X134400100Y-115332400D03*
X126850100Y-115082400D03*
X134400100Y-112832400D03*
X126850100Y-112582400D03*
X134400100Y-112332400D03*
X126850100Y-112082400D03*
X134400100Y-111832400D03*
X126850100Y-111582400D03*
X134400100Y-111332400D03*
X126850100Y-111082400D03*
X134400100Y-110832400D03*
X126850100Y-110582400D03*
X134400100Y-110332400D03*
X126850100Y-110082400D03*
X134400100Y-109832400D03*
X126850100Y-109582400D03*
X134400100Y-109332400D03*
X126850100Y-109082400D03*
X134400100Y-108832400D03*
X126850100Y-108582400D03*
X134400100Y-108332400D03*
X126850100Y-108082400D03*
X134400100Y-107832400D03*
X126850100Y-107582400D03*
X134390100Y-107332400D03*
X126850100Y-107082400D03*
X134390100Y-106832400D03*
X126850100Y-106582400D03*
X134390100Y-106332400D03*
X126850100Y-106082400D03*
X134390100Y-105832400D03*
X126850100Y-105582400D03*
X134390100Y-105332400D03*
X126850100Y-105082400D03*
X134390100Y-104832400D03*
X126850100Y-104582400D03*
X134390100Y-104332400D03*
X126850100Y-104082400D03*
X134390100Y-103832400D03*
X126850100Y-103582400D03*
X134390100Y-103332400D03*
D13*
X126840100Y-103082400D03*
X134390100Y-102832400D03*
X126840100Y-102582400D03*
X134390100Y-102332400D03*
X126840100Y-102082400D03*
X134390100Y-101832400D03*
X126840100Y-101582400D03*
X134390100Y-101332400D03*
D12*
X126850100Y-101082400D03*
X134390100Y-100832400D03*
X126850100Y-100582400D03*
X134390100Y-100332400D03*
X126850100Y-100082400D03*
X134390100Y-99832400D03*
X126850100Y-99582400D03*
X134390100Y-99332400D03*
X126850100Y-99082400D03*
D14*
X127570100Y-97982400D03*
X127570100Y-118682400D03*
%TD*%
D15*
%TO.C,R2*%
X158889000Y-92379400D03*
X157869000Y-92379400D03*
%TD*%
D24*
%TO.C,R8*%
X123509500Y-88950800D03*
X124529500Y-88950800D03*
%TD*%
D11*
%TO.C,D8*%
X169108700Y-110341600D03*
X168108700Y-110341600D03*
%TD*%
%TO.C,D7*%
X175021100Y-77377400D03*
X175021100Y-76377400D03*
%TD*%
D24*
%TO.C,R7*%
X123484100Y-87020400D03*
X124504100Y-87020400D03*
%TD*%
M02*
