M48
; DRILL file {KiCad 6.0.11-2627ca5db0~126~ubuntu22.04.1} date Jum 14 Apr 2023 01:07:02 
; FORMAT={-:-/ absolute / inch / decimal}
; #@! TF.CreationDate,2023-04-14T13:07:02+07:00
; #@! TF.GenerationSoftware,Kicad,Pcbnew,6.0.11-2627ca5db0~126~ubuntu22.04.1
; #@! TF.FileFunction,Plated,1,4,PTH
FMAT,2
INCH
; #@! TA.AperFunction,Plated,PTH,ViaDrill
T1C0.0079
; #@! TA.AperFunction,Plated,PTH,ViaDrill
T2C0.0157
; #@! TA.AperFunction,Plated,PTH,ComponentDrill
T3C0.0295
; #@! TA.AperFunction,Plated,PTH,ComponentDrill
T4C0.0315
; #@! TA.AperFunction,Plated,PTH,ViaDrill
T5C0.0394
; #@! TA.AperFunction,Plated,PTH,ComponentDrill
T6C0.0394
; #@! TA.AperFunction,Plated,PTH,ComponentDrill
T7C0.0472
; #@! TA.AperFunction,Plated,PTH,ComponentDrill
T8C0.0512
; #@! TA.AperFunction,Plated,PTH,ComponentDrill
T9C0.0709
; #@! TA.AperFunction,Plated,PTH,ComponentDrill
T10C0.0866
%
G90
G05
T1
X4.8138Y-3.8664
X4.8138Y-3.9068
X4.8138Y-3.9471
X4.8138Y-3.9875
X4.8138Y-4.0279
X4.8138Y-4.0682
X4.8138Y-4.1086
X4.8138Y-4.1489
X4.8138Y-4.1893
X4.8315Y-3.828
X4.8335Y-4.2198
X4.8635Y-3.798
X4.8715Y-4.256
X4.8846Y-3.8871
X4.8846Y-3.9213
X4.8846Y-3.9555
X4.8846Y-3.9897
X4.8846Y-4.0239
X4.8846Y-4.0581
X4.8846Y-4.0923
X4.8846Y-4.1265
X4.8846Y-4.1607
X4.8915Y-3.768
X4.9063Y-3.8536
X4.9063Y-4.1903
X4.9115Y-4.286
X4.9165Y-2.931
X4.9165Y-2.981
X4.9165Y-3.031
X4.9165Y-3.081
X4.9165Y-3.131
X4.9165Y-3.181
X4.9165Y-3.231
X4.9165Y-3.281
X4.9165Y-3.331
X4.9299Y-3.7513
X4.9339Y-3.8241
X4.9378Y-4.206
X5.0559Y-3.332
X5.0995Y-3.76
X5.0995Y-3.82
X5.1555Y-3.824
X5.1657Y-3.7552
X5.2114Y-3.7552
X5.2592Y-3.7552
X5.2606Y-3.832
X5.3049Y-3.7552
X5.3064Y-3.832
X5.3507Y-3.7552
X5.3522Y-3.832
X5.4065Y-3.7552
X5.408Y-3.832
X5.4715Y-3.756
X5.4715Y-3.8328
X5.5095Y-3.832
X5.5115Y-3.756
X5.5455Y-3.832
X5.5595Y-3.748
X5.5868Y-3.8261
X5.5907Y-3.7159
X5.6104Y-3.8025
X5.6163Y-3.6883
X5.636Y-3.7749
X5.64Y-3.6607
X5.6596Y-3.7474
X5.6675Y-3.6332
X5.6872Y-3.7198
X5.6995Y-3.606
X5.7148Y-3.6922
X5.7335Y-3.578
X5.7423Y-3.6627
X5.7835Y-3.5772
X5.7915Y-3.65
X5.8266Y-3.5772
X5.8339Y-3.65
X5.8697Y-3.5772
X5.8762Y-3.65
X5.9128Y-3.5772
X5.9186Y-3.65
X5.9559Y-3.5772
X5.961Y-3.65
X5.999Y-3.5772
X6.0033Y-3.65
X6.042Y-3.5772
X6.0457Y-3.65
X6.0851Y-3.5772
X6.088Y-3.65
X6.1282Y-3.5772
X6.1304Y-3.65
X6.1713Y-3.5772
X6.1728Y-3.65
X6.2144Y-3.5772
X6.2151Y-3.65
X6.2575Y-3.5772
X6.2575Y-3.65
X6.3765Y-3.651
X6.3865Y-3.581
X6.4164Y-3.581
X6.4215Y-3.651
T2
X4.5775Y-4.036
X4.6685Y-4.037
X4.8255Y-3.426
X5.0598Y-3.9599
X5.0598Y-4.019
X5.0598Y-4.078
X5.0598Y-4.1371
X5.1715Y-3.066
X5.1715Y-3.166
X5.1948Y-3.4714
X5.1996Y-3.4403
X5.2019Y-3.4084
X5.2035Y-3.3753
X5.2195Y-4.0879
X5.2311Y-4.58
X5.3492Y-3.1962
X5.3492Y-3.2552
X5.3492Y-3.3143
X5.3492Y-3.3733
X5.3492Y-3.4324
X5.3492Y-3.4914
X5.3735Y-3.72
X5.3755Y-4.004
X5.3755Y-4.15
X5.4375Y-3.682
X5.6615Y-4.541
X5.9965Y-4.541
X6.2714Y-4.7287
X6.3424Y-3.459
X6.3424Y-3.772
X6.3501Y-4.4688
X6.4172Y-3.8606
X6.6801Y-4.2172
X6.6851Y-4.4822
X6.8493Y-3.2373
T3
X6.7846Y-4.236
X6.7846Y-4.4643
T5
X5.1189Y-2.9068
X5.1189Y-3.8595
X5.1248Y-3.7217
X5.1248Y-4.6725
X6.405Y-3.4787
T6
X4.6195Y-3.262
X4.6195Y-3.362
X4.6195Y-3.462
X4.6195Y-3.562
X4.6195Y-3.662
X4.6195Y-3.762
X4.6195Y-4.162
X4.6195Y-4.262
X4.6195Y-4.362
X4.6195Y-4.462
X4.6195Y-4.562
X4.6195Y-4.662
X4.7195Y-3.262
X4.7195Y-3.362
X4.7195Y-3.462
X4.7195Y-3.562
X4.7195Y-3.662
X4.7195Y-3.762
X4.7195Y-4.162
X4.7195Y-4.262
X4.7195Y-4.362
X4.7195Y-4.462
X4.7195Y-4.562
X4.7195Y-4.662
X6.8119Y-2.9656
X6.8119Y-3.0656
X6.8119Y-3.1656
T7
X5.2016Y-3.708
X5.2016Y-4.6588
T8
X6.6377Y-3.5201
X6.6377Y-3.7169
T9
X5.2016Y-2.9206
X5.2016Y-3.8714
T10
X6.0953Y-3.7922
T4
G00X6.7492Y-4.1797
M15
G01X6.7807Y-4.1797
M16
G05
G00X6.7492Y-4.5206
M15
G01X6.7807Y-4.5206
M16
G05
G00X6.9185Y-4.1797
M15
G01X6.9421Y-4.1797
M16
G05
G00X6.9185Y-4.5206
M15
G01X6.9421Y-4.5206
M16
G05
T0
M30
