%TF.GenerationSoftware,KiCad,Pcbnew,7.0.10*%
%TF.CreationDate,2024-01-24T08:03:13+07:00*%
%TF.ProjectId,QMTech-MiSTeX,514d5465-6368-42d4-9d69-535465582e6b,rev?*%
%TF.SameCoordinates,Original*%
%TF.FileFunction,Legend,Bot*%
%TF.FilePolarity,Positive*%
%FSLAX46Y46*%
G04 Gerber Fmt 4.6, Leading zero omitted, Abs format (unit mm)*
G04 Created by KiCad (PCBNEW 7.0.10) date 2024-01-24 08:03:13*
%MOMM*%
%LPD*%
G01*
G04 APERTURE LIST*
G04 Aperture macros list*
%AMRoundRect*
0 Rectangle with rounded corners*
0 $1 Rounding radius*
0 $2 $3 $4 $5 $6 $7 $8 $9 X,Y pos of 4 corners*
0 Add a 4 corners polygon primitive as box body*
4,1,4,$2,$3,$4,$5,$6,$7,$8,$9,$2,$3,0*
0 Add four circle primitives for the rounded corners*
1,1,$1+$1,$2,$3*
1,1,$1+$1,$4,$5*
1,1,$1+$1,$6,$7*
1,1,$1+$1,$8,$9*
0 Add four rect primitives between the rounded corners*
20,1,$1+$1,$2,$3,$4,$5,0*
20,1,$1+$1,$4,$5,$6,$7,0*
20,1,$1+$1,$6,$7,$8,$9,0*
20,1,$1+$1,$8,$9,$2,$3,0*%
G04 Aperture macros list end*
%ADD10C,0.150000*%
%ADD11C,0.120000*%
%ADD12RoundRect,0.100000X0.850000X0.850000X-0.850000X0.850000X-0.850000X-0.850000X0.850000X-0.850000X0*%
%ADD13O,1.900000X1.900000*%
%ADD14RoundRect,0.100000X-0.850000X0.850000X-0.850000X-0.850000X0.850000X-0.850000X0.850000X0.850000X0*%
%ADD15C,1.900000*%
%ADD16C,4.200000*%
%ADD17RoundRect,0.100000X-0.850000X-0.850000X0.850000X-0.850000X0.850000X0.850000X-0.850000X0.850000X0*%
%ADD18R,1.680000X1.680000*%
%ADD19O,1.680000X1.680000*%
%ADD20C,1.000000*%
%ADD21C,6.200000*%
%ADD22C,3.200000*%
%ADD23C,0.850000*%
%ADD24O,2.300000X1.200000*%
%ADD25O,1.800000X1.200000*%
%ADD26RoundRect,0.100000X0.850000X-0.850000X0.850000X0.850000X-0.850000X0.850000X-0.850000X-0.850000X0*%
%ADD27O,3.700000X1.700000*%
%ADD28O,2.500000X1.700000*%
%ADD29RoundRect,0.100000X-0.700000X0.700000X-0.700000X-0.700000X0.700000X-0.700000X0.700000X0.700000X0*%
%ADD30C,1.600000*%
%ADD31C,2.000000*%
%ADD32C,1.200000*%
%ADD33O,3.900000X2.000000*%
%ADD34C,1.300000*%
%ADD35C,2.200000*%
G04 APERTURE END LIST*
D10*
X228058504Y-53201219D02*
X227487076Y-53201219D01*
X227772790Y-54201219D02*
X227772790Y-53201219D01*
X227153742Y-54201219D02*
X227153742Y-53201219D01*
X227153742Y-53201219D02*
X226772790Y-53201219D01*
X226772790Y-53201219D02*
X226677552Y-53248838D01*
X226677552Y-53248838D02*
X226629933Y-53296457D01*
X226629933Y-53296457D02*
X226582314Y-53391695D01*
X226582314Y-53391695D02*
X226582314Y-53534552D01*
X226582314Y-53534552D02*
X226629933Y-53629790D01*
X226629933Y-53629790D02*
X226677552Y-53677409D01*
X226677552Y-53677409D02*
X226772790Y-53725028D01*
X226772790Y-53725028D02*
X227153742Y-53725028D01*
X225629933Y-54201219D02*
X226201361Y-54201219D01*
X225915647Y-54201219D02*
X225915647Y-53201219D01*
X225915647Y-53201219D02*
X226010885Y-53344076D01*
X226010885Y-53344076D02*
X226106123Y-53439314D01*
X226106123Y-53439314D02*
X226201361Y-53486933D01*
X235934933Y-41881633D02*
X235534933Y-41881633D01*
X235734933Y-42581633D02*
X235734933Y-41881633D01*
X235301600Y-42581633D02*
X235301600Y-41881633D01*
X235301600Y-41881633D02*
X235034933Y-41881633D01*
X235034933Y-41881633D02*
X234968267Y-41914966D01*
X234968267Y-41914966D02*
X234934933Y-41948300D01*
X234934933Y-41948300D02*
X234901600Y-42014966D01*
X234901600Y-42014966D02*
X234901600Y-42114966D01*
X234901600Y-42114966D02*
X234934933Y-42181633D01*
X234934933Y-42181633D02*
X234968267Y-42214966D01*
X234968267Y-42214966D02*
X235034933Y-42248300D01*
X235034933Y-42248300D02*
X235301600Y-42248300D01*
X234268267Y-41881633D02*
X234601600Y-41881633D01*
X234601600Y-41881633D02*
X234634933Y-42214966D01*
X234634933Y-42214966D02*
X234601600Y-42181633D01*
X234601600Y-42181633D02*
X234534933Y-42148300D01*
X234534933Y-42148300D02*
X234368267Y-42148300D01*
X234368267Y-42148300D02*
X234301600Y-42181633D01*
X234301600Y-42181633D02*
X234268267Y-42214966D01*
X234268267Y-42214966D02*
X234234933Y-42281633D01*
X234234933Y-42281633D02*
X234234933Y-42448300D01*
X234234933Y-42448300D02*
X234268267Y-42514966D01*
X234268267Y-42514966D02*
X234301600Y-42548300D01*
X234301600Y-42548300D02*
X234368267Y-42581633D01*
X234368267Y-42581633D02*
X234534933Y-42581633D01*
X234534933Y-42581633D02*
X234601600Y-42548300D01*
X234601600Y-42548300D02*
X234634933Y-42514966D01*
X225670904Y-44616019D02*
X225099476Y-44616019D01*
X225385190Y-45616019D02*
X225385190Y-44616019D01*
X224766142Y-45616019D02*
X224766142Y-44616019D01*
X224766142Y-44616019D02*
X224385190Y-44616019D01*
X224385190Y-44616019D02*
X224289952Y-44663638D01*
X224289952Y-44663638D02*
X224242333Y-44711257D01*
X224242333Y-44711257D02*
X224194714Y-44806495D01*
X224194714Y-44806495D02*
X224194714Y-44949352D01*
X224194714Y-44949352D02*
X224242333Y-45044590D01*
X224242333Y-45044590D02*
X224289952Y-45092209D01*
X224289952Y-45092209D02*
X224385190Y-45139828D01*
X224385190Y-45139828D02*
X224766142Y-45139828D01*
X223861380Y-44616019D02*
X223242333Y-44616019D01*
X223242333Y-44616019D02*
X223575666Y-44996971D01*
X223575666Y-44996971D02*
X223432809Y-44996971D01*
X223432809Y-44996971D02*
X223337571Y-45044590D01*
X223337571Y-45044590D02*
X223289952Y-45092209D01*
X223289952Y-45092209D02*
X223242333Y-45187447D01*
X223242333Y-45187447D02*
X223242333Y-45425542D01*
X223242333Y-45425542D02*
X223289952Y-45520780D01*
X223289952Y-45520780D02*
X223337571Y-45568400D01*
X223337571Y-45568400D02*
X223432809Y-45616019D01*
X223432809Y-45616019D02*
X223718523Y-45616019D01*
X223718523Y-45616019D02*
X223813761Y-45568400D01*
X223813761Y-45568400D02*
X223861380Y-45520780D01*
X236061933Y-62277833D02*
X235661933Y-62277833D01*
X235861933Y-62977833D02*
X235861933Y-62277833D01*
X235428600Y-62977833D02*
X235428600Y-62277833D01*
X235428600Y-62277833D02*
X235161933Y-62277833D01*
X235161933Y-62277833D02*
X235095267Y-62311166D01*
X235095267Y-62311166D02*
X235061933Y-62344500D01*
X235061933Y-62344500D02*
X235028600Y-62411166D01*
X235028600Y-62411166D02*
X235028600Y-62511166D01*
X235028600Y-62511166D02*
X235061933Y-62577833D01*
X235061933Y-62577833D02*
X235095267Y-62611166D01*
X235095267Y-62611166D02*
X235161933Y-62644500D01*
X235161933Y-62644500D02*
X235428600Y-62644500D01*
X234428600Y-62511166D02*
X234428600Y-62977833D01*
X234595267Y-62244500D02*
X234761933Y-62744500D01*
X234761933Y-62744500D02*
X234328600Y-62744500D01*
X224451704Y-49289619D02*
X223880276Y-49289619D01*
X224165990Y-50289619D02*
X224165990Y-49289619D01*
X223546942Y-50289619D02*
X223546942Y-49289619D01*
X223546942Y-49289619D02*
X223165990Y-49289619D01*
X223165990Y-49289619D02*
X223070752Y-49337238D01*
X223070752Y-49337238D02*
X223023133Y-49384857D01*
X223023133Y-49384857D02*
X222975514Y-49480095D01*
X222975514Y-49480095D02*
X222975514Y-49622952D01*
X222975514Y-49622952D02*
X223023133Y-49718190D01*
X223023133Y-49718190D02*
X223070752Y-49765809D01*
X223070752Y-49765809D02*
X223165990Y-49813428D01*
X223165990Y-49813428D02*
X223546942Y-49813428D01*
X222594561Y-49384857D02*
X222546942Y-49337238D01*
X222546942Y-49337238D02*
X222451704Y-49289619D01*
X222451704Y-49289619D02*
X222213609Y-49289619D01*
X222213609Y-49289619D02*
X222118371Y-49337238D01*
X222118371Y-49337238D02*
X222070752Y-49384857D01*
X222070752Y-49384857D02*
X222023133Y-49480095D01*
X222023133Y-49480095D02*
X222023133Y-49575333D01*
X222023133Y-49575333D02*
X222070752Y-49718190D01*
X222070752Y-49718190D02*
X222642180Y-50289619D01*
X222642180Y-50289619D02*
X222023133Y-50289619D01*
D11*
%TO.C,TP1*%
X228174400Y-55880000D02*
G75*
G03*
X225774400Y-55880000I-1200000J0D01*
G01*
X225774400Y-55880000D02*
G75*
G03*
X228174400Y-55880000I1200000J0D01*
G01*
%TO.C,TP5*%
X236353200Y-44373800D02*
G75*
G03*
X233953200Y-44373800I-1200000J0D01*
G01*
X233953200Y-44373800D02*
G75*
G03*
X236353200Y-44373800I1200000J0D01*
G01*
%TO.C,TP3*%
X229038000Y-45085000D02*
G75*
G03*
X226638000Y-45085000I-1200000J0D01*
G01*
X226638000Y-45085000D02*
G75*
G03*
X229038000Y-45085000I1200000J0D01*
G01*
%TO.C,TP4*%
X236378600Y-60401200D02*
G75*
G03*
X233978600Y-60401200I-1200000J0D01*
G01*
X233978600Y-60401200D02*
G75*
G03*
X236378600Y-60401200I1200000J0D01*
G01*
%TO.C,TP2*%
X227488600Y-49733200D02*
G75*
G03*
X225088600Y-49733200I-1200000J0D01*
G01*
X225088600Y-49733200D02*
G75*
G03*
X227488600Y-49733200I1200000J0D01*
G01*
%TD*%
%LPC*%
D12*
%TO.C,J14*%
X148386800Y-72034400D03*
D13*
X148386800Y-69494400D03*
X148386800Y-66954400D03*
X148386800Y-64414400D03*
X148386800Y-61874400D03*
%TD*%
D14*
%TO.C,J6*%
X175209200Y-44704000D03*
D13*
X172669200Y-44704000D03*
X170129200Y-44704000D03*
X167589200Y-44704000D03*
X165049200Y-44704000D03*
X162509200Y-44704000D03*
%TD*%
D15*
%TO.C,VGA1*%
X230480800Y-48073800D03*
X230480800Y-50343800D03*
X230480800Y-52633800D03*
X230480800Y-54923800D03*
X230480800Y-57213800D03*
X232460800Y-46913800D03*
X232460800Y-49193800D03*
X232460800Y-51493800D03*
X232460800Y-53773800D03*
X232460800Y-56073800D03*
X234440800Y-48073800D03*
X234440800Y-50343800D03*
X234440800Y-52633800D03*
X234440800Y-54923800D03*
X234440800Y-57213800D03*
D16*
X232460800Y-39893800D03*
X232460800Y-64873800D03*
%TD*%
D17*
%TO.C,J12*%
X172593000Y-51206400D03*
D13*
X172593000Y-53746400D03*
X172593000Y-56286400D03*
%TD*%
D18*
%TO.C,J4*%
X136309100Y-58694400D03*
D19*
X138849100Y-58694400D03*
X136309100Y-61234400D03*
X138849100Y-61234400D03*
X136309100Y-63774400D03*
X138849100Y-63774400D03*
X136309100Y-66314400D03*
X138849100Y-66314400D03*
X136309100Y-68854400D03*
X138849100Y-68854400D03*
X136309100Y-71394400D03*
X138849100Y-71394400D03*
X136309100Y-73934400D03*
X138849100Y-73934400D03*
X136309100Y-76474400D03*
X138849100Y-76474400D03*
X136309100Y-79014400D03*
X138849100Y-79014400D03*
X136309100Y-81554400D03*
X138849100Y-81554400D03*
X136309100Y-84094400D03*
X138849100Y-84094400D03*
X136309100Y-86634400D03*
X138849100Y-86634400D03*
X136309100Y-89174400D03*
X138849100Y-89174400D03*
X136309100Y-91714400D03*
X138849100Y-91714400D03*
X136309100Y-94254400D03*
X138849100Y-94254400D03*
X136309100Y-96794400D03*
X138849100Y-96794400D03*
X136309100Y-99334400D03*
X138849100Y-99334400D03*
X136309100Y-101874400D03*
X138849100Y-101874400D03*
X136309100Y-104414400D03*
X138849100Y-104414400D03*
X136309100Y-106954400D03*
X138849100Y-106954400D03*
X136309100Y-109494400D03*
X138849100Y-109494400D03*
X136309100Y-112034400D03*
X138849100Y-112034400D03*
X136309100Y-114574400D03*
X138849100Y-114574400D03*
X136309100Y-117114400D03*
X138849100Y-117114400D03*
X136309100Y-119654400D03*
X138849100Y-119654400D03*
X136309100Y-122194400D03*
X138849100Y-122194400D03*
X136309100Y-124734400D03*
X138849100Y-124734400D03*
X136309100Y-127274400D03*
X138849100Y-127274400D03*
X136309100Y-129814400D03*
X138849100Y-129814400D03*
X136309100Y-132354400D03*
X138849100Y-132354400D03*
X136309100Y-134894400D03*
X138849100Y-134894400D03*
X136309100Y-137434400D03*
X138849100Y-137434400D03*
%TD*%
D20*
%TO.C,H8*%
X107387000Y-62103000D03*
X108046010Y-60512010D03*
X108046010Y-63693990D03*
X109637000Y-59853000D03*
D21*
X109637000Y-62103000D03*
D20*
X109637000Y-64353000D03*
X111227990Y-60512010D03*
X111227990Y-63693990D03*
X111887000Y-62103000D03*
%TD*%
D12*
%TO.C,J11*%
X227457000Y-108966000D03*
D13*
X227457000Y-106426000D03*
X227457000Y-103886000D03*
X227457000Y-101346000D03*
X227457000Y-98806000D03*
X227457000Y-96266000D03*
%TD*%
D22*
%TO.C,H3*%
X99314000Y-98044000D03*
%TD*%
D18*
%TO.C,J2*%
X130149600Y-86715600D03*
D19*
X132689600Y-86715600D03*
X130149600Y-89255600D03*
X132689600Y-89255600D03*
X130149600Y-91795600D03*
X132689600Y-91795600D03*
X130149600Y-94335600D03*
X132689600Y-94335600D03*
X130149600Y-96875600D03*
X132689600Y-96875600D03*
X130149600Y-99415600D03*
X132689600Y-99415600D03*
X130149600Y-101955600D03*
X132689600Y-101955600D03*
X130149600Y-104495600D03*
X132689600Y-104495600D03*
X130149600Y-107035600D03*
X132689600Y-107035600D03*
X130149600Y-109575600D03*
X132689600Y-109575600D03*
X130149600Y-112115600D03*
X132689600Y-112115600D03*
X130149600Y-114655600D03*
X132689600Y-114655600D03*
X130149600Y-117195600D03*
X132689600Y-117195600D03*
X130149600Y-119735600D03*
X132689600Y-119735600D03*
X130149600Y-122275600D03*
X132689600Y-122275600D03*
X130149600Y-124815600D03*
X132689600Y-124815600D03*
X130149600Y-127355600D03*
X132689600Y-127355600D03*
X130149600Y-129895600D03*
X132689600Y-129895600D03*
X130149600Y-132435600D03*
X132689600Y-132435600D03*
X130149600Y-134975600D03*
X132689600Y-134975600D03*
%TD*%
D22*
%TO.C,H1*%
X99314000Y-39878000D03*
%TD*%
D17*
%TO.C,J9*%
X169595800Y-73253600D03*
D13*
X169595800Y-75793600D03*
%TD*%
D14*
%TO.C,JP1*%
X133223000Y-42419000D03*
D13*
X130683000Y-42419000D03*
X128143000Y-42419000D03*
%TD*%
D17*
%TO.C,J8*%
X205994000Y-114376200D03*
D13*
X205994000Y-116916200D03*
X205994000Y-119456200D03*
%TD*%
D20*
%TO.C,H6*%
X222093400Y-40563800D03*
X222752410Y-38972810D03*
X222752410Y-42154790D03*
X224343400Y-38313800D03*
D21*
X224343400Y-40563800D03*
D20*
X224343400Y-42813800D03*
X225934390Y-38972810D03*
X225934390Y-42154790D03*
X226593400Y-40563800D03*
%TD*%
D23*
%TO.C,J3*%
X100906000Y-86520000D03*
X100906000Y-92300000D03*
D24*
X101406000Y-85090000D03*
D25*
X97226000Y-85090000D03*
D24*
X101406000Y-93730000D03*
D25*
X97226000Y-93730000D03*
%TD*%
D17*
%TO.C,J1*%
X121259600Y-44907200D03*
D13*
X123799600Y-44907200D03*
X121259600Y-47447200D03*
X123799600Y-47447200D03*
X121259600Y-49987200D03*
X123799600Y-49987200D03*
X121259600Y-52527200D03*
X123799600Y-52527200D03*
X121259600Y-55067200D03*
X123799600Y-55067200D03*
X121259600Y-57607200D03*
X123799600Y-57607200D03*
X121259600Y-60147200D03*
X123799600Y-60147200D03*
X121259600Y-62687200D03*
X123799600Y-62687200D03*
X121259600Y-65227200D03*
X123799600Y-65227200D03*
X121259600Y-67767200D03*
X123799600Y-67767200D03*
X121259600Y-70307200D03*
X123799600Y-70307200D03*
X121259600Y-72847200D03*
X123799600Y-72847200D03*
X121259600Y-75387200D03*
X123799600Y-75387200D03*
X121259600Y-77927200D03*
X123799600Y-77927200D03*
X121259600Y-80467200D03*
X123799600Y-80467200D03*
X121259600Y-83007200D03*
X123799600Y-83007200D03*
X121259600Y-85547200D03*
X123799600Y-85547200D03*
X121259600Y-88087200D03*
X123799600Y-88087200D03*
X121259600Y-90627200D03*
X123799600Y-90627200D03*
X121259600Y-93167200D03*
X123799600Y-93167200D03*
%TD*%
D17*
%TO.C,J7*%
X172516800Y-59969400D03*
D13*
X172516800Y-62509400D03*
X172516800Y-65049400D03*
%TD*%
D26*
%TO.C,J10*%
X224129600Y-58826400D03*
D13*
X226669600Y-58826400D03*
%TD*%
D23*
%TO.C,J13*%
X232781800Y-144598600D03*
X232781800Y-138818600D03*
D24*
X232281800Y-146028600D03*
D25*
X236461800Y-146028600D03*
D24*
X232281800Y-137388600D03*
D25*
X236461800Y-137388600D03*
%TD*%
D27*
%TO.C,HDMI1*%
X229717600Y-89938000D03*
X229717600Y-75438000D03*
D28*
X235677600Y-89938000D03*
X235677600Y-75438000D03*
%TD*%
D18*
%TO.C,J5*%
X197269100Y-58694400D03*
D19*
X199809100Y-58694400D03*
X197269100Y-61234400D03*
X199809100Y-61234400D03*
X197269100Y-63774400D03*
X199809100Y-63774400D03*
X197269100Y-66314400D03*
X199809100Y-66314400D03*
X197269100Y-68854400D03*
X199809100Y-68854400D03*
X197269100Y-71394400D03*
X199809100Y-71394400D03*
X197269100Y-73934400D03*
X199809100Y-73934400D03*
X197269100Y-76474400D03*
X199809100Y-76474400D03*
X197269100Y-79014400D03*
X199809100Y-79014400D03*
X197269100Y-81554400D03*
X199809100Y-81554400D03*
X197269100Y-84094400D03*
X199809100Y-84094400D03*
X197269100Y-86634400D03*
X199809100Y-86634400D03*
X197269100Y-89174400D03*
X199809100Y-89174400D03*
X197269100Y-91714400D03*
X199809100Y-91714400D03*
X197269100Y-94254400D03*
X199809100Y-94254400D03*
X197269100Y-96794400D03*
X199809100Y-96794400D03*
X197269100Y-99334400D03*
X199809100Y-99334400D03*
X197269100Y-101874400D03*
X199809100Y-101874400D03*
X197269100Y-104414400D03*
X199809100Y-104414400D03*
X197269100Y-106954400D03*
X199809100Y-106954400D03*
X197269100Y-109494400D03*
X199809100Y-109494400D03*
X197269100Y-112034400D03*
X199809100Y-112034400D03*
X197269100Y-114574400D03*
X199809100Y-114574400D03*
X197269100Y-117114400D03*
X199809100Y-117114400D03*
X197269100Y-119654400D03*
X199809100Y-119654400D03*
X197269100Y-122194400D03*
X199809100Y-122194400D03*
X197269100Y-124734400D03*
X199809100Y-124734400D03*
X197269100Y-127274400D03*
X199809100Y-127274400D03*
X197269100Y-129814400D03*
X199809100Y-129814400D03*
X197269100Y-132354400D03*
X199809100Y-132354400D03*
X197269100Y-134894400D03*
X199809100Y-134894400D03*
X197269100Y-137434400D03*
X199809100Y-137434400D03*
%TD*%
D22*
%TO.C,H2*%
X122555000Y-39878000D03*
%TD*%
D20*
%TO.C,H7*%
X231480800Y-152374600D03*
X232139810Y-150783610D03*
X232139810Y-153965590D03*
X233730800Y-150124600D03*
D21*
X233730800Y-152374600D03*
D20*
X233730800Y-154624600D03*
X235321790Y-150783610D03*
X235321790Y-153965590D03*
X235980800Y-152374600D03*
%TD*%
D29*
%TO.C,U5*%
X226589600Y-120573800D03*
D30*
X226589600Y-118033800D03*
X226589600Y-115493800D03*
D31*
X229209600Y-120573800D03*
X229209600Y-115493800D03*
%TD*%
D32*
%TO.C,TF1*%
X205566400Y-152689200D03*
X213546400Y-152689200D03*
%TD*%
D33*
%TO.C,USB1*%
X106721000Y-56247000D03*
X106721000Y-43447000D03*
%TD*%
D34*
%TO.C,CN1*%
X234649100Y-129692400D03*
X228649100Y-129692400D03*
%TD*%
D20*
%TO.C,H5*%
X99005000Y-151206200D03*
X99664010Y-149615210D03*
X99664010Y-152797190D03*
X101255000Y-148956200D03*
D21*
X101255000Y-151206200D03*
D20*
X101255000Y-153456200D03*
X102845990Y-149615210D03*
X102845990Y-152797190D03*
X103505000Y-151206200D03*
%TD*%
D22*
%TO.C,H4*%
X122555000Y-98044000D03*
%TD*%
D35*
%TO.C,TP1*%
X226974400Y-55880000D03*
%TD*%
%TO.C,TP5*%
X235153200Y-44373800D03*
%TD*%
%TO.C,TP3*%
X227838000Y-45085000D03*
%TD*%
%TO.C,TP4*%
X235178600Y-60401200D03*
%TD*%
%TO.C,TP2*%
X226288600Y-49733200D03*
%TD*%
%LPD*%
M02*
