M48
; DRILL file {KiCad 7.0.10} date Wed 24 Jan 2024 08:03:13 AM WIB
; FORMAT={-:-/ absolute / inch / decimal}
; #@! TF.CreationDate,2024-01-24T08:03:13+07:00
; #@! TF.GenerationSoftware,Kicad,Pcbnew,7.0.10
; #@! TF.FileFunction,Plated,1,4,PTH
FMAT,2
INCH
; #@! TA.AperFunction,Plated,PTH,ViaDrill
T1C0.0079
; #@! TA.AperFunction,Plated,PTH,ViaDrill
T2C0.0157
; #@! TA.AperFunction,Plated,PTH,ComponentDrill
T3C0.0197
; #@! TA.AperFunction,Plated,PTH,ComponentDrill
T4C0.0236
; #@! TA.AperFunction,Plated,PTH,ComponentDrill
T5C0.0354
; #@! TA.AperFunction,Plated,PTH,ComponentDrill
T6C0.0394
; #@! TA.AperFunction,Plated,PTH,ViaDrill
T7C0.0394
; #@! TA.AperFunction,Plated,PTH,ComponentDrill
T8C0.0394
; #@! TA.AperFunction,Plated,PTH,ComponentDrill
T9C0.0429
; #@! TA.AperFunction,Plated,PTH,ComponentDrill
T10C0.0433
; #@! TA.AperFunction,Plated,PTH,ComponentDrill
T11C0.0472
; #@! TA.AperFunction,Plated,PTH,ComponentDrill
T12C0.1181
; #@! TA.AperFunction,Plated,PTH,ComponentDrill
T13C0.1260
%
G90
G05
T1
X3.9013Y-4.5699
X3.902Y-5.44
X3.917Y-4.097
X3.9798Y-3.4901
X3.9798Y-3.5301
X4.1603Y-4.5679
X4.164Y-5.438
X4.17Y-1.845
X4.177Y-4.096
X4.294Y-2.08
X4.297Y-2.033
X4.405Y-1.885
X4.628Y-3.94
X4.6429Y-3.9231
X4.659Y-3.907
X4.666Y-3.885
X4.954Y-3.916
X4.992Y-4.024
X5.012Y-5.02
X5.03Y-3.708
X5.032Y-3.814
X5.175Y-1.848
X5.535Y-4.715
X5.54Y-4.815
X5.545Y-4.885
X5.952Y-2.676
X6.013Y-2.666
X6.014Y-2.608
X6.038Y-2.487
X6.038Y-2.561
X6.039Y-2.412
X6.04Y-2.354
X6.053Y-2.712
X6.08Y-2.171
X6.081Y-2.21
X6.105Y-2.143
X6.106Y-2.239
X6.139Y-3.099
X6.16Y-3.113
X6.176Y-3.129
X6.191Y-2.224
X6.202Y-3.134
X6.225Y-2.227
X6.256Y-2.753
X6.2906Y-2.667
X6.292Y-2.795
X6.293Y-2.773
X6.331Y-2.79
X6.359Y-2.825
X6.504Y-2.341
X6.505Y-2.423
X6.676Y-2.822
X6.793Y-2.299
X7.912Y-3.237
X7.917Y-2.84
X7.917Y-2.89
X7.918Y-2.938
X7.918Y-2.985
X7.919Y-2.729
X7.919Y-3.032
X7.92Y-3.087
X7.92Y-3.137
X7.92Y-3.535
X7.921Y-3.434
X7.921Y-3.587
X7.922Y-3.651
X7.922Y-3.737
X7.922Y-3.786
X7.922Y-3.933
X7.924Y-3.834
X7.924Y-3.886
X8.094Y-3.606
X8.228Y-4.082
X8.228Y-4.133
X8.228Y-4.184
X8.228Y-4.233
X8.302Y-3.795
X8.34Y-3.193
X8.346Y-3.784
X8.351Y-3.28
X8.371Y-3.787
X8.388Y-3.711
X8.511Y-3.582
X8.568Y-3.29
X8.617Y-3.323
X8.634Y-3.773
X8.636Y-3.222
X8.653Y-3.128
X8.665Y-3.195
X8.678Y-3.548
X8.688Y-3.47
X8.693Y-3.085
X8.698Y-3.414
X8.708Y-3.232
X8.729Y-3.126
X8.734Y-3.203
X8.745Y-3.282
X8.748Y-3.413
X8.763Y-3.186
X8.766Y-3.072
X8.77Y-3.256
X8.774Y-3.52
X8.801Y-3.184
X8.801Y-3.245
X8.815Y-3.126
X8.827Y-3.346
X8.829Y-3.303
X8.829Y-3.385
X8.836Y-3.184
X8.844Y-3.07
X8.849Y-3.244
X8.85Y-3.126
X8.853Y-3.365
X8.89Y-3.438
X8.899Y-3.304
X8.922Y-3.514
X8.944Y-3.186
X8.945Y-3.064
X8.945Y-3.126
X8.945Y-3.244
X8.945Y-3.314
T2
X3.859Y-3.29
X3.8813Y-3.5201
X4.07Y-3.645
X4.071Y-3.394
X4.099Y-3.291
X4.176Y-5.794
X4.183Y-5.367
X4.1833Y-4.9349
X4.3239Y-4.3848
X4.327Y-5.632
X4.329Y-5.188
X4.3293Y-4.7619
X4.3865Y-1.7385
X4.4972Y-5.119
X4.53Y-2.065
X4.55Y-2.77
X4.5567Y-2.6
X4.63Y-2.06
X4.665Y-1.905
X4.665Y-1.99
X4.7842Y-4.927
X4.8542Y-5.115
X4.8662Y-5.349
X4.992Y-4.701
X5.061Y-3.03
X5.135Y-1.765
X5.175Y-1.97
X5.216Y-2.86
X5.22Y-3.18
X5.265Y-3.225
X5.282Y-2.724
X5.3Y-3.141
X5.32Y-2.756
X5.59Y-3.661
X5.591Y-3.47
X5.592Y-3.758
X5.984Y-2.531
X5.991Y-2.468
X6.025Y-2.278
X6.082Y-2.011
X6.149Y-2.644
X6.178Y-2.382
X6.186Y-2.323
X6.239Y-2.329
X6.2516Y-2.0777
X6.254Y-2.519
X6.27Y-2.328
X6.287Y-1.971
X6.29Y-2.517
X6.353Y-2.337
X6.357Y-2.041
X6.37Y-2.204
X6.37Y-2.383
X6.371Y-2.139
X6.389Y-3.001
X6.405Y-2.578
X6.455Y-2.541
X6.894Y-1.946
X6.948Y-1.872
X7.08Y-2.132
X7.08Y-2.172
X7.318Y-4.709
X7.362Y-3.334
X7.474Y-2.728
X7.474Y-2.954
X7.608Y-3.752
X7.61Y-3.896
X7.61Y-4.138
X7.612Y-3.634
X7.634Y-3.366
X7.646Y-2.388
X7.664Y-2.278
X7.668Y-2.152
X7.676Y-4.41
X7.69Y-4.805
X7.716Y-1.972
X7.746Y-1.944
X7.748Y-1.998
X7.882Y-2.118
X7.96Y-5.231
X7.996Y-3.54
X8.008Y-5.369
X8.01Y-4.983
X8.012Y-5.038
X8.014Y-5.164
X8.16Y-5.532
X8.246Y-5.532
X8.2473Y-5.6697
X8.2753Y-3.7848
X8.302Y-2.664
X8.302Y-3.004
X8.33Y-4.054
X8.358Y-2.888
X8.3615Y-3.701
X8.37Y-2.824
X8.3864Y-3.6823
X8.394Y-3.086
X8.396Y-3.268
X8.414Y-3.776
X8.418Y-3.309
X8.434Y-2.692
X8.4415Y-3.336
X8.459Y-3.992
X8.46Y-4.047
X8.468Y-3.842
X8.468Y-4.203
X8.4713Y-3.178
X8.485Y-4.121
X8.494Y-2.702
X8.5175Y-3.23
X8.53Y-4.033
X8.538Y-3.556
X8.546Y-3.146
X8.55Y-2.798
X8.5757Y-3.4557
X8.58Y-3.536
X8.582Y-2.998
X8.604Y-3.66
X8.612Y-3.126
X8.638Y-2.7
X8.678Y-3.734
X8.68Y-3.59
X8.7018Y-3.7111
X8.717Y-4.246
X8.718Y-3.308
X8.7242Y-3.684
X8.762Y-3.668
X8.77Y-2.996
X8.7702Y-3.6082
X8.772Y-2.818
X8.8Y-2.182
X8.816Y-2.144
X8.852Y-2.664
X8.871Y-4.22
X8.91Y-2.512
X8.918Y-3.716
X8.978Y-3.678
X9.023Y-2.104
X9.066Y-5.715
X9.068Y-5.576
X9.069Y-5.443
T3
X3.8978Y-5.953
X3.9238Y-5.8904
X3.9238Y-6.0156
X3.9864Y-5.8644
X3.9864Y-6.0416
X4.0491Y-5.8904
X4.0491Y-6.0156
X4.075Y-5.953
X4.2278Y-2.445
X4.2538Y-2.3824
X4.2538Y-2.5076
X4.3164Y-2.3564
X4.3164Y-2.5336
X4.3791Y-2.3824
X4.3791Y-2.5076
X4.405Y-2.445
X8.7438Y-1.597
X8.7698Y-1.5344
X8.7698Y-1.6596
X8.8324Y-1.5084
X8.8324Y-1.6856
X8.8951Y-1.5344
X8.8951Y-1.6596
X8.921Y-1.597
X9.1134Y-5.999
X9.1394Y-5.9364
X9.1394Y-6.0616
X9.202Y-5.9104
X9.202Y-6.0876
X9.2646Y-5.9364
X9.2646Y-6.0616
X9.2906Y-5.999
T5
X8.9209Y-4.547
X8.9209Y-4.647
X8.9209Y-4.747
T7
X8.817Y-5.609
T8
X4.774Y-1.768
X4.774Y-1.868
X4.774Y-1.968
X4.774Y-2.068
X4.774Y-2.168
X4.774Y-2.268
X4.774Y-2.368
X4.774Y-2.468
X4.774Y-2.568
X4.774Y-2.668
X4.774Y-2.768
X4.774Y-2.868
X4.774Y-2.968
X4.774Y-3.068
X4.774Y-3.168
X4.774Y-3.268
X4.774Y-3.368
X4.774Y-3.468
X4.774Y-3.568
X4.774Y-3.668
X4.874Y-1.768
X4.874Y-1.868
X4.874Y-1.968
X4.874Y-2.068
X4.874Y-2.168
X4.874Y-2.268
X4.874Y-2.368
X4.874Y-2.468
X4.874Y-2.568
X4.874Y-2.668
X4.874Y-2.768
X4.874Y-2.868
X4.874Y-2.968
X4.874Y-3.068
X4.874Y-3.168
X4.874Y-3.268
X4.874Y-3.368
X4.874Y-3.468
X4.874Y-3.568
X4.874Y-3.668
X5.045Y-1.67
X5.124Y-3.414
X5.124Y-3.514
X5.124Y-3.614
X5.124Y-3.714
X5.124Y-3.814
X5.124Y-3.914
X5.124Y-4.014
X5.124Y-4.114
X5.124Y-4.214
X5.124Y-4.314
X5.124Y-4.414
X5.124Y-4.514
X5.124Y-4.614
X5.124Y-4.714
X5.124Y-4.814
X5.124Y-4.914
X5.124Y-5.014
X5.124Y-5.114
X5.124Y-5.214
X5.124Y-5.314
X5.145Y-1.67
X5.224Y-3.414
X5.224Y-3.514
X5.224Y-3.614
X5.224Y-3.714
X5.224Y-3.814
X5.224Y-3.914
X5.224Y-4.014
X5.224Y-4.114
X5.224Y-4.214
X5.224Y-4.314
X5.224Y-4.414
X5.224Y-4.514
X5.224Y-4.614
X5.224Y-4.714
X5.224Y-4.814
X5.224Y-4.914
X5.224Y-5.014
X5.224Y-5.114
X5.224Y-5.214
X5.224Y-5.314
X5.245Y-1.67
X5.3665Y-2.3108
X5.3665Y-2.4108
X5.3665Y-2.5108
X5.3665Y-2.6108
X5.3665Y-2.7108
X5.3665Y-2.8108
X5.3665Y-2.9108
X5.3665Y-3.0108
X5.3665Y-3.1108
X5.3665Y-3.2108
X5.3665Y-3.3108
X5.3665Y-3.4108
X5.3665Y-3.5108
X5.3665Y-3.6108
X5.3665Y-3.7108
X5.3665Y-3.8108
X5.3665Y-3.9108
X5.3665Y-4.0108
X5.3665Y-4.1108
X5.3665Y-4.2108
X5.3665Y-4.3108
X5.3665Y-4.4108
X5.3665Y-4.5108
X5.3665Y-4.6108
X5.3665Y-4.7108
X5.3665Y-4.8108
X5.3665Y-4.9108
X5.3665Y-5.0108
X5.3665Y-5.1108
X5.3665Y-5.2108
X5.3665Y-5.3108
X5.3665Y-5.4108
X5.4665Y-2.3108
X5.4665Y-2.4108
X5.4665Y-2.5108
X5.4665Y-2.6108
X5.4665Y-2.7108
X5.4665Y-2.8108
X5.4665Y-2.9108
X5.4665Y-3.0108
X5.4665Y-3.1108
X5.4665Y-3.2108
X5.4665Y-3.3108
X5.4665Y-3.4108
X5.4665Y-3.5108
X5.4665Y-3.6108
X5.4665Y-3.7108
X5.4665Y-3.8108
X5.4665Y-3.9108
X5.4665Y-4.0108
X5.4665Y-4.1108
X5.4665Y-4.2108
X5.4665Y-4.3108
X5.4665Y-4.4108
X5.4665Y-4.5108
X5.4665Y-4.6108
X5.4665Y-4.7108
X5.4665Y-4.8108
X5.4665Y-4.9108
X5.4665Y-5.0108
X5.4665Y-5.1108
X5.4665Y-5.2108
X5.4665Y-5.3108
X5.4665Y-5.4108
X5.842Y-2.436
X5.842Y-2.536
X5.842Y-2.636
X5.842Y-2.736
X5.842Y-2.836
X6.398Y-1.76
X6.498Y-1.76
X6.598Y-1.76
X6.677Y-2.884
X6.677Y-2.984
X6.698Y-1.76
X6.792Y-2.361
X6.792Y-2.461
X6.792Y-2.561
X6.795Y-2.016
X6.795Y-2.116
X6.795Y-2.216
X6.798Y-1.76
X6.898Y-1.76
X7.7665Y-2.3108
X7.7665Y-2.4108
X7.7665Y-2.5108
X7.7665Y-2.6108
X7.7665Y-2.7108
X7.7665Y-2.8108
X7.7665Y-2.9108
X7.7665Y-3.0108
X7.7665Y-3.1108
X7.7665Y-3.2108
X7.7665Y-3.3108
X7.7665Y-3.4108
X7.7665Y-3.5108
X7.7665Y-3.6108
X7.7665Y-3.7108
X7.7665Y-3.8108
X7.7665Y-3.9108
X7.7665Y-4.0108
X7.7665Y-4.1108
X7.7665Y-4.2108
X7.7665Y-4.3108
X7.7665Y-4.4108
X7.7665Y-4.5108
X7.7665Y-4.6108
X7.7665Y-4.7108
X7.7665Y-4.8108
X7.7665Y-4.9108
X7.7665Y-5.0108
X7.7665Y-5.1108
X7.7665Y-5.2108
X7.7665Y-5.3108
X7.7665Y-5.4108
X7.8665Y-2.3108
X7.8665Y-2.4108
X7.8665Y-2.5108
X7.8665Y-2.6108
X7.8665Y-2.7108
X7.8665Y-2.8108
X7.8665Y-2.9108
X7.8665Y-3.0108
X7.8665Y-3.1108
X7.8665Y-3.2108
X7.8665Y-3.3108
X7.8665Y-3.4108
X7.8665Y-3.5108
X7.8665Y-3.6108
X7.8665Y-3.7108
X7.8665Y-3.8108
X7.8665Y-3.9108
X7.8665Y-4.0108
X7.8665Y-4.1108
X7.8665Y-4.2108
X7.8665Y-4.3108
X7.8665Y-4.4108
X7.8665Y-4.5108
X7.8665Y-4.6108
X7.8665Y-4.7108
X7.8665Y-4.8108
X7.8665Y-4.9108
X7.8665Y-5.0108
X7.8665Y-5.1108
X7.8665Y-5.2108
X7.8665Y-5.3108
X7.8665Y-5.4108
X8.0932Y-6.0114
X8.11Y-4.503
X8.11Y-4.603
X8.11Y-4.703
X8.4073Y-6.0114
X8.824Y-2.316
X8.924Y-2.316
X8.955Y-3.79
X8.955Y-3.89
X8.955Y-3.99
X8.955Y-4.09
X8.955Y-4.19
X8.955Y-4.29
T9
X9.074Y-1.8927
X9.074Y-1.982
X9.074Y-2.0722
X9.074Y-2.1624
X9.074Y-2.2525
X9.152Y-1.847
X9.152Y-1.9368
X9.152Y-2.0273
X9.152Y-2.1171
X9.152Y-2.2076
X9.23Y-1.8927
X9.23Y-1.982
X9.23Y-2.0722
X9.23Y-2.1624
X9.23Y-2.2525
T10
X9.0019Y-5.106
X9.2382Y-5.106
T11
X9.024Y-4.547
X9.024Y-4.747
T12
X3.9864Y-5.953
X4.3164Y-2.445
X8.8324Y-1.597
X9.202Y-5.999
T13
X9.152Y-1.5706
X9.152Y-2.5541
T4
G00X3.8396Y-3.35
M15
G01X3.816Y-3.35
M16
G05
G00X3.8396Y-3.6902
M15
G01X3.816Y-3.6902
M16
G05
G00X4.014Y-3.35
M15
G01X3.9707Y-3.35
M16
G05
G00X4.014Y-3.6902
M15
G01X3.9707Y-3.6902
M16
G05
G00X9.1233Y-5.409
M15
G01X9.1666Y-5.409
M16
G05
G00X9.1233Y-5.7492
M15
G01X9.1666Y-5.7492
M16
G05
G00X9.2977Y-5.409
M15
G01X9.3213Y-5.409
M16
G05
G00X9.2977Y-5.7492
M15
G01X9.3213Y-5.7492
M16
G05
T6
G00X4.2311Y-1.7105
M15
G01X4.1721Y-1.7105
M16
G05
G00X4.2311Y-2.2144
M15
G01X4.1721Y-2.2144
M16
G05
G00X9.0086Y-2.97
M15
G01X9.0794Y-2.97
M16
G05
G00X9.0086Y-3.5409
M15
G01X9.0794Y-3.5409
M16
G05
G00X9.2649Y-2.97
M15
G01X9.2924Y-2.97
M16
G05
G00X9.2649Y-3.5409
M15
G01X9.2924Y-3.5409
M16
G05
M30
