%TF.GenerationSoftware,KiCad,Pcbnew,7.0.10*%
%TF.CreationDate,2024-01-24T08:03:13+07:00*%
%TF.ProjectId,QMTech-MiSTeX,514d5465-6368-42d4-9d69-535465582e6b,rev?*%
%TF.SameCoordinates,Original*%
%TF.FileFunction,Soldermask,Bot*%
%TF.FilePolarity,Negative*%
%FSLAX46Y46*%
G04 Gerber Fmt 4.6, Leading zero omitted, Abs format (unit mm)*
G04 Created by KiCad (PCBNEW 7.0.10) date 2024-01-24 08:03:13*
%MOMM*%
%LPD*%
G01*
G04 APERTURE LIST*
G04 Aperture macros list*
%AMRoundRect*
0 Rectangle with rounded corners*
0 $1 Rounding radius*
0 $2 $3 $4 $5 $6 $7 $8 $9 X,Y pos of 4 corners*
0 Add a 4 corners polygon primitive as box body*
4,1,4,$2,$3,$4,$5,$6,$7,$8,$9,$2,$3,0*
0 Add four circle primitives for the rounded corners*
1,1,$1+$1,$2,$3*
1,1,$1+$1,$4,$5*
1,1,$1+$1,$6,$7*
1,1,$1+$1,$8,$9*
0 Add four rect primitives between the rounded corners*
20,1,$1+$1,$2,$3,$4,$5,0*
20,1,$1+$1,$4,$5,$6,$7,0*
20,1,$1+$1,$6,$7,$8,$9,0*
20,1,$1+$1,$8,$9,$2,$3,0*%
G04 Aperture macros list end*
%ADD10RoundRect,0.100000X0.850000X0.850000X-0.850000X0.850000X-0.850000X-0.850000X0.850000X-0.850000X0*%
%ADD11O,1.900000X1.900000*%
%ADD12RoundRect,0.100000X-0.850000X0.850000X-0.850000X-0.850000X0.850000X-0.850000X0.850000X0.850000X0*%
%ADD13C,1.900000*%
%ADD14C,4.200000*%
%ADD15RoundRect,0.100000X-0.850000X-0.850000X0.850000X-0.850000X0.850000X0.850000X-0.850000X0.850000X0*%
%ADD16R,1.680000X1.680000*%
%ADD17O,1.680000X1.680000*%
%ADD18C,1.000000*%
%ADD19C,6.200000*%
%ADD20C,3.200000*%
%ADD21C,0.850000*%
%ADD22O,2.300000X1.200000*%
%ADD23O,1.800000X1.200000*%
%ADD24RoundRect,0.100000X0.850000X-0.850000X0.850000X0.850000X-0.850000X0.850000X-0.850000X-0.850000X0*%
%ADD25O,3.700000X1.700000*%
%ADD26O,2.500000X1.700000*%
%ADD27RoundRect,0.100000X-0.700000X0.700000X-0.700000X-0.700000X0.700000X-0.700000X0.700000X0.700000X0*%
%ADD28C,1.600000*%
%ADD29C,2.000000*%
%ADD30C,1.200000*%
%ADD31O,3.900000X2.000000*%
%ADD32C,1.300000*%
%ADD33C,2.200000*%
G04 APERTURE END LIST*
D10*
%TO.C,J14*%
X148386800Y-72034400D03*
D11*
X148386800Y-69494400D03*
X148386800Y-66954400D03*
X148386800Y-64414400D03*
X148386800Y-61874400D03*
%TD*%
D12*
%TO.C,J6*%
X175209200Y-44704000D03*
D11*
X172669200Y-44704000D03*
X170129200Y-44704000D03*
X167589200Y-44704000D03*
X165049200Y-44704000D03*
X162509200Y-44704000D03*
%TD*%
D13*
%TO.C,VGA1*%
X230480800Y-48073800D03*
X230480800Y-50343800D03*
X230480800Y-52633800D03*
X230480800Y-54923800D03*
X230480800Y-57213800D03*
X232460800Y-46913800D03*
X232460800Y-49193800D03*
X232460800Y-51493800D03*
X232460800Y-53773800D03*
X232460800Y-56073800D03*
X234440800Y-48073800D03*
X234440800Y-50343800D03*
X234440800Y-52633800D03*
X234440800Y-54923800D03*
X234440800Y-57213800D03*
D14*
X232460800Y-39893800D03*
X232460800Y-64873800D03*
%TD*%
D15*
%TO.C,J12*%
X172593000Y-51206400D03*
D11*
X172593000Y-53746400D03*
X172593000Y-56286400D03*
%TD*%
D16*
%TO.C,J4*%
X136309100Y-58694400D03*
D17*
X138849100Y-58694400D03*
X136309100Y-61234400D03*
X138849100Y-61234400D03*
X136309100Y-63774400D03*
X138849100Y-63774400D03*
X136309100Y-66314400D03*
X138849100Y-66314400D03*
X136309100Y-68854400D03*
X138849100Y-68854400D03*
X136309100Y-71394400D03*
X138849100Y-71394400D03*
X136309100Y-73934400D03*
X138849100Y-73934400D03*
X136309100Y-76474400D03*
X138849100Y-76474400D03*
X136309100Y-79014400D03*
X138849100Y-79014400D03*
X136309100Y-81554400D03*
X138849100Y-81554400D03*
X136309100Y-84094400D03*
X138849100Y-84094400D03*
X136309100Y-86634400D03*
X138849100Y-86634400D03*
X136309100Y-89174400D03*
X138849100Y-89174400D03*
X136309100Y-91714400D03*
X138849100Y-91714400D03*
X136309100Y-94254400D03*
X138849100Y-94254400D03*
X136309100Y-96794400D03*
X138849100Y-96794400D03*
X136309100Y-99334400D03*
X138849100Y-99334400D03*
X136309100Y-101874400D03*
X138849100Y-101874400D03*
X136309100Y-104414400D03*
X138849100Y-104414400D03*
X136309100Y-106954400D03*
X138849100Y-106954400D03*
X136309100Y-109494400D03*
X138849100Y-109494400D03*
X136309100Y-112034400D03*
X138849100Y-112034400D03*
X136309100Y-114574400D03*
X138849100Y-114574400D03*
X136309100Y-117114400D03*
X138849100Y-117114400D03*
X136309100Y-119654400D03*
X138849100Y-119654400D03*
X136309100Y-122194400D03*
X138849100Y-122194400D03*
X136309100Y-124734400D03*
X138849100Y-124734400D03*
X136309100Y-127274400D03*
X138849100Y-127274400D03*
X136309100Y-129814400D03*
X138849100Y-129814400D03*
X136309100Y-132354400D03*
X138849100Y-132354400D03*
X136309100Y-134894400D03*
X138849100Y-134894400D03*
X136309100Y-137434400D03*
X138849100Y-137434400D03*
%TD*%
D18*
%TO.C,H8*%
X107387000Y-62103000D03*
X108046010Y-60512010D03*
X108046010Y-63693990D03*
X109637000Y-59853000D03*
D19*
X109637000Y-62103000D03*
D18*
X109637000Y-64353000D03*
X111227990Y-60512010D03*
X111227990Y-63693990D03*
X111887000Y-62103000D03*
%TD*%
D10*
%TO.C,J11*%
X227457000Y-108966000D03*
D11*
X227457000Y-106426000D03*
X227457000Y-103886000D03*
X227457000Y-101346000D03*
X227457000Y-98806000D03*
X227457000Y-96266000D03*
%TD*%
D20*
%TO.C,H3*%
X99314000Y-98044000D03*
%TD*%
D16*
%TO.C,J2*%
X130149600Y-86715600D03*
D17*
X132689600Y-86715600D03*
X130149600Y-89255600D03*
X132689600Y-89255600D03*
X130149600Y-91795600D03*
X132689600Y-91795600D03*
X130149600Y-94335600D03*
X132689600Y-94335600D03*
X130149600Y-96875600D03*
X132689600Y-96875600D03*
X130149600Y-99415600D03*
X132689600Y-99415600D03*
X130149600Y-101955600D03*
X132689600Y-101955600D03*
X130149600Y-104495600D03*
X132689600Y-104495600D03*
X130149600Y-107035600D03*
X132689600Y-107035600D03*
X130149600Y-109575600D03*
X132689600Y-109575600D03*
X130149600Y-112115600D03*
X132689600Y-112115600D03*
X130149600Y-114655600D03*
X132689600Y-114655600D03*
X130149600Y-117195600D03*
X132689600Y-117195600D03*
X130149600Y-119735600D03*
X132689600Y-119735600D03*
X130149600Y-122275600D03*
X132689600Y-122275600D03*
X130149600Y-124815600D03*
X132689600Y-124815600D03*
X130149600Y-127355600D03*
X132689600Y-127355600D03*
X130149600Y-129895600D03*
X132689600Y-129895600D03*
X130149600Y-132435600D03*
X132689600Y-132435600D03*
X130149600Y-134975600D03*
X132689600Y-134975600D03*
%TD*%
D20*
%TO.C,H1*%
X99314000Y-39878000D03*
%TD*%
D15*
%TO.C,J9*%
X169595800Y-73253600D03*
D11*
X169595800Y-75793600D03*
%TD*%
D12*
%TO.C,JP1*%
X133223000Y-42419000D03*
D11*
X130683000Y-42419000D03*
X128143000Y-42419000D03*
%TD*%
D15*
%TO.C,J8*%
X205994000Y-114376200D03*
D11*
X205994000Y-116916200D03*
X205994000Y-119456200D03*
%TD*%
D18*
%TO.C,H6*%
X222093400Y-40563800D03*
X222752410Y-38972810D03*
X222752410Y-42154790D03*
X224343400Y-38313800D03*
D19*
X224343400Y-40563800D03*
D18*
X224343400Y-42813800D03*
X225934390Y-38972810D03*
X225934390Y-42154790D03*
X226593400Y-40563800D03*
%TD*%
D21*
%TO.C,J3*%
X100906000Y-86520000D03*
X100906000Y-92300000D03*
D22*
X101406000Y-85090000D03*
D23*
X97226000Y-85090000D03*
D22*
X101406000Y-93730000D03*
D23*
X97226000Y-93730000D03*
%TD*%
D15*
%TO.C,J1*%
X121259600Y-44907200D03*
D11*
X123799600Y-44907200D03*
X121259600Y-47447200D03*
X123799600Y-47447200D03*
X121259600Y-49987200D03*
X123799600Y-49987200D03*
X121259600Y-52527200D03*
X123799600Y-52527200D03*
X121259600Y-55067200D03*
X123799600Y-55067200D03*
X121259600Y-57607200D03*
X123799600Y-57607200D03*
X121259600Y-60147200D03*
X123799600Y-60147200D03*
X121259600Y-62687200D03*
X123799600Y-62687200D03*
X121259600Y-65227200D03*
X123799600Y-65227200D03*
X121259600Y-67767200D03*
X123799600Y-67767200D03*
X121259600Y-70307200D03*
X123799600Y-70307200D03*
X121259600Y-72847200D03*
X123799600Y-72847200D03*
X121259600Y-75387200D03*
X123799600Y-75387200D03*
X121259600Y-77927200D03*
X123799600Y-77927200D03*
X121259600Y-80467200D03*
X123799600Y-80467200D03*
X121259600Y-83007200D03*
X123799600Y-83007200D03*
X121259600Y-85547200D03*
X123799600Y-85547200D03*
X121259600Y-88087200D03*
X123799600Y-88087200D03*
X121259600Y-90627200D03*
X123799600Y-90627200D03*
X121259600Y-93167200D03*
X123799600Y-93167200D03*
%TD*%
D15*
%TO.C,J7*%
X172516800Y-59969400D03*
D11*
X172516800Y-62509400D03*
X172516800Y-65049400D03*
%TD*%
D24*
%TO.C,J10*%
X224129600Y-58826400D03*
D11*
X226669600Y-58826400D03*
%TD*%
D21*
%TO.C,J13*%
X232781800Y-144598600D03*
X232781800Y-138818600D03*
D22*
X232281800Y-146028600D03*
D23*
X236461800Y-146028600D03*
D22*
X232281800Y-137388600D03*
D23*
X236461800Y-137388600D03*
%TD*%
D25*
%TO.C,HDMI1*%
X229717600Y-89938000D03*
X229717600Y-75438000D03*
D26*
X235677600Y-89938000D03*
X235677600Y-75438000D03*
%TD*%
D16*
%TO.C,J5*%
X197269100Y-58694400D03*
D17*
X199809100Y-58694400D03*
X197269100Y-61234400D03*
X199809100Y-61234400D03*
X197269100Y-63774400D03*
X199809100Y-63774400D03*
X197269100Y-66314400D03*
X199809100Y-66314400D03*
X197269100Y-68854400D03*
X199809100Y-68854400D03*
X197269100Y-71394400D03*
X199809100Y-71394400D03*
X197269100Y-73934400D03*
X199809100Y-73934400D03*
X197269100Y-76474400D03*
X199809100Y-76474400D03*
X197269100Y-79014400D03*
X199809100Y-79014400D03*
X197269100Y-81554400D03*
X199809100Y-81554400D03*
X197269100Y-84094400D03*
X199809100Y-84094400D03*
X197269100Y-86634400D03*
X199809100Y-86634400D03*
X197269100Y-89174400D03*
X199809100Y-89174400D03*
X197269100Y-91714400D03*
X199809100Y-91714400D03*
X197269100Y-94254400D03*
X199809100Y-94254400D03*
X197269100Y-96794400D03*
X199809100Y-96794400D03*
X197269100Y-99334400D03*
X199809100Y-99334400D03*
X197269100Y-101874400D03*
X199809100Y-101874400D03*
X197269100Y-104414400D03*
X199809100Y-104414400D03*
X197269100Y-106954400D03*
X199809100Y-106954400D03*
X197269100Y-109494400D03*
X199809100Y-109494400D03*
X197269100Y-112034400D03*
X199809100Y-112034400D03*
X197269100Y-114574400D03*
X199809100Y-114574400D03*
X197269100Y-117114400D03*
X199809100Y-117114400D03*
X197269100Y-119654400D03*
X199809100Y-119654400D03*
X197269100Y-122194400D03*
X199809100Y-122194400D03*
X197269100Y-124734400D03*
X199809100Y-124734400D03*
X197269100Y-127274400D03*
X199809100Y-127274400D03*
X197269100Y-129814400D03*
X199809100Y-129814400D03*
X197269100Y-132354400D03*
X199809100Y-132354400D03*
X197269100Y-134894400D03*
X199809100Y-134894400D03*
X197269100Y-137434400D03*
X199809100Y-137434400D03*
%TD*%
D20*
%TO.C,H2*%
X122555000Y-39878000D03*
%TD*%
D18*
%TO.C,H7*%
X231480800Y-152374600D03*
X232139810Y-150783610D03*
X232139810Y-153965590D03*
X233730800Y-150124600D03*
D19*
X233730800Y-152374600D03*
D18*
X233730800Y-154624600D03*
X235321790Y-150783610D03*
X235321790Y-153965590D03*
X235980800Y-152374600D03*
%TD*%
D27*
%TO.C,U5*%
X226589600Y-120573800D03*
D28*
X226589600Y-118033800D03*
X226589600Y-115493800D03*
D29*
X229209600Y-120573800D03*
X229209600Y-115493800D03*
%TD*%
D30*
%TO.C,TF1*%
X205566400Y-152689200D03*
X213546400Y-152689200D03*
%TD*%
D31*
%TO.C,USB1*%
X106721000Y-56247000D03*
X106721000Y-43447000D03*
%TD*%
D32*
%TO.C,CN1*%
X234649100Y-129692400D03*
X228649100Y-129692400D03*
%TD*%
D18*
%TO.C,H5*%
X99005000Y-151206200D03*
X99664010Y-149615210D03*
X99664010Y-152797190D03*
X101255000Y-148956200D03*
D19*
X101255000Y-151206200D03*
D18*
X101255000Y-153456200D03*
X102845990Y-149615210D03*
X102845990Y-152797190D03*
X103505000Y-151206200D03*
%TD*%
D20*
%TO.C,H4*%
X122555000Y-98044000D03*
%TD*%
D33*
%TO.C,TP1*%
X226974400Y-55880000D03*
%TD*%
%TO.C,TP5*%
X235153200Y-44373800D03*
%TD*%
%TO.C,TP3*%
X227838000Y-45085000D03*
%TD*%
%TO.C,TP4*%
X235178600Y-60401200D03*
%TD*%
%TO.C,TP2*%
X226288600Y-49733200D03*
%TD*%
M02*
