%TF.GenerationSoftware,KiCad,Pcbnew,7.0.10*%
%TF.CreationDate,2024-01-24T08:03:13+07:00*%
%TF.ProjectId,QMTech-MiSTeX,514d5465-6368-42d4-9d69-535465582e6b,rev?*%
%TF.SameCoordinates,Original*%
%TF.FileFunction,Paste,Top*%
%TF.FilePolarity,Positive*%
%FSLAX46Y46*%
G04 Gerber Fmt 4.6, Leading zero omitted, Abs format (unit mm)*
G04 Created by KiCad (PCBNEW 7.0.10) date 2024-01-24 08:03:13*
%MOMM*%
%LPD*%
G01*
G04 APERTURE LIST*
G04 Aperture macros list*
%AMRoundRect*
0 Rectangle with rounded corners*
0 $1 Rounding radius*
0 $2 $3 $4 $5 $6 $7 $8 $9 X,Y pos of 4 corners*
0 Add a 4 corners polygon primitive as box body*
4,1,4,$2,$3,$4,$5,$6,$7,$8,$9,$2,$3,0*
0 Add four circle primitives for the rounded corners*
1,1,$1+$1,$2,$3*
1,1,$1+$1,$4,$5*
1,1,$1+$1,$6,$7*
1,1,$1+$1,$8,$9*
0 Add four rect primitives between the rounded corners*
20,1,$1+$1,$2,$3,$4,$5,0*
20,1,$1+$1,$4,$5,$6,$7,0*
20,1,$1+$1,$6,$7,$8,$9,0*
20,1,$1+$1,$8,$9,$2,$3,0*%
%AMHorizOval*
0 Thick line with rounded ends*
0 $1 width*
0 $2 $3 position (X,Y) of the first rounded end (center of the circle)*
0 $4 $5 position (X,Y) of the second rounded end (center of the circle)*
0 Add line between two ends*
20,1,$1,$2,$3,$4,$5,0*
0 Add two circle primitives to create the rounded ends*
1,1,$1,$2,$3*
1,1,$1,$4,$5*%
%AMRotRect*
0 Rectangle, with rotation*
0 The origin of the aperture is its center*
0 $1 length*
0 $2 width*
0 $3 Rotation angle, in degrees counterclockwise*
0 Add horizontal line*
21,1,$1,$2,0,0,$3*%
G04 Aperture macros list end*
%ADD10RoundRect,0.135000X0.135000X0.185000X-0.135000X0.185000X-0.135000X-0.185000X0.135000X-0.185000X0*%
%ADD11RoundRect,0.225000X0.225000X0.250000X-0.225000X0.250000X-0.225000X-0.250000X0.225000X-0.250000X0*%
%ADD12RotRect,0.570000X0.540000X135.000000*%
%ADD13RoundRect,0.140000X0.140000X0.170000X-0.140000X0.170000X-0.140000X-0.170000X0.140000X-0.170000X0*%
%ADD14RoundRect,0.200000X-0.275000X0.200000X-0.275000X-0.200000X0.275000X-0.200000X0.275000X0.200000X0*%
%ADD15RoundRect,0.140000X-0.219203X-0.021213X-0.021213X-0.219203X0.219203X0.021213X0.021213X0.219203X0*%
%ADD16R,0.660000X0.200000*%
%ADD17R,0.660000X0.400000*%
%ADD18RoundRect,0.140000X0.021213X-0.219203X0.219203X-0.021213X-0.021213X0.219203X-0.219203X0.021213X0*%
%ADD19RoundRect,0.243750X0.243750X0.456250X-0.243750X0.456250X-0.243750X-0.456250X0.243750X-0.456250X0*%
%ADD20RoundRect,0.140000X-0.140000X-0.170000X0.140000X-0.170000X0.140000X0.170000X-0.140000X0.170000X0*%
%ADD21R,1.700000X1.000000*%
%ADD22RoundRect,0.140000X-0.170000X0.140000X-0.170000X-0.140000X0.170000X-0.140000X0.170000X0.140000X0*%
%ADD23RoundRect,0.150000X0.150000X-0.650000X0.150000X0.650000X-0.150000X0.650000X-0.150000X-0.650000X0*%
%ADD24R,1.100000X0.200000*%
%ADD25R,0.200000X1.100000*%
%ADD26R,3.100000X3.100000*%
%ADD27R,0.650000X0.800000*%
%ADD28R,0.500000X0.800000*%
%ADD29RoundRect,0.200000X-0.200000X-0.275000X0.200000X-0.275000X0.200000X0.275000X-0.200000X0.275000X0*%
%ADD30RoundRect,0.135000X0.185000X-0.135000X0.185000X0.135000X-0.185000X0.135000X-0.185000X-0.135000X0*%
%ADD31R,0.800000X0.650000*%
%ADD32R,0.800000X0.500000*%
%ADD33HorizOval,0.280000X-0.466690X0.466690X0.466690X-0.466690X0*%
%ADD34HorizOval,0.280000X0.466690X0.466690X-0.466690X-0.466690X0*%
%ADD35RotRect,5.300000X5.300000X45.000000*%
%ADD36RoundRect,0.135000X-0.135000X-0.185000X0.135000X-0.185000X0.135000X0.185000X-0.135000X0.185000X0*%
%ADD37RoundRect,0.135000X-0.185000X0.135000X-0.185000X-0.135000X0.185000X-0.135000X0.185000X0.135000X0*%
%ADD38R,0.200000X0.660000*%
%ADD39R,0.400000X0.660000*%
%ADD40R,1.130000X1.380000*%
%ADD41R,1.150000X0.300000*%
%ADD42RoundRect,0.135000X-0.226274X-0.035355X-0.035355X-0.226274X0.226274X0.035355X0.035355X0.226274X0*%
%ADD43R,1.050000X1.000000*%
%ADD44R,2.200000X1.050000*%
%ADD45RoundRect,0.200000X0.275000X-0.200000X0.275000X0.200000X-0.275000X0.200000X-0.275000X-0.200000X0*%
%ADD46RoundRect,0.200000X0.200000X0.275000X-0.200000X0.275000X-0.200000X-0.275000X0.200000X-0.275000X0*%
%ADD47R,1.490000X1.730000*%
%ADD48RoundRect,0.135000X0.035355X-0.226274X0.226274X-0.035355X-0.035355X0.226274X-0.226274X0.035355X0*%
%ADD49RoundRect,0.225000X-0.250000X0.225000X-0.250000X-0.225000X0.250000X-0.225000X0.250000X0.225000X0*%
%ADD50RoundRect,0.225000X0.250000X-0.225000X0.250000X0.225000X-0.250000X0.225000X-0.250000X-0.225000X0*%
%ADD51RoundRect,0.225000X-0.225000X-0.250000X0.225000X-0.250000X0.225000X0.250000X-0.225000X0.250000X0*%
%ADD52R,2.600000X0.300000*%
%ADD53R,1.000000X2.550000*%
%ADD54R,0.700000X1.600000*%
%ADD55R,1.200000X1.400000*%
%ADD56R,1.200000X2.200000*%
%ADD57R,1.600000X1.400000*%
%ADD58RoundRect,0.150000X-0.150000X0.512500X-0.150000X-0.512500X0.150000X-0.512500X0.150000X0.512500X0*%
%ADD59R,1.380000X1.130000*%
%ADD60RoundRect,0.140000X0.219203X0.021213X0.021213X0.219203X-0.219203X-0.021213X-0.021213X-0.219203X0*%
%ADD61R,1.600000X0.700000*%
%ADD62R,2.000000X3.200000*%
%ADD63RoundRect,0.140000X0.170000X-0.140000X0.170000X0.140000X-0.170000X0.140000X-0.170000X-0.140000X0*%
G04 APERTURE END LIST*
D10*
%TO.C,R36*%
X108559600Y-111349400D03*
X107539600Y-111349400D03*
%TD*%
D11*
%TO.C,C17*%
X215760600Y-69900800D03*
X214210600Y-69900800D03*
%TD*%
D12*
%TO.C,R15*%
X222350856Y-88950056D03*
X221742744Y-88341944D03*
%TD*%
D13*
%TO.C,C11*%
X154325200Y-63957200D03*
X153365200Y-63957200D03*
%TD*%
D14*
%TO.C,R13*%
X156083000Y-69596000D03*
X156083000Y-71246000D03*
%TD*%
D15*
%TO.C,C25*%
X221148589Y-91710189D03*
X221827411Y-92389011D03*
%TD*%
D16*
%TO.C,D5*%
X226978000Y-53086000D03*
X226978000Y-53586000D03*
D17*
X226978000Y-54086000D03*
D16*
X226978000Y-54586000D03*
X226978000Y-55086000D03*
X227838000Y-55086000D03*
X227838000Y-54586000D03*
D17*
X227838000Y-54086000D03*
D16*
X227838000Y-53586000D03*
X227838000Y-53086000D03*
%TD*%
D18*
%TO.C,C31*%
X218135200Y-83058000D03*
X218814022Y-82379178D03*
%TD*%
%TO.C,C26*%
X216966800Y-81483200D03*
X217645622Y-80804378D03*
%TD*%
D16*
%TO.C,D10*%
X110943600Y-48888400D03*
X110943600Y-48388400D03*
D17*
X110943600Y-47888400D03*
D16*
X110943600Y-47388400D03*
X110943600Y-46888400D03*
X110083600Y-46888400D03*
X110083600Y-47388400D03*
D17*
X110083600Y-47888400D03*
D16*
X110083600Y-48388400D03*
X110083600Y-48888400D03*
%TD*%
D19*
%TO.C,D8*%
X117629700Y-135940800D03*
X115754700Y-135940800D03*
%TD*%
D20*
%TO.C,C1*%
X102004000Y-83568000D03*
X102964000Y-83568000D03*
%TD*%
%TO.C,C16*%
X164264400Y-60502800D03*
X165224400Y-60502800D03*
%TD*%
D21*
%TO.C,SW1*%
X105725600Y-143153000D03*
X99125600Y-143153000D03*
X105725600Y-139453000D03*
X99125600Y-139453000D03*
%TD*%
D22*
%TO.C,R10*%
X160832800Y-79504600D03*
X160832800Y-80464600D03*
%TD*%
D23*
%TO.C,U1*%
X162306000Y-78403000D03*
X163576000Y-78403000D03*
X164846000Y-78403000D03*
X166116000Y-78403000D03*
X166116000Y-71203000D03*
X164846000Y-71203000D03*
X163576000Y-71203000D03*
X162306000Y-71203000D03*
%TD*%
D24*
%TO.C,U2*%
X162852800Y-64128400D03*
X162852800Y-63728400D03*
X162852800Y-63328400D03*
X162852800Y-62928400D03*
X162852800Y-62528400D03*
X162852800Y-62128400D03*
X162852800Y-61728400D03*
X162852800Y-61328400D03*
X162852800Y-60928400D03*
X162852800Y-60528400D03*
X162852800Y-60128400D03*
X162852800Y-59728400D03*
X162852800Y-59328400D03*
X162852800Y-58928400D03*
D25*
X161902800Y-57978400D03*
X161502800Y-57978400D03*
X161102800Y-57978400D03*
X160702800Y-57978400D03*
X160302800Y-57978400D03*
X159902800Y-57978400D03*
X159502800Y-57978400D03*
X159102800Y-57978400D03*
X158702800Y-57978400D03*
X158302800Y-57978400D03*
X157902800Y-57978400D03*
X157502800Y-57978400D03*
X157102800Y-57978400D03*
X156702800Y-57978400D03*
D24*
X155752800Y-58928400D03*
X155752800Y-59328400D03*
X155752800Y-59728400D03*
X155752800Y-60128400D03*
X155752800Y-60528400D03*
X155752800Y-60928400D03*
X155752800Y-61328400D03*
X155752800Y-61728400D03*
X155752800Y-62128400D03*
X155752800Y-62528400D03*
X155752800Y-62928400D03*
X155752800Y-63328400D03*
X155752800Y-63728400D03*
X155752800Y-64128400D03*
D25*
X156702800Y-65078400D03*
X157102800Y-65078400D03*
X157502800Y-65078400D03*
X157902800Y-65078400D03*
X158302800Y-65078400D03*
X158702800Y-65078400D03*
X159102800Y-65078400D03*
X159502800Y-65078400D03*
X159902800Y-65078400D03*
X160302800Y-65078400D03*
X160702800Y-65078400D03*
X161102800Y-65078400D03*
X161502800Y-65078400D03*
X161902800Y-65078400D03*
D26*
X159302800Y-61528400D03*
%TD*%
D13*
%TO.C,C13*%
X156029600Y-55143400D03*
X155069600Y-55143400D03*
%TD*%
D27*
%TO.C,RN5*%
X193161000Y-59749800D03*
D28*
X192361000Y-59749800D03*
X191561000Y-59749800D03*
D27*
X190761000Y-59749800D03*
X190761000Y-61549800D03*
D28*
X191561000Y-61549800D03*
X192361000Y-61549800D03*
D27*
X193161000Y-61549800D03*
%TD*%
D14*
%TO.C,R12*%
X157556200Y-69595000D03*
X157556200Y-71245000D03*
%TD*%
D29*
%TO.C,R48*%
X209283800Y-119532400D03*
X210933800Y-119532400D03*
%TD*%
D20*
%TO.C,C37*%
X211937600Y-130454400D03*
X212897600Y-130454400D03*
%TD*%
D10*
%TO.C,R59*%
X108483400Y-131826000D03*
X107463400Y-131826000D03*
%TD*%
D30*
%TO.C,R24*%
X223977200Y-92661200D03*
X223977200Y-91641200D03*
%TD*%
D16*
%TO.C,D9*%
X110236000Y-50951000D03*
X110236000Y-51451000D03*
D17*
X110236000Y-51951000D03*
D16*
X110236000Y-52451000D03*
X110236000Y-52951000D03*
X111096000Y-52951000D03*
X111096000Y-52451000D03*
D17*
X111096000Y-51951000D03*
D16*
X111096000Y-51451000D03*
X111096000Y-50951000D03*
%TD*%
D29*
%TO.C,R29*%
X181699400Y-85750400D03*
X183349400Y-85750400D03*
%TD*%
D13*
%TO.C,C2*%
X161820800Y-55143400D03*
X160860800Y-55143400D03*
%TD*%
D31*
%TO.C,RN11*%
X190649000Y-87109000D03*
D32*
X190649000Y-86309000D03*
X190649000Y-85509000D03*
D31*
X190649000Y-84709000D03*
X188849000Y-84709000D03*
D32*
X188849000Y-85509000D03*
X188849000Y-86309000D03*
D31*
X188849000Y-87109000D03*
%TD*%
D21*
%TO.C,SW3*%
X105685400Y-109033800D03*
X99085400Y-109033800D03*
X105685400Y-105333800D03*
X99085400Y-105333800D03*
%TD*%
D33*
%TO.C,U4*%
X214268958Y-95360343D03*
X214622512Y-95006790D03*
X214976065Y-94653236D03*
X215329618Y-94299683D03*
X215683172Y-93946130D03*
X216036725Y-93592576D03*
X216390279Y-93239023D03*
X216743832Y-92885469D03*
X217097385Y-92531916D03*
X217450939Y-92178363D03*
X217804492Y-91824809D03*
X218158046Y-91471256D03*
X218511599Y-91117702D03*
X218865152Y-90764149D03*
X219218706Y-90410596D03*
X219572259Y-90057042D03*
D34*
X219572259Y-87299326D03*
X219218706Y-86945772D03*
X218865152Y-86592219D03*
X218511599Y-86238666D03*
X218158046Y-85885112D03*
X217804492Y-85531559D03*
X217450939Y-85178005D03*
X217097385Y-84824452D03*
X216743832Y-84470899D03*
X216390279Y-84117345D03*
X216036725Y-83763792D03*
X215683172Y-83410238D03*
X215329618Y-83056685D03*
X214976065Y-82703132D03*
X214622512Y-82349578D03*
X214268958Y-81996025D03*
D33*
X211511242Y-81996025D03*
X211157688Y-82349578D03*
X210804135Y-82703132D03*
X210450582Y-83056685D03*
X210097028Y-83410238D03*
X209743475Y-83763792D03*
X209389921Y-84117345D03*
X209036368Y-84470899D03*
X208682815Y-84824452D03*
X208329261Y-85178005D03*
X207975708Y-85531559D03*
X207622154Y-85885112D03*
X207268601Y-86238666D03*
X206915048Y-86592219D03*
X206561494Y-86945772D03*
X206207941Y-87299326D03*
D34*
X206207941Y-90057042D03*
X206561494Y-90410596D03*
X206915048Y-90764149D03*
X207268601Y-91117702D03*
X207622154Y-91471256D03*
X207975708Y-91824809D03*
X208329261Y-92178363D03*
X208682815Y-92531916D03*
X209036368Y-92885469D03*
X209389921Y-93239023D03*
X209743475Y-93592576D03*
X210097028Y-93946130D03*
X210450582Y-94299683D03*
X210804135Y-94653236D03*
X211157688Y-95006790D03*
X211511242Y-95360343D03*
D35*
X212890100Y-88678184D03*
%TD*%
D36*
%TO.C,R42*%
X112520000Y-53975000D03*
X113540000Y-53975000D03*
%TD*%
D37*
%TO.C,R21*%
X226618800Y-87579200D03*
X226618800Y-88599200D03*
%TD*%
D10*
%TO.C,R5*%
X127814800Y-73863200D03*
X126794800Y-73863200D03*
%TD*%
D21*
%TO.C,SW2*%
X105763600Y-131847200D03*
X99163600Y-131847200D03*
X105763600Y-128147200D03*
X99163600Y-128147200D03*
%TD*%
D30*
%TO.C,R38*%
X106248200Y-135307800D03*
X106248200Y-134287800D03*
%TD*%
D37*
%TO.C,R23*%
X224942400Y-91641200D03*
X224942400Y-92661200D03*
%TD*%
D27*
%TO.C,RN4*%
X193161000Y-63443800D03*
D28*
X192361000Y-63443800D03*
X191561000Y-63443800D03*
D27*
X190761000Y-63443800D03*
X190761000Y-65243800D03*
D28*
X191561000Y-65243800D03*
X192361000Y-65243800D03*
D27*
X193161000Y-65243800D03*
%TD*%
D38*
%TO.C,D4*%
X225957000Y-49628000D03*
X226457000Y-49628000D03*
D39*
X226957000Y-49628000D03*
D38*
X227457000Y-49628000D03*
X227957000Y-49628000D03*
X227957000Y-48768000D03*
X227457000Y-48768000D03*
D39*
X226957000Y-48768000D03*
D38*
X226457000Y-48768000D03*
X225957000Y-48768000D03*
%TD*%
D22*
%TO.C,C5*%
X160782000Y-69166800D03*
X160782000Y-70126800D03*
%TD*%
D13*
%TO.C,C44*%
X231966000Y-147675600D03*
X231006000Y-147675600D03*
%TD*%
D40*
%TO.C,L2*%
X219146400Y-73964800D03*
X221086400Y-73964800D03*
%TD*%
D11*
%TO.C,C10*%
X155308600Y-66243200D03*
X153758600Y-66243200D03*
%TD*%
D40*
%TO.C,L1*%
X219177200Y-71577200D03*
X221117200Y-71577200D03*
%TD*%
D37*
%TO.C,R2*%
X126796800Y-100048600D03*
X126796800Y-101068600D03*
%TD*%
D13*
%TO.C,C34*%
X227251200Y-64871600D03*
X226291200Y-64871600D03*
%TD*%
%TO.C,C12*%
X154350600Y-60528200D03*
X153390600Y-60528200D03*
%TD*%
D37*
%TO.C,R1*%
X126796800Y-98016600D03*
X126796800Y-99036600D03*
%TD*%
D10*
%TO.C,R31*%
X108523600Y-143081000D03*
X107503600Y-143081000D03*
%TD*%
D15*
%TO.C,C30*%
X215763789Y-96891789D03*
X216442611Y-97570611D03*
%TD*%
D22*
%TO.C,C15*%
X158877000Y-68275200D03*
X158877000Y-69235200D03*
%TD*%
D41*
%TO.C,J3*%
X101971000Y-86060000D03*
X101971000Y-86860000D03*
X101971000Y-88160000D03*
X101971000Y-89160000D03*
X101971000Y-89660000D03*
X101971000Y-90660000D03*
X101971000Y-91960000D03*
X101971000Y-92760000D03*
X101971000Y-92460000D03*
X101971000Y-91660000D03*
X101971000Y-91160000D03*
X101971000Y-90160000D03*
X101971000Y-88660000D03*
X101971000Y-87660000D03*
X101971000Y-87160000D03*
X101971000Y-86360000D03*
%TD*%
D36*
%TO.C,R46*%
X128143000Y-44805600D03*
X129163000Y-44805600D03*
%TD*%
D37*
%TO.C,R4*%
X126796800Y-122480800D03*
X126796800Y-123500800D03*
%TD*%
D42*
%TO.C,R16*%
X221284800Y-90170000D03*
X222006048Y-90891248D03*
%TD*%
D27*
%TO.C,RN12*%
X190988800Y-88914400D03*
D28*
X190188800Y-88914400D03*
X189388800Y-88914400D03*
D27*
X188588800Y-88914400D03*
X188588800Y-90714400D03*
D28*
X189388800Y-90714400D03*
X190188800Y-90714400D03*
D27*
X190988800Y-90714400D03*
%TD*%
D22*
%TO.C,C14*%
X159816800Y-68760400D03*
X159816800Y-69720400D03*
%TD*%
D37*
%TO.C,R52*%
X224307400Y-107592400D03*
X224307400Y-108612400D03*
%TD*%
D18*
%TO.C,C28*%
X215712989Y-81263811D03*
X216391811Y-80584989D03*
%TD*%
D29*
%TO.C,R28*%
X191136000Y-67183000D03*
X192786000Y-67183000D03*
%TD*%
D43*
%TO.C,CN2*%
X130808000Y-76962000D03*
D44*
X129288000Y-78432000D03*
X129288000Y-75492000D03*
%TD*%
D13*
%TO.C,C9*%
X155089800Y-65024000D03*
X154129800Y-65024000D03*
%TD*%
D31*
%TO.C,RN1*%
X192871000Y-51295000D03*
D32*
X192871000Y-50495000D03*
X192871000Y-49695000D03*
D31*
X192871000Y-48895000D03*
X191071000Y-48895000D03*
D32*
X191071000Y-49695000D03*
X191071000Y-50495000D03*
D31*
X191071000Y-51295000D03*
%TD*%
D45*
%TO.C,R39*%
X105710000Y-40542000D03*
X105710000Y-38892000D03*
%TD*%
D46*
%TO.C,R33*%
X121394200Y-130022600D03*
X119744200Y-130022600D03*
%TD*%
D36*
%TO.C,R45*%
X112520000Y-47371000D03*
X113540000Y-47371000D03*
%TD*%
D15*
%TO.C,C23*%
X219624589Y-92878589D03*
X220303411Y-93557411D03*
%TD*%
D43*
%TO.C,CN4*%
X117092000Y-70358000D03*
D44*
X115572000Y-71828000D03*
X115572000Y-68888000D03*
%TD*%
D10*
%TO.C,R26*%
X225935000Y-54356000D03*
X224915000Y-54356000D03*
%TD*%
D13*
%TO.C,C4*%
X160705800Y-71704200D03*
X159745800Y-71704200D03*
%TD*%
D10*
%TO.C,R37*%
X108483200Y-120959000D03*
X107463200Y-120959000D03*
%TD*%
D47*
%TO.C,C41*%
X219176600Y-130505200D03*
X222356600Y-130505200D03*
%TD*%
D29*
%TO.C,R47*%
X213119200Y-132181600D03*
X214769200Y-132181600D03*
%TD*%
%TO.C,R30*%
X189090800Y-102997000D03*
X190740800Y-102997000D03*
%TD*%
D48*
%TO.C,R19*%
X217444376Y-101630424D03*
X218165624Y-100909176D03*
%TD*%
D46*
%TO.C,R25*%
X227596200Y-67665600D03*
X225946200Y-67665600D03*
%TD*%
D20*
%TO.C,C40*%
X215011000Y-125730000D03*
X215971000Y-125730000D03*
%TD*%
D30*
%TO.C,R51*%
X222910400Y-108612400D03*
X222910400Y-107592400D03*
%TD*%
D10*
%TO.C,R27*%
X225935000Y-55372000D03*
X224915000Y-55372000D03*
%TD*%
D46*
%TO.C,R34*%
X121345700Y-135940800D03*
X119695700Y-135940800D03*
%TD*%
D29*
%TO.C,R6*%
X99246000Y-83337400D03*
X100896000Y-83337400D03*
%TD*%
D49*
%TO.C,C22*%
X210870800Y-73342200D03*
X210870800Y-74892200D03*
%TD*%
D15*
%TO.C,C32*%
X219014989Y-93640589D03*
X219693811Y-94319411D03*
%TD*%
D50*
%TO.C,C18*%
X217170000Y-73964800D03*
X217170000Y-72414800D03*
%TD*%
D10*
%TO.C,R54*%
X119026400Y-67056000D03*
X118006400Y-67056000D03*
%TD*%
D16*
%TO.C,D3*%
X225577400Y-84461600D03*
X225577400Y-84961600D03*
D17*
X225577400Y-85461600D03*
D16*
X225577400Y-85961600D03*
X225577400Y-86461600D03*
X226437400Y-86461600D03*
X226437400Y-85961600D03*
D17*
X226437400Y-85461600D03*
D16*
X226437400Y-84961600D03*
X226437400Y-84461600D03*
%TD*%
D41*
%TO.C,J13*%
X231716800Y-145058600D03*
X231716800Y-144258600D03*
X231716800Y-142958600D03*
X231716800Y-141958600D03*
X231716800Y-141458600D03*
X231716800Y-140458600D03*
X231716800Y-139158600D03*
X231716800Y-138358600D03*
X231716800Y-138658600D03*
X231716800Y-139458600D03*
X231716800Y-139958600D03*
X231716800Y-140958600D03*
X231716800Y-142458600D03*
X231716800Y-143458600D03*
X231716800Y-143958600D03*
X231716800Y-144758600D03*
%TD*%
D11*
%TO.C,C19*%
X220993000Y-69596000D03*
X219443000Y-69596000D03*
%TD*%
%TO.C,C21*%
X216167000Y-78384400D03*
X214617000Y-78384400D03*
%TD*%
D18*
%TO.C,C29*%
X219980189Y-85480211D03*
X220659011Y-84801389D03*
%TD*%
D51*
%TO.C,C36*%
X133438600Y-39878000D03*
X134988600Y-39878000D03*
%TD*%
D52*
%TO.C,HDMI1*%
X228957600Y-78188000D03*
X228957600Y-78688000D03*
X228957600Y-79188000D03*
X228957600Y-79688000D03*
X228957600Y-80188000D03*
X228957600Y-80688000D03*
X228957600Y-81188000D03*
X228957600Y-81688000D03*
X228957600Y-82188000D03*
X228957600Y-82688000D03*
X228957600Y-83188000D03*
X228957600Y-83688000D03*
X228957600Y-84188000D03*
X228957600Y-84688000D03*
X228957600Y-85188000D03*
X228957600Y-85688000D03*
X228957600Y-86188000D03*
X228957600Y-86688000D03*
X228957600Y-87188000D03*
%TD*%
D30*
%TO.C,R57*%
X106095800Y-146179000D03*
X106095800Y-145159000D03*
%TD*%
D36*
%TO.C,R43*%
X112520000Y-52451000D03*
X113540000Y-52451000D03*
%TD*%
D46*
%TO.C,R35*%
X235000800Y-147777200D03*
X233350800Y-147777200D03*
%TD*%
D53*
%TO.C,SW5*%
X221831400Y-139369800D03*
X223831400Y-139369800D03*
X225831400Y-139369800D03*
X221831400Y-146129800D03*
X223831400Y-146129800D03*
X225831400Y-146129800D03*
%TD*%
D14*
%TO.C,R22*%
X226517200Y-91389200D03*
X226517200Y-93039200D03*
%TD*%
D54*
%TO.C,TF1*%
X212746400Y-142189200D03*
X211646400Y-142189200D03*
X210546400Y-142189200D03*
X209446400Y-142189200D03*
X208346400Y-142189200D03*
X207246400Y-142189200D03*
X206146400Y-142189200D03*
X205046400Y-142189200D03*
X203946400Y-142189200D03*
D55*
X202746400Y-142689200D03*
D56*
X202746400Y-152289200D03*
X218246400Y-152289200D03*
D57*
X217346400Y-142689200D03*
%TD*%
D50*
%TO.C,C43*%
X222275400Y-117462600D03*
X222275400Y-115912600D03*
%TD*%
D10*
%TO.C,R53*%
X132846000Y-76708000D03*
X131826000Y-76708000D03*
%TD*%
D36*
%TO.C,R40*%
X112520000Y-48387000D03*
X113540000Y-48387000D03*
%TD*%
D27*
%TO.C,RN2*%
X190761000Y-54920400D03*
D28*
X191561000Y-54920400D03*
X192361000Y-54920400D03*
D27*
X193161000Y-54920400D03*
X193161000Y-53120400D03*
D28*
X192361000Y-53120400D03*
X191561000Y-53120400D03*
D27*
X190761000Y-53120400D03*
%TD*%
D58*
%TO.C,U3*%
X215529200Y-71760500D03*
X214579200Y-71760500D03*
X213629200Y-71760500D03*
X213629200Y-74035500D03*
X215529200Y-74035500D03*
%TD*%
D15*
%TO.C,C27*%
X220284989Y-92218189D03*
X220963811Y-92897011D03*
%TD*%
D22*
%TO.C,C33*%
X228041200Y-91389200D03*
X228041200Y-92349200D03*
%TD*%
D31*
%TO.C,RN6*%
X183409000Y-69907600D03*
D32*
X183409000Y-69107600D03*
X183409000Y-68307600D03*
D31*
X183409000Y-67507600D03*
X181609000Y-67507600D03*
D32*
X181609000Y-68307600D03*
X181609000Y-69107600D03*
D31*
X181609000Y-69907600D03*
%TD*%
D16*
%TO.C,D1*%
X225579200Y-78400400D03*
X225579200Y-78900400D03*
D17*
X225579200Y-79400400D03*
D16*
X225579200Y-79900400D03*
X225579200Y-80400400D03*
X226439200Y-80400400D03*
X226439200Y-79900400D03*
D17*
X226439200Y-79400400D03*
D16*
X226439200Y-78900400D03*
X226439200Y-78400400D03*
%TD*%
D21*
%TO.C,SW4*%
X105685200Y-121031000D03*
X99085200Y-121031000D03*
X105685200Y-117331000D03*
X99085200Y-117331000D03*
%TD*%
D37*
%TO.C,R11*%
X156387800Y-52476400D03*
X156387800Y-53496400D03*
%TD*%
D46*
%TO.C,R32*%
X121521200Y-123571000D03*
X119871200Y-123571000D03*
%TD*%
D20*
%TO.C,C39*%
X215191400Y-130454400D03*
X216151400Y-130454400D03*
%TD*%
D27*
%TO.C,RN8*%
X183699000Y-75046000D03*
D28*
X182899000Y-75046000D03*
X182099000Y-75046000D03*
D27*
X181299000Y-75046000D03*
X181299000Y-76846000D03*
D28*
X182099000Y-76846000D03*
X182899000Y-76846000D03*
D27*
X183699000Y-76846000D03*
%TD*%
D55*
%TO.C,X1*%
X157911800Y-51673400D03*
X157911800Y-53873400D03*
X159671800Y-53873400D03*
X159671800Y-51673400D03*
%TD*%
D59*
%TO.C,L4*%
X210870800Y-69286400D03*
X210870800Y-71226400D03*
%TD*%
D27*
%TO.C,RN10*%
X183699000Y-78362400D03*
D28*
X182899000Y-78362400D03*
X182099000Y-78362400D03*
D27*
X181299000Y-78362400D03*
X181299000Y-80162400D03*
D28*
X182099000Y-80162400D03*
X182899000Y-80162400D03*
D27*
X183699000Y-80162400D03*
%TD*%
D47*
%TO.C,C42*%
X219158800Y-125806200D03*
X222338800Y-125806200D03*
%TD*%
D29*
%TO.C,R50*%
X212992200Y-124129800D03*
X214642200Y-124129800D03*
%TD*%
D27*
%TO.C,RN9*%
X183756000Y-81915000D03*
D28*
X182956000Y-81915000D03*
X182156000Y-81915000D03*
D27*
X181356000Y-81915000D03*
X181356000Y-83715000D03*
D28*
X182156000Y-83715000D03*
X182956000Y-83715000D03*
D27*
X183756000Y-83715000D03*
%TD*%
D60*
%TO.C,C24*%
X204555411Y-91373011D03*
X203876589Y-90694189D03*
%TD*%
D11*
%TO.C,C20*%
X220891400Y-76098400D03*
X219341400Y-76098400D03*
%TD*%
D48*
%TO.C,R17*%
X216047376Y-100233424D03*
X216768624Y-99512176D03*
%TD*%
D61*
%TO.C,USB1*%
X107721000Y-46847000D03*
X107721000Y-48847000D03*
X107721000Y-50847000D03*
X107721000Y-52847000D03*
X107721000Y-53847000D03*
X107721000Y-51847000D03*
X107721000Y-49847000D03*
X107721000Y-47847000D03*
X107721000Y-45847000D03*
%TD*%
D36*
%TO.C,R44*%
X112520000Y-50419000D03*
X113540000Y-50419000D03*
%TD*%
D49*
%TO.C,C8*%
X151180800Y-65366600D03*
X151180800Y-66916600D03*
%TD*%
D13*
%TO.C,C6*%
X156029600Y-56134000D03*
X155069600Y-56134000D03*
%TD*%
D62*
%TO.C,CN1*%
X235949100Y-133492400D03*
X234949100Y-125892400D03*
X232249100Y-133492400D03*
X227949100Y-125892400D03*
X226249100Y-133492400D03*
%TD*%
D48*
%TO.C,R20*%
X218104776Y-102316224D03*
X218826024Y-101594976D03*
%TD*%
D19*
%TO.C,D7*%
X117678200Y-130022600D03*
X115803200Y-130022600D03*
%TD*%
D20*
%TO.C,C3*%
X155554800Y-51079400D03*
X156514800Y-51079400D03*
%TD*%
D10*
%TO.C,R9*%
X163376800Y-80492600D03*
X162356800Y-80492600D03*
%TD*%
D16*
%TO.C,D2*%
X225579200Y-81397600D03*
X225579200Y-81897600D03*
D17*
X225579200Y-82397600D03*
D16*
X225579200Y-82897600D03*
X225579200Y-83397600D03*
X226439200Y-83397600D03*
X226439200Y-82897600D03*
D17*
X226439200Y-82397600D03*
D16*
X226439200Y-81897600D03*
X226439200Y-81397600D03*
%TD*%
D20*
%TO.C,C38*%
X211810600Y-125806200D03*
X212770600Y-125806200D03*
%TD*%
D46*
%TO.C,R8*%
X107437000Y-91188000D03*
X105787000Y-91188000D03*
%TD*%
D48*
%TO.C,R18*%
X216758576Y-100944624D03*
X217479824Y-100223376D03*
%TD*%
D27*
%TO.C,RN13*%
X191008000Y-92227400D03*
D28*
X190208000Y-92227400D03*
X189408000Y-92227400D03*
D27*
X188608000Y-92227400D03*
X188608000Y-94027400D03*
D28*
X189408000Y-94027400D03*
X190208000Y-94027400D03*
D27*
X191008000Y-94027400D03*
%TD*%
D48*
%TO.C,R14*%
X214777376Y-99750824D03*
X215498624Y-99029576D03*
%TD*%
D27*
%TO.C,RN14*%
X191071200Y-99237800D03*
D28*
X190271200Y-99237800D03*
X189471200Y-99237800D03*
D27*
X188671200Y-99237800D03*
X188671200Y-101037800D03*
D28*
X189471200Y-101037800D03*
X190271200Y-101037800D03*
D27*
X191071200Y-101037800D03*
%TD*%
D11*
%TO.C,C7*%
X155308600Y-67741800D03*
X153758600Y-67741800D03*
%TD*%
D63*
%TO.C,C35*%
X107950000Y-40767000D03*
X107950000Y-39807000D03*
%TD*%
D30*
%TO.C,R58*%
X106256600Y-124485800D03*
X106256600Y-123465800D03*
%TD*%
D37*
%TO.C,R55*%
X118618000Y-69848000D03*
X118618000Y-70868000D03*
%TD*%
D27*
%TO.C,RN7*%
X181299000Y-73533000D03*
D28*
X182099000Y-73533000D03*
X182899000Y-73533000D03*
D27*
X183699000Y-73533000D03*
X183699000Y-71733000D03*
D28*
X182899000Y-71733000D03*
X182099000Y-71733000D03*
D27*
X181299000Y-71733000D03*
%TD*%
D40*
%TO.C,L3*%
X214417200Y-76200000D03*
X216357200Y-76200000D03*
%TD*%
D29*
%TO.C,R49*%
X209334600Y-117271800D03*
X210984600Y-117271800D03*
%TD*%
D36*
%TO.C,R41*%
X112520000Y-51435000D03*
X113540000Y-51435000D03*
%TD*%
D37*
%TO.C,R3*%
X126796800Y-120446800D03*
X126796800Y-121466800D03*
%TD*%
D27*
%TO.C,RN3*%
X193161000Y-56433400D03*
D28*
X192361000Y-56433400D03*
X191561000Y-56433400D03*
D27*
X190761000Y-56433400D03*
X190761000Y-58233400D03*
D28*
X191561000Y-58233400D03*
X192361000Y-58233400D03*
D27*
X193161000Y-58233400D03*
%TD*%
D43*
%TO.C,CN3*%
X117094000Y-66040000D03*
D44*
X115574000Y-67510000D03*
X115574000Y-64570000D03*
%TD*%
D29*
%TO.C,R7*%
X105533000Y-88140000D03*
X107183000Y-88140000D03*
%TD*%
D19*
%TO.C,D6*%
X117805200Y-123571000D03*
X115930200Y-123571000D03*
%TD*%
D27*
%TO.C,RN15*%
X191039600Y-95543800D03*
D28*
X190239600Y-95543800D03*
X189439600Y-95543800D03*
D27*
X188639600Y-95543800D03*
X188639600Y-97343800D03*
D28*
X189439600Y-97343800D03*
X190239600Y-97343800D03*
D27*
X191039600Y-97343800D03*
%TD*%
M02*
