%TF.GenerationSoftware,KiCad,Pcbnew,7.0.10*%
%TF.CreationDate,2024-01-24T08:03:13+07:00*%
%TF.ProjectId,QMTech-MiSTeX,514d5465-6368-42d4-9d69-535465582e6b,rev?*%
%TF.SameCoordinates,Original*%
%TF.FileFunction,Other,Comment*%
%FSLAX46Y46*%
G04 Gerber Fmt 4.6, Leading zero omitted, Abs format (unit mm)*
G04 Created by KiCad (PCBNEW 7.0.10) date 2024-01-24 08:03:13*
%MOMM*%
%LPD*%
G01*
G04 APERTURE LIST*
%ADD10C,0.150000*%
%ADD11C,0.250000*%
%ADD12C,0.300000*%
%ADD13C,0.400000*%
G04 APERTURE END LIST*
D10*
%TO.C,D5*%
X226678000Y-53086000D02*
G75*
G03*
X226538000Y-53086000I-70000J0D01*
G01*
X226538000Y-53086000D02*
G75*
G03*
X226678000Y-53086000I70000J0D01*
G01*
%TO.C,D10*%
X111383600Y-48888400D02*
G75*
G03*
X111243600Y-48888400I-70000J0D01*
G01*
X111243600Y-48888400D02*
G75*
G03*
X111383600Y-48888400I70000J0D01*
G01*
D11*
%TO.C,U2*%
X163332800Y-64128400D02*
G75*
G03*
X163072800Y-64128400I-130000J0D01*
G01*
X163072800Y-64128400D02*
G75*
G03*
X163332800Y-64128400I130000J0D01*
G01*
D10*
%TO.C,H8*%
X112637000Y-62103000D02*
G75*
G03*
X106637000Y-62103000I-3000000J0D01*
G01*
X106637000Y-62103000D02*
G75*
G03*
X112637000Y-62103000I3000000J0D01*
G01*
%TO.C,D9*%
X109936000Y-50951000D02*
G75*
G03*
X109796000Y-50951000I-70000J0D01*
G01*
X109796000Y-50951000D02*
G75*
G03*
X109936000Y-50951000I70000J0D01*
G01*
%TO.C,H3*%
X102314000Y-98044000D02*
G75*
G03*
X96314000Y-98044000I-3000000J0D01*
G01*
X96314000Y-98044000D02*
G75*
G03*
X102314000Y-98044000I3000000J0D01*
G01*
%TO.C,H1*%
X102314000Y-39878000D02*
G75*
G03*
X96314000Y-39878000I-3000000J0D01*
G01*
X96314000Y-39878000D02*
G75*
G03*
X102314000Y-39878000I3000000J0D01*
G01*
D12*
%TO.C,U4*%
X214913933Y-95855318D02*
G75*
G03*
X214613933Y-95855318I-150000J0D01*
G01*
X214613933Y-95855318D02*
G75*
G03*
X214913933Y-95855318I150000J0D01*
G01*
D10*
%TO.C,D4*%
X226027000Y-49998000D02*
G75*
G03*
X225887000Y-49998000I-70000J0D01*
G01*
X225887000Y-49998000D02*
G75*
G03*
X226027000Y-49998000I70000J0D01*
G01*
%TO.C,H6*%
X227343400Y-40563800D02*
G75*
G03*
X221343400Y-40563800I-3000000J0D01*
G01*
X221343400Y-40563800D02*
G75*
G03*
X227343400Y-40563800I3000000J0D01*
G01*
%TO.C,D3*%
X225277400Y-84461600D02*
G75*
G03*
X225137400Y-84461600I-70000J0D01*
G01*
X225137400Y-84461600D02*
G75*
G03*
X225277400Y-84461600I70000J0D01*
G01*
D13*
%TO.C,HDMI1*%
X227407600Y-77838000D02*
G75*
G03*
X227007600Y-77838000I-200000J0D01*
G01*
X227007600Y-77838000D02*
G75*
G03*
X227407600Y-77838000I200000J0D01*
G01*
D10*
%TO.C,H2*%
X125555000Y-39878000D02*
G75*
G03*
X119555000Y-39878000I-3000000J0D01*
G01*
X119555000Y-39878000D02*
G75*
G03*
X125555000Y-39878000I3000000J0D01*
G01*
%TO.C,H7*%
X236730800Y-152374600D02*
G75*
G03*
X230730800Y-152374600I-3000000J0D01*
G01*
X230730800Y-152374600D02*
G75*
G03*
X236730800Y-152374600I3000000J0D01*
G01*
D13*
%TO.C,TF1*%
X205766400Y-152689200D02*
G75*
G03*
X205366400Y-152689200I-200000J0D01*
G01*
X205366400Y-152689200D02*
G75*
G03*
X205766400Y-152689200I200000J0D01*
G01*
X213746400Y-152689200D02*
G75*
G03*
X213346400Y-152689200I-200000J0D01*
G01*
X213346400Y-152689200D02*
G75*
G03*
X213746400Y-152689200I200000J0D01*
G01*
D10*
%TO.C,D1*%
X225279200Y-78400400D02*
G75*
G03*
X225139200Y-78400400I-70000J0D01*
G01*
X225139200Y-78400400D02*
G75*
G03*
X225279200Y-78400400I70000J0D01*
G01*
D11*
%TO.C,X1*%
X157351800Y-51683400D02*
G75*
G03*
X157091800Y-51683400I-130000J0D01*
G01*
X157091800Y-51683400D02*
G75*
G03*
X157351800Y-51683400I130000J0D01*
G01*
D10*
%TO.C,D2*%
X225279200Y-81397600D02*
G75*
G03*
X225139200Y-81397600I-70000J0D01*
G01*
X225139200Y-81397600D02*
G75*
G03*
X225279200Y-81397600I70000J0D01*
G01*
%TO.C,H5*%
X104255000Y-151206200D02*
G75*
G03*
X98255000Y-151206200I-3000000J0D01*
G01*
X98255000Y-151206200D02*
G75*
G03*
X104255000Y-151206200I3000000J0D01*
G01*
%TO.C,H4*%
X125555000Y-98044000D02*
G75*
G03*
X119555000Y-98044000I-3000000J0D01*
G01*
X119555000Y-98044000D02*
G75*
G03*
X125555000Y-98044000I3000000J0D01*
G01*
%TD*%
M02*
