%TF.GenerationSoftware,KiCad,Pcbnew,7.0.10*%
%TF.CreationDate,2024-01-24T08:03:13+07:00*%
%TF.ProjectId,QMTech-MiSTeX,514d5465-6368-42d4-9d69-535465582e6b,rev?*%
%TF.SameCoordinates,Original*%
%TF.FileFunction,Soldermask,Top*%
%TF.FilePolarity,Negative*%
%FSLAX46Y46*%
G04 Gerber Fmt 4.6, Leading zero omitted, Abs format (unit mm)*
G04 Created by KiCad (PCBNEW 7.0.10) date 2024-01-24 08:03:13*
%MOMM*%
%LPD*%
G01*
G04 APERTURE LIST*
G04 Aperture macros list*
%AMRoundRect*
0 Rectangle with rounded corners*
0 $1 Rounding radius*
0 $2 $3 $4 $5 $6 $7 $8 $9 X,Y pos of 4 corners*
0 Add a 4 corners polygon primitive as box body*
4,1,4,$2,$3,$4,$5,$6,$7,$8,$9,$2,$3,0*
0 Add four circle primitives for the rounded corners*
1,1,$1+$1,$2,$3*
1,1,$1+$1,$4,$5*
1,1,$1+$1,$6,$7*
1,1,$1+$1,$8,$9*
0 Add four rect primitives between the rounded corners*
20,1,$1+$1,$2,$3,$4,$5,0*
20,1,$1+$1,$4,$5,$6,$7,0*
20,1,$1+$1,$6,$7,$8,$9,0*
20,1,$1+$1,$8,$9,$2,$3,0*%
%AMHorizOval*
0 Thick line with rounded ends*
0 $1 width*
0 $2 $3 position (X,Y) of the first rounded end (center of the circle)*
0 $4 $5 position (X,Y) of the second rounded end (center of the circle)*
0 Add line between two ends*
20,1,$1,$2,$3,$4,$5,0*
0 Add two circle primitives to create the rounded ends*
1,1,$1,$2,$3*
1,1,$1,$4,$5*%
G04 Aperture macros list end*
%ADD10C,0.000000*%
%ADD11RoundRect,0.185000X0.185000X0.235000X-0.185000X0.235000X-0.185000X-0.235000X0.185000X-0.235000X0*%
%ADD12RoundRect,0.100000X0.850000X0.850000X-0.850000X0.850000X-0.850000X-0.850000X0.850000X-0.850000X0*%
%ADD13O,1.900000X1.900000*%
%ADD14RoundRect,0.275000X0.275000X0.300000X-0.275000X0.300000X-0.275000X-0.300000X0.275000X-0.300000X0*%
%ADD15RoundRect,0.100000X0.392444X-0.010607X-0.010607X0.392444X-0.392444X0.010607X0.010607X-0.392444X0*%
%ADD16RoundRect,0.190000X0.190000X0.220000X-0.190000X0.220000X-0.190000X-0.220000X0.190000X-0.220000X0*%
%ADD17RoundRect,0.250000X-0.325000X0.250000X-0.325000X-0.250000X0.325000X-0.250000X0.325000X0.250000X0*%
%ADD18RoundRect,0.100000X-0.850000X0.850000X-0.850000X-0.850000X0.850000X-0.850000X0.850000X0.850000X0*%
%ADD19RoundRect,0.190000X-0.289914X-0.021213X-0.021213X-0.289914X0.289914X0.021213X0.021213X0.289914X0*%
%ADD20RoundRect,0.100000X-0.330000X0.100000X-0.330000X-0.100000X0.330000X-0.100000X0.330000X0.100000X0*%
%ADD21RoundRect,0.100000X-0.330000X0.200000X-0.330000X-0.200000X0.330000X-0.200000X0.330000X0.200000X0*%
%ADD22RoundRect,0.190000X0.021213X-0.289914X0.289914X-0.021213X-0.021213X0.289914X-0.289914X0.021213X0*%
%ADD23RoundRect,0.100000X0.330000X-0.100000X0.330000X0.100000X-0.330000X0.100000X-0.330000X-0.100000X0*%
%ADD24RoundRect,0.100000X0.330000X-0.200000X0.330000X0.200000X-0.330000X0.200000X-0.330000X-0.200000X0*%
%ADD25RoundRect,0.293750X0.293750X0.506250X-0.293750X0.506250X-0.293750X-0.506250X0.293750X-0.506250X0*%
%ADD26RoundRect,0.190000X-0.190000X-0.220000X0.190000X-0.220000X0.190000X0.220000X-0.190000X0.220000X0*%
%ADD27RoundRect,0.100000X0.850000X0.500000X-0.850000X0.500000X-0.850000X-0.500000X0.850000X-0.500000X0*%
%ADD28RoundRect,0.190000X-0.220000X0.190000X-0.220000X-0.190000X0.220000X-0.190000X0.220000X0.190000X0*%
%ADD29C,1.900000*%
%ADD30C,4.200000*%
%ADD31RoundRect,0.200000X0.200000X-0.700000X0.200000X0.700000X-0.200000X0.700000X-0.200000X-0.700000X0*%
%ADD32RoundRect,0.100000X0.550000X0.100000X-0.550000X0.100000X-0.550000X-0.100000X0.550000X-0.100000X0*%
%ADD33RoundRect,0.100000X-0.100000X0.550000X-0.100000X-0.550000X0.100000X-0.550000X0.100000X0.550000X0*%
%ADD34RoundRect,0.100000X-0.550000X-0.100000X0.550000X-0.100000X0.550000X0.100000X-0.550000X0.100000X0*%
%ADD35RoundRect,0.100000X0.100000X-0.550000X0.100000X0.550000X-0.100000X0.550000X-0.100000X-0.550000X0*%
%ADD36RoundRect,0.100000X1.550000X1.550000X-1.550000X1.550000X-1.550000X-1.550000X1.550000X-1.550000X0*%
%ADD37RoundRect,0.100000X-0.850000X-0.850000X0.850000X-0.850000X0.850000X0.850000X-0.850000X0.850000X0*%
%ADD38R,1.680000X1.680000*%
%ADD39O,1.680000X1.680000*%
%ADD40RoundRect,0.100000X0.325000X0.400000X-0.325000X0.400000X-0.325000X-0.400000X0.325000X-0.400000X0*%
%ADD41RoundRect,0.100000X0.250000X0.400000X-0.250000X0.400000X-0.250000X-0.400000X0.250000X-0.400000X0*%
%ADD42RoundRect,0.250000X-0.250000X-0.325000X0.250000X-0.325000X0.250000X0.325000X-0.250000X0.325000X0*%
%ADD43C,1.000000*%
%ADD44C,6.200000*%
%ADD45RoundRect,0.185000X0.235000X-0.185000X0.235000X0.185000X-0.235000X0.185000X-0.235000X-0.185000X0*%
%ADD46C,3.200000*%
%ADD47RoundRect,0.100000X0.400000X-0.325000X0.400000X0.325000X-0.400000X0.325000X-0.400000X-0.325000X0*%
%ADD48RoundRect,0.100000X0.400000X-0.250000X0.400000X0.250000X-0.400000X0.250000X-0.400000X-0.250000X0*%
%ADD49HorizOval,0.380000X-0.466690X0.466690X0.466690X-0.466690X0*%
%ADD50HorizOval,0.380000X0.466690X0.466690X-0.466690X-0.466690X0*%
%ADD51RoundRect,0.050000X0.000000X-3.747666X3.747666X0.000000X0.000000X3.747666X-3.747666X0.000000X0*%
%ADD52RoundRect,0.185000X-0.185000X-0.235000X0.185000X-0.235000X0.185000X0.235000X-0.185000X0.235000X0*%
%ADD53RoundRect,0.185000X-0.235000X0.185000X-0.235000X-0.185000X0.235000X-0.185000X0.235000X0.185000X0*%
%ADD54RoundRect,0.100000X-0.100000X-0.330000X0.100000X-0.330000X0.100000X0.330000X-0.100000X0.330000X0*%
%ADD55RoundRect,0.100000X-0.200000X-0.330000X0.200000X-0.330000X0.200000X0.330000X-0.200000X0.330000X0*%
%ADD56RoundRect,0.100000X-0.565000X-0.690000X0.565000X-0.690000X0.565000X0.690000X-0.565000X0.690000X0*%
%ADD57C,0.850000*%
%ADD58RoundRect,0.100000X-0.575000X0.150000X-0.575000X-0.150000X0.575000X-0.150000X0.575000X0.150000X0*%
%ADD59O,2.300000X1.200000*%
%ADD60O,1.800000X1.200000*%
%ADD61RoundRect,0.185000X-0.296985X-0.035355X-0.035355X-0.296985X0.296985X0.035355X0.035355X0.296985X0*%
%ADD62RoundRect,0.100000X0.525000X-0.500000X0.525000X0.500000X-0.525000X0.500000X-0.525000X-0.500000X0*%
%ADD63RoundRect,0.100000X1.100000X-0.525000X1.100000X0.525000X-1.100000X0.525000X-1.100000X-0.525000X0*%
%ADD64RoundRect,0.250000X0.325000X-0.250000X0.325000X0.250000X-0.325000X0.250000X-0.325000X-0.250000X0*%
%ADD65RoundRect,0.250000X0.250000X0.325000X-0.250000X0.325000X-0.250000X-0.325000X0.250000X-0.325000X0*%
%ADD66RoundRect,0.100000X-0.745000X-0.865000X0.745000X-0.865000X0.745000X0.865000X-0.745000X0.865000X0*%
%ADD67RoundRect,0.185000X0.035355X-0.296985X0.296985X-0.035355X-0.035355X0.296985X-0.296985X0.035355X0*%
%ADD68RoundRect,0.275000X-0.300000X0.275000X-0.300000X-0.275000X0.300000X-0.275000X0.300000X0.275000X0*%
%ADD69RoundRect,0.100000X0.850000X-0.850000X0.850000X0.850000X-0.850000X0.850000X-0.850000X-0.850000X0*%
%ADD70RoundRect,0.275000X0.300000X-0.275000X0.300000X0.275000X-0.300000X0.275000X-0.300000X-0.275000X0*%
%ADD71RoundRect,0.100000X0.575000X-0.150000X0.575000X0.150000X-0.575000X0.150000X-0.575000X-0.150000X0*%
%ADD72RoundRect,0.275000X-0.275000X-0.300000X0.275000X-0.300000X0.275000X0.300000X-0.275000X0.300000X0*%
%ADD73RoundRect,0.100000X1.300000X-0.150000X1.300000X0.150000X-1.300000X0.150000X-1.300000X-0.150000X0*%
%ADD74O,3.700000X1.700000*%
%ADD75O,2.500000X1.700000*%
%ADD76RoundRect,0.100000X0.500000X1.275000X-0.500000X1.275000X-0.500000X-1.275000X0.500000X-1.275000X0*%
%ADD77RoundRect,0.100000X-0.700000X0.700000X-0.700000X-0.700000X0.700000X-0.700000X0.700000X0.700000X0*%
%ADD78C,1.600000*%
%ADD79C,2.000000*%
%ADD80C,1.200000*%
%ADD81RoundRect,0.100000X-0.350000X-0.800000X0.350000X-0.800000X0.350000X0.800000X-0.350000X0.800000X0*%
%ADD82RoundRect,0.100000X-0.600000X-0.700000X0.600000X-0.700000X0.600000X0.700000X-0.600000X0.700000X0*%
%ADD83RoundRect,0.100000X-0.600000X-1.100000X0.600000X-1.100000X0.600000X1.100000X-0.600000X1.100000X0*%
%ADD84RoundRect,0.100000X-0.800000X-0.700000X0.800000X-0.700000X0.800000X0.700000X-0.800000X0.700000X0*%
%ADD85RoundRect,0.100000X-0.325000X-0.400000X0.325000X-0.400000X0.325000X0.400000X-0.325000X0.400000X0*%
%ADD86RoundRect,0.100000X-0.250000X-0.400000X0.250000X-0.400000X0.250000X0.400000X-0.250000X0.400000X0*%
%ADD87RoundRect,0.200000X-0.200000X0.562500X-0.200000X-0.562500X0.200000X-0.562500X0.200000X0.562500X0*%
%ADD88RoundRect,0.100000X-0.600000X0.700000X-0.600000X-0.700000X0.600000X-0.700000X0.600000X0.700000X0*%
%ADD89RoundRect,0.100000X-0.690000X0.565000X-0.690000X-0.565000X0.690000X-0.565000X0.690000X0.565000X0*%
%ADD90RoundRect,0.190000X0.289914X0.021213X0.021213X0.289914X-0.289914X-0.021213X-0.021213X-0.289914X0*%
%ADD91RoundRect,0.100000X-0.800000X0.350000X-0.800000X-0.350000X0.800000X-0.350000X0.800000X0.350000X0*%
%ADD92O,3.900000X2.000000*%
%ADD93C,1.300000*%
%ADD94RoundRect,0.100000X1.000000X1.600000X-1.000000X1.600000X-1.000000X-1.600000X1.000000X-1.600000X0*%
%ADD95RoundRect,0.190000X0.220000X-0.190000X0.220000X0.190000X-0.220000X0.190000X-0.220000X-0.190000X0*%
G04 APERTURE END LIST*
D10*
G36*
X116111808Y-113296992D02*
G01*
X116116754Y-113297136D01*
X116121613Y-113297371D01*
X116126359Y-113297693D01*
X116130964Y-113298097D01*
X116135402Y-113298580D01*
X116139645Y-113299138D01*
X116143667Y-113299765D01*
X116147441Y-113300459D01*
X116150940Y-113301215D01*
X116154138Y-113302029D01*
X116157006Y-113302896D01*
X116159520Y-113303813D01*
X116161650Y-113304776D01*
X116163372Y-113305780D01*
X116164071Y-113306296D01*
X116164657Y-113306821D01*
X116165434Y-113309147D01*
X116166173Y-113313920D01*
X116167524Y-113330281D01*
X116169596Y-113386549D01*
X116170611Y-113467159D01*
X116170302Y-113563644D01*
X116166068Y-113811999D01*
X116113858Y-113816232D01*
X116060235Y-113820466D01*
X116060235Y-113296943D01*
X116106802Y-113296943D01*
X116111808Y-113296992D01*
G37*
G36*
X117531539Y-113609261D02*
G01*
X117533651Y-113609406D01*
X117535921Y-113609655D01*
X117540959Y-113610444D01*
X117546701Y-113611584D01*
X117553191Y-113613032D01*
X117569988Y-113617715D01*
X117588948Y-113624238D01*
X117609752Y-113632423D01*
X117632081Y-113642092D01*
X117655617Y-113653067D01*
X117680042Y-113665171D01*
X117705038Y-113678226D01*
X117730285Y-113692054D01*
X117755467Y-113706477D01*
X117780264Y-113721318D01*
X117804358Y-113736399D01*
X117827431Y-113751541D01*
X117849165Y-113766568D01*
X117869241Y-113781302D01*
X117887341Y-113795564D01*
X117903146Y-113809177D01*
X117921147Y-113826148D01*
X117938609Y-113843677D01*
X117955487Y-113861694D01*
X117971740Y-113880129D01*
X117987322Y-113898911D01*
X118002191Y-113917970D01*
X118016304Y-113937236D01*
X118029617Y-113956638D01*
X118042087Y-113976106D01*
X118053669Y-113995570D01*
X118064322Y-114014960D01*
X118074001Y-114034205D01*
X118082663Y-114053235D01*
X118090265Y-114071980D01*
X118096762Y-114090369D01*
X118102113Y-114108332D01*
X118106000Y-114125548D01*
X118109202Y-114143734D01*
X118111725Y-114162701D01*
X118113578Y-114182261D01*
X118114770Y-114202227D01*
X118115309Y-114222409D01*
X118115203Y-114242621D01*
X118114460Y-114262673D01*
X118113089Y-114282378D01*
X118111098Y-114301547D01*
X118108495Y-114319993D01*
X118105288Y-114337527D01*
X118101486Y-114353962D01*
X118097097Y-114369109D01*
X118092129Y-114382780D01*
X118086591Y-114394787D01*
X118079166Y-114408050D01*
X118071176Y-114420325D01*
X118062620Y-114431616D01*
X118053496Y-114441928D01*
X118043801Y-114451263D01*
X118033534Y-114459627D01*
X118022691Y-114467024D01*
X118011273Y-114473457D01*
X117999275Y-114478931D01*
X117986697Y-114483451D01*
X117973535Y-114487019D01*
X117959789Y-114489641D01*
X117945456Y-114491320D01*
X117930533Y-114492061D01*
X117915020Y-114491867D01*
X117898913Y-114490743D01*
X117871675Y-114487351D01*
X117845517Y-114481929D01*
X117820425Y-114474465D01*
X117796387Y-114464946D01*
X117773391Y-114453360D01*
X117751424Y-114439695D01*
X117730475Y-114423938D01*
X117710530Y-114406076D01*
X117691577Y-114386098D01*
X117673604Y-114363991D01*
X117656598Y-114339742D01*
X117640547Y-114313340D01*
X117625439Y-114284771D01*
X117611261Y-114254024D01*
X117598001Y-114221085D01*
X117585646Y-114185943D01*
X117580420Y-114167550D01*
X117574856Y-114144037D01*
X117563091Y-114084321D01*
X117551093Y-114012137D01*
X117539609Y-113932825D01*
X117529381Y-113851728D01*
X117521154Y-113774185D01*
X117515672Y-113705540D01*
X117513680Y-113651132D01*
X117513720Y-113643402D01*
X117513873Y-113636588D01*
X117514182Y-113630646D01*
X117514694Y-113625533D01*
X117515040Y-113623274D01*
X117515454Y-113621206D01*
X117515941Y-113619323D01*
X117516507Y-113617621D01*
X117517158Y-113616093D01*
X117517900Y-113614734D01*
X117518738Y-113613539D01*
X117519677Y-113612503D01*
X117520724Y-113611619D01*
X117521884Y-113610883D01*
X117523163Y-113610289D01*
X117524566Y-113609832D01*
X117526100Y-113609506D01*
X117527769Y-113609306D01*
X117529581Y-113609226D01*
X117531539Y-113609261D01*
G37*
G36*
X116338616Y-105439199D02*
G01*
X116352481Y-105440609D01*
X116368186Y-105443053D01*
X116385915Y-105446535D01*
X116405852Y-105451058D01*
X116428180Y-105456628D01*
X116480746Y-105470921D01*
X116539638Y-105487523D01*
X116565565Y-105494572D01*
X116608981Y-105506375D01*
X116744624Y-105542887D01*
X117049512Y-105626959D01*
X117395146Y-105726508D01*
X117747130Y-105831614D01*
X118071068Y-105932354D01*
X118444991Y-106053908D01*
X118809256Y-106175594D01*
X119091236Y-106272674D01*
X119178672Y-106304256D01*
X119218302Y-106320409D01*
X119228549Y-106327730D01*
X119232695Y-106332117D01*
X119236250Y-106337696D01*
X119239258Y-106344994D01*
X119241767Y-106354541D01*
X119243821Y-106366866D01*
X119245466Y-106382498D01*
X119247709Y-106425802D01*
X119248861Y-106488685D01*
X119249346Y-106690121D01*
X119249093Y-106760519D01*
X119248376Y-106826800D01*
X119247263Y-106887492D01*
X119245819Y-106941122D01*
X119244110Y-106986220D01*
X119242203Y-107021313D01*
X119240163Y-107044930D01*
X119239115Y-107051974D01*
X119238058Y-107055598D01*
X119230641Y-107062521D01*
X119216431Y-107070561D01*
X119168230Y-107089840D01*
X119094662Y-107113121D01*
X118996934Y-107140089D01*
X118876254Y-107170430D01*
X118733828Y-107203831D01*
X118570864Y-107239977D01*
X118388569Y-107278554D01*
X118287514Y-107299842D01*
X118246990Y-107308406D01*
X118212488Y-107315772D01*
X118183527Y-107322079D01*
X118170972Y-107324880D01*
X118159621Y-107327469D01*
X118149413Y-107329863D01*
X118140288Y-107332081D01*
X118132185Y-107334140D01*
X118125044Y-107336057D01*
X118118803Y-107337850D01*
X118113404Y-107339536D01*
X118108785Y-107341134D01*
X118106749Y-107341905D01*
X118104886Y-107342660D01*
X118103187Y-107343402D01*
X118101646Y-107344133D01*
X118100254Y-107344855D01*
X118099005Y-107345569D01*
X118097890Y-107346279D01*
X118096902Y-107346987D01*
X118096034Y-107347695D01*
X118095278Y-107348404D01*
X118094626Y-107349117D01*
X118094071Y-107349837D01*
X118093605Y-107350566D01*
X118093221Y-107351305D01*
X118092911Y-107352057D01*
X118092668Y-107352824D01*
X118092484Y-107353608D01*
X118092351Y-107354412D01*
X118092210Y-107356087D01*
X118092184Y-107357867D01*
X118092235Y-107361809D01*
X118093570Y-107364787D01*
X118097486Y-107369422D01*
X118112542Y-107383285D01*
X118136363Y-107402638D01*
X118167906Y-107426721D01*
X118206130Y-107454772D01*
X118249993Y-107486032D01*
X118298453Y-107519738D01*
X118350468Y-107555132D01*
X118519168Y-107669685D01*
X118677979Y-107778881D01*
X118823494Y-107880272D01*
X118952308Y-107971410D01*
X119061013Y-108049848D01*
X119146203Y-108113138D01*
X119204472Y-108158834D01*
X119222447Y-108174319D01*
X119232413Y-108184487D01*
X119234696Y-108188907D01*
X119236787Y-108195371D01*
X119240417Y-108214936D01*
X119243352Y-108244192D01*
X119245642Y-108284147D01*
X119247337Y-108335810D01*
X119248486Y-108400189D01*
X119249346Y-108571132D01*
X119249140Y-108665051D01*
X119248486Y-108743310D01*
X119247337Y-108807049D01*
X119246561Y-108833831D01*
X119245642Y-108857411D01*
X119244575Y-108877932D01*
X119243352Y-108895536D01*
X119241968Y-108910366D01*
X119240417Y-108922565D01*
X119238692Y-108932275D01*
X119236787Y-108939639D01*
X119235765Y-108942485D01*
X119234696Y-108944799D01*
X119233579Y-108946598D01*
X119232413Y-108947899D01*
X119226806Y-108950197D01*
X119216855Y-108951801D01*
X119183884Y-108952926D01*
X119133418Y-108951272D01*
X119065373Y-108946840D01*
X118876218Y-108929642D01*
X118615758Y-108901332D01*
X118577928Y-108896845D01*
X118542247Y-108892953D01*
X118509544Y-108889723D01*
X118480644Y-108887221D01*
X118456373Y-108885512D01*
X118437560Y-108884663D01*
X118430459Y-108884582D01*
X118425031Y-108884740D01*
X118421382Y-108885147D01*
X118420256Y-108885446D01*
X118419613Y-108885810D01*
X118417690Y-108887943D01*
X118416153Y-108890106D01*
X118414999Y-108892299D01*
X118414225Y-108894519D01*
X118413828Y-108896763D01*
X118413806Y-108899031D01*
X118414155Y-108901319D01*
X118414872Y-108903625D01*
X118415956Y-108905948D01*
X118417403Y-108908286D01*
X118421374Y-108912996D01*
X118426763Y-108917739D01*
X118433548Y-108922499D01*
X118441705Y-108927258D01*
X118451211Y-108932002D01*
X118462045Y-108936712D01*
X118474183Y-108941372D01*
X118487603Y-108945966D01*
X118502281Y-108950478D01*
X118518196Y-108954891D01*
X118535324Y-108959187D01*
X118546528Y-108961880D01*
X118557353Y-108964653D01*
X118567753Y-108967487D01*
X118577679Y-108970366D01*
X118587085Y-108973269D01*
X118595922Y-108976178D01*
X118604143Y-108979075D01*
X118611700Y-108981941D01*
X118618547Y-108984758D01*
X118624635Y-108987506D01*
X118629916Y-108990167D01*
X118634344Y-108992723D01*
X118636223Y-108993956D01*
X118637871Y-108995155D01*
X118639282Y-108996319D01*
X118640449Y-108997444D01*
X118641367Y-108998530D01*
X118642031Y-108999573D01*
X118642433Y-109000570D01*
X118642568Y-109001521D01*
X118642671Y-109003976D01*
X118642979Y-109006315D01*
X118643489Y-109008537D01*
X118644200Y-109010641D01*
X118645109Y-109012625D01*
X118646215Y-109014491D01*
X118647515Y-109016235D01*
X118649007Y-109017859D01*
X118650689Y-109019360D01*
X118652559Y-109020739D01*
X118654616Y-109021995D01*
X118656856Y-109023126D01*
X118661880Y-109025012D01*
X118667616Y-109026392D01*
X118674046Y-109027259D01*
X118681154Y-109027607D01*
X118688923Y-109027430D01*
X118697337Y-109026722D01*
X118706380Y-109025477D01*
X118716035Y-109023688D01*
X118726284Y-109021349D01*
X118737113Y-109018454D01*
X118750359Y-109015949D01*
X118767408Y-109013758D01*
X118787566Y-109011930D01*
X118810138Y-109010517D01*
X118834430Y-109009566D01*
X118859747Y-109009127D01*
X118885395Y-109009251D01*
X118887906Y-109009325D01*
X118910680Y-109009987D01*
X118945042Y-109011812D01*
X118960401Y-109012945D01*
X118974709Y-109014265D01*
X118988091Y-109015799D01*
X119000671Y-109017578D01*
X119012573Y-109019629D01*
X119023921Y-109021982D01*
X119034840Y-109024666D01*
X119045452Y-109027709D01*
X119055882Y-109031141D01*
X119066255Y-109034990D01*
X119076693Y-109039287D01*
X119087322Y-109044058D01*
X119098265Y-109049334D01*
X119109646Y-109055143D01*
X119136533Y-109069925D01*
X119162150Y-109085691D01*
X119186485Y-109102433D01*
X119209527Y-109120142D01*
X119231262Y-109138811D01*
X119251678Y-109158430D01*
X119270763Y-109178991D01*
X119288505Y-109200487D01*
X119304890Y-109222910D01*
X119319908Y-109246249D01*
X119333544Y-109270499D01*
X119345787Y-109295649D01*
X119356625Y-109321693D01*
X119366044Y-109348621D01*
X119374034Y-109376426D01*
X119380580Y-109405099D01*
X119384460Y-109426818D01*
X119387382Y-109448562D01*
X119389360Y-109470297D01*
X119390411Y-109491989D01*
X119390552Y-109513607D01*
X119389798Y-109535115D01*
X119388166Y-109556482D01*
X119385673Y-109577673D01*
X119382334Y-109598655D01*
X119378167Y-109619396D01*
X119373186Y-109639860D01*
X119367409Y-109660016D01*
X119360851Y-109679830D01*
X119353529Y-109699269D01*
X119345460Y-109718298D01*
X119336659Y-109736886D01*
X119327143Y-109754998D01*
X119316928Y-109772602D01*
X119306030Y-109789663D01*
X119294466Y-109806149D01*
X119282252Y-109822026D01*
X119269404Y-109837261D01*
X119255939Y-109851821D01*
X119241872Y-109865672D01*
X119227220Y-109878781D01*
X119212000Y-109891114D01*
X119196227Y-109902639D01*
X119179918Y-109913322D01*
X119163089Y-109923129D01*
X119145757Y-109932028D01*
X119127937Y-109939984D01*
X119109646Y-109946965D01*
X119102327Y-109949640D01*
X119095210Y-109952359D01*
X119088333Y-109955098D01*
X119081733Y-109957835D01*
X119075447Y-109960547D01*
X119069512Y-109963212D01*
X119063967Y-109965807D01*
X119058846Y-109968308D01*
X119054189Y-109970694D01*
X119050033Y-109972941D01*
X119046413Y-109975027D01*
X119043368Y-109976929D01*
X119040935Y-109978625D01*
X119039152Y-109980091D01*
X119038515Y-109980730D01*
X119038054Y-109981304D01*
X119037774Y-109981809D01*
X119037680Y-109982243D01*
X119037973Y-109983708D01*
X119038832Y-109985955D01*
X119042134Y-109992628D01*
X119047354Y-110001913D01*
X119054260Y-110013464D01*
X119062622Y-110026933D01*
X119072208Y-110041973D01*
X119094124Y-110075377D01*
X119118234Y-110113375D01*
X119140820Y-110152751D01*
X119161881Y-110193490D01*
X119181415Y-110235582D01*
X119199418Y-110279013D01*
X119215890Y-110323771D01*
X119230829Y-110369843D01*
X119244231Y-110417218D01*
X119256096Y-110465883D01*
X119266420Y-110515825D01*
X119275203Y-110567032D01*
X119282441Y-110619492D01*
X119288134Y-110673192D01*
X119292278Y-110728120D01*
X119294872Y-110784263D01*
X119295913Y-110841609D01*
X119294554Y-110925934D01*
X119292816Y-110966067D01*
X119290335Y-111005034D01*
X119287085Y-111042975D01*
X119283039Y-111080032D01*
X119278171Y-111116345D01*
X119272453Y-111152054D01*
X119265859Y-111187300D01*
X119258361Y-111222224D01*
X119249934Y-111256966D01*
X119240549Y-111291666D01*
X119230180Y-111326466D01*
X119218801Y-111361505D01*
X119206384Y-111396925D01*
X119192902Y-111432866D01*
X119184964Y-111453767D01*
X119178085Y-111472616D01*
X119175043Y-111481302D01*
X119172264Y-111489510D01*
X119169751Y-111497254D01*
X119167502Y-111504545D01*
X119165518Y-111511397D01*
X119163798Y-111517820D01*
X119162343Y-111523827D01*
X119161152Y-111529430D01*
X119160226Y-111534641D01*
X119159564Y-111539473D01*
X119159167Y-111543938D01*
X119159035Y-111548047D01*
X119159167Y-111551813D01*
X119159564Y-111555248D01*
X119160226Y-111558365D01*
X119161152Y-111561174D01*
X119161714Y-111562468D01*
X119162343Y-111563689D01*
X119163037Y-111564840D01*
X119163798Y-111565922D01*
X119164625Y-111566936D01*
X119165518Y-111567884D01*
X119166477Y-111568768D01*
X119167502Y-111569589D01*
X119169751Y-111571047D01*
X119172264Y-111572271D01*
X119175043Y-111573274D01*
X119178085Y-111574067D01*
X119181393Y-111574663D01*
X119184964Y-111575074D01*
X119188801Y-111575311D01*
X119192902Y-111575387D01*
X119194365Y-111575424D01*
X119195842Y-111575534D01*
X119197331Y-111575713D01*
X119198830Y-111575961D01*
X119200336Y-111576275D01*
X119201847Y-111576653D01*
X119203361Y-111577093D01*
X119204874Y-111577592D01*
X119207893Y-111578764D01*
X119210885Y-111580150D01*
X119213832Y-111581735D01*
X119216714Y-111583502D01*
X119219514Y-111585434D01*
X119222213Y-111587514D01*
X119224791Y-111589728D01*
X119227232Y-111592056D01*
X119229515Y-111594485D01*
X119231622Y-111596995D01*
X119233535Y-111599572D01*
X119235235Y-111602199D01*
X119238678Y-111626535D01*
X119241607Y-111685763D01*
X119245995Y-111908762D01*
X119249346Y-112772010D01*
X119249189Y-113109271D01*
X119248619Y-113374334D01*
X119247486Y-113575831D01*
X119246662Y-113655439D01*
X119245642Y-113722393D01*
X119244407Y-113777772D01*
X119242939Y-113822654D01*
X119241218Y-113858119D01*
X119239226Y-113885245D01*
X119236945Y-113905111D01*
X119235690Y-113912659D01*
X119234356Y-113918797D01*
X119232940Y-113923659D01*
X119231441Y-113927381D01*
X119229855Y-113930098D01*
X119228180Y-113931943D01*
X119223551Y-113935057D01*
X119217875Y-113937475D01*
X119210764Y-113939127D01*
X119201832Y-113939947D01*
X119190692Y-113939865D01*
X119176958Y-113938814D01*
X119140162Y-113933530D01*
X119088350Y-113923551D01*
X119018431Y-113908329D01*
X118811902Y-113859976D01*
X118742625Y-113844140D01*
X118714370Y-113837807D01*
X118690017Y-113832504D01*
X118679222Y-113830232D01*
X118669303Y-113828209D01*
X118660227Y-113826434D01*
X118651961Y-113824903D01*
X118644473Y-113823613D01*
X118637729Y-113822563D01*
X118631696Y-113821750D01*
X118626341Y-113821171D01*
X118621631Y-113820823D01*
X118617532Y-113820704D01*
X118614013Y-113820812D01*
X118612460Y-113820950D01*
X118611039Y-113821143D01*
X118609747Y-113821392D01*
X118608578Y-113821696D01*
X118607529Y-113822054D01*
X118606596Y-113822467D01*
X118605775Y-113822933D01*
X118605061Y-113823454D01*
X118604451Y-113824028D01*
X118603940Y-113824654D01*
X118603523Y-113825334D01*
X118603198Y-113826066D01*
X118602960Y-113826850D01*
X118602804Y-113827685D01*
X118602727Y-113828572D01*
X118602724Y-113829510D01*
X118602925Y-113831539D01*
X118603375Y-113833768D01*
X118604039Y-113836194D01*
X118604885Y-113838817D01*
X118605880Y-113841631D01*
X118624715Y-113893096D01*
X118632836Y-113918040D01*
X118640143Y-113942725D01*
X118646673Y-113967352D01*
X118652463Y-113992122D01*
X118657550Y-114017235D01*
X118661971Y-114042892D01*
X118665764Y-114069293D01*
X118668966Y-114096638D01*
X118671614Y-114125129D01*
X118673745Y-114154965D01*
X118676606Y-114219476D01*
X118677846Y-114291776D01*
X118677607Y-114355006D01*
X118676722Y-114406561D01*
X118675960Y-114428695D01*
X118674944Y-114448790D01*
X118673643Y-114467141D01*
X118672026Y-114484040D01*
X118670061Y-114499782D01*
X118667718Y-114514660D01*
X118664966Y-114528968D01*
X118661773Y-114542998D01*
X118658109Y-114557045D01*
X118653943Y-114571402D01*
X118649244Y-114586363D01*
X118643980Y-114602221D01*
X118637062Y-114622525D01*
X118630177Y-114641886D01*
X118623491Y-114659892D01*
X118617169Y-114676128D01*
X118611375Y-114690181D01*
X118606277Y-114701638D01*
X118604039Y-114706264D01*
X118602038Y-114710086D01*
X118600292Y-114713052D01*
X118598824Y-114715110D01*
X118597046Y-114717155D01*
X118595415Y-114719312D01*
X118593930Y-114721569D01*
X118592587Y-114723916D01*
X118591386Y-114726340D01*
X118590325Y-114728830D01*
X118589403Y-114731375D01*
X118588616Y-114733962D01*
X118587963Y-114736580D01*
X118587443Y-114739217D01*
X118587054Y-114741862D01*
X118586794Y-114744504D01*
X118586661Y-114747130D01*
X118586653Y-114749728D01*
X118586769Y-114752288D01*
X118587006Y-114754798D01*
X118587363Y-114757245D01*
X118587839Y-114759619D01*
X118588430Y-114761908D01*
X118589137Y-114764099D01*
X118589955Y-114766182D01*
X118590885Y-114768145D01*
X118591924Y-114769977D01*
X118593070Y-114771665D01*
X118594321Y-114773197D01*
X118595676Y-114774564D01*
X118597133Y-114775751D01*
X118598689Y-114776749D01*
X118600344Y-114777546D01*
X118602095Y-114778129D01*
X118603941Y-114778488D01*
X118605880Y-114778610D01*
X118615857Y-114775989D01*
X118636483Y-114768489D01*
X118704658Y-114741039D01*
X118800349Y-114700624D01*
X118913502Y-114651610D01*
X118971763Y-114625959D01*
X119027163Y-114602243D01*
X119078428Y-114580941D01*
X119124287Y-114562533D01*
X119163464Y-114547499D01*
X119194688Y-114536317D01*
X119206919Y-114532321D01*
X119216684Y-114529469D01*
X119223824Y-114527819D01*
X119228180Y-114527432D01*
X119237504Y-114530830D01*
X119241292Y-114535478D01*
X119244562Y-114543505D01*
X119249735Y-114573941D01*
X119253403Y-114630620D01*
X119255947Y-114722025D01*
X119257747Y-114856640D01*
X119260635Y-115289432D01*
X119263457Y-116045787D01*
X119077191Y-116119166D01*
X118691957Y-116268743D01*
X118651507Y-116284370D01*
X118615212Y-116298506D01*
X118582860Y-116311249D01*
X118554242Y-116322696D01*
X118529146Y-116332944D01*
X118507361Y-116342091D01*
X118488677Y-116350233D01*
X118480432Y-116353957D01*
X118472882Y-116357467D01*
X118466003Y-116360774D01*
X118459767Y-116363891D01*
X118454148Y-116366830D01*
X118449120Y-116369602D01*
X118444656Y-116372220D01*
X118440729Y-116374697D01*
X118437315Y-116377044D01*
X118434386Y-116379273D01*
X118431915Y-116381397D01*
X118429877Y-116383427D01*
X118428246Y-116385377D01*
X118426994Y-116387257D01*
X118426095Y-116389081D01*
X118425524Y-116390859D01*
X118425254Y-116392606D01*
X118425258Y-116394331D01*
X118430944Y-116401695D01*
X118446807Y-116416397D01*
X118505051Y-116464755D01*
X118591970Y-116533288D01*
X118699542Y-116615876D01*
X118944568Y-116798747D01*
X119065982Y-116886793D01*
X119175968Y-116964421D01*
X119263457Y-117026510D01*
X119263457Y-117799798D01*
X119263686Y-118096060D01*
X119263560Y-118213597D01*
X119262906Y-118312517D01*
X119261451Y-118394157D01*
X119260336Y-118428914D01*
X119258918Y-118459852D01*
X119257162Y-118487137D01*
X119255034Y-118510936D01*
X119252499Y-118531417D01*
X119249523Y-118548746D01*
X119246071Y-118563091D01*
X119244156Y-118569196D01*
X119242110Y-118574617D01*
X119239927Y-118579376D01*
X119237604Y-118583492D01*
X119235137Y-118586988D01*
X119232521Y-118589884D01*
X119229751Y-118592200D01*
X119226824Y-118593958D01*
X119223735Y-118595178D01*
X119220480Y-118595882D01*
X119217054Y-118596089D01*
X119213454Y-118595822D01*
X119209675Y-118595101D01*
X119205712Y-118593946D01*
X119197220Y-118590421D01*
X119187943Y-118585413D01*
X119177848Y-118579089D01*
X119166898Y-118571617D01*
X119113880Y-118533577D01*
X118855817Y-118352214D01*
X118609099Y-118174869D01*
X118372765Y-118000797D01*
X118145857Y-117829256D01*
X117927416Y-117659501D01*
X117716483Y-117490788D01*
X117512098Y-117322372D01*
X117313302Y-117153510D01*
X117279496Y-117124171D01*
X117247376Y-117096867D01*
X117217705Y-117072175D01*
X117191241Y-117050675D01*
X117168746Y-117032945D01*
X117150980Y-117019565D01*
X117144108Y-117014686D01*
X117138704Y-117011112D01*
X117134863Y-117008914D01*
X117133558Y-117008354D01*
X117132680Y-117008166D01*
X117126140Y-117009897D01*
X117112373Y-117014869D01*
X117066534Y-117033213D01*
X117001909Y-117060553D01*
X116925246Y-117094244D01*
X116729207Y-117179742D01*
X116538293Y-117260181D01*
X116349827Y-117336585D01*
X116161130Y-117409979D01*
X115969522Y-117481389D01*
X115772324Y-117551840D01*
X115566859Y-117622357D01*
X115350446Y-117693965D01*
X115263828Y-117722210D01*
X115226336Y-117734174D01*
X115192490Y-117744765D01*
X115162117Y-117754034D01*
X115135042Y-117762029D01*
X115111093Y-117768801D01*
X115090096Y-117774399D01*
X115071877Y-117778872D01*
X115056263Y-117782270D01*
X115043079Y-117784643D01*
X115032153Y-117786040D01*
X115027482Y-117786388D01*
X115023310Y-117786511D01*
X115019615Y-117786415D01*
X115016377Y-117786106D01*
X115013572Y-117785590D01*
X115011180Y-117784874D01*
X115009179Y-117783964D01*
X115007546Y-117782865D01*
X115004534Y-117778872D01*
X115001836Y-117771824D01*
X114997316Y-117746397D01*
X114993854Y-117702250D01*
X114991318Y-117635052D01*
X114988496Y-117414169D01*
X114987791Y-117049088D01*
X114987834Y-116958777D01*
X115255902Y-116958777D01*
X115256155Y-117047630D01*
X115256872Y-117130910D01*
X115257985Y-117206749D01*
X115259430Y-117273278D01*
X115261138Y-117328629D01*
X115263045Y-117370932D01*
X115265085Y-117398319D01*
X115266134Y-117405835D01*
X115267190Y-117408922D01*
X115271765Y-117408979D01*
X115281690Y-117407064D01*
X115317043Y-117397500D01*
X115445873Y-117356710D01*
X115644817Y-117289462D01*
X115905013Y-117198666D01*
X115951670Y-117182198D01*
X116006018Y-117162176D01*
X116125675Y-117116292D01*
X116239777Y-117070674D01*
X116287179Y-117050981D01*
X116324113Y-117034976D01*
X116336168Y-117029368D01*
X116347793Y-117024239D01*
X116358691Y-117019673D01*
X116368563Y-117015751D01*
X116377112Y-117012556D01*
X116384041Y-117010172D01*
X116386805Y-117009310D01*
X116389052Y-117008681D01*
X116390744Y-117008296D01*
X116391846Y-117008166D01*
X116393115Y-117008068D01*
X116394787Y-117007780D01*
X116399232Y-117006666D01*
X116404968Y-117004891D01*
X116411778Y-117002521D01*
X116419448Y-116999622D01*
X116427763Y-116996259D01*
X116436508Y-116992500D01*
X116445468Y-116988410D01*
X116679228Y-116885598D01*
X116917485Y-116781859D01*
X117103884Y-116701668D01*
X117160025Y-116678051D01*
X117182069Y-116669499D01*
X117189471Y-116674490D01*
X117207689Y-116688792D01*
X117271674Y-116741289D01*
X117364234Y-116818922D01*
X117475580Y-116913620D01*
X117717497Y-117117372D01*
X117981110Y-117332897D01*
X118243136Y-117541279D01*
X118366277Y-117636879D01*
X118480291Y-117723599D01*
X118574223Y-117793634D01*
X118663956Y-117859749D01*
X118747140Y-117920276D01*
X118821427Y-117973542D01*
X118884469Y-118017880D01*
X118933919Y-118051617D01*
X118967427Y-118073084D01*
X118977470Y-118078694D01*
X118982646Y-118080611D01*
X118983952Y-118078375D01*
X118985218Y-118071786D01*
X118987607Y-118046259D01*
X118991642Y-117950788D01*
X118994354Y-117805576D01*
X118995346Y-117621998D01*
X118995242Y-117481463D01*
X118995067Y-117423273D01*
X118994773Y-117372431D01*
X118994330Y-117328410D01*
X118993709Y-117290683D01*
X118992882Y-117258723D01*
X118991819Y-117232003D01*
X118991190Y-117220444D01*
X118990491Y-117209996D01*
X118989719Y-117200596D01*
X118988870Y-117192175D01*
X118987940Y-117184670D01*
X118986926Y-117178013D01*
X118985824Y-117172139D01*
X118984631Y-117166982D01*
X118983342Y-117162476D01*
X118981955Y-117158556D01*
X118980466Y-117155154D01*
X118978870Y-117152207D01*
X118977166Y-117149646D01*
X118975348Y-117147408D01*
X118973413Y-117145425D01*
X118971357Y-117143632D01*
X118949794Y-117127118D01*
X118909974Y-117097242D01*
X118797791Y-117013810D01*
X118592298Y-116862645D01*
X118536052Y-116820731D01*
X118518802Y-116807554D01*
X118508513Y-116799322D01*
X118496144Y-116789752D01*
X118472001Y-116771451D01*
X118439655Y-116747330D01*
X118402680Y-116720298D01*
X118348837Y-116678847D01*
X118270388Y-116617288D01*
X118080946Y-116467710D01*
X117852346Y-116284266D01*
X118010391Y-116222177D01*
X118166319Y-116161852D01*
X118318013Y-116103643D01*
X118378426Y-116080492D01*
X118433019Y-116059193D01*
X118475969Y-116042128D01*
X118501457Y-116031677D01*
X118762513Y-115930077D01*
X118988291Y-115842588D01*
X118992524Y-115374099D01*
X118992811Y-115191955D01*
X118992400Y-115112384D01*
X118991642Y-115043017D01*
X118990554Y-114985754D01*
X118989151Y-114942497D01*
X118987450Y-114915148D01*
X118986493Y-114908034D01*
X118985989Y-114906221D01*
X118985468Y-114905610D01*
X118968249Y-114911723D01*
X118927348Y-114928584D01*
X118794616Y-114985690D01*
X118627487Y-115059201D01*
X118466180Y-115131388D01*
X118352762Y-115182893D01*
X118276275Y-115217113D01*
X118198069Y-115251332D01*
X118040024Y-115322240D01*
X117915846Y-115378332D01*
X117856999Y-115405253D01*
X117768914Y-115444478D01*
X117553191Y-115539198D01*
X117289313Y-115656321D01*
X116827879Y-115269677D01*
X116040480Y-114612099D01*
X115622261Y-114262319D01*
X115472353Y-114138031D01*
X115353268Y-114040598D01*
X115342782Y-114031982D01*
X115333008Y-114024123D01*
X115323934Y-114017016D01*
X115315543Y-114010657D01*
X115307822Y-114005042D01*
X115300757Y-114000167D01*
X115297465Y-113998006D01*
X115294332Y-113996028D01*
X115291356Y-113994233D01*
X115288534Y-113992621D01*
X115285865Y-113991191D01*
X115283347Y-113989942D01*
X115280979Y-113988873D01*
X115278758Y-113987985D01*
X115276683Y-113987277D01*
X115274752Y-113986749D01*
X115272963Y-113986399D01*
X115271314Y-113986227D01*
X115269803Y-113986233D01*
X115268430Y-113986417D01*
X115267191Y-113986777D01*
X115266085Y-113987313D01*
X115265111Y-113988025D01*
X115264266Y-113988912D01*
X115263549Y-113989974D01*
X115262957Y-113991210D01*
X115261502Y-114004310D01*
X115260311Y-114034888D01*
X115258724Y-114140611D01*
X115258195Y-114292636D01*
X115258724Y-114475221D01*
X115262957Y-114939476D01*
X115361735Y-115022732D01*
X115491734Y-115130153D01*
X115665124Y-115272499D01*
X116449702Y-115915966D01*
X116461616Y-115926169D01*
X116473845Y-115936471D01*
X116486041Y-115946575D01*
X116497856Y-115956182D01*
X116508944Y-115964996D01*
X116518956Y-115972719D01*
X116527547Y-115979052D01*
X116534369Y-115983698D01*
X116536962Y-115985829D01*
X116539442Y-115987976D01*
X116541794Y-115990123D01*
X116544004Y-115992254D01*
X116546056Y-115994351D01*
X116547937Y-115996399D01*
X116549631Y-115998381D01*
X116551125Y-116000280D01*
X116552405Y-116002079D01*
X116552959Y-116002937D01*
X116553454Y-116003763D01*
X116553889Y-116004557D01*
X116554260Y-116005315D01*
X116554567Y-116006036D01*
X116554807Y-116006718D01*
X116554980Y-116007358D01*
X116555082Y-116007955D01*
X116555112Y-116008507D01*
X116555069Y-116009011D01*
X116554951Y-116009465D01*
X116554755Y-116009868D01*
X116554480Y-116010217D01*
X116554124Y-116010510D01*
X116548320Y-116014150D01*
X116534815Y-116021046D01*
X116489081Y-116042679D01*
X116353393Y-116103820D01*
X116217177Y-116163109D01*
X116170781Y-116182426D01*
X116150546Y-116189722D01*
X116149526Y-116189819D01*
X116148071Y-116190107D01*
X116143976Y-116191221D01*
X116138491Y-116192996D01*
X116131849Y-116195366D01*
X116124281Y-116198265D01*
X116116018Y-116201627D01*
X116107292Y-116205387D01*
X116098335Y-116209477D01*
X116077323Y-116218539D01*
X116065816Y-116223293D01*
X116054061Y-116227997D01*
X116042373Y-116232503D01*
X116031065Y-116236662D01*
X116020451Y-116240325D01*
X116010846Y-116243343D01*
X115952461Y-116264510D01*
X115869735Y-116294143D01*
X115731975Y-116343003D01*
X115538124Y-116409855D01*
X115445608Y-116441649D01*
X115366321Y-116469474D01*
X115334285Y-116480989D01*
X115308730Y-116490420D01*
X115290717Y-116497404D01*
X115281302Y-116501577D01*
X115277063Y-116504324D01*
X115273323Y-116508142D01*
X115270050Y-116513539D01*
X115267213Y-116521023D01*
X115264781Y-116531104D01*
X115262723Y-116544290D01*
X115259606Y-116582010D01*
X115257613Y-116638250D01*
X115256497Y-116717080D01*
X115255902Y-116958777D01*
X114987834Y-116958777D01*
X114987898Y-116826166D01*
X114988079Y-116734354D01*
X114988386Y-116654506D01*
X114988850Y-116585771D01*
X114989502Y-116527297D01*
X114990373Y-116478232D01*
X114990901Y-116456961D01*
X114991495Y-116437724D01*
X114992159Y-116420413D01*
X114992897Y-116404923D01*
X114993714Y-116391145D01*
X114994612Y-116378975D01*
X114995596Y-116368306D01*
X114996670Y-116359031D01*
X114997837Y-116351044D01*
X114999102Y-116344238D01*
X115000467Y-116338507D01*
X115001939Y-116333744D01*
X115003519Y-116329843D01*
X115005212Y-116326698D01*
X115007022Y-116324202D01*
X115008952Y-116322248D01*
X115011007Y-116320731D01*
X115013191Y-116319543D01*
X115052459Y-116304440D01*
X115142131Y-116272800D01*
X115418180Y-116178432D01*
X115586609Y-116121381D01*
X115657743Y-116097035D01*
X115720775Y-116075245D01*
X115776166Y-116055835D01*
X115824381Y-116038633D01*
X115865882Y-116023465D01*
X115901132Y-116010157D01*
X115930595Y-115998536D01*
X115954733Y-115988428D01*
X115974009Y-115979660D01*
X115981968Y-115975724D01*
X115988886Y-115972057D01*
X115994820Y-115968639D01*
X115999828Y-115965447D01*
X116003967Y-115962459D01*
X116007296Y-115959655D01*
X116009873Y-115957012D01*
X116011756Y-115954508D01*
X116013002Y-115952122D01*
X116013669Y-115949832D01*
X116013596Y-115948614D01*
X116013119Y-115947083D01*
X116010995Y-115943119D01*
X116007374Y-115938013D01*
X116002335Y-115931841D01*
X115988318Y-115916594D01*
X115969571Y-115897974D01*
X115946723Y-115876576D01*
X115920403Y-115852995D01*
X115891238Y-115827826D01*
X115859857Y-115801666D01*
X115653460Y-115634339D01*
X115431056Y-115452592D01*
X115096446Y-115176543D01*
X114987791Y-115084820D01*
X114990613Y-114272021D01*
X114994846Y-113459220D01*
X115025891Y-113454988D01*
X115030428Y-113454860D01*
X115035595Y-113455548D01*
X115041428Y-113457075D01*
X115047961Y-113459464D01*
X115055231Y-113462738D01*
X115063271Y-113466919D01*
X115072118Y-113472031D01*
X115081806Y-113478095D01*
X115092370Y-113485135D01*
X115103846Y-113493174D01*
X115129673Y-113512337D01*
X115159569Y-113535766D01*
X115193813Y-113563644D01*
X115221550Y-113586787D01*
X115248229Y-113608292D01*
X115271314Y-113626256D01*
X115273188Y-113627714D01*
X115295766Y-113644606D01*
X115305955Y-113651964D01*
X115315301Y-113658522D01*
X115323720Y-113664224D01*
X115331131Y-113669014D01*
X115337451Y-113672837D01*
X115342597Y-113675637D01*
X115346485Y-113677358D01*
X115347933Y-113677796D01*
X115349035Y-113677944D01*
X115352822Y-113673670D01*
X115356250Y-113660751D01*
X115362044Y-113608402D01*
X115366448Y-113519739D01*
X115369496Y-113393605D01*
X115370755Y-113178457D01*
X115636863Y-113178457D01*
X115636902Y-113212277D01*
X115637207Y-113225087D01*
X115638216Y-113236577D01*
X115640074Y-113246814D01*
X115641365Y-113251484D01*
X115642921Y-113255867D01*
X115644761Y-113259970D01*
X115646901Y-113263803D01*
X115649361Y-113267374D01*
X115652157Y-113270692D01*
X115655307Y-113273764D01*
X115658830Y-113276600D01*
X115662743Y-113279208D01*
X115667064Y-113281597D01*
X115671811Y-113283775D01*
X115677002Y-113285751D01*
X115688785Y-113289130D01*
X115702557Y-113291801D01*
X115718460Y-113293834D01*
X115736636Y-113295297D01*
X115757229Y-113296257D01*
X115780381Y-113296783D01*
X115806235Y-113296943D01*
X115919124Y-113296943D01*
X115916302Y-113555177D01*
X115912069Y-113811999D01*
X115782246Y-113816232D01*
X115768912Y-113816561D01*
X115755942Y-113817012D01*
X115743402Y-113817575D01*
X115731358Y-113818239D01*
X115719876Y-113818994D01*
X115709023Y-113819829D01*
X115698864Y-113820735D01*
X115689466Y-113821700D01*
X115680894Y-113822716D01*
X115673216Y-113823770D01*
X115666497Y-113824853D01*
X115660803Y-113825955D01*
X115656200Y-113827066D01*
X115652755Y-113828174D01*
X115651487Y-113828724D01*
X115650533Y-113829270D01*
X115649902Y-113829810D01*
X115649602Y-113830343D01*
X115645898Y-113864943D01*
X115644442Y-113879773D01*
X115643252Y-113893093D01*
X115642326Y-113905009D01*
X115641664Y-113915622D01*
X115641267Y-113925036D01*
X115641135Y-113933354D01*
X115641267Y-113940681D01*
X115641664Y-113947118D01*
X115641962Y-113950036D01*
X115642326Y-113952770D01*
X115642756Y-113955334D01*
X115643252Y-113957740D01*
X115643814Y-113960002D01*
X115644442Y-113962131D01*
X115645137Y-113964142D01*
X115645898Y-113966047D01*
X115646724Y-113967859D01*
X115647617Y-113969591D01*
X115648576Y-113971255D01*
X115649602Y-113972866D01*
X115652074Y-113975397D01*
X115655888Y-113977708D01*
X115661195Y-113979808D01*
X115668145Y-113981707D01*
X115687578Y-113984945D01*
X115715395Y-113987506D01*
X115752803Y-113989471D01*
X115801009Y-113990923D01*
X115934646Y-113992621D01*
X115990335Y-113992431D01*
X116043346Y-113991893D01*
X116092453Y-113991058D01*
X116136435Y-113989975D01*
X116174066Y-113988694D01*
X116204124Y-113987263D01*
X116225385Y-113985733D01*
X116232333Y-113984947D01*
X116236624Y-113984154D01*
X116239862Y-113982902D01*
X116243211Y-113981277D01*
X116246651Y-113979305D01*
X116250162Y-113977010D01*
X116253722Y-113974418D01*
X116257311Y-113971553D01*
X116260909Y-113968440D01*
X116264493Y-113965104D01*
X116268045Y-113961569D01*
X116271544Y-113957861D01*
X116274967Y-113954004D01*
X116278296Y-113950023D01*
X116281509Y-113945942D01*
X116284585Y-113941788D01*
X116287505Y-113937583D01*
X116290247Y-113933354D01*
X116295274Y-113923154D01*
X116500962Y-113923154D01*
X116502866Y-113997743D01*
X116508968Y-114075877D01*
X116512981Y-114109316D01*
X116517523Y-114143367D01*
X116522462Y-114177055D01*
X116527666Y-114209403D01*
X116533001Y-114239436D01*
X116538337Y-114266178D01*
X116543541Y-114288654D01*
X116546051Y-114297987D01*
X116548480Y-114305888D01*
X116556903Y-114332478D01*
X116564735Y-114356748D01*
X116572013Y-114378795D01*
X116578774Y-114398712D01*
X116585056Y-114416596D01*
X116590896Y-114432540D01*
X116596330Y-114446641D01*
X116601396Y-114458993D01*
X116606132Y-114469692D01*
X116610574Y-114478831D01*
X116612697Y-114482847D01*
X116614760Y-114486508D01*
X116616768Y-114489827D01*
X116618726Y-114492816D01*
X116620639Y-114495486D01*
X116622511Y-114497850D01*
X116624347Y-114499920D01*
X116626151Y-114501707D01*
X116627929Y-114503223D01*
X116629684Y-114504480D01*
X116631421Y-114505490D01*
X116633146Y-114506265D01*
X116635879Y-114506977D01*
X116639794Y-114507530D01*
X116650873Y-114508184D01*
X116665789Y-114508275D01*
X116683946Y-114507853D01*
X116704749Y-114506969D01*
X116727603Y-114505671D01*
X116777080Y-114502033D01*
X116823889Y-114497350D01*
X116842514Y-114495035D01*
X116858130Y-114492353D01*
X116864851Y-114490785D01*
X116870869Y-114489019D01*
X116876201Y-114487017D01*
X116880862Y-114484743D01*
X116884871Y-114482163D01*
X116888243Y-114479241D01*
X116890995Y-114475939D01*
X116893144Y-114472223D01*
X116894705Y-114468056D01*
X116895696Y-114463402D01*
X116896132Y-114458226D01*
X116896032Y-114452492D01*
X116895410Y-114446163D01*
X116894285Y-114439204D01*
X116890586Y-114423253D01*
X116885068Y-114404349D01*
X116877864Y-114382206D01*
X116858924Y-114327054D01*
X116841536Y-114272000D01*
X116827441Y-114216619D01*
X116816592Y-114161279D01*
X116808940Y-114106348D01*
X116804438Y-114052194D01*
X116803039Y-113999186D01*
X116804695Y-113947691D01*
X116809359Y-113898077D01*
X116816982Y-113850711D01*
X116821889Y-113827987D01*
X116827519Y-113805963D01*
X116833864Y-113784685D01*
X116840920Y-113764199D01*
X116848680Y-113744552D01*
X116857138Y-113725789D01*
X116866289Y-113707956D01*
X116876127Y-113691099D01*
X116886645Y-113675264D01*
X116897837Y-113660497D01*
X116909699Y-113646845D01*
X116922223Y-113634352D01*
X116935403Y-113623066D01*
X116949235Y-113613032D01*
X116959465Y-113606753D01*
X116971017Y-113600640D01*
X116983754Y-113594726D01*
X116997544Y-113589043D01*
X117012251Y-113583624D01*
X117027742Y-113578504D01*
X117043882Y-113573714D01*
X117060537Y-113569287D01*
X117077572Y-113565258D01*
X117094853Y-113561658D01*
X117112245Y-113558522D01*
X117129615Y-113555882D01*
X117146828Y-113553771D01*
X117163749Y-113552222D01*
X117180244Y-113551268D01*
X117196180Y-113550943D01*
X117241335Y-113550943D01*
X117249802Y-113646899D01*
X117251847Y-113667420D01*
X117253726Y-113689364D01*
X117255408Y-113712036D01*
X117256857Y-113734740D01*
X117258042Y-113756783D01*
X117258930Y-113777471D01*
X117259487Y-113796107D01*
X117259680Y-113811999D01*
X117260386Y-113833079D01*
X117262419Y-113859332D01*
X117269954Y-113924491D01*
X117281260Y-114001754D01*
X117295310Y-114085401D01*
X117311080Y-114169709D01*
X117327545Y-114248958D01*
X117343679Y-114317424D01*
X117358458Y-114369387D01*
X117366563Y-114392823D01*
X117375013Y-114415519D01*
X117383823Y-114437495D01*
X117393008Y-114458773D01*
X117402581Y-114479372D01*
X117412557Y-114499315D01*
X117422950Y-114518620D01*
X117433776Y-114537310D01*
X117445048Y-114555404D01*
X117456780Y-114572924D01*
X117468989Y-114589890D01*
X117481687Y-114606322D01*
X117494890Y-114622242D01*
X117508611Y-114637670D01*
X117522866Y-114652626D01*
X117537668Y-114667132D01*
X117555021Y-114683400D01*
X117571717Y-114698386D01*
X117587892Y-114712165D01*
X117603682Y-114724811D01*
X117619224Y-114736399D01*
X117634655Y-114747003D01*
X117650110Y-114756698D01*
X117665727Y-114765557D01*
X117681641Y-114773656D01*
X117697990Y-114781068D01*
X117714909Y-114787869D01*
X117732534Y-114794132D01*
X117751003Y-114799932D01*
X117770452Y-114805344D01*
X117791018Y-114810441D01*
X117812835Y-114815299D01*
X117842346Y-114820969D01*
X117871332Y-114825289D01*
X117899775Y-114828273D01*
X117927656Y-114829936D01*
X117954955Y-114830292D01*
X117981653Y-114829354D01*
X118007730Y-114827137D01*
X118033167Y-114823655D01*
X118057945Y-114818923D01*
X118082044Y-114812954D01*
X118105444Y-114805764D01*
X118128128Y-114797365D01*
X118150074Y-114787773D01*
X118171264Y-114777001D01*
X118191678Y-114765063D01*
X118211298Y-114751975D01*
X118230103Y-114737750D01*
X118248074Y-114722402D01*
X118265192Y-114705946D01*
X118281437Y-114688395D01*
X118296791Y-114669765D01*
X118311233Y-114650068D01*
X118324744Y-114629320D01*
X118337306Y-114607534D01*
X118348897Y-114584726D01*
X118359501Y-114560908D01*
X118369095Y-114536096D01*
X118377663Y-114510303D01*
X118385183Y-114483543D01*
X118391637Y-114455832D01*
X118397005Y-114427182D01*
X118401268Y-114397609D01*
X118406825Y-114353799D01*
X118410794Y-114318852D01*
X118412183Y-114303793D01*
X118413175Y-114289858D01*
X118413770Y-114276684D01*
X118413969Y-114263907D01*
X118413770Y-114251163D01*
X118413175Y-114238088D01*
X118412183Y-114224319D01*
X118410794Y-114209491D01*
X118406825Y-114175205D01*
X118401268Y-114132321D01*
X118390673Y-114069045D01*
X118375378Y-114006848D01*
X118355510Y-113945883D01*
X118331198Y-113886303D01*
X118302570Y-113828260D01*
X118269754Y-113771909D01*
X118232878Y-113717401D01*
X118192071Y-113664891D01*
X118147461Y-113614530D01*
X118099175Y-113566471D01*
X118047342Y-113520868D01*
X117992090Y-113477874D01*
X117933548Y-113437642D01*
X117871843Y-113400324D01*
X117807103Y-113366073D01*
X117739458Y-113335043D01*
X117704378Y-113320769D01*
X117669958Y-113307565D01*
X117636062Y-113295411D01*
X117602558Y-113284287D01*
X117569309Y-113274172D01*
X117536183Y-113265044D01*
X117503044Y-113256884D01*
X117469759Y-113249671D01*
X117436192Y-113243384D01*
X117402210Y-113238002D01*
X117367678Y-113233505D01*
X117332462Y-113229871D01*
X117296428Y-113227082D01*
X117259440Y-113225114D01*
X117221365Y-113223949D01*
X117182069Y-113223566D01*
X117127777Y-113223337D01*
X117104402Y-113223488D01*
X117083225Y-113223852D01*
X117064007Y-113224456D01*
X117046511Y-113225327D01*
X117030499Y-113226491D01*
X117015734Y-113227975D01*
X117001977Y-113229807D01*
X116988992Y-113232013D01*
X116976539Y-113234620D01*
X116964383Y-113237654D01*
X116952284Y-113241144D01*
X116940005Y-113245115D01*
X116927309Y-113249595D01*
X116913957Y-113254610D01*
X116857304Y-113278917D01*
X116804820Y-113306857D01*
X116756507Y-113338422D01*
X116712367Y-113373606D01*
X116672403Y-113412404D01*
X116636616Y-113454808D01*
X116605009Y-113500814D01*
X116577584Y-113550414D01*
X116554342Y-113603602D01*
X116535286Y-113660373D01*
X116520418Y-113720720D01*
X116509740Y-113784636D01*
X116503254Y-113852117D01*
X116500962Y-113923154D01*
X116295274Y-113923154D01*
X116297354Y-113918934D01*
X116300320Y-113910311D01*
X116302924Y-113900281D01*
X116307138Y-113874617D01*
X116310178Y-113839162D01*
X116312226Y-113791141D01*
X116313463Y-113727773D01*
X116314235Y-113543888D01*
X116314235Y-113195343D01*
X116273313Y-113154421D01*
X116232391Y-113113499D01*
X115943113Y-113113499D01*
X115837583Y-113113518D01*
X115795382Y-113113787D01*
X115759536Y-113114447D01*
X115743834Y-113114974D01*
X115729527Y-113115661D01*
X115716550Y-113116526D01*
X115704839Y-113117592D01*
X115694329Y-113118877D01*
X115684954Y-113120403D01*
X115676652Y-113122190D01*
X115669357Y-113124259D01*
X115663005Y-113126629D01*
X115657530Y-113129321D01*
X115652869Y-113132356D01*
X115648957Y-113135754D01*
X115645729Y-113139536D01*
X115643120Y-113143721D01*
X115641067Y-113148331D01*
X115639503Y-113153385D01*
X115638366Y-113158904D01*
X115637590Y-113164909D01*
X115637111Y-113171420D01*
X115636863Y-113178457D01*
X115370755Y-113178457D01*
X115371657Y-113024290D01*
X115368791Y-112491199D01*
X115368526Y-112404539D01*
X115368790Y-112325768D01*
X115369330Y-112277834D01*
X115637282Y-112277834D01*
X115639724Y-112437576D01*
X115643957Y-112760721D01*
X115683468Y-112798821D01*
X115696190Y-112811457D01*
X115702097Y-112816615D01*
X115707986Y-112821068D01*
X115714075Y-112824867D01*
X115720576Y-112828065D01*
X115727706Y-112830714D01*
X115735679Y-112832864D01*
X115744711Y-112834567D01*
X115755016Y-112835876D01*
X115766809Y-112836842D01*
X115780306Y-112837516D01*
X115813269Y-112838197D01*
X115855624Y-112838332D01*
X115876935Y-112838293D01*
X115895998Y-112838153D01*
X115912982Y-112837876D01*
X115928054Y-112837428D01*
X115941381Y-112836773D01*
X115943113Y-112836654D01*
X115947443Y-112836357D01*
X115953131Y-112835876D01*
X115958467Y-112835326D01*
X115963472Y-112834702D01*
X115968166Y-112834001D01*
X115972570Y-112833217D01*
X115976705Y-112832346D01*
X115980593Y-112831384D01*
X115984254Y-112830326D01*
X115987709Y-112829168D01*
X115990979Y-112827906D01*
X115994085Y-112826535D01*
X115997048Y-112825051D01*
X115999888Y-112823449D01*
X116002627Y-112821726D01*
X116005286Y-112819876D01*
X116007886Y-112817895D01*
X116010446Y-112815779D01*
X116012990Y-112813524D01*
X116015537Y-112811125D01*
X116020724Y-112805877D01*
X116031032Y-112794750D01*
X116035247Y-112788963D01*
X116038892Y-112782483D01*
X116042008Y-112774904D01*
X116044636Y-112765817D01*
X116046817Y-112754817D01*
X116048593Y-112741495D01*
X116051096Y-112706258D01*
X116052474Y-112656850D01*
X116053058Y-112590012D01*
X116053180Y-112502488D01*
X116053180Y-112231554D01*
X115926180Y-112231554D01*
X115919124Y-112443221D01*
X115912069Y-112654888D01*
X115851391Y-112659121D01*
X115792124Y-112663354D01*
X115794946Y-112405121D01*
X115799180Y-112146888D01*
X116166068Y-112146888D01*
X116173124Y-112485554D01*
X116180180Y-112824221D01*
X116218280Y-112828454D01*
X116223908Y-112829095D01*
X116229177Y-112829413D01*
X116234124Y-112829384D01*
X116236488Y-112829232D01*
X116238785Y-112828983D01*
X116241020Y-112828636D01*
X116243198Y-112828186D01*
X116245323Y-112827630D01*
X116247400Y-112826966D01*
X116249434Y-112826190D01*
X116251429Y-112825300D01*
X116253390Y-112824292D01*
X116255321Y-112823163D01*
X116257228Y-112821910D01*
X116259114Y-112820529D01*
X116260985Y-112819019D01*
X116262845Y-112817375D01*
X116264699Y-112815595D01*
X116266552Y-112813675D01*
X116270270Y-112809405D01*
X116274038Y-112804539D01*
X116277893Y-112799053D01*
X116281872Y-112792922D01*
X116286013Y-112786121D01*
X116294923Y-112769973D01*
X116298573Y-112761412D01*
X116301733Y-112751924D01*
X116304439Y-112741054D01*
X116306725Y-112728351D01*
X116310178Y-112695633D01*
X116312375Y-112650150D01*
X116313596Y-112588279D01*
X116314235Y-112400887D01*
X116313889Y-112335160D01*
X116313323Y-112276834D01*
X116312446Y-112225441D01*
X116311170Y-112180512D01*
X116310355Y-112160324D01*
X116309775Y-112148861D01*
X116543979Y-112148861D01*
X116544224Y-112180843D01*
X116544966Y-112209781D01*
X116545517Y-112222924D01*
X116546186Y-112235082D01*
X116546972Y-112246182D01*
X116547870Y-112256150D01*
X116548881Y-112264910D01*
X116550001Y-112272388D01*
X116551228Y-112278511D01*
X116552561Y-112283203D01*
X116553266Y-112284990D01*
X116553997Y-112286391D01*
X116554754Y-112287397D01*
X116555535Y-112287999D01*
X116557556Y-112289203D01*
X116560923Y-112290686D01*
X116571388Y-112294415D01*
X116586318Y-112299037D01*
X116605100Y-112304403D01*
X116651777Y-112316772D01*
X116706524Y-112330332D01*
X116914487Y-112381132D01*
X117127777Y-112431976D01*
X117358458Y-112486965D01*
X117817068Y-112598443D01*
X118110932Y-112668646D01*
X118381513Y-112732499D01*
X118566192Y-112775537D01*
X118626187Y-112790045D01*
X118644104Y-112794736D01*
X118649543Y-112796340D01*
X118652447Y-112797410D01*
X118654979Y-112799004D01*
X118657292Y-112802817D01*
X118659398Y-112808987D01*
X118661310Y-112817650D01*
X118664601Y-112843001D01*
X118667263Y-112879960D01*
X118669396Y-112929619D01*
X118671100Y-112993069D01*
X118673613Y-113165710D01*
X118677846Y-113529777D01*
X118769569Y-113552354D01*
X118810050Y-113562210D01*
X118852119Y-113571934D01*
X118891012Y-113580334D01*
X118907780Y-113583666D01*
X118921969Y-113586221D01*
X118981235Y-113596098D01*
X118981235Y-111801166D01*
X118943135Y-111785643D01*
X118921054Y-111778822D01*
X118889778Y-111770496D01*
X118852549Y-111761409D01*
X118812608Y-111752306D01*
X118773196Y-111743930D01*
X118737554Y-111737026D01*
X118708924Y-111732338D01*
X118698251Y-111731057D01*
X118690546Y-111730610D01*
X118687534Y-111731316D01*
X118684836Y-111733614D01*
X118682435Y-111737772D01*
X118680316Y-111744059D01*
X118676854Y-111764096D01*
X118674319Y-111795874D01*
X118672577Y-111841542D01*
X118671497Y-111903250D01*
X118670791Y-112083387D01*
X118670584Y-112174308D01*
X118669931Y-112249832D01*
X118669422Y-112282137D01*
X118668782Y-112310970D01*
X118668006Y-112336460D01*
X118667087Y-112358731D01*
X118666019Y-112377909D01*
X118664796Y-112394121D01*
X118663413Y-112407493D01*
X118661861Y-112418152D01*
X118660136Y-112426222D01*
X118659207Y-112429326D01*
X118658231Y-112431830D01*
X118657210Y-112433750D01*
X118656141Y-112435103D01*
X118655024Y-112435902D01*
X118653858Y-112436165D01*
X118645774Y-112435011D01*
X118628612Y-112431689D01*
X118571484Y-112419408D01*
X118491337Y-112401042D01*
X118397035Y-112378310D01*
X118035791Y-112293643D01*
X117928017Y-112268067D01*
X117877636Y-112255742D01*
X117838235Y-112245665D01*
X117723583Y-112216914D01*
X117556013Y-112176521D01*
X117169898Y-112084446D01*
X116867391Y-112011421D01*
X116774985Y-111990056D01*
X116692237Y-111971733D01*
X116628274Y-111958438D01*
X116606189Y-111954296D01*
X116592224Y-111952154D01*
X116547068Y-111949332D01*
X116544246Y-112114432D01*
X116543979Y-112148861D01*
X116309775Y-112148861D01*
X116309407Y-112141577D01*
X116308314Y-112124211D01*
X116307067Y-112108167D01*
X116305652Y-112093388D01*
X116304061Y-112079814D01*
X116302280Y-112067386D01*
X116300300Y-112056047D01*
X116298109Y-112045737D01*
X116295697Y-112036398D01*
X116293051Y-112027971D01*
X116290161Y-112020397D01*
X116287015Y-112013618D01*
X116283604Y-112007576D01*
X116279914Y-112002210D01*
X116275937Y-111997464D01*
X116271659Y-111993278D01*
X116267071Y-111989593D01*
X116262160Y-111986351D01*
X116256917Y-111983493D01*
X116251329Y-111980961D01*
X116245387Y-111978696D01*
X116239077Y-111976639D01*
X116232391Y-111974732D01*
X116227255Y-111973442D01*
X116219878Y-111972221D01*
X116198965Y-111969992D01*
X116170776Y-111968060D01*
X116136435Y-111966442D01*
X116053797Y-111964215D01*
X115960046Y-111963443D01*
X115849511Y-111963906D01*
X115805048Y-111965601D01*
X115767121Y-111969264D01*
X115750452Y-111972066D01*
X115735230Y-111975639D01*
X115721391Y-111980076D01*
X115708874Y-111985470D01*
X115697616Y-111991914D01*
X115687554Y-111999501D01*
X115678625Y-112008324D01*
X115670768Y-112018476D01*
X115663920Y-112030051D01*
X115658018Y-112043141D01*
X115653000Y-112057838D01*
X115648803Y-112074237D01*
X115645364Y-112092431D01*
X115642621Y-112112511D01*
X115638974Y-112158706D01*
X115637361Y-112213565D01*
X115637282Y-112277834D01*
X115369330Y-112277834D01*
X115369584Y-112255232D01*
X115370907Y-112193278D01*
X115372759Y-112140254D01*
X115375141Y-112096507D01*
X115378051Y-112062383D01*
X115379705Y-112049040D01*
X115381491Y-112038232D01*
X115386467Y-112017811D01*
X115392396Y-111997830D01*
X115399272Y-111978301D01*
X115407089Y-111959232D01*
X115415840Y-111940634D01*
X115425519Y-111922518D01*
X115436120Y-111904894D01*
X115447636Y-111887772D01*
X115460062Y-111871163D01*
X115473392Y-111855077D01*
X115487618Y-111839524D01*
X115502736Y-111824515D01*
X115518738Y-111810059D01*
X115535619Y-111796168D01*
X115553371Y-111782852D01*
X115571991Y-111770121D01*
X115656657Y-111716498D01*
X115652424Y-111507654D01*
X115651647Y-111465732D01*
X115650440Y-111426273D01*
X115648902Y-111390154D01*
X115647132Y-111358253D01*
X115645231Y-111331444D01*
X115643296Y-111310606D01*
X115642347Y-111302699D01*
X115641427Y-111296613D01*
X115640549Y-111292458D01*
X115639724Y-111290343D01*
X115638016Y-111289285D01*
X115635058Y-111288232D01*
X115625679Y-111286154D01*
X115612166Y-111284142D01*
X115595098Y-111282229D01*
X115575053Y-111280449D01*
X115552610Y-111278834D01*
X115528348Y-111277417D01*
X115502846Y-111276232D01*
X115375846Y-111271999D01*
X115375846Y-110882162D01*
X115641196Y-110882162D01*
X115641347Y-110894232D01*
X115641841Y-110906521D01*
X115642666Y-110918743D01*
X115643809Y-110930614D01*
X115645258Y-110941849D01*
X115647000Y-110952161D01*
X115649024Y-110961267D01*
X115651316Y-110968880D01*
X115653865Y-110974715D01*
X115655231Y-110976877D01*
X115656657Y-110978487D01*
X115659005Y-110980042D01*
X115662867Y-110981530D01*
X115675112Y-110984308D01*
X115693343Y-110986822D01*
X115717511Y-110989071D01*
X115747566Y-110991055D01*
X115783459Y-110992775D01*
X115825139Y-110994230D01*
X115872557Y-110995421D01*
X115917713Y-110996832D01*
X115921946Y-111315743D01*
X115923829Y-111442760D01*
X115925075Y-111493698D01*
X115926951Y-111537067D01*
X115928226Y-111556103D01*
X115929779Y-111573474D01*
X115931649Y-111589257D01*
X115933877Y-111603527D01*
X115936503Y-111616361D01*
X115939568Y-111627834D01*
X115943110Y-111638022D01*
X115947170Y-111647001D01*
X115951788Y-111654848D01*
X115957005Y-111661638D01*
X115960046Y-111664656D01*
X115962859Y-111667447D01*
X115969392Y-111672352D01*
X115976643Y-111676427D01*
X115984653Y-111679750D01*
X115993461Y-111682395D01*
X116003107Y-111684440D01*
X116013632Y-111685959D01*
X116025076Y-111687030D01*
X116050878Y-111688127D01*
X116115268Y-111688276D01*
X116138457Y-111688232D01*
X116158961Y-111688050D01*
X116177004Y-111687662D01*
X116192814Y-111686997D01*
X116199951Y-111686539D01*
X116206614Y-111685985D01*
X116212831Y-111685327D01*
X116218630Y-111684556D01*
X116224039Y-111683662D01*
X116229087Y-111682638D01*
X116233802Y-111681474D01*
X116238212Y-111680162D01*
X116242344Y-111678693D01*
X116246228Y-111677058D01*
X116249891Y-111675249D01*
X116253362Y-111673256D01*
X116256668Y-111671070D01*
X116259838Y-111668684D01*
X116262900Y-111666088D01*
X116265883Y-111663273D01*
X116268813Y-111660231D01*
X116271720Y-111656953D01*
X116274632Y-111653430D01*
X116277577Y-111649653D01*
X116283677Y-111641302D01*
X116290247Y-111631832D01*
X116294004Y-111625962D01*
X116297354Y-111619206D01*
X116300320Y-111611173D01*
X116302924Y-111601471D01*
X116307138Y-111575500D01*
X116310178Y-111538169D01*
X116312226Y-111486352D01*
X116313463Y-111416924D01*
X116314235Y-111212732D01*
X116314031Y-111119938D01*
X116313397Y-111040290D01*
X116312300Y-110973441D01*
X116310707Y-110919044D01*
X116309714Y-110896407D01*
X116308585Y-110876752D01*
X116307315Y-110860037D01*
X116305901Y-110846218D01*
X116304337Y-110835251D01*
X116302621Y-110827093D01*
X116301704Y-110824055D01*
X116300747Y-110821702D01*
X116299751Y-110820029D01*
X116298713Y-110819032D01*
X116289276Y-110817453D01*
X116268198Y-110815923D01*
X116196407Y-110813211D01*
X116093925Y-110811293D01*
X115971335Y-110810565D01*
X115889386Y-110811241D01*
X115821625Y-110812263D01*
X115792703Y-110812930D01*
X115766895Y-110813715D01*
X115744055Y-110814629D01*
X115724038Y-110815680D01*
X115706700Y-110816881D01*
X115691897Y-110818241D01*
X115679482Y-110819770D01*
X115669313Y-110821479D01*
X115661244Y-110823378D01*
X115657952Y-110824403D01*
X115655131Y-110825478D01*
X115652762Y-110826607D01*
X115650828Y-110827789D01*
X115649310Y-110829027D01*
X115648191Y-110830321D01*
X115647054Y-110832444D01*
X115646022Y-110835085D01*
X115644272Y-110841781D01*
X115642926Y-110850121D01*
X115641973Y-110859822D01*
X115641400Y-110870597D01*
X115641196Y-110882162D01*
X115375846Y-110882162D01*
X115375846Y-110566443D01*
X115512724Y-110562210D01*
X115651013Y-110557976D01*
X115651013Y-110347721D01*
X115651319Y-110268040D01*
X115651227Y-110236456D01*
X115650550Y-110209807D01*
X115648972Y-110187664D01*
X115647746Y-110178148D01*
X115646176Y-110169598D01*
X115644223Y-110161962D01*
X115641847Y-110155184D01*
X115639008Y-110149212D01*
X115635667Y-110143992D01*
X115631785Y-110139470D01*
X115627321Y-110135594D01*
X115622237Y-110132310D01*
X115616493Y-110129564D01*
X115610049Y-110127302D01*
X115602866Y-110125472D01*
X115594904Y-110124020D01*
X115586124Y-110122891D01*
X115565950Y-110121394D01*
X115542029Y-110120551D01*
X115481679Y-110119121D01*
X115375846Y-110114888D01*
X115375172Y-109747999D01*
X115636902Y-109747999D01*
X115637109Y-109761276D01*
X115637833Y-109773123D01*
X115639227Y-109783631D01*
X115641444Y-109792890D01*
X115642908Y-109797079D01*
X115644636Y-109800991D01*
X115646646Y-109804636D01*
X115648957Y-109808026D01*
X115651588Y-109811172D01*
X115654559Y-109814085D01*
X115657889Y-109816778D01*
X115661596Y-109819260D01*
X115665700Y-109821544D01*
X115670221Y-109823641D01*
X115675176Y-109825562D01*
X115680586Y-109827319D01*
X115692844Y-109830385D01*
X115707149Y-109832930D01*
X115723653Y-109835045D01*
X115742509Y-109836821D01*
X115763871Y-109838350D01*
X115787891Y-109839721D01*
X115912069Y-109846776D01*
X115919124Y-110192499D01*
X115926180Y-110538221D01*
X115971335Y-110538221D01*
X116053180Y-110538221D01*
X116057413Y-110195321D01*
X116058901Y-110072921D01*
X116059757Y-110023520D01*
X116060853Y-109981295D01*
X116061529Y-109962711D01*
X116062312Y-109945725D01*
X116063217Y-109930274D01*
X116064259Y-109916293D01*
X116065454Y-109903716D01*
X116066818Y-109892479D01*
X116068366Y-109882516D01*
X116070113Y-109873764D01*
X116072075Y-109866157D01*
X116074268Y-109859630D01*
X116075455Y-109856751D01*
X116076706Y-109854118D01*
X116078023Y-109851723D01*
X116079406Y-109849557D01*
X116080859Y-109847613D01*
X116082383Y-109845882D01*
X116083981Y-109844356D01*
X116085653Y-109843028D01*
X116087402Y-109841888D01*
X116089231Y-109840929D01*
X116091140Y-109840143D01*
X116093132Y-109839522D01*
X116095208Y-109839058D01*
X116097372Y-109838741D01*
X116101966Y-109838522D01*
X116106931Y-109838799D01*
X116112281Y-109839508D01*
X116118032Y-109840584D01*
X116124199Y-109841962D01*
X116137846Y-109845365D01*
X116173124Y-109853832D01*
X116173124Y-110182621D01*
X116173331Y-110265019D01*
X116173984Y-110334866D01*
X116175133Y-110392840D01*
X116175909Y-110417587D01*
X116176828Y-110439619D01*
X116177896Y-110459023D01*
X116179119Y-110475881D01*
X116180503Y-110490280D01*
X116182054Y-110502304D01*
X116183779Y-110512037D01*
X116185684Y-110519565D01*
X116186705Y-110522528D01*
X116187774Y-110524972D01*
X116188892Y-110526907D01*
X116190058Y-110528343D01*
X116192596Y-110530638D01*
X116195434Y-110532760D01*
X116198549Y-110534711D01*
X116201917Y-110536493D01*
X116205515Y-110538106D01*
X116209321Y-110539552D01*
X116213312Y-110540832D01*
X116217464Y-110541947D01*
X116221754Y-110542899D01*
X116226160Y-110543689D01*
X116235227Y-110544788D01*
X116244479Y-110545255D01*
X116253734Y-110545100D01*
X116262806Y-110544333D01*
X116271513Y-110542964D01*
X116279670Y-110541004D01*
X116283485Y-110539806D01*
X116287093Y-110538463D01*
X116290472Y-110536978D01*
X116293599Y-110535352D01*
X116296450Y-110533586D01*
X116299002Y-110531681D01*
X116301233Y-110529638D01*
X116303120Y-110527460D01*
X116304639Y-110525146D01*
X116305768Y-110522699D01*
X116307348Y-110509762D01*
X116308877Y-110481644D01*
X116311589Y-110386879D01*
X116313507Y-110252427D01*
X116313864Y-110173923D01*
X116499714Y-110173923D01*
X116502266Y-110261643D01*
X116507596Y-110347247D01*
X116515539Y-110426831D01*
X116520439Y-110463147D01*
X116525929Y-110496494D01*
X116531991Y-110526385D01*
X116538602Y-110552332D01*
X116550011Y-110589829D01*
X116561543Y-110625167D01*
X116573291Y-110658499D01*
X116585345Y-110689981D01*
X116597796Y-110719769D01*
X116610734Y-110748016D01*
X116624251Y-110774879D01*
X116638438Y-110800511D01*
X116653386Y-110825069D01*
X116669185Y-110848707D01*
X116685927Y-110871580D01*
X116703702Y-110893843D01*
X116722602Y-110915651D01*
X116742717Y-110937160D01*
X116764139Y-110958524D01*
X116786958Y-110979898D01*
X116813982Y-111003535D01*
X116841164Y-111025258D01*
X116868627Y-111045104D01*
X116896495Y-111063110D01*
X116924892Y-111079314D01*
X116953943Y-111093752D01*
X116983770Y-111106462D01*
X117014499Y-111117482D01*
X117046253Y-111126848D01*
X117079157Y-111134597D01*
X117113333Y-111140767D01*
X117148908Y-111145395D01*
X117186003Y-111148519D01*
X117224744Y-111150174D01*
X117265254Y-111150400D01*
X117307658Y-111149232D01*
X117348144Y-111147413D01*
X117366042Y-111146293D01*
X117382579Y-111144999D01*
X117397909Y-111143506D01*
X117412184Y-111141790D01*
X117425559Y-111139827D01*
X117438185Y-111137590D01*
X117450216Y-111135056D01*
X117461805Y-111132199D01*
X117473104Y-111128995D01*
X117484267Y-111125419D01*
X117495446Y-111121447D01*
X117506795Y-111117052D01*
X117518466Y-111112211D01*
X117530613Y-111106899D01*
X117559364Y-111092805D01*
X117586526Y-111077822D01*
X117612360Y-111061624D01*
X117637130Y-111043884D01*
X117661098Y-111024275D01*
X117684526Y-111002471D01*
X117707678Y-110978145D01*
X117730814Y-110950971D01*
X117754199Y-110920622D01*
X117778095Y-110886771D01*
X117802763Y-110849092D01*
X117828468Y-110807258D01*
X117855470Y-110760943D01*
X117884033Y-110709820D01*
X117946891Y-110591843D01*
X117963955Y-110559728D01*
X117980283Y-110529988D01*
X117995967Y-110502518D01*
X118011096Y-110477212D01*
X118025763Y-110453965D01*
X118040057Y-110432671D01*
X118054071Y-110413225D01*
X118067894Y-110395522D01*
X118081617Y-110379456D01*
X118095333Y-110364921D01*
X118109131Y-110351813D01*
X118123103Y-110340026D01*
X118137340Y-110329454D01*
X118151932Y-110319992D01*
X118166970Y-110311534D01*
X118182546Y-110303976D01*
X118195792Y-110298703D01*
X118210523Y-110294002D01*
X118226541Y-110289884D01*
X118243643Y-110286359D01*
X118261630Y-110283438D01*
X118280302Y-110281131D01*
X118299457Y-110279448D01*
X118318895Y-110278400D01*
X118338416Y-110277997D01*
X118357819Y-110278248D01*
X118376904Y-110279166D01*
X118395470Y-110280759D01*
X118413316Y-110283039D01*
X118430243Y-110286015D01*
X118446050Y-110289698D01*
X118460535Y-110294098D01*
X118477740Y-110300433D01*
X118494424Y-110307782D01*
X118510580Y-110316126D01*
X118526199Y-110325446D01*
X118555794Y-110346939D01*
X118583148Y-110372107D01*
X118608194Y-110400797D01*
X118630869Y-110432856D01*
X118651109Y-110468132D01*
X118668851Y-110506471D01*
X118684029Y-110547720D01*
X118696579Y-110591727D01*
X118706439Y-110638339D01*
X118713543Y-110687402D01*
X118717828Y-110738763D01*
X118719229Y-110792270D01*
X118717683Y-110847770D01*
X118713124Y-110905110D01*
X118707538Y-110955574D01*
X118704812Y-110977422D01*
X118702034Y-110997405D01*
X118699132Y-111015818D01*
X118696034Y-111032953D01*
X118692667Y-111049104D01*
X118688959Y-111064565D01*
X118684837Y-111079629D01*
X118680230Y-111094590D01*
X118675065Y-111109741D01*
X118669269Y-111125375D01*
X118662771Y-111141787D01*
X118655497Y-111159270D01*
X118638335Y-111198621D01*
X118630161Y-111217801D01*
X118622681Y-111235905D01*
X118616061Y-111252521D01*
X118610466Y-111267236D01*
X118606062Y-111279636D01*
X118604358Y-111284838D01*
X118603013Y-111289307D01*
X118602050Y-111292990D01*
X118601487Y-111295836D01*
X118601345Y-111297793D01*
X118601439Y-111298422D01*
X118601647Y-111298810D01*
X118618312Y-111309693D01*
X118650043Y-111328730D01*
X118690546Y-111352073D01*
X118737995Y-111379420D01*
X118824095Y-111427199D01*
X118853510Y-111442598D01*
X118862545Y-111446879D01*
X118866935Y-111448388D01*
X118868673Y-111447931D01*
X118870700Y-111446586D01*
X118875559Y-111441382D01*
X118881381Y-111433077D01*
X118888036Y-111421974D01*
X118903324Y-111392577D01*
X118920381Y-111355607D01*
X118938166Y-111313478D01*
X118955637Y-111268603D01*
X118971752Y-111223398D01*
X118985468Y-111180277D01*
X118992726Y-111151484D01*
X118999147Y-111118405D01*
X119004720Y-111081619D01*
X119009435Y-111041701D01*
X119013282Y-110999228D01*
X119016251Y-110954777D01*
X119019512Y-110862247D01*
X119019134Y-110768725D01*
X119015036Y-110678825D01*
X119011565Y-110636674D01*
X119007134Y-110597160D01*
X119001731Y-110560857D01*
X118995346Y-110528343D01*
X118983562Y-110480197D01*
X118969933Y-110433688D01*
X118954496Y-110388866D01*
X118937292Y-110345781D01*
X118918360Y-110304481D01*
X118897740Y-110265016D01*
X118875470Y-110227437D01*
X118851589Y-110191793D01*
X118826138Y-110158133D01*
X118799155Y-110126507D01*
X118770680Y-110096965D01*
X118740751Y-110069556D01*
X118709409Y-110044329D01*
X118676692Y-110021335D01*
X118659830Y-110010691D01*
X118642639Y-110000623D01*
X118625125Y-109991139D01*
X118607291Y-109982243D01*
X118581801Y-109970596D01*
X118556148Y-109959995D01*
X118530363Y-109950435D01*
X118504473Y-109941911D01*
X118478506Y-109934418D01*
X118452491Y-109927952D01*
X118426456Y-109922508D01*
X118400431Y-109918082D01*
X118374442Y-109914668D01*
X118348519Y-109912263D01*
X118322690Y-109910861D01*
X118296984Y-109910458D01*
X118271429Y-109911050D01*
X118246053Y-109912631D01*
X118220884Y-109915197D01*
X118195952Y-109918743D01*
X118171284Y-109923265D01*
X118146910Y-109928758D01*
X118122856Y-109935217D01*
X118099153Y-109942638D01*
X118075828Y-109951016D01*
X118052909Y-109960347D01*
X118030426Y-109970625D01*
X118008406Y-109981846D01*
X117986879Y-109994006D01*
X117965871Y-110007099D01*
X117945413Y-110021122D01*
X117925531Y-110036069D01*
X117906255Y-110051936D01*
X117887614Y-110068718D01*
X117869635Y-110086411D01*
X117852346Y-110105010D01*
X117836535Y-110124385D01*
X117817135Y-110151003D01*
X117794923Y-110183640D01*
X117770678Y-110221074D01*
X117745176Y-110262079D01*
X117719195Y-110305432D01*
X117693511Y-110349909D01*
X117668902Y-110394288D01*
X117635263Y-110455651D01*
X117604446Y-110510349D01*
X117576030Y-110558758D01*
X117549597Y-110601258D01*
X117524726Y-110638226D01*
X117512746Y-110654754D01*
X117500999Y-110670041D01*
X117489433Y-110684135D01*
X117477995Y-110697081D01*
X117466633Y-110708929D01*
X117455295Y-110719725D01*
X117443928Y-110729516D01*
X117432479Y-110738350D01*
X117420897Y-110746274D01*
X117409128Y-110753335D01*
X117397120Y-110759581D01*
X117384822Y-110765059D01*
X117372179Y-110769815D01*
X117359141Y-110773898D01*
X117345654Y-110777355D01*
X117331666Y-110780233D01*
X117317124Y-110782579D01*
X117301977Y-110784440D01*
X117269655Y-110786899D01*
X117234280Y-110787987D01*
X117200576Y-110787736D01*
X117185963Y-110787364D01*
X117172610Y-110786775D01*
X117160339Y-110785929D01*
X117148976Y-110784788D01*
X117138345Y-110783311D01*
X117128270Y-110781461D01*
X117118575Y-110779197D01*
X117109085Y-110776481D01*
X117099624Y-110773273D01*
X117090016Y-110769533D01*
X117080085Y-110765223D01*
X117069656Y-110760303D01*
X117058554Y-110754734D01*
X117046602Y-110748476D01*
X117030462Y-110739116D01*
X117014846Y-110729021D01*
X116999752Y-110718187D01*
X116985174Y-110706606D01*
X116971109Y-110694273D01*
X116957553Y-110681181D01*
X116944501Y-110667325D01*
X116931949Y-110652697D01*
X116919893Y-110637293D01*
X116908329Y-110621104D01*
X116897253Y-110604127D01*
X116886661Y-110586353D01*
X116876548Y-110567777D01*
X116866911Y-110548394D01*
X116857745Y-110528195D01*
X116849046Y-110507176D01*
X116839141Y-110481181D01*
X116835038Y-110468878D01*
X116831451Y-110456641D01*
X116828345Y-110444172D01*
X116825680Y-110431175D01*
X116823421Y-110417350D01*
X116821530Y-110402401D01*
X116818702Y-110367939D01*
X116816899Y-110325408D01*
X116815825Y-110272425D01*
X116815180Y-110206610D01*
X116815778Y-110125129D01*
X116816677Y-110090015D01*
X116818112Y-110058002D01*
X116820184Y-110028602D01*
X116822993Y-110001326D01*
X116826642Y-109975688D01*
X116831231Y-109951199D01*
X116836862Y-109927371D01*
X116843636Y-109903717D01*
X116851655Y-109879749D01*
X116861019Y-109854978D01*
X116871830Y-109828918D01*
X116884189Y-109801080D01*
X116913957Y-109738121D01*
X116959113Y-109644988D01*
X116922424Y-109618176D01*
X116907295Y-109607371D01*
X116890685Y-109596227D01*
X116872902Y-109584901D01*
X116854250Y-109573550D01*
X116835036Y-109562331D01*
X116815565Y-109551402D01*
X116796145Y-109540919D01*
X116777080Y-109531040D01*
X116758676Y-109521922D01*
X116741240Y-109513721D01*
X116725077Y-109506595D01*
X116710493Y-109500701D01*
X116697794Y-109496196D01*
X116687287Y-109493238D01*
X116679276Y-109491982D01*
X116676303Y-109492042D01*
X116674068Y-109492587D01*
X116669322Y-109494960D01*
X116664355Y-109498602D01*
X116653839Y-109509487D01*
X116642678Y-109524821D01*
X116631030Y-109544181D01*
X116619050Y-109567146D01*
X116606897Y-109593294D01*
X116594728Y-109622204D01*
X116582699Y-109653454D01*
X116570968Y-109686622D01*
X116559691Y-109721287D01*
X116549027Y-109757026D01*
X116539131Y-109793419D01*
X116530161Y-109830043D01*
X116522275Y-109866477D01*
X116515629Y-109902299D01*
X116510380Y-109937088D01*
X116506573Y-109970972D01*
X116503605Y-110007742D01*
X116500105Y-110087988D01*
X116499714Y-110173923D01*
X116313864Y-110173923D01*
X116314235Y-110092310D01*
X116314235Y-109684499D01*
X116276135Y-109668976D01*
X116262421Y-109666005D01*
X116239711Y-109663464D01*
X116208666Y-109661386D01*
X116169949Y-109659804D01*
X116124220Y-109658751D01*
X116072141Y-109658261D01*
X115951579Y-109659099D01*
X115848116Y-109660661D01*
X115806212Y-109661619D01*
X115770252Y-109662869D01*
X115754359Y-109663644D01*
X115739782Y-109664540D01*
X115726464Y-109665575D01*
X115714347Y-109666763D01*
X115703376Y-109668123D01*
X115693494Y-109669669D01*
X115684642Y-109671418D01*
X115676766Y-109673386D01*
X115669807Y-109675590D01*
X115663709Y-109678046D01*
X115658415Y-109680771D01*
X115653868Y-109683779D01*
X115650012Y-109687089D01*
X115646789Y-109690715D01*
X115644143Y-109694675D01*
X115642017Y-109698985D01*
X115640354Y-109703660D01*
X115639097Y-109708717D01*
X115638189Y-109714173D01*
X115637574Y-109720044D01*
X115637195Y-109726345D01*
X115636994Y-109733094D01*
X115636902Y-109747999D01*
X115375172Y-109747999D01*
X115373697Y-108945076D01*
X115651013Y-108945076D01*
X115722980Y-109070665D01*
X115753693Y-109123979D01*
X115782423Y-109174382D01*
X115821757Y-109244232D01*
X115862283Y-109314217D01*
X115879403Y-109343658D01*
X115894606Y-109369666D01*
X115908022Y-109392442D01*
X115919785Y-109412184D01*
X115930027Y-109429095D01*
X115938880Y-109443375D01*
X115946475Y-109455224D01*
X115949843Y-109460299D01*
X115952947Y-109464842D01*
X115955802Y-109468877D01*
X115958426Y-109472430D01*
X115960835Y-109475526D01*
X115963045Y-109478190D01*
X115965073Y-109480446D01*
X115966936Y-109482320D01*
X115968651Y-109483837D01*
X115970233Y-109485022D01*
X115971699Y-109485900D01*
X115973066Y-109486496D01*
X115974350Y-109486835D01*
X115975569Y-109486943D01*
X115977279Y-109486821D01*
X115978969Y-109486463D01*
X115980641Y-109485879D01*
X115982296Y-109485079D01*
X115983933Y-109484074D01*
X115985553Y-109482875D01*
X115988748Y-109479934D01*
X115991885Y-109476340D01*
X115994971Y-109472177D01*
X115998010Y-109467529D01*
X116001008Y-109462479D01*
X116024202Y-109417667D01*
X116028313Y-109410342D01*
X116029640Y-109407994D01*
X116030888Y-109405862D01*
X116032365Y-109403451D01*
X116034378Y-109400265D01*
X116041233Y-109389583D01*
X116063730Y-109355257D01*
X116072141Y-109341630D01*
X116111170Y-109278400D01*
X116181662Y-109159766D01*
X116273313Y-109000109D01*
X116281488Y-108986009D01*
X116288967Y-108972505D01*
X116292395Y-108966079D01*
X116295588Y-108959926D01*
X116298523Y-108954087D01*
X116301182Y-108948604D01*
X116303544Y-108943518D01*
X116305587Y-108938870D01*
X116307291Y-108934701D01*
X116308635Y-108931053D01*
X116309599Y-108927968D01*
X116310162Y-108925486D01*
X116310286Y-108924485D01*
X116310303Y-108923649D01*
X116310209Y-108922986D01*
X116310002Y-108922499D01*
X116309814Y-108869973D01*
X116540098Y-108869973D01*
X116540189Y-108922499D01*
X116541405Y-108974495D01*
X116543695Y-109020438D01*
X116545228Y-109039415D01*
X116547011Y-109054807D01*
X116549038Y-109065924D01*
X116551302Y-109072076D01*
X116559358Y-109080072D01*
X116577915Y-109089208D01*
X116612842Y-109101023D01*
X116670012Y-109117055D01*
X116679276Y-109119359D01*
X116874556Y-109167922D01*
X117238513Y-109254110D01*
X117451128Y-109304006D01*
X117597464Y-109338953D01*
X117689561Y-109361464D01*
X117739458Y-109374054D01*
X117854705Y-109403136D01*
X118032792Y-109445844D01*
X118206381Y-109486171D01*
X118308135Y-109508110D01*
X118360346Y-109517987D01*
X118360346Y-109449196D01*
X118685431Y-109449196D01*
X118685555Y-109464132D01*
X118686327Y-109478923D01*
X118687747Y-109493392D01*
X118689819Y-109507360D01*
X118692544Y-109520651D01*
X118695924Y-109533085D01*
X118699961Y-109544487D01*
X118704658Y-109554677D01*
X118713517Y-109570348D01*
X118723127Y-109585083D01*
X118733436Y-109598877D01*
X118744395Y-109611727D01*
X118755950Y-109623631D01*
X118768052Y-109634585D01*
X118780649Y-109644586D01*
X118793690Y-109653631D01*
X118807123Y-109661716D01*
X118820898Y-109668840D01*
X118834964Y-109674998D01*
X118849269Y-109680188D01*
X118863762Y-109684406D01*
X118878392Y-109687650D01*
X118893107Y-109689916D01*
X118907857Y-109691201D01*
X118922591Y-109691503D01*
X118937257Y-109690817D01*
X118951804Y-109689141D01*
X118966182Y-109686472D01*
X118980338Y-109682807D01*
X118994221Y-109678142D01*
X119007781Y-109672474D01*
X119020967Y-109665801D01*
X119033727Y-109658120D01*
X119046009Y-109649426D01*
X119057764Y-109639718D01*
X119068939Y-109628991D01*
X119079484Y-109617243D01*
X119089347Y-109604472D01*
X119098478Y-109590672D01*
X119106824Y-109575843D01*
X119110538Y-109567893D01*
X119113747Y-109559667D01*
X119116459Y-109551189D01*
X119118681Y-109542480D01*
X119120422Y-109533564D01*
X119121689Y-109524463D01*
X119122489Y-109515199D01*
X119122832Y-109505794D01*
X119122723Y-109496272D01*
X119122172Y-109486654D01*
X119121186Y-109476964D01*
X119119772Y-109467223D01*
X119117939Y-109457454D01*
X119115694Y-109447680D01*
X119109999Y-109428205D01*
X119102750Y-109408979D01*
X119094008Y-109390180D01*
X119083836Y-109371989D01*
X119078233Y-109363177D01*
X119072296Y-109354585D01*
X119066032Y-109346235D01*
X119059449Y-109338149D01*
X119052555Y-109330350D01*
X119045358Y-109322860D01*
X119037865Y-109315702D01*
X119030085Y-109308898D01*
X119022024Y-109302471D01*
X119013691Y-109296443D01*
X119004278Y-109290489D01*
X118994578Y-109285060D01*
X118984620Y-109280153D01*
X118974430Y-109275761D01*
X118964037Y-109271883D01*
X118953468Y-109268513D01*
X118942751Y-109265647D01*
X118931912Y-109263282D01*
X118920981Y-109261413D01*
X118909985Y-109260035D01*
X118898951Y-109259146D01*
X118887906Y-109258740D01*
X118876879Y-109258814D01*
X118865898Y-109259363D01*
X118854989Y-109260383D01*
X118844181Y-109261871D01*
X118833501Y-109263821D01*
X118822977Y-109266231D01*
X118812636Y-109269095D01*
X118802506Y-109272410D01*
X118792615Y-109276171D01*
X118782991Y-109280375D01*
X118773660Y-109285017D01*
X118764652Y-109290093D01*
X118755992Y-109295599D01*
X118747710Y-109301531D01*
X118739832Y-109307884D01*
X118732386Y-109314655D01*
X118725401Y-109321840D01*
X118718902Y-109329433D01*
X118712920Y-109337432D01*
X118707480Y-109345832D01*
X118702502Y-109355526D01*
X118698156Y-109366497D01*
X118694442Y-109378568D01*
X118691362Y-109391561D01*
X118688919Y-109405298D01*
X118687115Y-109419601D01*
X118685952Y-109434293D01*
X118685431Y-109449196D01*
X118360346Y-109449196D01*
X118360346Y-109179321D01*
X118230524Y-109148276D01*
X118055017Y-109106825D01*
X117817068Y-109049499D01*
X117344347Y-108935199D01*
X117121744Y-108882458D01*
X116854691Y-108818076D01*
X116772830Y-108798525D01*
X116737706Y-108790314D01*
X116706215Y-108783107D01*
X116678181Y-108776877D01*
X116653426Y-108771592D01*
X116631770Y-108767226D01*
X116613038Y-108763749D01*
X116597051Y-108761131D01*
X116583631Y-108759344D01*
X116577828Y-108758754D01*
X116572600Y-108758360D01*
X116567925Y-108758159D01*
X116563781Y-108758148D01*
X116560146Y-108758323D01*
X116556996Y-108758681D01*
X116554311Y-108759217D01*
X116552068Y-108759928D01*
X116550244Y-108760812D01*
X116548818Y-108761863D01*
X116547766Y-108763078D01*
X116547068Y-108764454D01*
X116545116Y-108772591D01*
X116543488Y-108785428D01*
X116541181Y-108822442D01*
X116540098Y-108869973D01*
X116309814Y-108869973D01*
X116304357Y-107346287D01*
X116300493Y-105912598D01*
X116540013Y-105912598D01*
X116540140Y-105977634D01*
X116540590Y-106003901D01*
X116541556Y-106026479D01*
X116542294Y-106036497D01*
X116543234Y-106045725D01*
X116544400Y-106054211D01*
X116545817Y-106061997D01*
X116547509Y-106069129D01*
X116549500Y-106075652D01*
X116551814Y-106081609D01*
X116554477Y-106087047D01*
X116557511Y-106092009D01*
X116560942Y-106096541D01*
X116564793Y-106100686D01*
X116569089Y-106104490D01*
X116573855Y-106107998D01*
X116579114Y-106111253D01*
X116584891Y-106114302D01*
X116591210Y-106117187D01*
X116598095Y-106119955D01*
X116605571Y-106122650D01*
X116622392Y-106128000D01*
X116664191Y-106139787D01*
X116815356Y-106182650D01*
X117026846Y-106241387D01*
X117337225Y-106329824D01*
X117647206Y-106420775D01*
X117952160Y-106513048D01*
X118247457Y-106605454D01*
X118409735Y-106656254D01*
X118325069Y-106673187D01*
X117458823Y-106841991D01*
X117125117Y-106905161D01*
X116932302Y-106939887D01*
X116878680Y-106948354D01*
X116878680Y-107236221D01*
X117052246Y-107347698D01*
X117431703Y-107597421D01*
X117866457Y-107887096D01*
X118228187Y-108130733D01*
X118341567Y-108208416D01*
X118388569Y-108242343D01*
X118379101Y-108244145D01*
X118343581Y-108240888D01*
X118205675Y-108221176D01*
X117741398Y-108142860D01*
X117176314Y-108039143D01*
X116691002Y-107941776D01*
X116668405Y-107937289D01*
X116646486Y-107933398D01*
X116625790Y-107930168D01*
X116606864Y-107927665D01*
X116590253Y-107925956D01*
X116582987Y-107925420D01*
X116576503Y-107925107D01*
X116570872Y-107925026D01*
X116566160Y-107925185D01*
X116562436Y-107925591D01*
X116559769Y-107926254D01*
X116556757Y-107927660D01*
X116554061Y-107929829D01*
X116551667Y-107932861D01*
X116549560Y-107936859D01*
X116547726Y-107941924D01*
X116546151Y-107948157D01*
X116544819Y-107955658D01*
X116543717Y-107964530D01*
X116542143Y-107986791D01*
X116541314Y-108015749D01*
X116541113Y-108052215D01*
X116541424Y-108096999D01*
X116541678Y-108129622D01*
X116542394Y-108160344D01*
X116543508Y-108188453D01*
X116544952Y-108213239D01*
X116546661Y-108233989D01*
X116547593Y-108242629D01*
X116548568Y-108249994D01*
X116549575Y-108255994D01*
X116550607Y-108260541D01*
X116551656Y-108263546D01*
X116552184Y-108264443D01*
X116552713Y-108264921D01*
X116563781Y-108268591D01*
X116568056Y-108270008D01*
X116601903Y-108278370D01*
X116709170Y-108301610D01*
X116842630Y-108328024D01*
X116970402Y-108350998D01*
X117330235Y-108414499D01*
X117721753Y-108480777D01*
X118106523Y-108539382D01*
X118500024Y-108592695D01*
X118917735Y-108643098D01*
X118927750Y-108644095D01*
X118936670Y-108644328D01*
X118944555Y-108643626D01*
X118951470Y-108641820D01*
X118954582Y-108640450D01*
X118957474Y-108638740D01*
X118960155Y-108636670D01*
X118962632Y-108634218D01*
X118964912Y-108631363D01*
X118967004Y-108628084D01*
X118970652Y-108620168D01*
X118973639Y-108610301D01*
X118976026Y-108598312D01*
X118977876Y-108584034D01*
X118979251Y-108567295D01*
X118980212Y-108547928D01*
X118980822Y-108525761D01*
X118981235Y-108472354D01*
X118981235Y-108319954D01*
X118879635Y-108242343D01*
X118797835Y-108181864D01*
X118693016Y-108106700D01*
X118556976Y-108011163D01*
X118381513Y-107889565D01*
X118163496Y-107741928D01*
X117797313Y-107495865D01*
X117324591Y-107179776D01*
X117437480Y-107162843D01*
X117594808Y-107137953D01*
X117770061Y-107107391D01*
X118152913Y-107033550D01*
X118543173Y-106949919D01*
X118727687Y-106907120D01*
X118897980Y-106865098D01*
X118908646Y-106862334D01*
X118919279Y-106859388D01*
X118929581Y-106856342D01*
X118939255Y-106853280D01*
X118948002Y-106850285D01*
X118955527Y-106847437D01*
X118958737Y-106846096D01*
X118961529Y-106844822D01*
X118963867Y-106843627D01*
X118965713Y-106842521D01*
X118967635Y-106840464D01*
X118969434Y-106836748D01*
X118972658Y-106824782D01*
X118975387Y-106807509D01*
X118977619Y-106785812D01*
X118980596Y-106732685D01*
X118981588Y-106672482D01*
X118980596Y-106612278D01*
X118977619Y-106559152D01*
X118975387Y-106537455D01*
X118972658Y-106520181D01*
X118969434Y-106508216D01*
X118967635Y-106504500D01*
X118965713Y-106502443D01*
X118930898Y-106488544D01*
X118851766Y-106460573D01*
X118598119Y-106374914D01*
X118279913Y-106270469D01*
X117972291Y-106172243D01*
X117867163Y-106138376D01*
X117732402Y-106096043D01*
X117608004Y-106057877D01*
X117450532Y-106010847D01*
X117073413Y-105901309D01*
X116930384Y-105861071D01*
X116829820Y-105832341D01*
X116682535Y-105789832D01*
X116671963Y-105786741D01*
X116661459Y-105783826D01*
X116651092Y-105781097D01*
X116640929Y-105778565D01*
X116631040Y-105776239D01*
X116621491Y-105774130D01*
X116612351Y-105772249D01*
X116603689Y-105770605D01*
X116595573Y-105769210D01*
X116588071Y-105768072D01*
X116581250Y-105767204D01*
X116575180Y-105766614D01*
X116569929Y-105766314D01*
X116565565Y-105766314D01*
X116562155Y-105766624D01*
X116560830Y-105766898D01*
X116559769Y-105767254D01*
X116556989Y-105768669D01*
X116554463Y-105770837D01*
X116552181Y-105773815D01*
X116550133Y-105777661D01*
X116548308Y-105782433D01*
X116546696Y-105788189D01*
X116545287Y-105794987D01*
X116544070Y-105802884D01*
X116543035Y-105811940D01*
X116542171Y-105822210D01*
X116540917Y-105846629D01*
X116540225Y-105876604D01*
X116540013Y-105912598D01*
X116300493Y-105912598D01*
X116300124Y-105775721D01*
X116264846Y-105767254D01*
X116237603Y-105758944D01*
X116226749Y-105758408D01*
X116217552Y-105763748D01*
X116209868Y-105777563D01*
X116203554Y-105802452D01*
X116194467Y-105895841D01*
X116189151Y-106064703D01*
X116186463Y-106329824D01*
X116184413Y-107231987D01*
X116180180Y-108689665D01*
X116113858Y-108576776D01*
X116046124Y-108463887D01*
X116046124Y-107119099D01*
X116046204Y-106639199D01*
X116046096Y-106448094D01*
X116045705Y-106286366D01*
X116044892Y-106151626D01*
X116044284Y-106093629D01*
X116043519Y-106041484D01*
X116042580Y-105994890D01*
X116041448Y-105953550D01*
X116040107Y-105917164D01*
X116038539Y-105885434D01*
X116036728Y-105858062D01*
X116034655Y-105834749D01*
X116032304Y-105815195D01*
X116029656Y-105799103D01*
X116028216Y-105792262D01*
X116026696Y-105786174D01*
X116025093Y-105780801D01*
X116023405Y-105776108D01*
X116021631Y-105772056D01*
X116019767Y-105768607D01*
X116017812Y-105765726D01*
X116015763Y-105763373D01*
X116013619Y-105761513D01*
X116011377Y-105760107D01*
X116009035Y-105759119D01*
X116006591Y-105758510D01*
X116004043Y-105758244D01*
X116001388Y-105758284D01*
X115995751Y-105759129D01*
X115968513Y-105767254D01*
X115933235Y-105775721D01*
X115933235Y-108417321D01*
X115866913Y-108535854D01*
X115852871Y-108559584D01*
X115839506Y-108581759D01*
X115827101Y-108601884D01*
X115815936Y-108619462D01*
X115810907Y-108627142D01*
X115806293Y-108633998D01*
X115802129Y-108639970D01*
X115798452Y-108644995D01*
X115795295Y-108649011D01*
X115792694Y-108651957D01*
X115791614Y-108653008D01*
X115790685Y-108653769D01*
X115789913Y-108654232D01*
X115789302Y-108654387D01*
X115784319Y-108540573D01*
X115780130Y-108230701D01*
X115775191Y-107212232D01*
X115773686Y-106752345D01*
X115772940Y-106564417D01*
X115772148Y-106402011D01*
X115771274Y-106263261D01*
X115770279Y-106146300D01*
X115769128Y-106049261D01*
X115768482Y-106007629D01*
X115767782Y-105970278D01*
X115767025Y-105936974D01*
X115766205Y-105907483D01*
X115765318Y-105881574D01*
X115764359Y-105859012D01*
X115763324Y-105839564D01*
X115762208Y-105822997D01*
X115761005Y-105809077D01*
X115759713Y-105797571D01*
X115758325Y-105788246D01*
X115756837Y-105780868D01*
X115756055Y-105777836D01*
X115755245Y-105775204D01*
X115754409Y-105772942D01*
X115753544Y-105771021D01*
X115752652Y-105769412D01*
X115751730Y-105768086D01*
X115750778Y-105767013D01*
X115749797Y-105766165D01*
X115748785Y-105765512D01*
X115747741Y-105765025D01*
X115745557Y-105764432D01*
X115742768Y-105763952D01*
X115739709Y-105763569D01*
X115736411Y-105763281D01*
X115732901Y-105763087D01*
X115725366Y-105762968D01*
X115717335Y-105763197D01*
X115709039Y-105763756D01*
X115700710Y-105764630D01*
X115692580Y-105765801D01*
X115684880Y-105767254D01*
X115651013Y-105775721D01*
X115651013Y-108945076D01*
X115373697Y-108945076D01*
X115371613Y-107810543D01*
X115368791Y-105507609D01*
X116004043Y-105507609D01*
X116243680Y-105507609D01*
X116266257Y-105472332D01*
X116271844Y-105464626D01*
X116277615Y-105457917D01*
X116283754Y-105452209D01*
X116290445Y-105447505D01*
X116297871Y-105443810D01*
X116306218Y-105441127D01*
X116315668Y-105439462D01*
X116326406Y-105438818D01*
X116338616Y-105439199D01*
G37*
G36*
X116111808Y-110996881D02*
G01*
X116116754Y-110997025D01*
X116121613Y-110997260D01*
X116126359Y-110997582D01*
X116130964Y-110997986D01*
X116135402Y-110998469D01*
X116139645Y-110999026D01*
X116143667Y-110999654D01*
X116147441Y-111000348D01*
X116150940Y-111001104D01*
X116154138Y-111001918D01*
X116157006Y-111002785D01*
X116159520Y-111003702D01*
X116161650Y-111004665D01*
X116163372Y-111005668D01*
X116164071Y-111006185D01*
X116164657Y-111006710D01*
X116165434Y-111009036D01*
X116166173Y-111013809D01*
X116167524Y-111030169D01*
X116169596Y-111086438D01*
X116170611Y-111167047D01*
X116170302Y-111263532D01*
X116166068Y-111511887D01*
X116067291Y-111511887D01*
X116063057Y-111255065D01*
X116060235Y-110996832D01*
X116106802Y-110996832D01*
X116111808Y-110996881D01*
G37*
D11*
%TO.C,R36*%
X108559600Y-111349400D03*
X107539600Y-111349400D03*
%TD*%
D12*
%TO.C,J14*%
X148386800Y-72034400D03*
D13*
X148386800Y-69494400D03*
X148386800Y-66954400D03*
X148386800Y-64414400D03*
X148386800Y-61874400D03*
%TD*%
D14*
%TO.C,C17*%
X215760600Y-69900800D03*
X214210600Y-69900800D03*
%TD*%
D15*
%TO.C,R15*%
X222350856Y-88950056D03*
X221742744Y-88341944D03*
%TD*%
D16*
%TO.C,C11*%
X154325200Y-63957200D03*
X153365200Y-63957200D03*
%TD*%
D17*
%TO.C,R13*%
X156083000Y-69596000D03*
X156083000Y-71246000D03*
%TD*%
D18*
%TO.C,J6*%
X175209200Y-44704000D03*
D13*
X172669200Y-44704000D03*
X170129200Y-44704000D03*
X167589200Y-44704000D03*
X165049200Y-44704000D03*
X162509200Y-44704000D03*
%TD*%
D19*
%TO.C,C25*%
X221148589Y-91710189D03*
X221827411Y-92389011D03*
%TD*%
D20*
%TO.C,D5*%
X226978000Y-53086000D03*
X226978000Y-53586000D03*
D21*
X226978000Y-54086000D03*
D20*
X226978000Y-54586000D03*
X226978000Y-55086000D03*
X227838000Y-55086000D03*
X227838000Y-54586000D03*
D21*
X227838000Y-54086000D03*
D20*
X227838000Y-53586000D03*
X227838000Y-53086000D03*
%TD*%
D22*
%TO.C,C31*%
X218135200Y-83058000D03*
X218814022Y-82379178D03*
%TD*%
%TO.C,C26*%
X216966800Y-81483200D03*
X217645622Y-80804378D03*
%TD*%
D23*
%TO.C,D10*%
X110943600Y-48888400D03*
X110943600Y-48388400D03*
D24*
X110943600Y-47888400D03*
D23*
X110943600Y-47388400D03*
X110943600Y-46888400D03*
X110083600Y-46888400D03*
X110083600Y-47388400D03*
D24*
X110083600Y-47888400D03*
D23*
X110083600Y-48388400D03*
X110083600Y-48888400D03*
%TD*%
D25*
%TO.C,D8*%
X117629700Y-135940800D03*
X115754700Y-135940800D03*
%TD*%
D26*
%TO.C,C1*%
X102004000Y-83568000D03*
X102964000Y-83568000D03*
%TD*%
%TO.C,C16*%
X164264400Y-60502800D03*
X165224400Y-60502800D03*
%TD*%
D27*
%TO.C,SW1*%
X105725600Y-143153000D03*
X99125600Y-143153000D03*
X105725600Y-139453000D03*
X99125600Y-139453000D03*
%TD*%
D28*
%TO.C,R10*%
X160832800Y-79504600D03*
X160832800Y-80464600D03*
%TD*%
D29*
%TO.C,VGA1*%
X230480800Y-48073800D03*
X230480800Y-50343800D03*
X230480800Y-52633800D03*
X230480800Y-54923800D03*
X230480800Y-57213800D03*
X232460800Y-46913800D03*
X232460800Y-49193800D03*
X232460800Y-51493800D03*
X232460800Y-53773800D03*
X232460800Y-56073800D03*
X234440800Y-48073800D03*
X234440800Y-50343800D03*
X234440800Y-52633800D03*
X234440800Y-54923800D03*
X234440800Y-57213800D03*
D30*
X232460800Y-39893800D03*
X232460800Y-64873800D03*
%TD*%
D31*
%TO.C,U1*%
X162306000Y-78403000D03*
X163576000Y-78403000D03*
X164846000Y-78403000D03*
X166116000Y-78403000D03*
X166116000Y-71203000D03*
X164846000Y-71203000D03*
X163576000Y-71203000D03*
X162306000Y-71203000D03*
%TD*%
D32*
%TO.C,U2*%
X162852800Y-64128400D03*
X162852800Y-63728400D03*
X162852800Y-63328400D03*
X162852800Y-62928400D03*
X162852800Y-62528400D03*
X162852800Y-62128400D03*
X162852800Y-61728400D03*
X162852800Y-61328400D03*
X162852800Y-60928400D03*
X162852800Y-60528400D03*
X162852800Y-60128400D03*
X162852800Y-59728400D03*
X162852800Y-59328400D03*
X162852800Y-58928400D03*
D33*
X161902800Y-57978400D03*
X161502800Y-57978400D03*
X161102800Y-57978400D03*
X160702800Y-57978400D03*
X160302800Y-57978400D03*
X159902800Y-57978400D03*
X159502800Y-57978400D03*
X159102800Y-57978400D03*
X158702800Y-57978400D03*
X158302800Y-57978400D03*
X157902800Y-57978400D03*
X157502800Y-57978400D03*
X157102800Y-57978400D03*
X156702800Y-57978400D03*
D34*
X155752800Y-58928400D03*
X155752800Y-59328400D03*
X155752800Y-59728400D03*
X155752800Y-60128400D03*
X155752800Y-60528400D03*
X155752800Y-60928400D03*
X155752800Y-61328400D03*
X155752800Y-61728400D03*
X155752800Y-62128400D03*
X155752800Y-62528400D03*
X155752800Y-62928400D03*
X155752800Y-63328400D03*
X155752800Y-63728400D03*
X155752800Y-64128400D03*
D35*
X156702800Y-65078400D03*
X157102800Y-65078400D03*
X157502800Y-65078400D03*
X157902800Y-65078400D03*
X158302800Y-65078400D03*
X158702800Y-65078400D03*
X159102800Y-65078400D03*
X159502800Y-65078400D03*
X159902800Y-65078400D03*
X160302800Y-65078400D03*
X160702800Y-65078400D03*
X161102800Y-65078400D03*
X161502800Y-65078400D03*
X161902800Y-65078400D03*
D36*
X159302800Y-61528400D03*
%TD*%
D37*
%TO.C,J12*%
X172593000Y-51206400D03*
D13*
X172593000Y-53746400D03*
X172593000Y-56286400D03*
%TD*%
D16*
%TO.C,C13*%
X156029600Y-55143400D03*
X155069600Y-55143400D03*
%TD*%
D38*
%TO.C,J4*%
X136309100Y-58694400D03*
D39*
X138849100Y-58694400D03*
X136309100Y-61234400D03*
X138849100Y-61234400D03*
X136309100Y-63774400D03*
X138849100Y-63774400D03*
X136309100Y-66314400D03*
X138849100Y-66314400D03*
X136309100Y-68854400D03*
X138849100Y-68854400D03*
X136309100Y-71394400D03*
X138849100Y-71394400D03*
X136309100Y-73934400D03*
X138849100Y-73934400D03*
X136309100Y-76474400D03*
X138849100Y-76474400D03*
X136309100Y-79014400D03*
X138849100Y-79014400D03*
X136309100Y-81554400D03*
X138849100Y-81554400D03*
X136309100Y-84094400D03*
X138849100Y-84094400D03*
X136309100Y-86634400D03*
X138849100Y-86634400D03*
X136309100Y-89174400D03*
X138849100Y-89174400D03*
X136309100Y-91714400D03*
X138849100Y-91714400D03*
X136309100Y-94254400D03*
X138849100Y-94254400D03*
X136309100Y-96794400D03*
X138849100Y-96794400D03*
X136309100Y-99334400D03*
X138849100Y-99334400D03*
X136309100Y-101874400D03*
X138849100Y-101874400D03*
X136309100Y-104414400D03*
X138849100Y-104414400D03*
X136309100Y-106954400D03*
X138849100Y-106954400D03*
X136309100Y-109494400D03*
X138849100Y-109494400D03*
X136309100Y-112034400D03*
X138849100Y-112034400D03*
X136309100Y-114574400D03*
X138849100Y-114574400D03*
X136309100Y-117114400D03*
X138849100Y-117114400D03*
X136309100Y-119654400D03*
X138849100Y-119654400D03*
X136309100Y-122194400D03*
X138849100Y-122194400D03*
X136309100Y-124734400D03*
X138849100Y-124734400D03*
X136309100Y-127274400D03*
X138849100Y-127274400D03*
X136309100Y-129814400D03*
X138849100Y-129814400D03*
X136309100Y-132354400D03*
X138849100Y-132354400D03*
X136309100Y-134894400D03*
X138849100Y-134894400D03*
X136309100Y-137434400D03*
X138849100Y-137434400D03*
%TD*%
D40*
%TO.C,RN5*%
X193161000Y-59749800D03*
D41*
X192361000Y-59749800D03*
X191561000Y-59749800D03*
D40*
X190761000Y-59749800D03*
X190761000Y-61549800D03*
D41*
X191561000Y-61549800D03*
X192361000Y-61549800D03*
D40*
X193161000Y-61549800D03*
%TD*%
D17*
%TO.C,R12*%
X157556200Y-69595000D03*
X157556200Y-71245000D03*
%TD*%
D42*
%TO.C,R48*%
X209283800Y-119532400D03*
X210933800Y-119532400D03*
%TD*%
D26*
%TO.C,C37*%
X211937600Y-130454400D03*
X212897600Y-130454400D03*
%TD*%
D43*
%TO.C,H8*%
X107387000Y-62103000D03*
X108046010Y-60512010D03*
X108046010Y-63693990D03*
X109637000Y-59853000D03*
D44*
X109637000Y-62103000D03*
D43*
X109637000Y-64353000D03*
X111227990Y-60512010D03*
X111227990Y-63693990D03*
X111887000Y-62103000D03*
%TD*%
D11*
%TO.C,R59*%
X108483400Y-131826000D03*
X107463400Y-131826000D03*
%TD*%
D45*
%TO.C,R24*%
X223977200Y-92661200D03*
X223977200Y-91641200D03*
%TD*%
D20*
%TO.C,D9*%
X110236000Y-50951000D03*
X110236000Y-51451000D03*
D21*
X110236000Y-51951000D03*
D20*
X110236000Y-52451000D03*
X110236000Y-52951000D03*
X111096000Y-52951000D03*
X111096000Y-52451000D03*
D21*
X111096000Y-51951000D03*
D20*
X111096000Y-51451000D03*
X111096000Y-50951000D03*
%TD*%
D12*
%TO.C,J11*%
X227457000Y-108966000D03*
D13*
X227457000Y-106426000D03*
X227457000Y-103886000D03*
X227457000Y-101346000D03*
X227457000Y-98806000D03*
X227457000Y-96266000D03*
%TD*%
D46*
%TO.C,H3*%
X99314000Y-98044000D03*
%TD*%
D42*
%TO.C,R29*%
X181699400Y-85750400D03*
X183349400Y-85750400D03*
%TD*%
D16*
%TO.C,C2*%
X161820800Y-55143400D03*
X160860800Y-55143400D03*
%TD*%
D38*
%TO.C,J2*%
X130149600Y-86715600D03*
D39*
X132689600Y-86715600D03*
X130149600Y-89255600D03*
X132689600Y-89255600D03*
X130149600Y-91795600D03*
X132689600Y-91795600D03*
X130149600Y-94335600D03*
X132689600Y-94335600D03*
X130149600Y-96875600D03*
X132689600Y-96875600D03*
X130149600Y-99415600D03*
X132689600Y-99415600D03*
X130149600Y-101955600D03*
X132689600Y-101955600D03*
X130149600Y-104495600D03*
X132689600Y-104495600D03*
X130149600Y-107035600D03*
X132689600Y-107035600D03*
X130149600Y-109575600D03*
X132689600Y-109575600D03*
X130149600Y-112115600D03*
X132689600Y-112115600D03*
X130149600Y-114655600D03*
X132689600Y-114655600D03*
X130149600Y-117195600D03*
X132689600Y-117195600D03*
X130149600Y-119735600D03*
X132689600Y-119735600D03*
X130149600Y-122275600D03*
X132689600Y-122275600D03*
X130149600Y-124815600D03*
X132689600Y-124815600D03*
X130149600Y-127355600D03*
X132689600Y-127355600D03*
X130149600Y-129895600D03*
X132689600Y-129895600D03*
X130149600Y-132435600D03*
X132689600Y-132435600D03*
X130149600Y-134975600D03*
X132689600Y-134975600D03*
%TD*%
D47*
%TO.C,RN11*%
X190649000Y-87109000D03*
D48*
X190649000Y-86309000D03*
X190649000Y-85509000D03*
D47*
X190649000Y-84709000D03*
X188849000Y-84709000D03*
D48*
X188849000Y-85509000D03*
X188849000Y-86309000D03*
D47*
X188849000Y-87109000D03*
%TD*%
D27*
%TO.C,SW3*%
X105685400Y-109033800D03*
X99085400Y-109033800D03*
X105685400Y-105333800D03*
X99085400Y-105333800D03*
%TD*%
D46*
%TO.C,H1*%
X99314000Y-39878000D03*
%TD*%
D49*
%TO.C,U4*%
X214268958Y-95360343D03*
X214622512Y-95006790D03*
X214976065Y-94653236D03*
X215329618Y-94299683D03*
X215683172Y-93946130D03*
X216036725Y-93592576D03*
X216390279Y-93239023D03*
X216743832Y-92885469D03*
X217097385Y-92531916D03*
X217450939Y-92178363D03*
X217804492Y-91824809D03*
X218158046Y-91471256D03*
X218511599Y-91117702D03*
X218865152Y-90764149D03*
X219218706Y-90410596D03*
X219572259Y-90057042D03*
D50*
X219572259Y-87299326D03*
X219218706Y-86945772D03*
X218865152Y-86592219D03*
X218511599Y-86238666D03*
X218158046Y-85885112D03*
X217804492Y-85531559D03*
X217450939Y-85178005D03*
X217097385Y-84824452D03*
X216743832Y-84470899D03*
X216390279Y-84117345D03*
X216036725Y-83763792D03*
X215683172Y-83410238D03*
X215329618Y-83056685D03*
X214976065Y-82703132D03*
X214622512Y-82349578D03*
X214268958Y-81996025D03*
D49*
X211511242Y-81996025D03*
X211157688Y-82349578D03*
X210804135Y-82703132D03*
X210450582Y-83056685D03*
X210097028Y-83410238D03*
X209743475Y-83763792D03*
X209389921Y-84117345D03*
X209036368Y-84470899D03*
X208682815Y-84824452D03*
X208329261Y-85178005D03*
X207975708Y-85531559D03*
X207622154Y-85885112D03*
X207268601Y-86238666D03*
X206915048Y-86592219D03*
X206561494Y-86945772D03*
X206207941Y-87299326D03*
D50*
X206207941Y-90057042D03*
X206561494Y-90410596D03*
X206915048Y-90764149D03*
X207268601Y-91117702D03*
X207622154Y-91471256D03*
X207975708Y-91824809D03*
X208329261Y-92178363D03*
X208682815Y-92531916D03*
X209036368Y-92885469D03*
X209389921Y-93239023D03*
X209743475Y-93592576D03*
X210097028Y-93946130D03*
X210450582Y-94299683D03*
X210804135Y-94653236D03*
X211157688Y-95006790D03*
X211511242Y-95360343D03*
D51*
X212890100Y-88678184D03*
%TD*%
D52*
%TO.C,R42*%
X112520000Y-53975000D03*
X113540000Y-53975000D03*
%TD*%
D53*
%TO.C,R21*%
X226618800Y-87579200D03*
X226618800Y-88599200D03*
%TD*%
D11*
%TO.C,R5*%
X127814800Y-73863200D03*
X126794800Y-73863200D03*
%TD*%
D27*
%TO.C,SW2*%
X105763600Y-131847200D03*
X99163600Y-131847200D03*
X105763600Y-128147200D03*
X99163600Y-128147200D03*
%TD*%
D45*
%TO.C,R38*%
X106248200Y-135307800D03*
X106248200Y-134287800D03*
%TD*%
D53*
%TO.C,R23*%
X224942400Y-91641200D03*
X224942400Y-92661200D03*
%TD*%
D40*
%TO.C,RN4*%
X193161000Y-63443800D03*
D41*
X192361000Y-63443800D03*
X191561000Y-63443800D03*
D40*
X190761000Y-63443800D03*
X190761000Y-65243800D03*
D41*
X191561000Y-65243800D03*
X192361000Y-65243800D03*
D40*
X193161000Y-65243800D03*
%TD*%
D54*
%TO.C,D4*%
X225957000Y-49628000D03*
X226457000Y-49628000D03*
D55*
X226957000Y-49628000D03*
D54*
X227457000Y-49628000D03*
X227957000Y-49628000D03*
X227957000Y-48768000D03*
X227457000Y-48768000D03*
D55*
X226957000Y-48768000D03*
D54*
X226457000Y-48768000D03*
X225957000Y-48768000D03*
%TD*%
D28*
%TO.C,C5*%
X160782000Y-69166800D03*
X160782000Y-70126800D03*
%TD*%
D16*
%TO.C,C44*%
X231966000Y-147675600D03*
X231006000Y-147675600D03*
%TD*%
D56*
%TO.C,L2*%
X219146400Y-73964800D03*
X221086400Y-73964800D03*
%TD*%
D14*
%TO.C,C10*%
X155308600Y-66243200D03*
X153758600Y-66243200D03*
%TD*%
D56*
%TO.C,L1*%
X219177200Y-71577200D03*
X221117200Y-71577200D03*
%TD*%
D53*
%TO.C,R2*%
X126796800Y-100048600D03*
X126796800Y-101068600D03*
%TD*%
D16*
%TO.C,C34*%
X227251200Y-64871600D03*
X226291200Y-64871600D03*
%TD*%
D37*
%TO.C,J9*%
X169595800Y-73253600D03*
D13*
X169595800Y-75793600D03*
%TD*%
D16*
%TO.C,C12*%
X154350600Y-60528200D03*
X153390600Y-60528200D03*
%TD*%
D53*
%TO.C,R1*%
X126796800Y-98016600D03*
X126796800Y-99036600D03*
%TD*%
D18*
%TO.C,JP1*%
X133223000Y-42419000D03*
D13*
X130683000Y-42419000D03*
X128143000Y-42419000D03*
%TD*%
D37*
%TO.C,J8*%
X205994000Y-114376200D03*
D13*
X205994000Y-116916200D03*
X205994000Y-119456200D03*
%TD*%
D43*
%TO.C,H6*%
X222093400Y-40563800D03*
X222752410Y-38972810D03*
X222752410Y-42154790D03*
X224343400Y-38313800D03*
D44*
X224343400Y-40563800D03*
D43*
X224343400Y-42813800D03*
X225934390Y-38972810D03*
X225934390Y-42154790D03*
X226593400Y-40563800D03*
%TD*%
D11*
%TO.C,R31*%
X108523600Y-143081000D03*
X107503600Y-143081000D03*
%TD*%
D19*
%TO.C,C30*%
X215763789Y-96891789D03*
X216442611Y-97570611D03*
%TD*%
D28*
%TO.C,C15*%
X158877000Y-68275200D03*
X158877000Y-69235200D03*
%TD*%
D57*
%TO.C,J3*%
X100906000Y-86520000D03*
X100906000Y-92300000D03*
D58*
X101971000Y-86060000D03*
X101971000Y-86860000D03*
X101971000Y-88160000D03*
X101971000Y-89160000D03*
X101971000Y-89660000D03*
X101971000Y-90660000D03*
X101971000Y-91960000D03*
X101971000Y-92760000D03*
X101971000Y-92460000D03*
X101971000Y-91660000D03*
X101971000Y-91160000D03*
X101971000Y-90160000D03*
X101971000Y-88660000D03*
X101971000Y-87660000D03*
X101971000Y-87160000D03*
X101971000Y-86360000D03*
D59*
X101406000Y-85090000D03*
D60*
X97226000Y-85090000D03*
D59*
X101406000Y-93730000D03*
D60*
X97226000Y-93730000D03*
%TD*%
D52*
%TO.C,R46*%
X128143000Y-44805600D03*
X129163000Y-44805600D03*
%TD*%
D53*
%TO.C,R4*%
X126796800Y-122480800D03*
X126796800Y-123500800D03*
%TD*%
D61*
%TO.C,R16*%
X221284800Y-90170000D03*
X222006048Y-90891248D03*
%TD*%
D40*
%TO.C,RN12*%
X190988800Y-88914400D03*
D41*
X190188800Y-88914400D03*
X189388800Y-88914400D03*
D40*
X188588800Y-88914400D03*
X188588800Y-90714400D03*
D41*
X189388800Y-90714400D03*
X190188800Y-90714400D03*
D40*
X190988800Y-90714400D03*
%TD*%
D28*
%TO.C,C14*%
X159816800Y-68760400D03*
X159816800Y-69720400D03*
%TD*%
D53*
%TO.C,R52*%
X224307400Y-107592400D03*
X224307400Y-108612400D03*
%TD*%
D22*
%TO.C,C28*%
X215712989Y-81263811D03*
X216391811Y-80584989D03*
%TD*%
D42*
%TO.C,R28*%
X191136000Y-67183000D03*
X192786000Y-67183000D03*
%TD*%
D62*
%TO.C,CN2*%
X130808000Y-76962000D03*
D63*
X129288000Y-78432000D03*
X129288000Y-75492000D03*
%TD*%
D37*
%TO.C,J1*%
X121259600Y-44907200D03*
D13*
X123799600Y-44907200D03*
X121259600Y-47447200D03*
X123799600Y-47447200D03*
X121259600Y-49987200D03*
X123799600Y-49987200D03*
X121259600Y-52527200D03*
X123799600Y-52527200D03*
X121259600Y-55067200D03*
X123799600Y-55067200D03*
X121259600Y-57607200D03*
X123799600Y-57607200D03*
X121259600Y-60147200D03*
X123799600Y-60147200D03*
X121259600Y-62687200D03*
X123799600Y-62687200D03*
X121259600Y-65227200D03*
X123799600Y-65227200D03*
X121259600Y-67767200D03*
X123799600Y-67767200D03*
X121259600Y-70307200D03*
X123799600Y-70307200D03*
X121259600Y-72847200D03*
X123799600Y-72847200D03*
X121259600Y-75387200D03*
X123799600Y-75387200D03*
X121259600Y-77927200D03*
X123799600Y-77927200D03*
X121259600Y-80467200D03*
X123799600Y-80467200D03*
X121259600Y-83007200D03*
X123799600Y-83007200D03*
X121259600Y-85547200D03*
X123799600Y-85547200D03*
X121259600Y-88087200D03*
X123799600Y-88087200D03*
X121259600Y-90627200D03*
X123799600Y-90627200D03*
X121259600Y-93167200D03*
X123799600Y-93167200D03*
%TD*%
D16*
%TO.C,C9*%
X155089800Y-65024000D03*
X154129800Y-65024000D03*
%TD*%
D47*
%TO.C,RN1*%
X192871000Y-51295000D03*
D48*
X192871000Y-50495000D03*
X192871000Y-49695000D03*
D47*
X192871000Y-48895000D03*
X191071000Y-48895000D03*
D48*
X191071000Y-49695000D03*
X191071000Y-50495000D03*
D47*
X191071000Y-51295000D03*
%TD*%
D64*
%TO.C,R39*%
X105710000Y-40542000D03*
X105710000Y-38892000D03*
%TD*%
D37*
%TO.C,J7*%
X172516800Y-59969400D03*
D13*
X172516800Y-62509400D03*
X172516800Y-65049400D03*
%TD*%
D65*
%TO.C,R33*%
X121394200Y-130022600D03*
X119744200Y-130022600D03*
%TD*%
D52*
%TO.C,R45*%
X112520000Y-47371000D03*
X113540000Y-47371000D03*
%TD*%
D19*
%TO.C,C23*%
X219624589Y-92878589D03*
X220303411Y-93557411D03*
%TD*%
D62*
%TO.C,CN4*%
X117092000Y-70358000D03*
D63*
X115572000Y-71828000D03*
X115572000Y-68888000D03*
%TD*%
D11*
%TO.C,R26*%
X225935000Y-54356000D03*
X224915000Y-54356000D03*
%TD*%
D16*
%TO.C,C4*%
X160705800Y-71704200D03*
X159745800Y-71704200D03*
%TD*%
D11*
%TO.C,R37*%
X108483200Y-120959000D03*
X107463200Y-120959000D03*
%TD*%
D66*
%TO.C,C41*%
X219176600Y-130505200D03*
X222356600Y-130505200D03*
%TD*%
D42*
%TO.C,R47*%
X213119200Y-132181600D03*
X214769200Y-132181600D03*
%TD*%
%TO.C,R30*%
X189090800Y-102997000D03*
X190740800Y-102997000D03*
%TD*%
D67*
%TO.C,R19*%
X217444376Y-101630424D03*
X218165624Y-100909176D03*
%TD*%
D65*
%TO.C,R25*%
X227596200Y-67665600D03*
X225946200Y-67665600D03*
%TD*%
D26*
%TO.C,C40*%
X215011000Y-125730000D03*
X215971000Y-125730000D03*
%TD*%
D45*
%TO.C,R51*%
X222910400Y-108612400D03*
X222910400Y-107592400D03*
%TD*%
D11*
%TO.C,R27*%
X225935000Y-55372000D03*
X224915000Y-55372000D03*
%TD*%
D65*
%TO.C,R34*%
X121345700Y-135940800D03*
X119695700Y-135940800D03*
%TD*%
D42*
%TO.C,R6*%
X99246000Y-83337400D03*
X100896000Y-83337400D03*
%TD*%
D68*
%TO.C,C22*%
X210870800Y-73342200D03*
X210870800Y-74892200D03*
%TD*%
D69*
%TO.C,J10*%
X224129600Y-58826400D03*
D13*
X226669600Y-58826400D03*
%TD*%
D19*
%TO.C,C32*%
X219014989Y-93640589D03*
X219693811Y-94319411D03*
%TD*%
D70*
%TO.C,C18*%
X217170000Y-73964800D03*
X217170000Y-72414800D03*
%TD*%
D11*
%TO.C,R54*%
X119026400Y-67056000D03*
X118006400Y-67056000D03*
%TD*%
D20*
%TO.C,D3*%
X225577400Y-84461600D03*
X225577400Y-84961600D03*
D21*
X225577400Y-85461600D03*
D20*
X225577400Y-85961600D03*
X225577400Y-86461600D03*
X226437400Y-86461600D03*
X226437400Y-85961600D03*
D21*
X226437400Y-85461600D03*
D20*
X226437400Y-84961600D03*
X226437400Y-84461600D03*
%TD*%
D57*
%TO.C,J13*%
X232781800Y-144598600D03*
X232781800Y-138818600D03*
D71*
X231716800Y-145058600D03*
X231716800Y-144258600D03*
X231716800Y-142958600D03*
X231716800Y-141958600D03*
X231716800Y-141458600D03*
X231716800Y-140458600D03*
X231716800Y-139158600D03*
X231716800Y-138358600D03*
X231716800Y-138658600D03*
X231716800Y-139458600D03*
X231716800Y-139958600D03*
X231716800Y-140958600D03*
X231716800Y-142458600D03*
X231716800Y-143458600D03*
X231716800Y-143958600D03*
X231716800Y-144758600D03*
D59*
X232281800Y-146028600D03*
D60*
X236461800Y-146028600D03*
D59*
X232281800Y-137388600D03*
D60*
X236461800Y-137388600D03*
%TD*%
D14*
%TO.C,C19*%
X220993000Y-69596000D03*
X219443000Y-69596000D03*
%TD*%
%TO.C,C21*%
X216167000Y-78384400D03*
X214617000Y-78384400D03*
%TD*%
D22*
%TO.C,C29*%
X219980189Y-85480211D03*
X220659011Y-84801389D03*
%TD*%
D72*
%TO.C,C36*%
X133438600Y-39878000D03*
X134988600Y-39878000D03*
%TD*%
D73*
%TO.C,HDMI1*%
X228957600Y-78188000D03*
X228957600Y-78688000D03*
X228957600Y-79188000D03*
X228957600Y-79688000D03*
X228957600Y-80188000D03*
X228957600Y-80688000D03*
X228957600Y-81188000D03*
X228957600Y-81688000D03*
X228957600Y-82188000D03*
X228957600Y-82688000D03*
X228957600Y-83188000D03*
X228957600Y-83688000D03*
X228957600Y-84188000D03*
X228957600Y-84688000D03*
X228957600Y-85188000D03*
X228957600Y-85688000D03*
X228957600Y-86188000D03*
X228957600Y-86688000D03*
X228957600Y-87188000D03*
D74*
X229717600Y-89938000D03*
X229717600Y-75438000D03*
D75*
X235677600Y-89938000D03*
X235677600Y-75438000D03*
%TD*%
D38*
%TO.C,J5*%
X197269100Y-58694400D03*
D39*
X199809100Y-58694400D03*
X197269100Y-61234400D03*
X199809100Y-61234400D03*
X197269100Y-63774400D03*
X199809100Y-63774400D03*
X197269100Y-66314400D03*
X199809100Y-66314400D03*
X197269100Y-68854400D03*
X199809100Y-68854400D03*
X197269100Y-71394400D03*
X199809100Y-71394400D03*
X197269100Y-73934400D03*
X199809100Y-73934400D03*
X197269100Y-76474400D03*
X199809100Y-76474400D03*
X197269100Y-79014400D03*
X199809100Y-79014400D03*
X197269100Y-81554400D03*
X199809100Y-81554400D03*
X197269100Y-84094400D03*
X199809100Y-84094400D03*
X197269100Y-86634400D03*
X199809100Y-86634400D03*
X197269100Y-89174400D03*
X199809100Y-89174400D03*
X197269100Y-91714400D03*
X199809100Y-91714400D03*
X197269100Y-94254400D03*
X199809100Y-94254400D03*
X197269100Y-96794400D03*
X199809100Y-96794400D03*
X197269100Y-99334400D03*
X199809100Y-99334400D03*
X197269100Y-101874400D03*
X199809100Y-101874400D03*
X197269100Y-104414400D03*
X199809100Y-104414400D03*
X197269100Y-106954400D03*
X199809100Y-106954400D03*
X197269100Y-109494400D03*
X199809100Y-109494400D03*
X197269100Y-112034400D03*
X199809100Y-112034400D03*
X197269100Y-114574400D03*
X199809100Y-114574400D03*
X197269100Y-117114400D03*
X199809100Y-117114400D03*
X197269100Y-119654400D03*
X199809100Y-119654400D03*
X197269100Y-122194400D03*
X199809100Y-122194400D03*
X197269100Y-124734400D03*
X199809100Y-124734400D03*
X197269100Y-127274400D03*
X199809100Y-127274400D03*
X197269100Y-129814400D03*
X199809100Y-129814400D03*
X197269100Y-132354400D03*
X199809100Y-132354400D03*
X197269100Y-134894400D03*
X199809100Y-134894400D03*
X197269100Y-137434400D03*
X199809100Y-137434400D03*
%TD*%
D45*
%TO.C,R57*%
X106095800Y-146179000D03*
X106095800Y-145159000D03*
%TD*%
D52*
%TO.C,R43*%
X112520000Y-52451000D03*
X113540000Y-52451000D03*
%TD*%
D46*
%TO.C,H2*%
X122555000Y-39878000D03*
%TD*%
D43*
%TO.C,H7*%
X231480800Y-152374600D03*
X232139810Y-150783610D03*
X232139810Y-153965590D03*
X233730800Y-150124600D03*
D44*
X233730800Y-152374600D03*
D43*
X233730800Y-154624600D03*
X235321790Y-150783610D03*
X235321790Y-153965590D03*
X235980800Y-152374600D03*
%TD*%
D65*
%TO.C,R35*%
X235000800Y-147777200D03*
X233350800Y-147777200D03*
%TD*%
D76*
%TO.C,SW5*%
X221831400Y-139369800D03*
X223831400Y-139369800D03*
X225831400Y-139369800D03*
X221831400Y-146129800D03*
X223831400Y-146129800D03*
X225831400Y-146129800D03*
%TD*%
D17*
%TO.C,R22*%
X226517200Y-91389200D03*
X226517200Y-93039200D03*
%TD*%
D77*
%TO.C,U5*%
X226589600Y-120573800D03*
D78*
X226589600Y-118033800D03*
X226589600Y-115493800D03*
D79*
X229209600Y-120573800D03*
X229209600Y-115493800D03*
%TD*%
D80*
%TO.C,TF1*%
X205566400Y-152689200D03*
X213546400Y-152689200D03*
D81*
X212746400Y-142189200D03*
X211646400Y-142189200D03*
X210546400Y-142189200D03*
X209446400Y-142189200D03*
X208346400Y-142189200D03*
X207246400Y-142189200D03*
X206146400Y-142189200D03*
X205046400Y-142189200D03*
X203946400Y-142189200D03*
D82*
X202746400Y-142689200D03*
D83*
X202746400Y-152289200D03*
X218246400Y-152289200D03*
D84*
X217346400Y-142689200D03*
%TD*%
D70*
%TO.C,C43*%
X222275400Y-117462600D03*
X222275400Y-115912600D03*
%TD*%
D11*
%TO.C,R53*%
X132846000Y-76708000D03*
X131826000Y-76708000D03*
%TD*%
D52*
%TO.C,R40*%
X112520000Y-48387000D03*
X113540000Y-48387000D03*
%TD*%
D85*
%TO.C,RN2*%
X190761000Y-54920400D03*
D86*
X191561000Y-54920400D03*
X192361000Y-54920400D03*
D85*
X193161000Y-54920400D03*
X193161000Y-53120400D03*
D86*
X192361000Y-53120400D03*
X191561000Y-53120400D03*
D85*
X190761000Y-53120400D03*
%TD*%
D87*
%TO.C,U3*%
X215529200Y-71760500D03*
X214579200Y-71760500D03*
X213629200Y-71760500D03*
X213629200Y-74035500D03*
X215529200Y-74035500D03*
%TD*%
D19*
%TO.C,C27*%
X220284989Y-92218189D03*
X220963811Y-92897011D03*
%TD*%
D28*
%TO.C,C33*%
X228041200Y-91389200D03*
X228041200Y-92349200D03*
%TD*%
D47*
%TO.C,RN6*%
X183409000Y-69907600D03*
D48*
X183409000Y-69107600D03*
X183409000Y-68307600D03*
D47*
X183409000Y-67507600D03*
X181609000Y-67507600D03*
D48*
X181609000Y-68307600D03*
X181609000Y-69107600D03*
D47*
X181609000Y-69907600D03*
%TD*%
D20*
%TO.C,D1*%
X225579200Y-78400400D03*
X225579200Y-78900400D03*
D21*
X225579200Y-79400400D03*
D20*
X225579200Y-79900400D03*
X225579200Y-80400400D03*
X226439200Y-80400400D03*
X226439200Y-79900400D03*
D21*
X226439200Y-79400400D03*
D20*
X226439200Y-78900400D03*
X226439200Y-78400400D03*
%TD*%
D27*
%TO.C,SW4*%
X105685200Y-121031000D03*
X99085200Y-121031000D03*
X105685200Y-117331000D03*
X99085200Y-117331000D03*
%TD*%
D53*
%TO.C,R11*%
X156387800Y-52476400D03*
X156387800Y-53496400D03*
%TD*%
D65*
%TO.C,R32*%
X121521200Y-123571000D03*
X119871200Y-123571000D03*
%TD*%
D26*
%TO.C,C39*%
X215191400Y-130454400D03*
X216151400Y-130454400D03*
%TD*%
D40*
%TO.C,RN8*%
X183699000Y-75046000D03*
D41*
X182899000Y-75046000D03*
X182099000Y-75046000D03*
D40*
X181299000Y-75046000D03*
X181299000Y-76846000D03*
D41*
X182099000Y-76846000D03*
X182899000Y-76846000D03*
D40*
X183699000Y-76846000D03*
%TD*%
D88*
%TO.C,X1*%
X157911800Y-51673400D03*
X157911800Y-53873400D03*
X159671800Y-53873400D03*
X159671800Y-51673400D03*
%TD*%
D89*
%TO.C,L4*%
X210870800Y-69286400D03*
X210870800Y-71226400D03*
%TD*%
D40*
%TO.C,RN10*%
X183699000Y-78362400D03*
D41*
X182899000Y-78362400D03*
X182099000Y-78362400D03*
D40*
X181299000Y-78362400D03*
X181299000Y-80162400D03*
D41*
X182099000Y-80162400D03*
X182899000Y-80162400D03*
D40*
X183699000Y-80162400D03*
%TD*%
D66*
%TO.C,C42*%
X219158800Y-125806200D03*
X222338800Y-125806200D03*
%TD*%
D42*
%TO.C,R50*%
X212992200Y-124129800D03*
X214642200Y-124129800D03*
%TD*%
D40*
%TO.C,RN9*%
X183756000Y-81915000D03*
D41*
X182956000Y-81915000D03*
X182156000Y-81915000D03*
D40*
X181356000Y-81915000D03*
X181356000Y-83715000D03*
D41*
X182156000Y-83715000D03*
X182956000Y-83715000D03*
D40*
X183756000Y-83715000D03*
%TD*%
D90*
%TO.C,C24*%
X204555411Y-91373011D03*
X203876589Y-90694189D03*
%TD*%
D14*
%TO.C,C20*%
X220891400Y-76098400D03*
X219341400Y-76098400D03*
%TD*%
D67*
%TO.C,R17*%
X216047376Y-100233424D03*
X216768624Y-99512176D03*
%TD*%
D91*
%TO.C,USB1*%
X107721000Y-46847000D03*
X107721000Y-48847000D03*
X107721000Y-50847000D03*
X107721000Y-52847000D03*
X107721000Y-53847000D03*
X107721000Y-51847000D03*
X107721000Y-49847000D03*
X107721000Y-47847000D03*
X107721000Y-45847000D03*
D92*
X106721000Y-56247000D03*
X106721000Y-43447000D03*
%TD*%
D52*
%TO.C,R44*%
X112520000Y-50419000D03*
X113540000Y-50419000D03*
%TD*%
D68*
%TO.C,C8*%
X151180800Y-65366600D03*
X151180800Y-66916600D03*
%TD*%
D16*
%TO.C,C6*%
X156029600Y-56134000D03*
X155069600Y-56134000D03*
%TD*%
D93*
%TO.C,CN1*%
X234649100Y-129692400D03*
X228649100Y-129692400D03*
D94*
X235949100Y-133492400D03*
X234949100Y-125892400D03*
X232249100Y-133492400D03*
X227949100Y-125892400D03*
X226249100Y-133492400D03*
%TD*%
D67*
%TO.C,R20*%
X218104776Y-102316224D03*
X218826024Y-101594976D03*
%TD*%
D25*
%TO.C,D7*%
X117678200Y-130022600D03*
X115803200Y-130022600D03*
%TD*%
D26*
%TO.C,C3*%
X155554800Y-51079400D03*
X156514800Y-51079400D03*
%TD*%
D11*
%TO.C,R9*%
X163376800Y-80492600D03*
X162356800Y-80492600D03*
%TD*%
D20*
%TO.C,D2*%
X225579200Y-81397600D03*
X225579200Y-81897600D03*
D21*
X225579200Y-82397600D03*
D20*
X225579200Y-82897600D03*
X225579200Y-83397600D03*
X226439200Y-83397600D03*
X226439200Y-82897600D03*
D21*
X226439200Y-82397600D03*
D20*
X226439200Y-81897600D03*
X226439200Y-81397600D03*
%TD*%
D26*
%TO.C,C38*%
X211810600Y-125806200D03*
X212770600Y-125806200D03*
%TD*%
D65*
%TO.C,R8*%
X107437000Y-91188000D03*
X105787000Y-91188000D03*
%TD*%
D67*
%TO.C,R18*%
X216758576Y-100944624D03*
X217479824Y-100223376D03*
%TD*%
D40*
%TO.C,RN13*%
X191008000Y-92227400D03*
D41*
X190208000Y-92227400D03*
X189408000Y-92227400D03*
D40*
X188608000Y-92227400D03*
X188608000Y-94027400D03*
D41*
X189408000Y-94027400D03*
X190208000Y-94027400D03*
D40*
X191008000Y-94027400D03*
%TD*%
D67*
%TO.C,R14*%
X214777376Y-99750824D03*
X215498624Y-99029576D03*
%TD*%
D40*
%TO.C,RN14*%
X191071200Y-99237800D03*
D41*
X190271200Y-99237800D03*
X189471200Y-99237800D03*
D40*
X188671200Y-99237800D03*
X188671200Y-101037800D03*
D41*
X189471200Y-101037800D03*
X190271200Y-101037800D03*
D40*
X191071200Y-101037800D03*
%TD*%
D14*
%TO.C,C7*%
X155308600Y-67741800D03*
X153758600Y-67741800D03*
%TD*%
D95*
%TO.C,C35*%
X107950000Y-40767000D03*
X107950000Y-39807000D03*
%TD*%
D45*
%TO.C,R58*%
X106256600Y-124485800D03*
X106256600Y-123465800D03*
%TD*%
D53*
%TO.C,R55*%
X118618000Y-69848000D03*
X118618000Y-70868000D03*
%TD*%
D85*
%TO.C,RN7*%
X181299000Y-73533000D03*
D86*
X182099000Y-73533000D03*
X182899000Y-73533000D03*
D85*
X183699000Y-73533000D03*
X183699000Y-71733000D03*
D86*
X182899000Y-71733000D03*
X182099000Y-71733000D03*
D85*
X181299000Y-71733000D03*
%TD*%
D56*
%TO.C,L3*%
X214417200Y-76200000D03*
X216357200Y-76200000D03*
%TD*%
D43*
%TO.C,H5*%
X99005000Y-151206200D03*
X99664010Y-149615210D03*
X99664010Y-152797190D03*
X101255000Y-148956200D03*
D44*
X101255000Y-151206200D03*
D43*
X101255000Y-153456200D03*
X102845990Y-149615210D03*
X102845990Y-152797190D03*
X103505000Y-151206200D03*
%TD*%
D42*
%TO.C,R49*%
X209334600Y-117271800D03*
X210984600Y-117271800D03*
%TD*%
D52*
%TO.C,R41*%
X112520000Y-51435000D03*
X113540000Y-51435000D03*
%TD*%
D46*
%TO.C,H4*%
X122555000Y-98044000D03*
%TD*%
D53*
%TO.C,R3*%
X126796800Y-120446800D03*
X126796800Y-121466800D03*
%TD*%
D40*
%TO.C,RN3*%
X193161000Y-56433400D03*
D41*
X192361000Y-56433400D03*
X191561000Y-56433400D03*
D40*
X190761000Y-56433400D03*
X190761000Y-58233400D03*
D41*
X191561000Y-58233400D03*
X192361000Y-58233400D03*
D40*
X193161000Y-58233400D03*
%TD*%
D62*
%TO.C,CN3*%
X117094000Y-66040000D03*
D63*
X115574000Y-67510000D03*
X115574000Y-64570000D03*
%TD*%
D42*
%TO.C,R7*%
X105533000Y-88140000D03*
X107183000Y-88140000D03*
%TD*%
D25*
%TO.C,D6*%
X117805200Y-123571000D03*
X115930200Y-123571000D03*
%TD*%
D40*
%TO.C,RN15*%
X191039600Y-95543800D03*
D41*
X190239600Y-95543800D03*
X189439600Y-95543800D03*
D40*
X188639600Y-95543800D03*
X188639600Y-97343800D03*
D41*
X189439600Y-97343800D03*
X190239600Y-97343800D03*
D40*
X191039600Y-97343800D03*
%TD*%
M02*
